<mxfile host="app.diagrams.net" modified="2024-05-05T14:40:55.301Z" agent="Mozilla/5.0 (Windows NT 10.0; Win64; x64) AppleWebKit/537.36 (KHTML, like Gecko) Chrome/124.0.0.0 Safari/537.36 Edg/124.0.0.0" etag="DiyJXmJng9FuE1ITBrqc" version="24.3.1" type="github">
  <diagram name="第 1 页" id="p-RDrel90Dx6QhCSYzpe">
    <mxGraphModel dx="2112" dy="754" grid="1" gridSize="10" guides="1" tooltips="1" connect="1" arrows="1" fold="1" page="1" pageScale="1" pageWidth="827" pageHeight="1169" math="0" shadow="0">
      <root>
        <mxCell id="0" />
        <mxCell id="1" parent="0" />
        <mxCell id="RQWH_JiwJ_7XKymC5kcm-1" value="搜索模块" style="shape=umlFrame;whiteSpace=wrap;html=1;pointerEvents=0;" vertex="1" parent="1">
          <mxGeometry x="-70" y="120" width="460" height="320" as="geometry" />
        </mxCell>
        <mxCell id="RQWH_JiwJ_7XKymC5kcm-8" value="" style="edgeStyle=orthogonalEdgeStyle;rounded=0;orthogonalLoop=1;jettySize=auto;html=1;" edge="1" parent="1" source="RQWH_JiwJ_7XKymC5kcm-2" target="RQWH_JiwJ_7XKymC5kcm-6">
          <mxGeometry relative="1" as="geometry" />
        </mxCell>
        <mxCell id="RQWH_JiwJ_7XKymC5kcm-2" value="普通用户" style="shape=umlActor;verticalLabelPosition=bottom;verticalAlign=top;html=1;" vertex="1" parent="1">
          <mxGeometry x="-10" y="200" width="30" height="60" as="geometry" />
        </mxCell>
        <mxCell id="RQWH_JiwJ_7XKymC5kcm-9" value="" style="edgeStyle=orthogonalEdgeStyle;rounded=0;orthogonalLoop=1;jettySize=auto;html=1;" edge="1" parent="1" source="RQWH_JiwJ_7XKymC5kcm-4" target="RQWH_JiwJ_7XKymC5kcm-6">
          <mxGeometry relative="1" as="geometry" />
        </mxCell>
        <mxCell id="RQWH_JiwJ_7XKymC5kcm-4" value="管理员" style="shape=umlActor;verticalLabelPosition=bottom;verticalAlign=top;html=1;" vertex="1" parent="1">
          <mxGeometry x="-10" y="310" width="30" height="60" as="geometry" />
        </mxCell>
        <mxCell id="RQWH_JiwJ_7XKymC5kcm-6" value="全局搜索" style="ellipse;whiteSpace=wrap;html=1;" vertex="1" parent="1">
          <mxGeometry x="100" y="245" width="140" height="70" as="geometry" />
        </mxCell>
        <mxCell id="RQWH_JiwJ_7XKymC5kcm-16" value="管理模块" style="shape=umlFrame;whiteSpace=wrap;html=1;pointerEvents=0;" vertex="1" parent="1">
          <mxGeometry x="-46" y="540" width="506" height="580" as="geometry" />
        </mxCell>
        <mxCell id="RQWH_JiwJ_7XKymC5kcm-19" value="" style="edgeStyle=orthogonalEdgeStyle;rounded=0;orthogonalLoop=1;jettySize=auto;html=1;" edge="1" parent="1" source="RQWH_JiwJ_7XKymC5kcm-20" target="RQWH_JiwJ_7XKymC5kcm-21">
          <mxGeometry relative="1" as="geometry" />
        </mxCell>
        <mxCell id="RQWH_JiwJ_7XKymC5kcm-34" value="" style="edgeStyle=orthogonalEdgeStyle;rounded=0;orthogonalLoop=1;jettySize=auto;html=1;" edge="1" parent="1" source="RQWH_JiwJ_7XKymC5kcm-20" target="RQWH_JiwJ_7XKymC5kcm-26">
          <mxGeometry relative="1" as="geometry" />
        </mxCell>
        <mxCell id="RQWH_JiwJ_7XKymC5kcm-38" style="edgeStyle=orthogonalEdgeStyle;rounded=0;orthogonalLoop=1;jettySize=auto;html=1;entryX=0.03;entryY=0.721;entryDx=0;entryDy=0;entryPerimeter=0;" edge="1" parent="1" source="RQWH_JiwJ_7XKymC5kcm-20" target="RQWH_JiwJ_7XKymC5kcm-31">
          <mxGeometry relative="1" as="geometry" />
        </mxCell>
        <mxCell id="RQWH_JiwJ_7XKymC5kcm-39" style="edgeStyle=orthogonalEdgeStyle;rounded=0;orthogonalLoop=1;jettySize=auto;html=1;entryX=0.5;entryY=1;entryDx=0;entryDy=0;" edge="1" parent="1" source="RQWH_JiwJ_7XKymC5kcm-20" target="RQWH_JiwJ_7XKymC5kcm-23">
          <mxGeometry relative="1" as="geometry" />
        </mxCell>
        <mxCell id="RQWH_JiwJ_7XKymC5kcm-40" style="edgeStyle=orthogonalEdgeStyle;rounded=0;orthogonalLoop=1;jettySize=auto;html=1;entryX=0;entryY=0.5;entryDx=0;entryDy=0;" edge="1" parent="1" source="RQWH_JiwJ_7XKymC5kcm-20" target="RQWH_JiwJ_7XKymC5kcm-27">
          <mxGeometry relative="1" as="geometry" />
        </mxCell>
        <mxCell id="RQWH_JiwJ_7XKymC5kcm-41" style="edgeStyle=orthogonalEdgeStyle;rounded=0;orthogonalLoop=1;jettySize=auto;html=1;entryX=0;entryY=0.5;entryDx=0;entryDy=0;" edge="1" parent="1" source="RQWH_JiwJ_7XKymC5kcm-20" target="RQWH_JiwJ_7XKymC5kcm-32">
          <mxGeometry relative="1" as="geometry" />
        </mxCell>
        <mxCell id="RQWH_JiwJ_7XKymC5kcm-43" style="edgeStyle=orthogonalEdgeStyle;rounded=0;orthogonalLoop=1;jettySize=auto;html=1;entryX=0;entryY=0.5;entryDx=0;entryDy=0;" edge="1" parent="1" source="RQWH_JiwJ_7XKymC5kcm-20" target="RQWH_JiwJ_7XKymC5kcm-25">
          <mxGeometry relative="1" as="geometry" />
        </mxCell>
        <mxCell id="RQWH_JiwJ_7XKymC5kcm-44" style="edgeStyle=orthogonalEdgeStyle;rounded=0;orthogonalLoop=1;jettySize=auto;html=1;" edge="1" parent="1" source="RQWH_JiwJ_7XKymC5kcm-20" target="RQWH_JiwJ_7XKymC5kcm-22">
          <mxGeometry relative="1" as="geometry" />
        </mxCell>
        <mxCell id="RQWH_JiwJ_7XKymC5kcm-45" style="edgeStyle=orthogonalEdgeStyle;rounded=0;orthogonalLoop=1;jettySize=auto;html=1;entryX=0;entryY=0.5;entryDx=0;entryDy=0;" edge="1" parent="1" source="RQWH_JiwJ_7XKymC5kcm-20" target="RQWH_JiwJ_7XKymC5kcm-29">
          <mxGeometry relative="1" as="geometry" />
        </mxCell>
        <mxCell id="RQWH_JiwJ_7XKymC5kcm-46" style="edgeStyle=orthogonalEdgeStyle;rounded=0;orthogonalLoop=1;jettySize=auto;html=1;entryX=0;entryY=0.5;entryDx=0;entryDy=0;" edge="1" parent="1" source="RQWH_JiwJ_7XKymC5kcm-20" target="RQWH_JiwJ_7XKymC5kcm-30">
          <mxGeometry relative="1" as="geometry" />
        </mxCell>
        <mxCell id="RQWH_JiwJ_7XKymC5kcm-47" style="edgeStyle=orthogonalEdgeStyle;rounded=0;orthogonalLoop=1;jettySize=auto;html=1;entryX=0;entryY=0.5;entryDx=0;entryDy=0;" edge="1" parent="1" source="RQWH_JiwJ_7XKymC5kcm-20" target="RQWH_JiwJ_7XKymC5kcm-24">
          <mxGeometry relative="1" as="geometry" />
        </mxCell>
        <mxCell id="RQWH_JiwJ_7XKymC5kcm-20" value="管理员" style="shape=umlActor;verticalLabelPosition=bottom;verticalAlign=top;html=1;" vertex="1" parent="1">
          <mxGeometry y="770" width="30" height="60" as="geometry" />
        </mxCell>
        <mxCell id="RQWH_JiwJ_7XKymC5kcm-21" value="帖子管理" style="ellipse;whiteSpace=wrap;html=1;" vertex="1" parent="1">
          <mxGeometry x="-35" y="585" width="100" height="40" as="geometry" />
        </mxCell>
        <mxCell id="RQWH_JiwJ_7XKymC5kcm-22" value="用户管理" style="ellipse;whiteSpace=wrap;html=1;" vertex="1" parent="1">
          <mxGeometry x="270" y="830" width="100" height="40" as="geometry" />
        </mxCell>
        <mxCell id="RQWH_JiwJ_7XKymC5kcm-23" value="AI管理" style="ellipse;whiteSpace=wrap;html=1;" vertex="1" parent="1">
          <mxGeometry x="90" y="610" width="100" height="40" as="geometry" />
        </mxCell>
        <mxCell id="RQWH_JiwJ_7XKymC5kcm-24" value="评论管理" style="ellipse;whiteSpace=wrap;html=1;" vertex="1" parent="1">
          <mxGeometry x="90" y="950" width="100" height="40" as="geometry" />
        </mxCell>
        <mxCell id="RQWH_JiwJ_7XKymC5kcm-25" value="标签管理" style="ellipse;whiteSpace=wrap;html=1;" vertex="1" parent="1">
          <mxGeometry x="270" y="720" width="100" height="40" as="geometry" />
        </mxCell>
        <mxCell id="RQWH_JiwJ_7XKymC5kcm-26" value="收藏管理" style="ellipse;whiteSpace=wrap;html=1;" vertex="1" parent="1">
          <mxGeometry x="-35" y="980" width="100" height="40" as="geometry" />
        </mxCell>
        <mxCell id="RQWH_JiwJ_7XKymC5kcm-27" value="点赞&lt;span style=&quot;color: rgba(0, 0, 0, 0); font-family: monospace; font-size: 0px; text-align: start; text-wrap: nowrap;&quot;&gt;%3CmxGraphModel%3E%3Croot%3E%3CmxCell%20id%3D%220%22%2F%3E%3CmxCell%20id%3D%221%22%20parent%3D%220%22%2F%3E%3CmxCell%20id%3D%222%22%20value%3D%22%E5%B8%96%E5%AD%90%E7%AE%A1%E7%90%86%22%20style%3D%22ellipse%3BwhiteSpace%3Dwrap%3Bhtml%3D1%3B%22%20vertex%3D%221%22%20parent%3D%221%22%3E%3CmxGeometry%20x%3D%2290%22%20y%3D%22570%22%20width%3D%22100%22%20height%3D%2240%22%20as%3D%22geometry%22%2F%3E%3C%2FmxCell%3E%3C%2Froot%3E%3C%2FmxGraphModel%3E&lt;/span&gt;管理" style="ellipse;whiteSpace=wrap;html=1;" vertex="1" parent="1">
          <mxGeometry x="157" y="680" width="100" height="40" as="geometry" />
        </mxCell>
        <mxCell id="RQWH_JiwJ_7XKymC5kcm-28" value="关注&lt;span style=&quot;color: rgba(0, 0, 0, 0); font-family: monospace; font-size: 0px; text-align: start; text-wrap: nowrap;&quot;&gt;%3CmxGraphModel%3E%3Croot%3E%3CmxCell%20id%3D%220%22%2F%3E%3CmxCell%20id%3D%221%22%20parent%3D%220%22%2F%3E%3CmxCell%20id%3D%222%22%20value%3D%22%E5%B8%96%E5%AD%90%E7%AE%A1%E7%90%86%22%20style%3D%22ellipse%3BwhiteSpace%3Dwrap%3Bhtml%3D1%3B%22%20vertex%3D%221%22%20parent%3D%221%22%3E%3CmxGeometry%20x%3D%2290%22%20y%3D%22570%22%20width%3D%22100%22%20height%3D%2240%22%20as%3D%22geometry%22%2F%3E%3C%2FmxCell%3E%3C%2Froot%3E%3C%2FmxGraphModel%3E&lt;/span&gt;管理" style="ellipse;whiteSpace=wrap;html=1;" vertex="1" parent="1">
          <mxGeometry x="110" y="1010" width="100" height="40" as="geometry" />
        </mxCell>
        <mxCell id="RQWH_JiwJ_7XKymC5kcm-29" value="得分&lt;span style=&quot;color: rgba(0, 0, 0, 0); font-family: monospace; font-size: 0px; text-align: start; text-wrap: nowrap;&quot;&gt;%3CmxGraphModel%3E%3Croot%3E%3CmxCell%20id%3D%220%22%2F%3E%3CmxCell%20id%3D%221%22%20parent%3D%220%22%2F%3E%3CmxCell%20id%3D%222%22%20value%3D%22%E5%B8%96%E5%AD%90%E7%AE%A1%E7%90%86%22%20style%3D%22ellipse%3BwhiteSpace%3Dwrap%3Bhtml%3D1%3B%22%20vertex%3D%221%22%20parent%3D%221%22%3E%3CmxGeometry%20x%3D%2290%22%20y%3D%22570%22%20width%3D%22100%22%20height%3D%2240%22%20as%3D%22geometry%22%2F%3E%3C%2FmxCell%3E%3C%2Froot%3E%3C%2FmxGraphModel%3E&lt;/span&gt;管理" style="ellipse;whiteSpace=wrap;html=1;" vertex="1" parent="1">
          <mxGeometry x="170" y="880" width="100" height="40" as="geometry" />
        </mxCell>
        <mxCell id="RQWH_JiwJ_7XKymC5kcm-30" value="帖子标签管理" style="ellipse;whiteSpace=wrap;html=1;" vertex="1" parent="1">
          <mxGeometry x="250" y="920" width="100" height="40" as="geometry" />
        </mxCell>
        <mxCell id="RQWH_JiwJ_7XKymC5kcm-31" value="待办事项管理" style="ellipse;whiteSpace=wrap;html=1;" vertex="1" parent="1">
          <mxGeometry x="80" y="560" width="100" height="40" as="geometry" />
        </mxCell>
        <mxCell id="RQWH_JiwJ_7XKymC5kcm-32" value="会话管理" style="ellipse;whiteSpace=wrap;html=1;" vertex="1" parent="1">
          <mxGeometry x="180" y="780" width="100" height="40" as="geometry" />
        </mxCell>
        <mxCell id="RQWH_JiwJ_7XKymC5kcm-33" value="聊天记录管理" style="ellipse;whiteSpace=wrap;html=1;" vertex="1" parent="1">
          <mxGeometry x="220" y="625" width="100" height="40" as="geometry" />
        </mxCell>
        <mxCell id="RQWH_JiwJ_7XKymC5kcm-42" style="edgeStyle=orthogonalEdgeStyle;rounded=0;orthogonalLoop=1;jettySize=auto;html=1;entryX=0.01;entryY=0.62;entryDx=0;entryDy=0;entryPerimeter=0;" edge="1" parent="1" source="RQWH_JiwJ_7XKymC5kcm-20" target="RQWH_JiwJ_7XKymC5kcm-33">
          <mxGeometry relative="1" as="geometry" />
        </mxCell>
        <mxCell id="RQWH_JiwJ_7XKymC5kcm-48" style="edgeStyle=orthogonalEdgeStyle;rounded=0;orthogonalLoop=1;jettySize=auto;html=1;entryX=0.006;entryY=0.579;entryDx=0;entryDy=0;entryPerimeter=0;" edge="1" parent="1" source="RQWH_JiwJ_7XKymC5kcm-20" target="RQWH_JiwJ_7XKymC5kcm-28">
          <mxGeometry relative="1" as="geometry" />
        </mxCell>
        <mxCell id="RQWH_JiwJ_7XKymC5kcm-49" value="" style="shape=image;verticalLabelPosition=bottom;labelBackgroundColor=default;verticalAlign=top;aspect=fixed;imageAspect=0;image=data:image/png,iVBORw0KGgoAAAANSUhEUgAABE8AAAT2CAIAAABcBRr9AAAgAElEQVR4nOzde1yTdf8/8DcCNtN0JOrmCZeHmF9Po7wLJNOZJktNIQ9sWRp20JGVID9RtDLwCB2UaaVLb23Dww3c3ebUyCG3CpnGVMh5IIdKbireLDNdOuT3xwUI7MA4Xhxezz98wHV9Ptfn/YGBe/P5XO/LraSkhBywWq1E5OHh4ahBtUwmE4/Hq13fOo7Obnciys3NHTRoECujsz731vx9x9xZGR1zx9wbvzth7ph7o4+OuWPujd+dmv/c29SuM1Tr5s2bbIcAAAAAANCqeTBJj11OTrnIarXW+iJ1HJ3d7kR07969Vjv31vx9x9xZGR1zZ6s7Ye6Ye6OPjrmz1Z0wd8y90Uevl+5Y22ko3t7ebIcAAAAAANCqeVS7E64u+/w8PKq/fsONzm53Pp/ffIOvY/fW/H3H3Nkand3umDtbo7PbHXNna3R2u2PubI3ObnfMna3R694dazsAAAAAANAyIdtpKIWFhWyHAAAAAADQqiHbaSioyQYAAAAAwC5kOwAAAAAA0DIh22konTt3ZjsEAAAAAIBWDdlOQ0EFagAAAAAAdiHbAQAAAACAlgnZTkNBTTYAAAAAAHYh22koqMkGAAAAAMAuZDsAAAAAANAyIdtpKKjJBgAAAADALmQ7DQU12QAAAAAA2IVsBwAAAAAAWiZkOw0FNdkAAAAAANiFbKehoCYbAAAAAAC7kO0AAAAAAEDLhGynoaAmGwAAAAAAu5DtNBTUZAMAAAAAYJeH1Wp1dM7RqZkzZ7p4dYvFwuFwahMXUUlJCRG5ubk1x+7UYHM/fvx4+/btuVxu7brXcXQX3b9/39PTk5XRMXfMvfG7E+aOuTf66Jg75t743Qlzx9wbffSSkpL27dvv2bOndt2ZXMajFj1/+eWXCxcu1G5UAAAAAAAAVwwYMKCOV/Dw8Kgm4bFtwORnCQkJzKclJSVubm4V/7W9iG0bR6lexbMVh3NyNbstXWlTsbHD+TclX3/99fnz519//fU+ffo4afbgwQMiatOmltsU69idiG7fvt2hQwdWRsfcMffG706YO+be6KNj7ph743cnzB1zb9zR8/Pz//nPf5K9ZKRGat/Zz89v1KhRdRkbaurrr78molmzZjn/ypcu29X2lVHH7kRkMpl4PB4ro2PumHvjdyfMHXNv9NExd8y98bsT5o65N+7ohw4dYrKdOkKVAgAAAAAAaJmQ7QAAAAAAQMuEbAcAAAAAAFomZDsAAAAAANAyIdsBAAAAAICWCdkOAAAAAAC0TMh2AAAAAACgZUK2AwAAAAAALROyHQAAAAAAaJmQ7QAAAAAAQMuEbAcAAAAAAFomZDsAAAAAANAyIdsBAAAAAICWCdkOAAAAAAC0TMh2AAAAAACgZUK2AwAAAAAALVPjZTvmPZFjhvsFzFObHTTQrw/xG+4Xsl7faCERkSbKz294pMb2xL5Iv+F+kfuqHpFtNDi6lG5TePj8OE2B/bOmPXHh88OVJ+oYLwAAAAAAuMrDarU6OufoVElJSY3HsWpjoxK0Z/2XrJdy7TfQKNel6PImhu0W1vjiBZq4NRpj9e34kqglkp6VDllu63QnAiy2bS0W3QldpRMWi+6EzmuanbYMg06h2CgWvFV1CEbRWa1ivVY+OpGerj5Q54qLi51818jxN85FdezOXKHWF2E3eMy9jlfA3Bt/dMydre6EuWPujT465s5Wd8Lc2Zh7cXExEZWUlNRxdI9aR1AT5pT54QlniYbxzerwcHXlk10kMUslxrUJCXlEwzz1n4aH2/Tnj40JI2Vsmr2MposkZopeu16hrT4Mh6lIWZh6zT5d6dJTjoGIDMfV6vLsJsdAREUXtOokXemRXv7SQEH1wwIAAAAAABs8PDyqSXhsG7i5udVoDN3akLCNeiKikymKkzanRwvCJuojP9U6bEAk7iUPJq1ivb2MZrRAPoWIiGZvNi5/iTl25uvgMZ9khX1jjB1b2mrvMv6cLdUFWqBJkEZWHEOzUlZlk5tuU7hsU9knc5NZyXbc3d2r/a6RvW9cjdSlu4dH9a+rhhud3e6YO1ujs9sdc2drdHa7Y+5sjc5ud8ydrdHZ7Y65N/7o7u7uROTm5lbX0evS2RWG7TJZlNbMk8Tv2yu3KsLejDVN0+yNFnHKW1h0cRI/bSFXus2gmpIdExSSwo9VqeWiqqEdLFlIRES5CWMGR2rnJpdsCC49k5tARMTx4vXkMQeKHmtHRBwuj1e2kuPFoer5ylVXZKUfp8Xw31BWzJeYI/5LD6a8NbD0CMf+przyqWclZZXf5VN0oYiqLBYREZHAX+rfx4XYAAAAAACghho027Ho1oZIojQmb3H8vr0Rw4iskpcGK2SLxS95aA8uFFGeOnxeTDJvyYXloZm7XlHM5BKJQyb5KaLCZd78zA3BzpOJ2quwY+1MAREZspOYHIQrCpIImVG5HKqcLzFH2j3GL8+pqqNTSWWKyodsF4vkKch2AAAAAAAaRINmOxzR7LCQfRzhp8nyYcxoAumnsZnHY4xkMRNx+4kEVGTaHrdoSvbedaWpjWhhsiJHGN72UYu1htEVZKuTStdNbBdSzlQslVZ1x5omTsrkIOL4HInAYjJbiQaHZWbJON4mU3lH5kgHjqnARERcHo/jQUQmzSexmhtEREYdERk0n4YbOhAR8cfKZGpVQFnvovT48E06SbRKNrjSkZrMEAAAAAAAaqCBd7J5B0hGazXfVC48MFrMv6KKma8iIuogINIpFsss6YKHe806hEgffB+74HvmM9FriWGu1DHbEyfbU+mA7UJKqfIdayZl2PAYDYVtvhLL3PHD5ekV4wZGplc7mDg+52DEICIq0qcrFA/bG7RbSusliHvJlyyU+ped0BcoiUgwXCqdUukIAAAAAAA0kIa+b6dKMuDAWY3yrMOTrlZtdr1KgQeH2Y1mTj+jISLiePXkle1OKyIiGhaWGCX2cjDOmSRZ3MO0SihXG2XW8iH8l2hTwvsTERG30oY3vcGFonEAAAAAAFB/GqcCdflKSM3o144ZGOVyklDjKgVmTVpZMWyLxcLhPGziJRSHSh099yflsKzipxxeaabkxSGidl5dKtzqAwAAAAAA7GmcbIeILOYCs8MHc1bF4fbkVk1P9kX6LdMSEVnNBiJKjfE7HktENDo2+7VaRWTW7N3OfKSN9efH+Csf1kVIj5QNVznqZylwdKZa/nw8ngcAAAAAoLE0dLZTutGLy9NEeoYoqm/PkCeXJAYTCReWVZ0mIotFd6LCPf0mvc5ERETDy3Io16sUEBGRYbtKTcHBU1JSUoUB/qTYGBYiEBxcyCEi6v6cn/8QRzWrjcd1epOrMyljttwmonacRssuAQAAAABavQZ/912+0YuIKHDJwaTwgU5a05nE0DFxR+ydmZJYUpJI5Ph5O65XKSAi0qnVGpqSKOalpBBfvC5GkCeOjJKFD1IJrxE9+XLEugiHO9nmKVJ+cjYHIqL8LPXDZ+0QUZE2h4jIkKVW55QdqpiScUWSIGFDVdwGAAAAAGiVGnetwdOL35Pn9Gk1RV6etb2461UKiMypSuVPFLwhhJ8TTkTkIYpQK4o+5YaP5Xz7KNEVTcJ8g8O1HVeqRutUMqntUpZW8ZbW/hN4RsefqS7bWbVq1fnz59u1a9erVy8XIgAAAAAAaO0aN9sp0muT1E6ThSJ9Uc0vy1SU5nB53qUZim2VAtka40vLy8uk6ZXrFQZvaWwoj8pWWshbGruCiPRujxGd0CrX162EmkimUgc8/DRHJVupISIaLd/8ZkA72/ZcEd/p9XQ6XXR0NBElJCT07du3TrEBAAAAALQOjZvtnFSGSxvgITNlFaWd4Hg/XFOypCbEp5NwYZiUSylVG3oJR8vloyUxSyVMe/N2mddrGvl/ihInlrbQbQpX5vCrWYjp4y/tU/6sHdIcjyHi8nhkSjdYvkkM6+PqzMpFREQQ0eTJk+fOnVvjzgAAAAAArVLjZjuj489oHd4PQ0REJs0nsZobohqVLtNtClfmVDpiOWsgouyk8PAqj/oZHJb4pogzURLCKxLOE9u7GE+yNFFS4XOjyUTkJ6gQkOjNxETHwVjM+qwkjWq3RttTfmZdMBFRvkLxmYG8pQnr+DHTEhJWpMi+Dq7RLTqrVq1KT09v165dQkJCTfoBAAAAALRqjZvt3C8yFpgcPbWT4Tc7xo+ICkwmu3Wo7THoFIqNdo5n7VZkVTk0V5xIIvIIDtsjENkssGii/GJsH4RaaCAixUw/le2Xqn9YslouICKLWXc4OfMsEWljniurwjBXTkREZvWyGA2R//xI6VSOcXRC5KaYmCBx4hRX852Ke9ieeOIJF3sBAAAAAEDjZjtH4sb0inO5dWkdavssBu3GOOWe5CyrLFltNC6udNK2SkEpTmmOIXpaVO3wBdeKera36PLNRGQ4aRAMEzy4eu7x3k9WanQ7Jfy5SNVJg7n0c67gWbFYIpZOlAUM4xKRbm2IfLuZfOUx74qIKGLFkmT/OMVbIQLBwYhh1YZAhD1sAAAAAAC11bjZTvUVqBn261BbCvW6LK02VWMgoi2RY5gaa33ERd68KrmLbZUCV0jWZFfcw0ZWg/KNMXPOCuXRYu1KBfUPUx2Xi6p+wfQCL4OZJ5SMlYiDQoIn+gs6PDxn2C6TRWnNJJSviZUwedazsYo1WeIobWTQS7QnOeLpatausIcNAAAAAKDWmloFaoZtHWpLyluCkE3lD/XkCp4VS4JDZBMlIl+XdrvVmEkb95YsZo/FPzo5doXY0MsomxcuvqCLT0oM8604oFC+q0jubRuDRbc2RBKlMRFXvEaVOPHhvjXRwmSlISBkoyYyKCA7Kj7hAzHPwTcBe9gAAAAAAOqiyd23Q0RExqL7VY5wxM+JKTVLHBQWPFMS4i/ilS6hGLKSNAab/pUe3FlFL39poLMiCJbcFMU6hSJVayjkSZZrVEv9uUSiucl7O8wJWaCcI9yrmBImXxAuC+QxGQ7H2+YOHItO8ZosfLeeiCteod27sMrKEzd4nTbZQxK2XqeOGqNRSyOXxURMEdrmbNjDBgAAAABQF035vp1KuKHKu6EcTtV4dSqpzPYpnozSB3dWMTfZbrZjOatO+DR5b5o2K99MRLynpfG7EiJGP1yIEszcnO0vCX9LrkiNm5MaN8dbIJoSq/1aWiXXsaTHvSSN0ZqISCjdtlc1015m5cELXpcp6C+TzU/Rn1THvGXi2NzGs3r1auxhg2bq7t27f1RmNptv3bp137F79+61adOmbdu2nvZ4eHi0a9euU6dOXC63U2Xu7u5sTxcAAACaLo9r1645Onf//n0i8vSsuqvMarXWcrS63LfjwbG3Y00kU6sC7Bx3rJf9+gQcHsewKSWLyH/KkrAKSzeV9AtO1AbHnFAmrlAoUzmSN6qmOkTEeU4yrndMNk8au0kpd3ZbDkf0bnL2WHXkvHh6N7lKqqPT6RYtWkREH330Ufv27Z18j+xy9I1rnO5EVFRU5ObmxsromHsjdDebzdccuH379q1bt+7du1e7GGqhffv2HTt27NSpU7du3Xg8XjcbjzzySLUXwfcdc68dzJ2V0TF3zL3xuxPmzsbci4qKiMhqtdb0nXCV0d1KSkoctWCyGg+PquspTz755Pnz59PT00eNGuXycBZzgdniweXZSyLstDaZzFZXK1DXhaXQZLaUDmQpNBGXZ7N85IDV8cJYocnUwcWJ2icWi9PT0ydPnpyamlqL7o6+cY3TnYhMJhPPlfuzGmB0zL0eu9+7dy8vL+/ChQt5ZQwGg9FovHPnjisXfOyxx6qswzhaumE8ePDAyeLPnTt3qqwX/f33366E0blz5x49evTv379fBT17Vipggu875l47mDsro2PumHvjdyfMnY25Hzp0aPTo0QMGDDh37lydRq9d55rjcHvW4MvEqfUXtYY43g8H4njXZEwnXznvOgWPPWzAisLCwtOnT+fm5pZnOPn5+Y4ad+rUic/n8/n87t27l//L4/Eq7jRr6D1mzH45s9n8xx9//O9//zMajUaj8erVqxU/uH///s2bN2/evHn69OmKfdu3b1+e+fj6+g4aNGjo0KENGi0AAACwonHv24HqlO9hW7t2LeqwQYMyGAwnT548deoU86/d3KZDhw79KmMSmw4dOtg2bmTt2rVr166d8z+MXL9+3Wg0Xr58uXx56sKFCwaD4a+//jp16tSpU6fKW7q7uw8bNmzo0KFDhw5lPujUqVPDTwIAAAAaFrKdpoWpwzZp0qS3336b7VigpTGbzUePHj169OixY8dOnjz5v//9r0oDgUAwdOhQX1/f8tymR48erIRaX7p27dq1a9cq6zb3798vz3zy8vJyc3NPnTp169atX3755ZdffilvNmDAgKFDhwYGBo4YMeKpp55q9NgBAACgHiDbaULK97DFx8ezHQu0EEaj8ciRI0eOHDl69GjFt/KMIUOGMOsYzL+dO3dmJchG5unpKRQKhUJhxYPnz58vX+Y6efLk77//fv78+fPnz+/evZuIuFzuiBEjmMwnMDCw1jdrAgAAQCNDttNUlO9hS0hI6N+/f+0L30Grd+vWrf3796elpR09elSv11c81bdvX+Yt+7Bhw4YNG1aXCi0tzIABAwYMGDB16lTmU5PJdPLkyRMnTjCJotls3rt37969e4nI09NzxIgRI0eOHD9+vL+/P6tRAwAAQDWQ7TQVFZ8lilQHauHcuXP79+8/cOBAWlpaxeNDhgwpX5fw8fFhK7zmhcfjjR8/fvz48cynx44dO3r0KJP5XL9+/dChQ4cOHVq+fHn37t3Hjx8fFBTk5+fHbsAAAABgF7KdJgF12KDWDh48uH///n379v3666/lB319fcePH//888+PGDGiS5cuLIbXMjzzzDPPPPPMggULiCgnJ+fo0aM//vjj/v37r169+s0333zzzTdE9OKLLwYFBY0fP/7JJ59kO14AAAAohWyHfRX3sKEOG7goKytr586dO3fuNJlM5QfFYjHzhnvQoEEsxtayDR48ePDgwe+88w4RMXnm/v37z58/f+DAgQMHDhDRiBEjpk2bNn369G7durEdLAAAQGuHbId9FfewsR0LNHV5eXlMkpOTk8Mc6dKlC7OZavz48V5eXuyG19qU73Y7ffo0k/kcOnSIKXz33nvvvfzyyzNmzJg+fTqqGgAAALAF2Q7LsIcNXHHv3r2tW7fu3LlTq9UyR9q0aTN9+vTp06e//PLL7MYGRDRkyJAhQ4ZERUX9/vvvTDr6888/f/fdd999991bb701ffr0GTNmjBkzhu0wAQAAWp02bAfQqp08eRJ72MA5g8GwaNGibt26vf3220yq88ILL2zatKmoqEitViPVaWp69OixYMGCY8eOMTtUBQLBn3/+uXnz5hdeeCEgIGDr1q1sBwgAANC6INthE3PTM/awgV2HDx9+9dVXn3jiidWrV5vNZqFQuGLFiry8vLS0tDlz5nTs2JHtAMGZYcOGrVy58uLFiz/88ENYWBgRZWVlzZ49u3fv3nFxcYWFhWwHCAAA0Cog22EN9rCBIzt27Bg9evTIkSNVKhURvfDCC7t37z5z5kx0dHTfvn3Zjg5qZuzYsZs3b7527dry5ct79Ohx5cqVmJiYrl27zp079+TJk2xHBwAA0MIh22EH9rCBXf/5z3+eeeaZ0NDQQ4cOEdHrr7+emZmZlpb2yiuvsB0a1EnXrl2XLl1aUFCgVCr/8Y9/lJSUfPnllyKR6J133rl06RLb0QEAALRYyHbYgT1sUMV///vfCRMmhISE/Pzzz+3bt1+yZMnly5e3bt3q7+/PdmhQn954441jx44dOHAgODiYiL766qt+/frFxMT8+eefbIcGAADQAiHbYQH2sEFFubm5Mpns+eefZ57WsmDBgvz8/NjY2F69erEdGjSUcePGJScnp6WlicViIlq9erWPj8/atWvZjgsAAKClQbbT2LCHDSpavHjx4MGD1Wo1Ec2aNevcuXMJCQne3t5sxwWN4YUXXjh48ODOnTuHDRtWVFQUFRXVv3//PXv2sB0XAABAy4Fsp7FhDxswMjIynnrqqZUrVxLRpEmTfvrppy1btgwYMIDtuKCxTZs2TafTffnll717987Ly5s0aVJ4ePi9e/fYjgsAAKAl8LBarY7OOTpVUlJCRJs2bdq0aVNDxdVyMXvY1qxZU4uvvIvY7c5codYXaSVzj4mJWb16NRF169YtISFBJpPVcVxo7t5+++033nhjwYIFiYmJCoXiwIEDa9eunTBhQrUdm8trviFGx9zZ6k6YO+be6KNj7mx1J/bmXlxcTEQlJSV1HN2jFj3NZjMRMXtvoBbWrl0rEAjYjgJY4OHhodVqFy5cmJ2dTUSvvfYa9q1BOU9Pz/Xr17/44osLFiy4cOHClClT5s2bp1AoiouLmb8xAQAAQE15eHhUk/DYNmD+3507d261j/74888/H3vssdpF9uDBAyJq06b6vXZubm62B5l00N3dvXaj17E7Ed26dcvR8x/lcrkrV6j2W9Nku3t4VP+6arjR2e3ufO5bt26dPXs2YUkHHJswYcK4ceMiIiISExM3bNhw+vRplUrVu3dv572a7Gu+oUdntzvmztbo7HbH3Nkand3umHvjj868D3dzc6vr6LXo4+XlVVhYOG3atFGjRjlvaTKZeDxerQIrW3uq7fTY7U51mzu0SMuXL//www+JaOrUqRs2bMCSDjjStm3b9evXjxs3btasWUeOHHnuuedUKlVgYCDbcQEAADQ/qFLQUAoLC9kOAZqQOXPmMKlORETErl27kOpAtSZOnHj48OFhw4Zdvnz5ueeew+ZhAACAWkC201Bu3rzJdgjQJNy9e3fcuHFKpZKIvvjii/j4eLYjgmZj4MCBhw8fnjRpEhHJZLJVq1axHREAAEAzg2wHoGFNmzYtLS3t0UcfTU1NnT9/PtvhQDPToUOH7777Ljw8nIiio6O/+uortiMCAABoTpDtNJTOnTuzHQKwb/bs2d9//72Hh8f+/fsnT57MdjjQXK1fv37hwoVE9M477yQnJ7MdDgAAQLOBbKeh4MYMWLhw4datW4lo165dzz33HNvhQPO2Zs2aN954g4imTZuWkZHBdjgAAADNA7IdgAaxevVq5hadr7/+esqUKWyHAy2BUqmcNGnSgwcPpk2blpeXx3Y4AAAAzQCynYaCmmytmV6vX7RoERGtWLHizTffbIARzJplcxLSTXbPGTbK/Ib7yTYaanpR05648Pnh4Zt0dQ7vYSwKqZ/f8EhN/V2xxnIVIcP9/CRxjmZl3hM5ZrhfwAKNpVHDqqVdu3YFBARcv349Ojqa7VgAAACagTo9rAecQE221ox5JyqRSBrqLWlabOQnSv3Gu/wLKim36knLbZPuhM5rWo3fvRed1SrWawULg+snSCIii8Wk050IqGMiYTiizrriYluuKEgifPg1MSiWxaScIOk2ucjBtVWbErQnhBErJJwax2XSfBKruVF9O/7YmCUT6+fpW4888sgXX3wxfPjwf/3rX2q1WiqV1stlAQAAWipkOwD1bOvWrd999x0RrVy5skEGKEwJn5+gJ6H8a4VtqlN3gi58l9saFNIQ5QVnLcz5RJQcMzwz1kmj/mHJajm/0GS2mxVxuDq1TLbRxZDE8TkPsx3d2jkxqWbqKabjMeHHq7QUha0LE+yOS9hD1JNv3BMevsfmYoPDEoOMcWs0RjsD8SVRwfp0hSLdhZh6yesr2yGip59+evHixStWrFi0aNHkyZPbtm1bX1cGAABoeZDtNBTUZGud/vzzT2Y956OPPhoyZEgDjGBOWRypOEvCubGxU7hkb92j6EIRERVd0KqTKu/e6uUvDRTUazDtBMKAAGf1OCx6s85QKBD6+zlLoboI2hFplvFD7KY0c5MvSlWqSlUejNoVkcpcgXRF7Et9qrTminqWfmRODZdFac1EVKBVr9faXFcuXpaiXKY0OGxANFec6G/QrlfYOycWvMUsgoVtvhL7EnPsQmKwOC5r9mbj8tIDlBbDf0Npd9J1ERcXl5qaqtfro6Ojv/jiC6vVWu9DAAAAtAzIdhoKarK1TsnJySaTaejQoR9++GEDXN6cMl8ctsnAHRuvWhfMLGA4WvfQbQqXbap8aG5yebZjsbeQYvzzLhHd/dNoKvCyPz6Xx+tQ8XOeZGmixFnA+gSxUpvnJ1uXWO32OIFILn+XiIhM2YrdWfRssHw4n4hosEAQKKqUpZnVe6VE3pKQhdJgB7/DzEdiQt5S6L1F8q+1if6ZkdIwja9Cuy6YV97eakqZF6A4S/5LMzOX85TSlyKvSFSp8RKbH9yDJRFlcxkYmS5PLimfiz6BiIjj1ZNXunBj9mpHRBwvXs+ylRxuzffHuWblypWTJ0/+8ssvP/nkk0cffbSBRgEAAGjukO0A1KfU1FQikslkDXBtc9aykLD1OrOvPFkdISr72RVVXfegovT48E060ZuJkaMrJy29Ht664nAhhSjrkzH8T+yfEq85c3Ch0N4Zh1vanO1k6x+WrJaXpzGiNxMTmY9SwxW7s0gkS1znIEU6nKkhoqAAsYNfYKbdcyTzlLpCoTxFmziFSxQQEjhQ+UmImJIzNwRzb2sTXouMN0r2/jNSevtu5DJ/IgqZKk4ITpBJ+VrNw69tU/byyy8PHDjwzJkzO3bsYCpTAwAAgK3m8L9681RYWMjj1dtOfWgWcnJyfv75ZyIKDQ2t50tbDeq3QuRbdGZfqWpPYrA30W2zhcPleJAgUFpld5q+QElEXv3F0lC7mQkREaeDSPR01YOWAp3eRDxfEb+DTYdCgy7f7Dg+phqBf/C7VXasOdrJZjmxXnnsMYvL1Qt0yvnK8m15lrMaM5HApI2Zn1mpVRdJzFIJj4g3RT7jq1xxxP74IGYBjOu/LD7mJ8lnVrciK3E7+Al7WkypcQu/O29zhD4AACAASURBVHNQXfol4k5JVC7NDshoS9aa/l40ZCepSydSqC8iooJsdVLZzHJqXBnPdaGhoUuXLt25cyeyHQAAAEeQ7TQU1GRrhXbs2EFEEyZM6NmzZ7WNa8asS96iM/sGJyappP2IrLq4SX4x6YGb9YfDfGtzPcmabNsdaCnz3EI2UsiK7ESb5wPp144ZGGXv7pVKbHesOdrJpk/IVR6rQbwG3XqFosqhNKUirfKh0QL5UgmPiDxEY6c/rdwXE76vwtl+IZM9DiYsOEhEZObzSK9dEya74vdw/cvqJx96ThkVznzmciE1TZy0coXtPXEy24IHDYDJdrRa7fnz5wcOHNgYQwIAADQ3yHYA6k16ejo1xMIOEXkHx29LlI2VB/OIiPTrI+PTiTtz1su9/jAV3K3S1tntNxwuz9vRnSQmo4mIuE5+Kwj7OVwsIiKibNX88MopkUV/xf7x0+eInnR6MVuBSw4mhTt4U783ptecitUADDqFotoyboVZ6vVZjk66XEiNhSoFjL59+77wwgs//vhjZmYmsh0AAAC7kO00FNRka4UuXbpERH379m2Iiwtmlt3ikq+IWaE1ewcnLg/450RupIMKyPZvv5mbXLKhbJXFqokcHK4bLl+yLkLMJaIii5mI/AT2yrYZrmQTEVn06sUxifliVYX7bSq20mdZquzcMpvtHz93tebZjqcXv7wewG2TyUwcb15ZFQAvuzmcPKXEdp2qeqnhbsGK6puVYqdKAcPHx4eILl++3KCjAAAANF/IdhoKarK1Nn///ffVq1ep7A1og9EnvBWTUsgN3hAv79NOM1ouH1ST3oMfJinm3SrlWYOZa4kvfTqNwZBDRDy+vV14FquZiIhDxp9SstKN6gXyJZVu++FLFqr4bwr8Q/0rZ0FMHbOQ2ONVdrKZ9fs0OhK5/mSfKvQbZQOjtK4kMxaTyexyfWYuj8ep+ktREzk8hlmYqlxxQRx7PKwmITcI5sXGpNkAAABgy8PJgxqcP8OhuLi42oc8WK3WWj8Ioo5PkGC3O7n29Wmg0Vmfe+v8vv/2229E1K5duwatTqFbGx6bZiaSy+YKiKi6AtBMqTRhWJJK3q/qKVWS2kxc6Tx5aaU2s7mokMjbi+vsiaXC4CmSyHSNUq1Z8nTZyPlZ6ixm5caQlWSovDOsSF9Ele7jrzwbfb7Qv+oDc+qHZLnRuJg43nqFZKCj5S8b4vicgxGDiKYklpQklh20WE7oKjy3yKQ/YSIiooCyGbFWpYAqZDts/cRRa/15L78C5t74o2PubHUnzB1zb9zRi4uLiaikpKSOo2Ntp6HcuHGjW7dubEcBjefatWtE1KCpzsPHZbqKKZXmZaf22Qm1ag9RvzBZaFlyc/aMnohEAue35gimSILna1K2q9TLJNLSJ/6oZFLn+75s7uMvI0+RNlC2w/FmvhNFRFTp1hoH9i7jz9li90xwWerj6Hk7rFUpICI+n09ERqOxkcYDAABobjw8PKpJeBw1cHd3d6VvtW1qN3rT7/7HH3803+Dr2L11ft8FAgE16J6ikwkhbyn0xOV6m82FzCGzfp9G5yz7YZZWivTpanUOERFxRZIgIZfM6nXxWUSS+XJJ2VxNOr2OiOsrtHdDDoNLHkQ9ZSEzw1O2q/fuUUhncomqrIRUYZshlKnZvTF1VOHWGgfs3/fjEtaqFFDZ683Hxwc/76x0x9zZGp3d7pg7W6Oz2x1zb/zR3d3dicjNza2uo9elMwCU8/HxcXNze/DgweXLl3v37l3PV89TvDQ2UlvIFa9RiveFxJRuzTJq1spc2KalU86Xlb7jHh1/JkjI/Sk+cbuZ+snDZj5MbTJztEQkGR5g/xpWKitgwJWMldJ2tXq3KnZmmFeB2ekzc4xF94nIUlRgMlU5Y7YQkcVsMhUQEYfbs0Fv53e0le6hMwW1uKxQrjbKrBWCt61SEBpvHBtL3IZa8SvPdhro+gAAAM0dsp2GgppsrY2bm5uPj09+fv6lS5fqP9vpI+hXSOIV2r0LOYqHz5BhagM46VakXROuPCkKWxcpZqpmcEV8MijWKLKI/F8LCy6/RcesTt5tJpIEPGf3rh29Ie/hJ9yJL0lJrTUa9Lc1ml4hLizQKOf0sr++oXyDryQisrf445TeoCUScGyfgmqfw610dcSpducih8ur72cvVYRsBwAAwDlkOw0FNdlaISbbOXXq1HPPPVfPl/aQvHM4kx8o4pC+wlGuMEgqJLKcUISts0R+EyGq+gOtN24iIi/haKn0Yek2i3hmpPS2MeRdUfkhw3aVupBookTiyl00XKnyz2BOBw6RJeCKMcZZ0zOJoWPijti7bSYthv+GMuwbY+xYIuLYzbEshXpdlla72yhc51f5jE6fQ9XfY/RQ9dmUblO4MocvdFahwcYJZfg2XaUjt/UGItKpwudXeRKrKGxdmIjqn16vJ6L6z64BAABaCmQ7APVmwoQJGRkZSUlJ4eHh9X5xYaC/gzNm7TaFerte10GQuSHYhbfrHOGUJaqKhZsL1THLNURcaajM8U07lS/Rgdm6xeH2dL62UeTlSfZvm+FyiIjD5VVZ+rCYdJnHDUREG0PalT4eVBwfVTnbydVqjxA96xfg6rKJva10lfGDYmKCiMhkKrBbh9qeKzrFensrWz+lKH6qckguXkf1nu0cP378xIkTRDRu3Lj6vjYAAEALgWynoRQWFjZoeS5ogkJDQxcuXJiZmXn69OkhQ4Y01rBcyaeq+LPiyI1hIQLBwYU1fFNt1SVI5epC4o6NiQl1lCsZjVeIiGt3CcawURbyjd7OCSKq+oyaCm5XKSOmV74RnrBPq3+YlHAFwwL8gyWy0RKxry6ywiVT1im0RPRTYuR8QeIaqbD6O34cbqWzp6wOtX0WQ5oibrsm+bBlasp/jFcqr2zZVikoZX/xqo6SkpKIKCQkBCvJAAAAjiDbaSg3b95kOwRobD169Bg3btwPP/yQlJTUiNkOkYco4tMYzehIbVRY5LDM+LEu3/Bv1Smkssg0M3mLY9ZEONwXVsDct8O3++DRdj0HBvh7Oehp0Zt1hkKB0N+v6oNETdm6sxWXW/jtrFq9iXi+EvFEsXisOOQ5UYXCBfzYK8YYDy6PSLc2JGyTgXzFYk62dr1s4O546YL4hA8k5Q3sqb4CNcN+HWqLWX8iU5ueorlCRMrI0nUUgbiwPU/UvlJL2yoFDYnJdmbMmNEIYwEAADRTyHYA6tOUKVN++OGHzZs3R0ZGNmqlikERyV8XRRaExFZKdSyW+467FGbFSCVxaWby9o/YlhwxzFE7c8oKRQoRTRHardfGm7gkcaKjvvoEsVKb5ydbZ3PbzL7ITIOF8zBYrmTZmYsbhAL7hQc43J48spo0UcGytVlmEspXJCdOtGg/i4hco1ZHjdGopTGfJkSMdpTmVV+BmmFbh9qSOkcQrCxPy7h9/MUTQ0KmSSRPCxu0ily1NmzYYDKZunXrFhISwjx/DQAAAGwh22ko9fVO12q13rdRXFzsaU+bNm3qZVCotcmTJ2/evPmXX36Jjo7++uuvG3No7pTYzVaL+TaVVyqznNBojxCRUGCzL8uUHhcmjdGYiLzFS1KTYwPLdlpZU8L7x2Z6E5GXQCTkc4oMaVrNWRMRVzpVVuMFi0Jddg5RIN/O7UBB8dlBlePv56RGgMWUpoiIilWfNJO3SL5BkziFS0TiharsmbIYaVhcujpSrFHNjldtCLO3sa36+3YYRTZlqjmjxWJKzhorCZsSJpkSIOKVXt1wRK25YtO/UF9ERAXZ6iTbetcC/1B/F2+LqpbRaIyOjiaiBQsW1NMlAQAAWiZkOw3F7k76+/fvG43Gq1evGo3GoqKiP8qYzeYqH9+5c+f+/ftWq7WkpMT1Qd3d3T09PT08PDp27MjlcjvZYA526dKle/fufD4f2/0bwsqVK8eNG7dp06YpU6YEBQVV36Ee3U6Re8nUlY9xpwir3MpjSQ0PCFYYiLjDwhS7N0v7VTjnIeD31OmOEBHpTpQXFuP6L1QpHN7VU4lmvtdL60kwTMD1IHO+zlBIXObBq7Vz25C1Wxm/QZlywkREvNFyxdeJwRUD5klitQbZlnBZlFK3Zc7AfSmJ6XvlvlWuUqP7dirjSpV3pRybDEqnlsk2OuiyJ062x/aoPLn+sp3o6Ohbt249++yzUVFRVqu1nq4KAADQAiHbqX9///13Xl7e8ePH79y5U57bMB9cv369jhf38PDw9PR0d3dnFnkePHhQ8WxxcTGzp+X27dtXr16t9mpt27Zl0h7mX+aDXr169e3bt08fV0oRgx1jx46dN2/ehg0boqOjGzvb4YoCpgq1u0tv9ef2Efk9J4v9VF7lTTZnYph8rEbjG7/502BB1d8BguDFKoG50kUFz4n9e7q6bUvQy49IazjJlGbmiWZGKj6V1v4e/byUmKg4bSHxng4OWxAbE2q3JAFHOHtz9nOS8Nlh2sFhsqqpDtXxvh3bVIeIRFKVqmZlxgX1VZPtu+++++c//0lEq1atqqdLAgAAtFjIdurk/v37Fy5cyMvLY/5l5OfnO+nSpk0bJrXo3Lmz3YUXxqOPPspsTmvbtm3FvWpubm4Vr1ZcXFxxh9u9e/eYD27dulVlyaiia9euGY3G//3vf/fu3cvPz7cb8KOPPtq/f/9+lfXs2ZAPSmxBVq5cmZqaeurUqTfffHPTpk31em3miaKO3joL5bvOyKu9hoco4oeLEfbPlT7Dp9aECw+WLKxD/yqGRSRv4yY/9pIskFdNvtUvODFdYqmamwjlaqPMyuH2dOkuG9ka40vLyVGtg4oEgdL6WqipkTNnzrzzzjtE9N577z3//PNshAAAANCcINupmd9///3UqVMnT55k/j1//rzdZh06dOjXr1/v3r3Ll03KF0/4/Kq1qerC3d3d3d2dY/ePz9W5e/duxXWn8g8uXrx48eLFO3funDp16tSpUxW7tG/ffmiZYcOGDR06tHZDt3gdO3b84osvpk2btnnzZm9v75UrV9bfteuajTQ73KCwMBebeth5OXJqUgme492ky8Zfv359+vTpJpPp2WefXb16NdvhAAAANAPIdqpx9uzZiumN0VjlISHUvn172zWQHj16sBJtjbRr165v3759+/a1PXX//v28CpiVK4PB8Ndff2VmZmZmZpa3HDRoUHnmM3z4cC63IR4r0ixNnTp1w4YN8+bNW7Vqlbe3d0SEg6UUANc8ePBg+vTpubm5/fr127Vr1yOPPMJ2RAAAAM0Ash07srOz//vf/x49ejQzM9P27hdfX9/y9/dDhgxpFolNTXl6egqFQqGw0hLC/fv3z507V574nTp16saNG7m5ubm5uSqVimnj5+cXGBj4f//3fxMmTOjevTsbsTchc+fOLSwsXLZsWWRkpLe39+uvv852RNCMTZ8+/dChQ1wud9euXb169WI7HAAAgOYB2U6pI2WOHj1qNle6R3v48OFMbsP826GD/QeCtHienp6DBg0aNGjQq6++yhy5dOlSxYWvixcvZmdnZ2dnM2d9fX1HjBgRGBgYGBjYr18/xxduyZYuXVpYWLhu3bpZs2aZTKb/9//+H9sRQfNz48aNV1999YcffiCiXbt2iUT1Ve8AAACg5WvV2c7vv/++f//+ffv27du3786dO+XH27dvz7xNZ/5t27Yti0E2ZT4+Pj4+PpMmTWI+vXz5MpMuHjly5PTp02fPnj179qxSqSSiJ598MigoKCgoaNy4cayGzIIvvvjiwYMHiYmJixYtunz5skKhYDsiaE5++eWXV1999ezZs+3atVOpVGPHjmU7IgAAgOakNWY7x48fZzKcn376qfxgly5dmPRmxIgRzz77LIvhNV+9e/eWSqVSqZSICgsLmczn6NGjWVlZ586dO3fu3Oeff96hQ4egoKDx48cHBQXVb8GGpmz9+vW9e/eOiorasGHD5cuXv/32206dOrEdFDQDqampr7766p07d5588kmVSvXUU0+xHREAAEAz04qynR9//HH37t379++/fPly+cHhw4czb779/f1ZjK3l8fb2njx58uTJk4no1q1b+/fvZ5bRTCbT7t27d+/eTUQBAQETJ06cPn16XR4+2cQdOnQoPz9/1qxZCxcu7N2796uvvvr999+PHDly3bp1KB8Mzq1atSo6OpqIxo4dq1KpunTpwnZEAAAAzY+Hk+dwO39Ed3FxcbXP8LZarbV+zncdHxBeXFzcpk0bq9V6+vTpXbt27d69++LFi8ypRx55pHx5oXfv3nUZBVzRsWPHadOmTZs2jYiOHj3KpD2//PILU94tOjr6hRdemDZt2tSpUzt06PDgwYMqj0ytkTq+bOr+WPoqr/mPPvro0qVLzJ1O06dP79Gjx2uvvXb69OlRo0YtXrw4Li6ujsNBi6TT6SIiItLT04nojTfeUCqVTn7fNrXXfGOOjrmz1Z0wd8y90UfH3NnqTuzNvbi4mIhKSkrqOHqbWkfQZLVp08bDw+Pq1auff/55YGDgU089tXr16osXL3bo0CEsLGzPnj1//fVXamrq22+/jVSn8Y0YMeKTTz45ceKEwWDYsGHDqFGjiOjHH3986623vL29Z86c+Z///Mfd3d3Dw6PKc1Sbo4yMjIyMjPz8/G3bthGR1Wp99tlnMzMzZTIZEa1YseLpp5/OyMhgO0xoWlavXu3n55eens7hcNavX//VV19ZrdaSkhK24wIAAGieShy7f//+/fv3bY/379+fiNLT0530ZRiNxmrb1HT0au3fv3/KlCkV5zhp0iSVSsW8Y4Cm5ty5c8uXL/+///u/8u9Xt27dFi9efOnSpVpcrdYvm3rpXlL5Nc/kckTUp0+fKs2+/fbbrl27MmcXL15clxGhxdDpdKNHj2ZeFS+//HJeXp4rvZrUa76RR8fc2epegrmzNDrmzlb3EsydjdGZPQ4DBgyo4+gtam1HqVT+4x//GD9+fGpqKhH5+/t//vnnRqPxu+++k0ql7u7ubAcIdgwYMGDp0qW5ublHjhx59913u3bteu3atRUrVvj4+Lz++usVn2TavBw6dOjQoUPMx/n5+Vu3bq14ViaT5ebmzpw5k4hWrFjRt2/fzZs3sxAlNA0FBQVyuVwkEjFLOgqF4t///rfdJ/8CAABAjbSEbOfatWvLly/v0aPHnDlzjh8/7u7uPm/evFOnTmVmZr733ns8Ho/tAMElI0aMWLdu3bVr13bs2MH8hXvbtm0jRox44YUXdu3axXZ0Nfbxxx87+ZSIunTpsm3btm+//dbHx+fixYtvvvnm008/nZyc3IgxAvvu3LmzdOnSPn36bNiwgYgmT56cm5s7b948tuMCAABoIZp3tsP8QZTH43344YdXr17t3bt3XFzctWvXFArFkCFD2I4Oamn69Olarfbw4cPMzf0HDx6cPn26r69vM1r9qLiww7Bd3mHIZLL8/PyVK1d27Njxl19+eeWVV8aNG8cs3UKL99lnn/Xp0yc2Nra4uHjkyJH79+9PTU3Fkg4AAEA9aq7ZDvMHUR8fH+YPogEBAVu3br106dLixYs7d+7MdnRQDwIDA7dv337x4sVFixZ5eXmdO3euGa1+2K7kODrIWLRoUX5+fkREBBGlpaWJxeKJEyd+//33DRgisOfWrVtr167t16/fggULbty4MWjQoO3bt2dkZLz44otshwYAANDSNMtsp/wPog8ePBg5cuS+ffuOHj36+uuvsx0X1D+BQLBy5cpr1641o9UP24UdhqPlHYaXl9eqVavOnTs3Z84cIvr+++8nTpzo5+f31VdfNWCs0Lj0ev3777/frVu3qKio3377rUePHomJiTk5OTNmzGA7NAAAgJapmWU7W7du9fX1Zf4gOnjwYLVanZGRMX78eLbjgobl6em5aNGiS5cuRUVFUdnqx/Tp08+cOcN2aHY4WcNxcorxxBNPbNq06ddff50/f/4jjzyi0+neeeedrl27Ll26tKCgoL4jhcaTlpb2yiuvDBw48IsvvrBYLCKR6Msvv7xy5YpcLq/7kxAAAADAkWaT7RQUFEyfPn327Nnnzp1j/iB6+vTp0NBQtuOCxsPlclevXv3bb78xqx+7du0aNGjQZ599xnZclWRmZtpd2GE4X94px7wnvn79+po1a/r27Xvjxo3Y2NhevXpNmzatWWzkg3KXL19eu3btU089NW7cOOZ7N2HChD179mRnZ7/99tst4KFSAAAATVzzyHa++eabQYMGMYW5Pv7440uXLsnlcraDAnYwqx/Hjx8PCgoqKSlZsGBBUFBQ01nkSUhIcN6g2uWdch07dly4cGFeXp5KpRo5ciQR7d69+5VXXvH29g4PDz98+HBdY4UGc/fu3a1bt44fP97HxycqKio7O5uI3n777ezs7D179kyYMIHtAAEAAFqLJp3tuLu7M0s6YWFhf/zxR0BAwE8//bRs2TI8OQeefvppjUbz2Wefubm57d+/f9CgQZ9//jnbQdGhQ4eqfUCQi8s7FUml0oyMjGPHji1YsKBHjx43b95UKBQjR44cOHDgxx9/fPbs2TqEDPVs7969r732GpfLnT179oEDB4ho5MiRiYmJN27c+PLLL0UiEdsBAgAAtC5NOttJTk6uuKRz9OjRZ555hu2goAl5//33f/311/Hjx5eUlHzwwQcTJkywWCwsxuPiuo3ryzsV/eMf/0hISCgoKPj+++9nzpzp6emp1+s/+ugjoVA4ZMiQqKioply5oWW7fv36tm3bQkNDuVzuhAkTtm/ffu/ePaFQ+OGHH545cyYjI0Mul3t7e7MdJgAAQGvUdLOd9evXT506teKSDtsRQVMkFAr37dvHLPLs3bvX398/NzeXlUgclWKzVYvlnYpeeumlbdu2/fHHH1u2bGFKdOTk5Kxdu1YsFj/++OMymezbb78tLCys9fXBRTqdbuXKlSNHjuzWrdvrr7++Y8eOP/74o2vXrvPmzcvIyDhz5gyTi7IdJgAAQKvWRLOdiIiIBQsWENGcOXOwpAPVev/9948ePSoQCHJzc0eNGrV3797Gj6HKik2fPn22bNnCfHz48OFZs2Y5aVwL7dq1mzVr1r59+27evPntt9+++uqrnTt3LioqUqvVM2fO7NKly6hRo5YtW3bgwIG//vqrjmNBud9++23btm1vvfVW3759/fz8Fi9ezNxANWjQoOjo6IyMDObpxsx9VgAAAMA6D7YDqOrevXsymexf//oXES1fvnzp0qVsRwTNg7+//+HDh2UyWUZGxoQJEzZs2DB37txGG73iwk6fPn0+/PBDJr2ZPXs2EfXs2XPLli0ffvjhxx9/zKzqMMs7VVKg2mHWc2QymdVqzcjISEtL27dv3+nTpzMyMjIyMpg2zzzzTGBg4IgRIwIDA7t06VL3QVuVnJyco0ePHjly5OjRo/n5+eXH3d3dx48fHxQUNH78+Pbt2/N4PBaDBAAAALuaXLYTFBSk1WqJaOvWrXhgKNRIjx49Dh069Nprr23fvn3evHkWi+WDDz5onKGZtZo+ffq8//777733nt02zGpPec7z8ccf10u2U9Hzzz8/ZsyYVatW5eXlpaWlMe/RL126dOzYsWPHjjH14gYPHhwYGDh06NBhw4YNHTqUw+HUbwwtwO+//37q1KmTJ0+eOHHi6NGj169fr3i2PHUMCgoq/+qZTCY2IgUAAIBqNK1sZ/r06VqttmPHjv/+979Hjx7NdjjQLG3bts3Hxyc2NnbBggXe3t4zZ85s6BEPHTqUn5+/ZcuWWbNmVfuut0rOU+8JD6Nfv379+vVjVrd+++03Zl3iyJEjer0+JycnJyenvOWgQYPKM5+hQ4d27dq1IeJp4vR6/alTp5gM59SpU0ajseJZT0/P8pWxESNGdOjQga04AQAAoKaaULYjl8uZ8mu7du1CqgN18cknnxQVFSkUitdee83b2zsoKKhBh+vTp4/BYKhpl/K7ehpa3759+/bty6yUGo3GI0eO/Pzzz8zb+hs3buTm5ubm5qpUKqZx7969n3zyyX5l+vfv369fP09Pz8YJtREUFhbmVZabm2t7a5Ovry+TBI4YMWLEiBFt2jTRWxwBAADAuaaS7Xz44YcbNmwgom+//fbFF19kOxxo9hITEwsLC3fu3Dlt2jStVjt8+PCGG6tPnz4Nd/H6xefzp06dOnXqVObTS5culS9onDx58uLFi5cvX758+XJaWlrFXk888UR5/sPn8/l8fvfu3fl8flNe5bh+/brRaLx69arRaLxy5QqT2Fy4cOHmzZu2jdu2bVu+wMX825SnBgAAAK5rEtlOamrq8uXLiejzzz+XyWRsh+OETjlfqRsclvimo0cE6pTzlToSha0La8SHCOoV02RKAz9k494lT9s7b9ZEBsdo74pj0+Ilrekt3I4dO27evPnjjz/Onj2brbLUTZyPj4+Pj8+kSZOIyGq1FhUV/frrr1WWPv7666+LFy9evHjxhx9+qNK9U6dOFZMfPp/fyZ527drVY8x/2HPz5k2j0Vie3hiNxvv37zu6Qvfu3ftV8OSTTw4cOJCIPDyaxO9DAAAAqEfs/+9eUlKyaNEiIlqwYIGj27ubDINuvUIxV5xIjnIZg269QkFy8TqHLYgMWUlZNdv2VIorCpIIuTaX2xgTs1tHMyPldlMdIsN2RUK6TriwNqmOblO4Mqf6ZuQsA2TTzp07hw4d+uuvvy5duvSTTz5hO5ymzsvLa9SoUaNGjap4sKCgoDzzMRgMTDpx9erVu3fvMpnG2bNnnV/2kUceYdKetm3bejr24MGD+47duXOHGa6kpMTF6Xh7ezM5WI8ePcp35fXr1++xxx6r0tJqtbr+VQIAAIBmxOPatWuOzjF/HLXdsl9cXExERUVFTvoyioqK3NzcnLeJjY09f/68QCBYtWqVSyE3ezqVVKaoTUdxfI5NtnMyYc6yFDPxxJQZMz+zSgfRa4lhfVLiipuNmQAAIABJREFU1mmIeHxTSvj8FJtrisLW+WXPV+rsjSd6LdFLp1BsdCE0Zxkgmx5//PGVK1fOnDkzNjb2+eefHzx4sPP2jl7zrrP7mi8sLHRlfaOOozdQd09PT6FQaPuUzD/++MNkMl2rwGg03r1791aZP//88/bt20T0999/X79+vUpls7pwd3fv2LHjY4891rGCrl278vn8bmV4PF7btm1t+965c+fOnTsuzt11rvyuc6Rpft9dh7mzMjrmjrk3fnfC3DH3xh29qKiIiKxWa7UZh/PRPbp16+aoBfP3TtvdHe7u7kTk5eXlpC+jpKTEeZtjx44lJiYS0apVq1rSndBOiWRqVYDLrYuOKxM+0xqIyFfAr5LqFKaEh0ZqC4nIpN2u0Nr0lY+OTfkmRpnnsAGRXLzOS7deYTf7ko9OFBMR+S/RpoT3Z47tjek1Rxm45GBS+EDmwIXEYHFclsvTaXyvvvpqampqSkrK2rVrDxw44Lyxo9e86+y+5r29vav9Yan76I3cvVu3bgMGDKh4xGQyVXnmTHFxccX9Zk6Wbv7+++82bdo88sgjjlZ+OBwOs0DE5XJtb6ph90tHLvyua7jRMXfMvfG7E+aOuTf66Jh7K5y7l5cX07euo9euc31hnlIyY8aMadOmsRuJE4Yj6qwrzIdnDERUkK1OsjCfC/yl/nZuULcUFdjUIebyeB3KOoUK/F0Z2GrSLJNFfKY1EVcUGqv8Ri6q+GSUwqwYaZjiLFf0rlK7LiBzgSxsn1CRnhhc/m7TSqbUOQEb9fTskszDsbztspeiDJJtmvigqpvhgktKEomIKGWeW8hGcXzOwYhBpadS0oionVcXHq8nc8CLQ0SeXvyeZe9qzV71eU9Gw1i5cmVqauoPP/ywa9eupvxKa3nc3d0ff/zxxx9/vNqWdf9dDAAAAGCLzfcWly5d2rdvHxEtXbqUxTCqpVPLZBV3c+2Jk+0p/VCeYjfbUc7ppaxySLzmzMGFVfcCOWPSxEjD4tJN5C0KW6NKnC2s9AxIU8qcoDDlSbNwbrJ2XTCXKCDYv+dncSF8S/KNzcHeFu1aWeSnxvH/SowIvWuJivX3IJoYMuLdkATJKL7uZMSwGgTSAgwYMCAyMnLt2rU7duxAtgMAAADQerCZ7SQlJRHR888/zxREatokS9SygXRGJY3TTFyiCh1IOSrZSo2Dxv7B7/rxKx/i+3q5Pphhd7hsniKrkLjDwuKTEsN8bZ52zwuWS5WGsfLkNRJmpYYbGPv1miy/DSVkJvLm+PnyLaaUlUvTz2hVpTmWd/CmH5cc8ddxrBYimws6U6RPV6tLaxWcMRBRkV6bpC691adQX1STa7ElNDR07dq1qamptrutAAAAAKClYj/bmTFjBosxuEzgFyoNppRMKVFPP2loMHEyHZfK9pOtSwyu3ThWg/qtEPkWnZm4/u8qVZ8GCxx8i0Sjg4XbNDHzK2ZcQnkQadeFa4mIivg9SZ8eGyY1+Hk/bDFmrkC/LTJ8GxERdZHELJW48MZfp5wvq7RWdVIZLq26eNXEiUSiZ5999qeffkpKSvrggw/YDgcAAAAAGgNr2c7PP/98+vRpNze30NBQtmJocsya8NEyxUkzeftHfJMSP9FpJnJFp1hfbWk3c1aSwmEJgdECuUvZTvOuUlBuxowZyHYAAAAAWhXWsh2DwUBE/v7+nTp1YiuGJqdArz9pJgrenJMc5uJmq7nJJRtqsYyUEu4W4nIV7GZfpYAhFouJ6MKFC2wHAgAAAACNhLVs59KlS0Tk4+PDVgBNGN+rRveV3DaZzC43flgarpxBIQ1RXiAishQQUbZipp/Kg4iEYUkqvs0Fmi/mxWY2m4uKipiahgAAAADQsiHbaTyGjbKQb/TOWljNBiKi5JjhmbFOmo2OzV4joaBY45UY4nD1G18aGGXvUTr2lJWGC04sqzpNZLGYdLoT5U3MhpNMAQIvS2md7ZZQpYCIOnbs2Llz55s3b166dAnZDgAAAEBrgGynzvIUslBlWRJjMRLZpivi5dnxQWS5bdKd0LlwRZP+RNWn9VQy3EJExOEyu8uYZCPsG2PsWKdXTYvhv2G3tIAwQlsSQUR2n7dD1DKqFDB8fHyYbGfYsFZWhBsAAACgVWIt22nbti0R/f3332wFUG8sFtMJXeUkpmq6EmAhIhIuPFiy0OmlchPGDI7Ukjy5pMYl3Tjc8ltrHODWqOp0RS2kSgER3bt3j8peewAAAADQ4rGW7TCrOpcvX2YrgPrl6OGh+rVjXN9mVheG42q1xWmLHEMtLitZbjQuJi6Pxyl9pdhUKeDFpFwJJw63FhdvfC1nRREAAAAAXMBytsO8+4S606yUOXrWaV1wvKt7EqcHh9ezeTys88aNG3/++Sch2wEAAABoNZDt1JzVYiowFZmMbMdRiTylJHGK0xYnlOHbdHzfmtydX6CJW6OpPE9jNhFd0STMN1TeGMeXRC2RON9Kxzbmxda1a9f27duzHQsAAAAANAbWsh2hUEhEJ06cMBgMAoGArTBqJTNWJFMUEpE/vxfbsZSxmE2mAqcteC/FRL1ERKYCk7061PaY9dr1Cjv78PK0yvVVDosFbzX1bOf7778nIpFIxHYgAAAAANBIWMt2fH19R40adejQoR07dkRHR7MVRm14BAQvJjJwhFMi5U8T5bIdDxERKd/gu14lzdFdRkREdNeoUyd8naxJy+R/bFRdkVU+a1OloAy3yW9nS0pKIqLQ0FC2AwEAAACARsJatkNEoaGhhw4dSkpKauLZTvCGkpINFQ9wxB8kitmKxoHqK1Az7NahtlpMuZl70zQaHRFlJbzGlFjjBt808HpWWXazqVLQTBw8ePD8+fOPPvoosh0AAACA1oPNbGfGjBlz587Nyck5cuRIYGAgi5HU3d0/jaYCO7fEGP+82zgBVF+BmmFbh/pkwpixkdrCsk95QslYmWSmJMRf5NJut2aCWdiZMWMGyk8DAAAAtB5sZjsdO3aUyWTbt29fvHjxf//7XxYjqbusT8bwP6lxL0uhyUxcnjeHiMhqyUrVaIkokF+L25iqv2+HYbYpUz0swL8nnekTHDItRDZRIvItzYfMuRp1jtmm/xkDERXptUlqm+ekckVBEmGTrESdnp6uVCoJ29gAAAAAWhkPq9Xq6JyTU0RUXFzsvAFzBedtYmNjU1JSDh8+/Omnny5YsMD51Zoy0ZuJkaPtrO0UpceHb7LJC8roNwX7La76ZE7hc/61uI++RvftVOYfk3U3llN1zce4L0Hm6ElBJ5XhUtvRxPE5TTTbYbZKvv766y+88ILzF2S1L+lq2X3Nu/LDUvfR2e1OLvy8O1dSUsJ0v3v37q1bt/6o7NatW/cdu3fvXps2bR555BEPDw/Pypgj7dq161RZx44dO3Xq5O7uXi9fgbrMvTV/3zH3ugzNYnfC3DH3Rh8dc2erO7E39+LiYqrw9qDWo7O5tkNE3bt3j4uLe//996Ojo6dMmdLcirM95NVfLA2193TRAmc5iKCngKhCtuMtEIfGb15em3uC6nLfDscm1SEiflCEqmdYTULgippkTbZVq1YdO3aMy+XGxcXV/QceasStAiIqKSl58ODB//73P6ONq1evXr9+nUly/v7770aLsEOHDp06deJyuXw+v3v37nwbHA6nPCMqqaDRIgQAAIC68PDwqCbhcdTA3d3dlb7Vtnnvvfe+++679PT06OjoHTt2OG/MNknsFWMMp/L6ha9cdUXmqCSZcOHBkoUOL8edqSqZqapjTMK5KmMocbx5trfk2BEabxwb60oBNe4giXRQHUNj34kTJxYvXkxEK1eu7NGjh4u9qn3ROu9r292VH5Z6GZ3d7lXmfu/evby8vAsXLuSVMRgMRqPxzp07rlztscceq7Ia07ZtW0/HHjx44GTx586dO1UWi5ic6vbt27dv3/79999//fVXu2F07ty5R48e/fv371dBz55VM3tXftc513y7Y+5sjc5ud8ydrdHZ7Y65szU6u93Zmjvz10Y3N7e6jl6XzvVl1apVzzzzzM6dO7t1+//s3XdYU+f3APDDUpyEipA4GIoKCjLqQhA1KgJqVSikEK0DFS1oW0AriqMK4iBtVbBFRflqCYKCdQUsZSirtsoQfsYKGpYGJUpwUlm/P66mEQJEIFwC5/P4+ISbe+973iSQnJx7z9U6ePAg2eG0QJUyrEmeoKxKbbqwM/WX7uI5BFWKVM0MuoWioiIGg9HQ0DB37ty1a9eSHU43JxAIUlNTS0tLRRlOUVFRcyurqakRlROinEL8T6VSKRSKKLcRP8ZMFt68eVNVVSUUCquqqkTlpkePHonfqKmpefr06dOnT2/fvi2+bb9+/USZj4GBgampqZaWlkyjRQghhFDbdIlsZ9KkSeHh4cuXLz906JCGhsa2bdvIjgjJvZcvXzIYjAcPHowfPz4ior0FNNQUj8fLycnJzc0l/peY2/Tv31//Q0Ri078/+f3++vTp06dPH2qLrdSfPHnC5/NLSkpE5amCggIej/fq1avc3Nzc3FzRmkpKSqampiYmJiYmJsQNNTU12U8CIYQQQq3oEtkOACxbtkwgEPj4+Gzfvl1DQ2PdunVkR4TkG4PB+Ouvv4YMGRIdHT1o0CCyw+kOhEJhenp6enr6jRs3cnJynj171mgFPT09ExMTAwMDUW4j/dGDXZOmpqampqaJiYn4wpqaGlHmU1hYmJ+fn5ub+/z581u3bt26dUu02qhRo0xNTS0tLa2srD799NNOjx0hhBBCAF0n2wEAb29vgUCwd+/er776SkFBAQ89Qm3z9u3bJUuWcDicXr16RUdHjxkzhuyI5Bifz09LS0tLS0tPTxf/KE8YP348Uccg/u8hWaWKioqhoaGh4QddSe7duycqc+Xk5Dx8+LCgoKCgoODs2bMAoKamZmVlRWQ+VlZWRM8GhBBCCHWCLpTtAEBgYKBAIDh+/Pi6detKSkr27NlDdkRIzhQWFi5ZsuTGjRsAEB0dbWlpSXZE8uf58+fx8fEJCQnp6elcLlf8rpEjRxKf2k1NTU1NTVVUVMgKsqsZPXr06NGjnZyciB/Ly8tzcnJu3rxJJIpVVVVXrly5cuUKAKioqFhaWlpbW9va2lpYWJAaNUIIIdT9da1sBwCOHTumpaUVEBAQGBhYUlLy66+/kh0RkhtJSUlLlizh8/lUKjUiIoJOb0sv7x7r7t27V69evXr1akJCgvjy8ePHE0UJS0tLHR0dssKTL1Qq1dbW1tbWlvjxxo0b6enpRObz5MmTlJSUlJSUXbt2DRkyxNbW1sbGxtbWFs/zQQghhGShy2U7AODv76+tre3u7h4REUEkPNra2mQHhbq68PDwFStWAMCkSZMiIiL09fXJjkg+JCYmxsXFxcXF3blzR7TQwMDA1tZ2+vTplpaWgwcPJjG87mHy5MmTJ08mLqCcl5eXnp7+xx9/xMfHP3r06MSJEydOnACAuXPn2tnZ2dra4rGXCCGEUAfqitkOAKxZs2bYsGFffvllamqqiYkJi8VauXIl2UGhLurFixdeXl7Hjx8HAEdHx1OnTvXt25fsoLq6zMzMM2fOREVFPX78WLSQTqcTH7iNjOT/WktdlbGxsbGxMXFeYnx8fFxcXHx8/L1794jCGgBYWlo6OzszGAzsao0QQgi1XxfNdgDAxsYmJSXF3d09IyPDzc3t6tWrLBar6UX9UA937tw5b2/vkpISAPD29g4KCqqtrSU7qK6rsLAwKioqKioqLy+PWDJ48GBbW1siyVFXVyc3vJ5GdLTb7du3icwnJSWFaHz39ddfL1y48IsvvmAwGNjVACGEEGozRbIDaImBgUF6evrOnTsBIDo62tjYmDjkAyEAePHixZo1a5ycnEpKSsaNG3f16lVMdZrz9u3bo0ePzpo1a9SoUX5+fnl5eYqKii4uLr/99tuTJ09OnTrl4uKCqQ6Jxo8fv2nTpuTk5LKyMhaLNWnSJAC4cOGCi4uLmpra6tWrExMTyY4RIYQQkktdOtsh7NixIzMzc+rUqUKh0M3NzdnZOTs7m+ygEMlOnjxpZGR07NgxAPDy8srPz7exsSE7qK6Ix+Nt3rxZS0vL3d09KSkJAGbPnn3s2LHKyko2m71w4UKyA0QfGDp0qJeX140bN7Kzszdv3qynp/fixYvjx4/Pnj176tSp4eHhZAeIEEIIyRk5yHYAYMqUKaIiz9mzZ83NzdeuXVtcXEx2XIgEFy5cmDJlysqVK4mSTnx8PIvFIjuorig1NXXJkiUjRozYt2+fUCg0NDTcs2dPYWFhQkLCqlWrBg4cSHaAqCWmpqaBgYEPHjz4/fff3dzcACAzM3PFihXa2toBAQECgYDsABFCCCH5IB/ZDmHHjh03b950dHQEgNDQUF1d3S1btrx48YLsuFAnSU1Ntbe3X7Ro0Y0bN/r16+fv75+fnz937lyy4+pyzpw5M3PmTGtr64iICACYPXv22bNn79y54+vrO3LkSLKjQx9nzpw5x48ff/z48a5du4YOHVpaWurn56epqblu3bqcnByyo0MIIYS6OnnKdgDg008/PXfuXEJCwsyZMwEgMDBQV1c3KCjo1atXZIeGZOjmzZtLliyxtraOi4sDAC8vr6Kioq1bt5IdV5dz8eLFyZMnu7i4pKSkAMCyZcsyMjISEhI+//xzskND7aKpqblt27aysrKwsLBJkyY1NDT88ssvZmZmWOVGCCGEWiZn2Q5h9uzZSUlJUVFRpqamz54927hxo5aWlre3971798gODXWwCxcu2NvbT5w4kShTLF++/J9//mGxWBoaGmSH1rVcv359/vz5jo6Of/31V79+/bZu3VpSUhIeHm5hYUF2aKgjrVy58saNG1evXnVwcACA0NBQfX19Pz8/rHIjhBBCEslltkMg2hX8/PPPxsbGr169+uGHH8aMGcNgMIhTsZFcq62tDQkJGT9+/KJFi4h6DoPByMzMPHny5OjRo8mOrmvJz89nMpnTp08nrtZCFL78/f2HDx9OdmhIVmxsbGJiYhISEuh0OgDs27dPR0fnwIEDZMeFEEIIdTlynO0Q1q5de/v27d9++424bEV0dPSsWbOsrKxOnz799u1bsqNDH43L5W7ZskVLS8vT0zMvL69fv35eXl7//PPPmTNnpkyZQnZ0Xc6WLVuMjY3ZbDZg4avnmT17dmJiIlHlrqys3LRp06hRoy5dukR2XAghhFAXIvfZDmHhwoVxcXF///33qlWrACA9Pf3LL7+kUCgrVqyIj48nOzrUOoFAEBISYm1tPXbs2MDAwGfPno0ePZrFYj1+/JjFYmE9p6lr1659+umngYGBAPDZZ5/9+eefWPjqmYgq9y+//KKtrV1YWPjZZ595enridz0IIYQQQbmFqzG2fKHGurq6Vq/kWFtb2+arPbZhQ3Nz82PHjm3fvv3YsWORkZGFhYXh4eHh4eHa2toMBoPBYHz66adtCwbJTnR0dFRUVGxsrGiJjY3N8uXLXVxcGhoapHmZiWvn1UXbf3FSia95KWch/eh+fn779u0DAC0tLRaLxWQyPzZO1M24u7uvXLnSy8srODg4JCTk6tWrBw4cmD9/fqsbyug1L/227RyaxM0B545z7/TRce5kbQ44dzLmXldXBwANDQ3tHL2b1HYI9fX1tbW1NBpt+/btXC43Pj5+9erVFAqlpKTkwIEDEyZMmDBhgr+//82bN8mOtKerrq4+f/78mjVr1NXVGQwGkeqYm5vv3bv33r17HA7HycmptraWeJUjEWVl5evXr0+ePJlIdb788kvipB2y40JdgoqKyuHDhy9dujRq1KjCwsLFixd//fXXysrKCgoKZIeGEEIIkUZZWVm51TUkLldSUpJm21bXadvoraqtrZ01a9bcuXOPHj0qqh7cunXr1q1b27Zt09HRsbOzs7W1tbOz69WrV3siRNK7f/9+XFxcXFxcfHx8fX09sbBR5a22trahoYGsl037N5f4mpfml0Wa0cPDw1esWAFY0kHNmz9/vo2Njbe3d3Bw8JEjR27fvh0REaGtrd3yVh3+mv/YPcjp5jh3skYnd3OcO1mjk7s5zr3zR1dSUgIABQWF9o7eno3lhbOzs7Ozs0AgOHfuHPFpu7i4+Jdffvnll1+UlZWJnMfGxkZfX5/sSLun69evEw97bm6uaOHIkSPt7OzmzZtHtJdArdq1a9eOHTsAwMnJ6ciRI9iKADWnV69ehw8fJo4ITUtLmzZtWkREhJWVFdlxIYQQQiToEdkOQUNDY+3atWvXrq2pqYmPjycqDDwe7/Lly5cvXwYAHR0dS0tLKysrS0vL8ePHkx2vHHv9+nVaWlp6ejrx/7///iu6y9ramkgvTU1NSYxQ7qxatSosLAwAvL29g4KCyA4HyYEFCxakpqYymcycnBwi4XF1dSU7KIQQQqiz9aBsR0RFRWXBggULFiwAgKysLCLtSUtLKy4uLi4uJpr5Dh48WJT5TJ48GQ98b5VAIBBlOH/++af4XRoaGnPmzLG1tbW1tdXU1CQrQjn15s2bhQsXJiQkAMDBgwc3bNhAdkRIbowdO5ZIeC5evMhkMktKSjZv3kx2UAghhFCn6onZjjhzc3Nzc/OtW7e+evUqPT1dVI6oqKj47bfffvvtNwBQUlIyNTU1MTEh/jcxMVFTUyM7cPI9ePAgNzc3JycnNzc3Nze3qKhI/F5tbW0iV7SyssJCWXs4OzsnJCT07ds3IiJi0aJFZIeD5Ez//v0vXLiwfv364OBgX19fdXV1d3d3soNCCCGEOk9Pz3ZE+vXrZ2NjY2NjQ/x47dq1jIyMjIyM9PT0yspKor2BaOVRo0YRmY+xsbG+vr6+vn63b3UgEAgKCwv/+ecfUYbz7NmzRusYGBgQ6c2YMWMsLCxIibObWbFixeXLl5WVlePj46dNm0Z2OEheHT58uE+fPgcOHFi7dq2GhoajoyPZESGEEEKdBLMdySwtLS0tLYkWEPfu3SPKF8Sn/LKysoKCgoKCgrNnz4rW19PTI9KeUaNG6b+noqJC3gza7unTp4XvFRQUEDeePn3adE2i0iUqeQ0aNIhYXl5e3rkhd08bN24MDw8HgOjoaEx1UDvt37//6dOnJ06ccHZ2TkpKmj59OtkRIYQQQp0Bs53WjR49evTo0U5OTsSP5eXlosznzp07hYWFr1694vF4PB6POLlCZNiwYTQajUajDRkypNENGo1GxlTeefPmzaNHj/h8Pp/Pb3Tj0aNHlZWVErcaMmSIvr7++PHjRUmOnKZzcmHfvn1EN4KjR48uXryY7HBQdxAWFiYQCC5evOjs7Jyeno5dKBFCCPUEmO18NCqVSqVS586dK1pSVlZWKIaoh7x+/bqsrKysrEziThQVFQcNGqQmhkKhiP/Yr18/leYpKSnVtKjqPaFQWCVJy3Ok0WhNS1UDBgzoyMcRNY/L5RJnk+/Zs2f16tVkh9N1CDlejn6pb6Z6cYJdKJJW4IY4M8N4em4nYzyMOjs4uRAdHU2n0zMyMnx9fcWr06gba2hoqKmpefv2rfh7RHV1taKiYp8+fVRUVJSVlcXfX8iOFyGEOhhmOx1g2LBhw4YNmzFjhvjC7Ozst2/fitdMRCWUJ0+e1NfXV1RUVFRUkBVz7969xctN4v8PGzZswIAB7byQE2oPX19fALC3tyduoHcS/H1+TOJO2RriJDHVAYgLY53NrlzsZt+GVOdmmOepbCnWM3M75Gb28bvvInr37n3w4MGJEyeeO3eOzWZjT2p59OzZMz6fX1ZW9uTJkxcvXjT6Jkv8Gy4isamrq/uo/RM5T58+fZr7Mk5NTU1dXb13795GRkY0Gq13794ymilCCHUI/EQrKzQajUqlSryrpqaGz+dXVlY2V3gRCoWvX7+ura1trnTz8uXLgQMHNlf5UVZWHjhwYNP3J9H71uDBg1u4NmVtba3MHhXUCiUlpfDw8AsXLgBAYGAg2eF0JYJYzw0sLoAZTRjh5Rnx4Z20OX5b7fgBB1g8ADPgsjZ4NtmeZr9pKy3OMyxP0s6N3YI1skMOh0gRhwf9EMhvtgMAEyZM2LJly549ezZv3rxo0aJu32FFTvH5/MLCwqKioqYHG79586Y9e1ZQUCDeKerr62tqapr+wSfeZV6/fi3xdM2mBg0a1Oho7aFDhxJHBPTt27c9oSKEUIfAbEdWBAJBc9mOioqKtra2trZ2c9sSbz/NVVd27tz5v//97+TJk42qSVJujrqy58+fE/WcnTt3dr/O3dm7p5pvzwQA+0MPrqzXk7xSPmuWsU8S0IPyEr1FJZrabJarW8hdAIDs8yFNSzD04W72d32CkptdAYCut2ZrdXZIyM+SBl1HD54DAGCxLTF2zVhi2ZXttFUnLbYmxXqOIhbcCXaZFZAm5Vy7tICAgPPnz3O5XF9f34MHD+IXHOQqLy9v1BWmsLDw+fPnLWyipqZGZBcSv9IS6dWrl8Svw8R3RRzn1tTr168lfhlHIOpLjx49qqmpefr06dOnT/PyJHyRMHz4cP0mMAVCCHUy/EAsK1J+K9YG33//PQD873//ay7bQfLr1KlT5eXlJiYmO3bsIDuWDpfN4WQStzjnY7nrvQ2l3K6Wx17J9EkQUhcEcWI94Gc3tz3ljpeubJ2g+n4FqM4PmGeWJNRwjeBGOOT50Z1jabsiYtY1qcEcaWg4AgAA5z0VHELo++8kbnwfxfkkAOgzgEYd9u5LCnVVAOijPphKHUYsqFTvRmc0BAYGLlq06Jdfftm9ezd++uxMdXV1RJ+b7Ozs3Nzc27dvN3cipba29siRI8UPMxbd6N+/f0fFo6Cg0KtXrzaX+J48edK0201paWlhYaFQKCwtLS0tLU1OThbfZMSIEUS3GzMzM1NTUx0dnY6YB0IINQuzHTmzc+dO4sYff/yRkpKCCU83ExUVBQBMJpPsQGQgLiLsT4DFrq5286yXAAAgAElEQVR5bHZyTOxN760TpNjqZTbL1d7nUjllThAn1ttMGcBuns52pt/EyarZud6mwIv0dHYNGXKq2HtjhqFFiKsGwDRHR7MQn6+YntSM4MXNnOHT4y1cuHDs2LF37tw5c+bMypUryQ6nO3v16tXff/8t6uSZk5PT0NDQaJ3hw4eLt4QhOsSoqqpK3GGXoqmpqampaWJi0vSux48fN72YQVVV1YMHDx48eEBcvBsANDQ0RFcyMDU1NTY27twZIIS6P8x2ZKWFE2PagyjsAEBZWRmWd7qZ/Pz89PR0AHBxcSE7lo4XeymMB2Ax0cdNP5N9IDOMzdk6wb71zfqbua1w5KgaBrE9zIg/V/quJ09kxH9ZBC+FABQ9Yz0VgIu79i/7+0owkdoom3mzQ7KMg1WVqz82yMqCJHbku+Pg7pQBQCU3mc1+d4ROJVdyb3Z59cUXX2zfvj0qKgqznQ4nEAjS0tLS0tLS09P//PPPRvdSKBTRh3sTExMDA4M+ffqQEqdMaWlpaWlpWVpaii98/PhxXl6eKPHLz88XCASJiYmJiYnEChoaGlZWVsSFqqdMmUJG4Aih7gazHVkRXWqzA4kKOwQs73QzRGFn/vz5w4YNIzuWjiZkx5wVApjRZ5rRKx30DrB4pyPY2+1dpSi9UCba05M5YV4fNB5wW6rLi/bzjAYAoJkC5IT4uVYn6f/3Xbj6YvPqBH/Pd1fAkraRWvYxT+axDxaEbWCGSbGhPHJxcdm+fXtSUtK9e/fGjh1Ldjhyr6SkRJTh3L59W/yu4cOHi6c3PflKR0QKNHv2bOLHf//9V5T55Obm3rx5UyAQ/Pbbb0Tlp2/fvqLMx8rKCjtqIITaBrMdeSIq7BCwvNPNpKSkQDct7JRHxrAFAKb286YAgL2DPotVyI447e/aXK8CcUJu0uGQpNbW4saFcZu9U9pGaj2kSwFBX19/9uzZf/zxR0ZGBmY7bXbt2rW4uLi4uLhGGY6hoaGlpSXxSb0npzct69279+TJkydPnixaQqSLxP+VlZW///7777//DgBKSkp2dna2trZ2dnYjRozA1hoIIelhtiMrLfRka5tGhR0Clne6k+LiYgAYOXIk2YF0OF5MXCwAmC2YZwEAQHd0MWPtzuaw2dnrt0rbzXlm0J0kqRsb/IfLoo/1SW59PULP6VJAIE4QLykpITsQOVNZWUlkOBwO59mzZ6Lln376KZHeWFpaDhkyhMQI5RdRxvnuu+8AICsrKz09nUh+Hj58ePny5cuXLwOAqanp3Llz7e3tra2tyY4XISQHMNuRlQ7vydaosEPA8k638e+///L5fHj/AbRbucmOuAQAFo6fWRALLOztzXZnZ/8ZFhG31cxO6v1UC8sFUp+Ko0qhajQ+yZv3M9PxBBcA4CUfALKOMM2jAQAMV8ZEdORXE3KDeLERaTZqFZ/Pj4qKunjxoniTMXV1daLgYGtrO3jwYBLD637Mzc3Nzc3Xr18PAFlZWfHx8fHx8ampqTk5OTk5Ofv27dPU1LS1tf38888XLFhAdrAIoa5LuYVycMuV4rq6ulZLybW1tW0uN7ezTk3u5gDw9u3bDpz7rl27mlv5jz/+SExMnD59egubt3P0Nuyhxz7vEucuzS/L/fv3AaBPnz4dWxLsCjIvxmQCwJR59qImbFMcHacEZP/JC4tk+9m1dvKOgUdEKROUKdQ4HwUHaS4ACgAA62IajjgAGHonNXi/X1b9sjz75n8X4xEWZWcXAQCoO79LonpUlwIQy3ba88rv9r/vdXV10dHR0dHRRGGBYGRkRCQ5dDq9PTEgKRGZz5YtWx4/fhwfHx8XFxcfH//kyZNTp06dOnWKRqM5Ozs7OTmJHxTXHHyPa+cecO6dP3qPnXtdXR0ANDQ0tHN0rO3IiqamZgfubffu3c3dVVZWdvr06VmzZuFxzHLt8ePHAND9Uh2o5cREZgMA3cFB7KA1M3t7C78/M4WnIyJ2uXrotrgHZVXR0WXw4ak1khUEO9ADMiXdY7gxsWEjAEi83g5AD+tSAAA0Gg0AiKIiElFQUFBUVFRQUIiPj4+Ojj579uzLly+Ju6ZMmcJgMOzs7MaMGUNukD2WlpbWsmXLli1bBgB//PHHhQsXoqKi+Hz+wYMHDx48OH78eCcnJ2dn59GjR9fX19fX15MdL0KIfMqNLqsscQ2Jy5WUlKTZttV12jZ6199cS0uro0aXeMaOuMTExKZn75A49578vEucuzS/LHp6etAtjym6xAkrBAB7B6cPTroxW+xI356ZBJzYs1yPjR9xPo74qTWSCdXb3M23R3UpgPevNx0dHfx9FycQCEJDQ8PCwng8HrFk5MiRDAaDwWCMHz++PWOhjjV79uzZs2cfPnz4/PnzUVFRUVFRt2/fvn379rZt22xsbNzd3R0cHJrbFl/zbd5WfoNv5+Y4984fXUlJCQAUFBTaO3p7NkadQ+IZO+Lw7J1uQEdHR0FBob6+vqSkRFtbm+xwOoqQfT5CCADA8dRT8JS0RlJsbPZGqXsVfHiwmWSCNh1xZufPL/UDCpX6/iL1TboUUP3O8j1rVbvT9UpF2Q7ZgXQVubm5oaGhoaGhRE1g4MCBRJIza9YsskNDLVm8ePHixYtDQ0OJnCcpKYlo5jZu3Dh3d3d3d3fsXo1QT4bZjqx0VE+2Vgs7BGzOJu8UFBS0tbWLi4uLi4u7T7ZTFBFxWtjKOh/Zq6DJwWYdRJVCbe0qR6rd7kBDzHZErly5EhoaeunSJeLHSZMmubu7L1++XFFRkdzAkPTU1NTWrFmzZs2awsJCImv9v//7vw0bNmzbto3IeUaMGEF2jAghEmC2Iysd1ZOtaWFHVVW1urpxZyos73QDOjo6xcXFubm506ZNIzuWjsG7xOEAALhGVEZI6EUgZDNHMdkC6XoVvPfByTYSlXEC9nP4xlJcyec/5Zzd/pyKDxbxswGAx/nBk9f/g+W0OX5bF3STrIfL5QJA98muP56ysnJkZGRQUFBWVhaxxMHBwd3d3cbGhtzAUHvo6+sfOHBg165doaGhR48e5XK5+/fv379//5dffunr62tgYICnuSLUo2C206U1Kuzo6uouW7bs2rVrKSkpP/30U2VlpXguhOUdeTdv3rzr169HRkZ6eko85kvuZLPZHACgLJ1nLzGVobgyl/qxf+RJ1avgvTcv+OVl6i2uYu62yRwAysvKJfahlqSSmxwSIuGyPLykk40vbEof7tE9sp2///775s2bANBjP9knJCTs3bv3+vXrANCrVy/i6/9x48aRHRfqGH369Pnmm2+++eabc+fOhYaG/vHHH0QDtw0bNnz33Xd4QSSEeg6s0cuKhoZG+3ciSmZ0dXV37NjB4/FE+c/gwYN37tzJ4/F27NhBLCHKO+0fFJGFwWAAQEZGRqOLssurP2Ni/gQAPTeXZus29q5uFgAAnIjTLZ6KIyZz9yzacJq0/7ZzWtjVm4ps9gFPR/pY2ldcDzafX/rBv+MrAMBia1Lj5RHrPv4ap11SZGQkADg6OnbIHyv58vfffzs4ONjb21+/fl1RUXHr1q2PHz8+dOgQpjrd0ueff56QkJCWljZv3jwAOHTo0MiRI3ft2oUVHoR6CMx2ZGXQoEHt2VxJSYlIbJrmOeJ0dXXFc56UlJSUlBQ80FxODR06dP78+fD+Y6i840SzswFgihuzhXNyJrgyFwAAZJ6K4Ej3wcNiW2Kj9EPyv6StFpI2ry7PTjrJ8onMAoDMA0zmppDYZG51OZ9PpVKHffBPrEvBh//6S9qvHCJeZl988QXZgXSqsrKyVatWTZo06fz58wCwbt26oqIif39/CqU7tZ9AElhaWl6+fPnixYsWFhbV1dU7duzQ0dEJDg4mOy6EkMzhx+Ku63//+18LeY44Uc6zbNmy//3vf5jtyC/io+fx48c76rwv0gjZEad5AGBhb99ivzU9JlH5KQyLONtaPwMAeN+BuvV/g5v2oc5m0dX70MxnrfRhnc0EoBraufofScziv6mM9fios3y6gSNHjpSXl2tpaTk6OpIdS+cJCwszMjIKCwsDAAaDkZube+TIkeHDh5MdF+o8CxYsyMjICA8PHzNmzKNHj9avX29nZ3fnzh2y40IIyRCetyMr7ezJ9uDBA9GlHqRE5DzQERfNRWRhMpk//vjjrVu3fH19jx49SnY47UBxjahwjZBmRZeIShexFY28Exu8W1hfivN2AACgovJN40VmU630gAsOTkxHZ3v7CYYU4oweIZcTmd0007pTBgCV3GQ2O69JzMb29kZyXArg8/m+vr4A4OXlRXYsnaSsrMzb2zs6OhoApk6dGhAQgKc49mTE9Ul/+uknb2/v+Pj4q1ev/vDDD9988w3ZcSGEZAKzHVlp53fz2BO2Z6qvr9+7d++cOXOOHTu2ePFiOzupGzP3GJm7Z9F2t3Fbiy0Zb3apNu5aUMZhufokSdwAssM2MMOaLKXvvyPX2Y6vr+/z58+nTJmyadOmnvDlyIkTJ7y8vKqqqgDg+++/3759O9kRoS7hm2++mTt3rpeXV3x8/LfffkvkPIaG3eTEPISQCGY7CHUh9fX1s2fP/uqrr44cOeLr64vZTlMW2xJj14xtfb2CYAd6QGajhapNUh0AGGbvzaa5fUwMFGPax6zetVy4cIFoZ7J3716yY+kMS5cu/fXXXwFg6tSpP/zww+TJk8mOCHUhhoaGcXFxP/30E5HzXL16NSwsbMWKFWTHhRDqSJjtyEoPbHOEOkpgYOD58+dzc3NXr1597JgsLqUpn+z8+aV+QJGuTwDVL7bUE1SlqMBQDO1desq3uXfu3Fm7di0AfP3119OnTyc7HNkqLS1dsmQJ0WAaSzqoBeJFnpUrV5aUlIianSKEugE8nV1W2tmTDfVkAwcOPHjwIAAcP36cOL8CAQCoUj6iJZqyKnUYVbqL7fQUT548YTAY5eXlU6ZM2bdvH9nhyFZ6erq1tfX169fV1dU5HA6mOqhlRJHHx8cHAHbu3Lly5UqyI0IIdRjMdhDqipycnI4cOQIAe/fuZbFYZIeD5F59fT2DwcjPz9fX14+Oju7duzfZEclQZGTktGnTioqKTExMUlNT8YhQJKUDBw4cOnQIAE6ePDl79uzHjx+THRFCqANgtiMrAoGA7BCQfFu3bt2uXbsAwMfHB68bi9qJwWCkpKRQKJTo6Oju3XP51KlTrq6uDQ0NCxYsSE1NxQuGoo+yfv363377rV+/fomJiXPnzn327BnZESGE2guzHVmR++uloC5g27ZtGzZsAIDly5d3+0OPkIxUVFTMnTv33LlzABAdHW1m1uIFkOQch8NZtmwZAHh4eFy8eHHAgAFkR4Tkz8KFC1NTU3V1dXNzc52dnckOByHUXpjtINSlHTx40NPTEwA2b97s4eFBdjhIzty6dcva2vr333/v06dPbGzsnDlzyI5Ihv766y/is6mLi0twcDDZ4SA5ZmZmFh0dPWDAgMTEROKizwgh+YXZjqxgTzbUUQ4fPrx//34AOHLkyIIFC4jLhiDUqvPnz1tbW9+9e3fMmDGpqamLFy8mOyIZevDggbOz86tXr+bMmcNms8kOB8m9iRMnEpejjYqKIr5yQgjJKcx2ZAV7sqEOtHHjxjNnzigrK1++fNna2vratWtkR4S6ur179zo4OLx+/XrOnDmpqamffvop2RHJ1qpVq4qLi4mv5Dt98GqhoLozxxOWlXfqeB8lP8Rxorm5fUB2M/cLL/nMmmg+1YvTdafwnq2t7enTpwEgJCQkNDSU7HAQQm2E19tBSD4wGAxtbe0lS5bcvn17xowZW7ZsCQgIIDso1BVlZ2d7e3snJycDgJub2/Hjx8mOSOYOHz6cnJzcq1ev6OhoCkWKiyy1SsjlxGULJd5FMbOfpl5dxsvKvsPNzsy4mZWdl81T+C4jyzppP4cvvuZge79t9lTi9svycsm7k44qRdROnXeaOe9LDm1/UuJG0SlY5Zzd/pwKqfZk9mWw2wTxBUJuHKeZqTaLYmxvbyTxceaFbPeLvQmupzyaOT+MF3GMlXTT0HuP/ce3h5d2mrQ5flsXUD9695IsWbLk4cOHmzdv3rx586JFi7S0tDpktwihzqTcQoPFmpoaAFBRUWm0vK6uDgAqKytbbc5YWVmpoKDQtsiaG10uNgcAHo8no7m/ffsWAKqqqpp7/Emfe09+3iXOXSAQ9OnTp/2jjxgx4tKlSzt37jx79uyePXuuXr3KYrG6/TUi0UfZt2/f5s2bAUBVVXXnzp3Lly9v+Q+1vP++KygoVFRUEFPeu3evvr5+23bVWBmH5eqTJPGumUEx+RzHTe/v1NAzM3ZwmzAcyrhJh0M+2GSmnsf7bIf7M3PsJsn7k8q6mIYjDsRNdQ0aRUOYtIk+C0QJTyU3OSQkWao9ecwMhg+yHT7nANNHum1F6PvvSMx2sg+s8jsvhGF0+NvP8+9Gd5q5HXLTOxvAugQwjMa/5Ol5qcn2xm7BdvyARknjOzT7TQ5STpM+3KOjsh0A+O67786fP3/jxo1vvvnmp59+ArJf8yRuDjh3nHvnjl5ZWQkAtbW1bW4HT4yu3MIXFbW1tQCgrNy4/qOkpAQA6urqrX7J0dDQ0OYvQpobXS42B4C7d+/KaO69evUCADU1teb2T/rce/LzLnHuGhoa0jwg0oyupaUVHR0dERHh5eV169YtLPIgkZycHC8vL6Kks3DhQhaLNXLkyFa3kvffd2Vl5c2bN79+/XratGnffvtt2/YjgYFHRKlZsMusANiaGOk5FgAS/Ggrw9xO8P3tKPzTHAAzj9gIv2l6/13BNp8FALDiOH/XPAC4sp22qui//an2p5pNaKbaUSvk5fCEQDWcQGu23NH/v3sodkGco9VTHUKSNjEd+0fErDMDMPRg85m1rczpzlGHWbszmyyWatv/JPjRVoZJvEd43pO5KUkIAGVJ7MNNUzsP+vbYsO1hvGZXAFhHD7bgNU4a36HrrSHyPbfjpf7ziGUFwQ70gMz3j3nL4bVHYGAgnU4/c+aMq6vrggUL8D2OlNFx7j1w7urq6sS27R29bRsjhEjEZDJtbGy8vb1Pnz69Z8+eM2fO+Pr6rlq1iuy4EDnKysoCAwOJy9GqqqqyWKyvvvqK7KA6SXJy8q+//goAgYGBHblfZVXqMJq6CgCo04ZRqQBAUQUAVQqVSoVKAAB1vVGG1KbNaFTVqcOoAKD+YeKity4ia10zY+WzZhn7JIGj/9/BDtJFR1kcHLGfS9+UFPuVm49+RtAcVVUqtdVaRuUAyRVmabYVG1tyRiZM83NcE8LVMPM4mhRskeHj6sYxCEk65EAVfcqoLY/9amrIXbDYlpGxixrmOs+n1D7ifJB9k8cwscEbAAC4LPpYn2SPmAbRw8JlAQCoqg97H7BQvQ/895i3EF47zZw5c/369YcPH965c+eCBQtkMQRCSHawS4GsYJcCJFODBw8+derUr7/+qqOj8+DBg9WrV0+YMCEmJobsuFCnev369bZt23R1dYlUZ9GiRfn5+T0n1QGAqKgoAPjyyy8tLS1JCSD7mKfnhrDmzsiXHbONMWHrzOz3h/nPaffn+2pheVm5tP+EEpoLlJ9dRV8ckCQw9DiaFLyYAtSpjlZj+T870jfECgHgZRLLwZw2LVjXx8fVJShkuwWAnqMTnZbGYrqysqUvK5Fqx44dAJCVlXXjxg2yY0EIfRys7cgKdqBGnYDJZDKZzL179wYGBt66devzzz+fM2eOr6/vzJkzyQ4NydyPP/4YGBhYUVEBANbW1lu2bJk7dy7ZQXW2M2fOAACJV0ThZYeE/OxBPwSdftFWisORLClrQa2I86M5hLRnB9TFHl+E5tO944PsiJN5KBbbg/z+tP+xVqGyFij9zQ2HVZefD9h44U4i25DYhLI4OGxb1tRrvaD2Yz+J8LIi2e9SLgG3EgDKstiR73OwPF57JtKCQYMGOTs7R0dHR0ZGEueJIYTkBWY7CMm9zZs3u7u7BwQEsFishISEhISE+fPnu7u7z58/n+zQUMd7/vx5aGhoaGjo/fv3AcDIyOi7775bsmQJ2XGR4MyZM1VVVbq6unZ2drIaI9lnrIKPrHbeRZgxI9hTpV05L4IZyGm8UNlsDmNCWJyfZ5zYQn3HRcqJLK9EAAAhjQrcpP1uzFJzddEKteYeJv+EbXp3KRupG6lxAlw/DOBSALNpwwMZcHFxwWwHIXmE2Y6sCASCjzoWGqH2UFdX37t375o1aw4cOHD8+PHLly9fvnzZzMzM3d3d3d2d7OhQx+ByuUSeU11dDQBDhw719fX18PAgzsLsgYjD2GRb2NGnu9kZqgJAeVbI2aan+Heuxn2x9SxcLPTav1tdC1ddC2lXVs1gSlrMyw4J+bm1bQWZ7MPNPoZSN1IjoUsBYdGiRTQajc/nX716ddmyZTIaBSHU4TDbkZWnT5+SHQLqcUaMGHHs2LFvv/2W+EycnZ29du3abdu2ETnPsGHDyA4QtVFCQkJoaKjovCwij12zZo2CgkKPTXUAoLCwEABke9zmcHvvQ96GAHDes63ZTmsXtCEOxzKq5kWy2S3shmJmP7xRX2yPmP+yndYvm1NZUCl1zG3kEdsQvPjjNzvvqfARh9KR0KVAZOrUqTExMcXFxTIdBSHUsTDbQai7GTt27MGDB3fv3i063snf39/f39/JyYnBYDg6OpIdIJJWSUlJVFTUmTNnsrKyiCV4jKK4kpISANDR0SE7kJZJd0Gb/DAf1xaLEjOD7sTae7NpbgAAdyJcAz48nOujL5vDPTCrzZcASto0VmHTu9uNMpzq8nKh1Ak4hUpVbfwxhOMz0Y8IS1gEADF+EzP8AQDo/n+7tS3aDkS82MrKysgOBCH0ETDbkRXsyYbINXDgwI0bN27cuJHNZoeGhl6/fv3s2bNnz54dNGjQF198wWAwpk2bRnaMSLI3b94QSc7Vq1dFC4kCnZlZp58M31U9fvz49evXAKCtrU12LC1TN5zp4WHU7N2V+THs5HIAsHDyMG/hSK7BhuoUQ0MX4iz/2AxXiSuZuR3yoTfTIqcyOcjz2H/d49QN6B7rDVuIu/ouJyyB10pUAGbDAQDsd/H5W0BVgxtiP1bqpIselJfobQSwOLihIVg0bPXNbLEed+Xcm+UAADD1fSMCcroUEDDbQUgeYbYjK9iTDXURrq6urq6uf/31V1RUVFRU1MOHD0NCQkJCQgwNDRkMBoPBMDAwIDtG9M6VK1eIp+nt27fEEmtra2dnZwaDgX9SGiGOJqJSqX36SL6MTMco5bA28Ijzdtq6C6r9tmD7Zu8tD3EIeXcAm7Fb8LZ2ZrPqhjNdXZvJrMr787iqU4nkBACoC7YGLwAAyD4bVjnNjd4kpeEemBWWwJMclSA7W2hmpv/fAlUN4ugy4mA5sVNrmnFlO23VSYn3OLxPfZq73g5pXQrgfbZTWlraSeMhhDoCZjsI9QiTJk2aNGkSi8UiPk+fOXOGy+Xu3Llz586dxsbGtra2dnZ22LeaFE+ePImPj4+Li4uLi6uqqiIWGhgYELmooWFL3753J0VFRUVFRTNmzJBy/V69egGAKC2UlcKksMNtPNxLKkUxnPMA+nR6/6SkUxEcXzN7mb0ti9IbcdVxnkznEK5GiOv2sLD1Zk3Pesk8FMReF+EqlmsL01huq31i77rGVEQ4SM7BxU6taYZ628+vIa1LAbx/vRGvPYSQvMBsR1awJxvqmubNmzdv3rzQ0FCihhAfH5+Xl5eXl3fgwAF1dXU7Ozs7OztbW1usJMhadnY2keSkpqaKFmpqan7++ecMBsPa2prE2Mgyc+bM5cuXL1u2TJqch/iW/dmzZ1VVVWpqajKLKehO0rsuBY3PpK8tTzrg7X+2XbvPPBHBAdBb4O2v/mbq9rCwYx726zqgy5r0VO2CIg5Vuu1iszeYJ533CDka7KD/4RoCtt8WR/ujDhQAqC3nbGe6BSaVA1BnqoMQQPLfCbGDzZpxpy3Hghl6sPnMWlXKsPe9CJp2KXAJ4s/xB4qs3nyJiiJ2fEFIvmC2IyvYkw11ZX369Fm+fPny5cufPXsWFxdHfOx++vQpm81ms9kAMH36dGtra0tLSysrq379+pEdbzdx//799PT0tLS0xMTEBw8eiJabmpoSSWbPTHIIurq6J0+eXLFiRXh4uDQ5j7q6OoVCEQqFxcXF48eP77Q4AYBfwQOo9J9DEwoAAEBfldK2HeWz/H7OBLBwc7W30BW6HmKyfwiIdTreTMFERlTN1kdk2Tl6rvEISQ5xtOAGJSd6ix0Lp6evxzvm5jhK78qCLE8Xn7AcIWhYeBwKC3IxbL480+Rgs46KtdUvEVUpVFlmIpjtICSPMNtBqEf75JNPmEwmk8msra29du1aQkJCXFzc7du3r127du3aNWKdyZMnW1lZEZnP4MGDyQ1Y7uTl5REZTnp6elFRkWi5kpIScQDhnDlzRowYoayMf41hxowZM2bMSElJCQ8Plybn0dHRISHbeRnLPs0DAKEy3YPtQTniGKBCozVdrdW+ZLXZLC//JAHorfPxmAAArn6bwtibwtzWmJnFesisvpMUYB/yZoGH22q6nvgrTt8h+PepDoEeIap+3kYAL7lJOarEpOy3BMF+x5BN5n02AQDFzCUo6Afvpif5fEj8ZBvJso95huXRDD8qTbwZ5nkq+4MlL7k8AMiO8NzQ6GhDM7dDbrJo6IHZDkLyCN9fZQV7siG5M3369FmzZu3du7ewsDAhIYH4jF5cXHzjxo0bN26wWCwAMDY2trKyMjExMTU1NTExUVWV7dUt5NHDhw9zc3NzcnJu3ryZnp7+5MkT8XtFqaOdnR3x6PXkC+Y0oquru2zZspSUFOLHVnMeExOT3NzcK1euLFjQ5HyUjlUt5JbzASBpzyyFy99W7nfNSqZHHHEzFIQ4ugJlvdjJVdWV5eXVlA+aHwoAACAASURBVNpYTjLA8OZ3WFseu4HpkyAEfbegXQ7EZ37Db4P848z9znvO+4qWccShjfWiVgj5cbEhcapjXeh6jQZQptI3hqnHha2yZ16J45YvjcgwBgAAikNwZBB3jk+SAKhLgzgn3Kitf3CoriwrL29xDZqdn58dAJSXl0nsQy1JaXbIYUmX5fkzNuTPRos86Iegw7OdN2/e/P777wAwevTojt43QkiGMNuRFTztAckvfX19fX39devWAcD9+/eJukRaWhqXyyVO8hGtaWRkJMp8TExMNDU1yYuaNFwuNzc3l8hwcnNz+Xy++L0qKiqiypilpWX//v3JilMuiMo7oiUt5DwMBuPUqVORkZFHjhxRVFTsyDiqhdybGdxKgLIQpmFQ9t13H925N5OoFt6UpRFZSwEAeOc5sUBxtZj634ZFbCZtFVFoMHQyk9xiopbHXjmPeZoLYOixP+i/49aUzbb+EJQ0xyfpZzd6dXXMUVc96d6iyy+FJBnSpVo1n8cFAFO9D1Kd2mpucljEzxHs1EyeAACAamDvZqEHL9+vYOodc77ScXFA0ulVhnlJfj+wvGe2XNwJWzVc+lYB7/tQS1bNSwgJOM2JSa12ir3IL/X74M6mXQreaeuxhS2KjIz8999/DQwMLC0tZbB7hJCsYLaDEGrJyJEjR44cuWzZMgDg8/lpaWl//fUX8bG+oqIiPz8/Pz8/IiKCWFlbW3vMmDH6740aNUpfX19FRYXUGXQkgUBQ+KH8/PxXr141Ws3AwIBIAi0tLS0tLTv4g3i31qi8IyIx57GxsdHT0+PxeJGRkUwmsyPjSPCb+lmIEACAlw16ZnaudI1y1umkD66kWZsUcoQDGq7z7MQ+WhvQXY0MDQFoZm5uSyVVFwpjPVe4haQJAQw9opOCF3/4sdzUO+YU3/5LVuZJpnlBRsixIFeDFsun1Vz2JjePw3388qTLdni8LAAwHmsIANXC7NSIGLEkh6Jr4bCa6eHqRjdSBQDugf+2o1j5J2aOXeXkEZbD9qGzg2a6+az39lhg2ExNpvUO1ATJfairhdybGUnJsZxSAAjzsSGW6tEF/ahmH55D2LRLgSxFRkYCgIuLSyeMhRDqQJjtyAr2ZEPdD41Gc3JycnJyIn4sLi4WFTRyc3Pv379fUlJSUlKSkJAgvtWIESNE+Q+NRqPRaEOGDKHRaF25yvHkyRM+n//o0SM+n19aWkokNgUFBRK7j/Tq1WvcuHETJkwQlbm68tS6vqblHZGmOQ+Dwdi7d++ZM2c6ONsxNHNb7U2zsKfbTTWjqgIAnPdknRY/OUQYu8GTdRfo+/1cP0hYDN0ObZW8z9rypB+9ffazswUAGhbeJ2KDFkh4j6DYBXHOqzOd/DhpIUzDmLD1/kFb3Mwkv5kk+VtEZOcIqTM99Pqr8pQBoLJS2NK0OMkcIYCFoSEFgLPFfN6PPAAADT36ag+3L5kOVtSWUit91+N/012JKSSH+SSH+WjoWUyju2057jah0aqtd6AmNO1DXX1+lZ5DmOgoOIquBX2Bo6Ozvf0EQwqph83eu3fvjz/+AMx2EJJDmO3ICvZkQ92ejo6Ojo7OZ599Rvx49+7d8vLyRqWPV69ePXjw4MGDB8Tx7uLU1NTEkx8ajaYmScdeO7JKkqdPn/L5fFF6w+fza2pqmtvDkCFD9MWMGTNm/Pjx5eXl+O1GR2muvCMiynmWLFlCZDuXL1+Ojo52dnbusCD03YKOtnC3MHO7o9vPXMqcoKBvpbggUm0196y/z/4QTo4QACimbiFnj7vqN7s6xWrrlWwzP1e3gOTypMOrzA/7mS12c1vHdJv5vpbyZ1YWAAA3O8fQYX9MyLd0qjIkmepBQnbA6nnlc/Qk5gXVRRkxl3gAFvPmmAGAvauHQxFv6lKP/0o01cJyAbzr7/wyMzauyYWGlKn0jRFZ6/zYe/yCTsZml/MyhXohphKGavW8HUJlkzbVqjPpdIjJnGPvttjNfvH7VBOAl8bmNL2kp4BbCQBlWezIpv2u9SxcLDqw2YOvry8A2NjYjBo1qlyqySGEugrlFk6Qbfnc2bq6ulZPrq2trW3zCbjtPHOX3M0B4O3btzKae0NDAwDU19c3txrpc+/Jz7vEuUvzy9L+0Umf+4ABA8aMGTN9+nQFBQViSV1dXVlZWWFh4VdffXXv3r1G6xOZxt27d9s5bid79OjRo0ePrl+/TnYgPR2R8yxduvSLL744c+bM5s2bFy1a1BmXfSxPYm3w9DnLBQOPGLa3WevfGWYHTKP7/UnUXKj2uyLCfOmtn+hPtfdP4jEjfTy9QpLKy7PPB4RQzZlz3jV95qZmZgJQTF39j4V5THiXD9C/3OpwaVXsXU5YC79SGmauu0K2EqWYCd4xsR/em+o/1YbF+2B9B8Omh+P1N3TdE+O6q5qbHMEb7CbpEfio83Y+RHENe+PatPtJNpvJ/LmZTS4FMC81XeoR03HZzunTp2NjYwHA39+/9r227Ure/87j3EkZvcfOva6uDgAaGhraOTrWdmQFuxSgnqahoYH4wyRu6NChQ4cOpVKpTbMdhNqvuLg4LCzs1q1bBQUFvr6+ROdAmRJmxoad5VIX+Mee2Goh1Z95s60/+yXNCaq08wna32rvZnGqhi7BiYv9ko75sVIN/Q/916XN8Nug4MqMqds9zMSzAiO3mGxH7s2M7FLJR7NRDenmBtSWjgczNKRPMEsqyuYJADT0zIwtmLtCPHSbWVlZ1XCOWzOFrXadtyOx0aOZa0TENCn2+B+9jurJ9vLlyy1btgDAli1bzMxk0dcaISRbyq1e5KG5FZSUlKTZtp0XkZDfzWk0moxGJ744V1RUbHn/JM69Jz/vEucuzS9Lh4xO7uYtPO/Ei5bNZjd3yPu7b18+3Lyurk78eLOa5v3000+TJk2ysrJSaYaqqipxXByFQml6Uo3E0T9Ke45ka+fo5G4Ospl7eHj4ihUrWt52xowZx48f19HRUVZW3rt3r6Oj4w8//DB37lwbG5u2BdMKO39+qZ+qBlBUg6/kedCMmlxb08AjopQpuRmYqfeVUo82tmtXpdLXH6ev/3ChspnHHkkfu1Uphlb2Uhxa14xhbsf/dmvz1gAAYOjB5jNrVd8dDtca5n7+vF1AkeLlo2flKrNrELViy5YtZWVl48aNCwgIIJbgexxZo5O7Oc6980dXUlICAAUFhfaO3p6NEUJIdpSUlD755JNPPvmk5dVSUlLu379fV1fHZrM7JzAka99//30L986YMePkyZO6urqiYxscHByWLl16+vRpZ2fnpKQkc3Pzjo9JlUJ9f0lJPSNJCYWyagudwXrOlalUPyb3VdXo6qe77dq16/DhwwCwd+9esmNBCLUR9kWVFYFAQHYICPUIxCfjoqKi8PBwsmNBHSA8PLyoqEjiXTNmzODxeMnJybq6jY+vOnXq1MyZM6uqqpydnUtKSmQfJur+jhw5smPHDgBgsVjz588nOxyEUBthtiMr2JMNoU6QkpIiat7VckEAyQuJz2MLeY5IdHS0sbHx/fv3nZ2dX79+LcsYUfcXHR3t4eEBAL6+vl5eXmSHgxBqO8x2EEJyTPyTMZZ3uoGmhR1p8hyChoZGdHQ0jUa7cePGokWLnjx5IstIUXd25swZBoMBAKtXr96zZw/Z4SCE2gWzHVkZNGgQ2SEg1M2JF3YIWN6Rd+LPoPR5joiBgUF0dHS/fv0SEhKsra1v3rwpmzBRd7Z//36in8rixYuPHm3puksIIbmA2Y6sYAdqhGStaW6D5R25JirstCHPEbGyskpNTTU0NPznn3+mTZtGXCYFISl5enp+9913AODh4YEvHoS6B8x2EEJyqWlhh4DlHfn1/ffftyfPETEzM0tNTZ07d251dbWjo+NPP/3UgUGi7ur58+efffZZSEgIAOzbty84OJjsiBBCHQOzHVnBnmwIyVRzWQ2Wd+RUUVFRcnJyO/MckUGDBsXHx69evRoAvv32WwaDUVZW1v7dou7q3LlzRkZGly5dUlRUjIyM3LRpE9kRIYQ6DGY7soI92RCSneYKOwQs78gjXV3dDslzxB09enT37t3wvl3biRMnOnb/qBt48eLF6tWrnZycSktLjYyMUlNTv/jiC7KDQgh1JMx2EELyp+V8Bss7SMTPzy8zM3Pq1KlCodDNzY3BYDx8+JDsoFBXQZR0jh8/DgBeXl55eXlTp04lOyiEUAfDbEdWsCcbQjLScmGHgOUdJDJlypT09PSdO3cCQHR0tJGR0eHDh8kOCpGsoKBg5cqVTk5OJSUl48aNu3r1KovFIjsohJBMYLYjK9iTDSEZkSaTwfIOamTHjh2iIs+GDRvGjRv366+/kh0UIsHTp099fHxGjx598uRJAPDy8srPz7exsSE7LoSQrGC2gxCSJ9IUdghY3kGNEEWen376SVNT886dO0uXLp02bRqHwyE7LtRJGhoa9uzZo6urS5Rx5s6de+3aNSzpINTtYbYjK9iTDSFZaJrDLFu2DACoVOqMGTPEl2N5B0n09ddfFxcXb9++XUVFJS0tbd68eQsXLrx+/TrZcSHZ+uWXX3R1dbdu3fry5cuJEyeeP38+Pj7e2tqa7LgQQjKH2Y6sYE82hDpco8LOjh07eDze8uXLAWDgwIHJycknT54Uz3mwvIMkUlVV/f777+/fv+/h4QEAFy9enD59+vTp09lsNtmhoQ5WVla2fft2TU3NdevWlZSU6OvrHz16NCMjY9GiRWSHhhDqJJjtIITkhih7IfKcnTt3NupZvHz5cvGcB8s7qAU0Gi04ODg/P3/FihUAcP36dSaTqa+vf+DAgefPn5MdHWqvGzdurFy5cvjw4bt3766oqBg5cuSBAwcKCgqIpxsh1HNgtiMr2KUAoY5FFHaay3PEiec8WN5BLaitrR03btyJEydKS0v9/PwGDx58//79TZs2aWpqfv3111lZWWQHiNri3LlzNjY2U6ZMIfoQTJ8+PSIiorCw0MfHh+zQEEIkwGxHVrADNUIdrtU8RxyR8+zYsUPKrgaoJxs2bNju3bsfP378888/m5qa/vvvv4cOHfr0008nTpzIYrHKysrIDhC17tq1a+vWrfvkk0+cnJwSEhIAwNXV9dq1aykpKa6urmRHhxAijXJtbW1z97VwFwDU1dW1vAKxh1bXadvoXXxzkO7xadvoDQ0NAFBfX9/caqTPvSc/7xLnLuWLoVvOnUC8aFt4HKQZ3drauqGhQeLDSwwhcSfLli1r7q6PGr1l+JonZXRZbO7u7r527doLFy6cPHnywoULN2/evHnzpo+Pj729PYPBYDAYvXv3bs+gqMPduXMnKioqKirqn3/+IZYMGzaMwWCsWbNm9OjRTd8r8TXfzj3g3Dt/9B4795bf36UfXbnNEaCWVVRUaGlpkR0FQt1HfX19G7Yi/lYiJCXiBTNv3rx58+ZVVFRER0efPXs2PT2dw+FwOBx3d3dnZ2c7OztbW1sKhUJ2sD1aXl5efHz8xYsX09LSiCWqqqpOTk5OTk52dnbEkvZ/yEMIdQPKysqtJDzNraCkpCTNtq2u07bRu/7mVVVVMhpdQUEBABQVFVveP4lz78nPu8S5S/PL0iGjk7t5C8878aJt9XFo2+hKSkrEEF1z7p0wOrmbd+O502i0r7/++uuvvxavHpw6derUqVMAMGvWLCLtGTduXHsCQB8lPj4+Pj4+Li7u3r17ooV2dnZE5U1VVVXK/eBrvs3bym/w7dwc5975o3fY+3t7NkYIIYS6vbFjx37//ffff//9tWvXLl68GB8ff+fOncTExMTERB8fHwMDAyLtmTFjRq9evcgOthsqKSlJSEggkpxXr16Jls+dO9fOzs7BwWH48OEkhocQ6uIw25EV7MmGEELdDHFZHhaLxeVy4+LiLly4cP369bt37969e/fHH39UUFCwtLS0srIi/sdD3drj7t276enpaWlp6enpBQUFouVDhgyxsbGxtbWdN29e//79SYwQISQvMNuRFezJhhBC3ZWhoaGhoaGrq2vfvn2JmsPvv//+6NGjtLQ00Wkk5ubmosxnyJAh5AYsF7KyskQZzsOHD8XvmjBhAlFAmzp16rvTjtt3ZAtCqOfAPxYIIYRQGw0cONDZ2dnZ2RkA7t69S3xST0tLKywszMrKysrKOnToEAAMHTrUxMTE1NTUxMTExMRkzJgxZAdOvtevX+fk5OTm5ubm5hI3qqurxVewsrLCQhlCqP0w25EVgUBApVLJjgIhhFAnMTAwMDAwWLVqFQCUlJSIMp/bt28/fPjw4cOHHA6HWHPAgAGizMfAwEBfX7/bv1/U19cXFhYWFhbm5eURGc6dO3cardO3b19RemNpaYnNvhFCHQKzHVl5+vQp2SEghBAih7a2tqurK3FRy+fPn4vKF8SNFy9epKampqamitZXU1PT19fX19cfNWqU/ntyehmDhoaGwvcKCgpEt4nrbonT0tISlbxMTU3Hjh1LSsAIoe4Nsx2EEEJIhgYOHDht2rRp06aJluTk5GRnZ+fm5t6+fbuwsLC0tLSqqurWrVu3bt0S31BNTY1Gow0ZMoRGozW9Qe45+k+ePOHz+Y8ePRL9L7pRVlYm8epYqqqq+vr6BgYGxsbGJiYm5ubm2EsNIdQJMNuRFezJhhBCSCJTU1MjI6OlS5cSp9q/fv26UAxRDykrK6uqqqqqqrp7967EnQwYMEBNTU1NTY1Coag1QaFQVCTp1asXcaO+vr6mpqampubt27c1Tbx580YoFFY1QSx89uxZyxfu7N27d9NSlY6ODnEvthlACHUm/FsjK9iTDSGEkDT69u07fvz48ePHiy98/fp1UVFRo7KJ6MfXr1+/ePHixYsXZWVlZIU9aNAgosokXnQibuvq6pIVFUIINYLZDkIIIdTl9O3bd+zYsc2dylJRUfHkyZOXL182qrqIa1qxqampqa2tJeo5ioqKojqPsrKy6DZBVVW1UaWo0Y+KioqiWg1CCHVlmO3ICvZkQwghJCPq6urq6uptPhis/ceSlZeXt3lbhBDqTIpkB9BtYU82hBBCCCGEyIXZDkIIIYQQQqh7wmxHVrAnG0IIIYQQQuTCbEdWsCcbQgghhBBC5MJsByGEEEIIIdQ9YbYjKwKBgOwQEEIIIYQQ6tEw25EV7MmGEEIIIYQQuZSJpvsStXAXANTV1bW8ArGHVtdp2+hdfHMAePv2rYzm3tDQAAD19fXNrUb63Hvy8y5x7tL8srR/9K45dwLxom3hcWjP6HV1dcQQZL3qAF/zOPdOHx3nTtbmgHPHuXf66D127h31/o61HVnR1NQkOwSEEEIIIYR6NOVWL6Xc3ApKSkrSbNueSzW3MHrX31xLS0tGoysoKACAoqJiy/snce49+XmXOHdpflk6ZHRyN2/heSdetK0+Dm0bXUlJiRiia869E0Ynd3OcO1mjk7s5zp2s0cndHOdO1ujkbk7W3Dvq/R1rOwghhBBCCKHuCbMdWcGebAghhBBCCJELsx1ZwZ5sCCGEEEIIkQuzHYQQQgghhFD3hNmOrAwaNIjsEBBCCCGEEOrRMNuRFQ0NDbJDQAghhBBCqEfDbAchhBBCCCHUPWG2IyvYkw0hhBBCCCFyYbYjK9iTDSGEEEIIIXJhtoMQQgghhBDqnjDbkRXsyYYQQgghhBC5MNuRFezJhhBCCCGEELkw20EIIYQQQgh1T5jtyAr2ZEMIIYQQQohcmO3ICvZkQwghhBBCiFyY7SCEEEIIIYS6J8x2ZAV7siGEEEIIIUQuzHZkBXuyIYQQQgghRC5lsgNACCEkf168eFFVVSUUCnk8npKSUlVVVVVV1cuXL2uaUVtbW1NTo/KesrKyioqKkpKSiopK7969iYX9+/dXE0OhUNTU1AYMGED2XBFCCMkx5cePHzd3X01NDQCoqKg0Wl5XVwcAlZWVLWxLqKysVFBQaFtkzY0uF5sDAI/Hk9Hc3759CwBVVVXNPf6kz70nP+8S5y4QCPr06SPr0bvm3AkyfdFWVlYCQG1tbat/kZrTk1/ztbW1CgoKSkpKjZY/bsazZ8+eP3/+/Pnz+vr6to34sRQVFQcOHDhgwIBPPvmESqVqiRk8eLCmpuaQIUPatuee/Lzj3HHubYNzJ2X0Hjv3jnp/V9bS0mpujdraWgBQVm5c/yHeF9XV1VvYltDQ0NDqOh87ulxsDgB3796V0dx79eoFAGpqas3tn/S59+TnXeLcNTQ0pHlAuuXcCTJ90aqrqxPbkvWqA3l+zVdUVBQWFvJ4vML3SkpK+Hy+NMmMoqJiozpM//79VVrUXOWHQNSLxNXX19fX1wuFQqFQWFpampubKzEMGo2mra2tr68/atQo/feIF4bsHjqQ5+cd545zbxucOymj99i5d9j7e9s2RgghJHcePHiQk5Pzf//3f0RiU1BQUFFR0dzKRNmERqPRaDTixpAhQwYPHizKcAYOHCjrgJ8/fy7KfCoqKh49esTn8/l8vujG48eP6+vrHz58+PDhw8zMzEbxizIfIyMjExOTESNGyDpghBBCXQ1mO7KCPdkQQqTLycnJzc3Nzc3NycnJyckhjgpoREtLS1+Mnp4ekdi054vAjjJw4MCBAwcOHz68uRVqa2uJzEe8PFVYWPj48eMnT578P3v3HtdU/f8B/A1MhUIdirJ5AxINTARMSgUvzBtQlmCCQJpKVgb5LUETJW8hmkJlMrooShoomqA/E1ByeAE0byCao0QHim0CCt6SlMvvj6OIXMYYHM4Gr+fDhw84+3zO5/1hZ2xvPue8T2FhYUZGRnXjbt262djY2NjY2Nra2tjYDB48uFUmAQAAXOL+zaytQk02AGh9MpksLS0tPT397NmzWVlZzCJ+TczH/ZonffH5fE5CbRE8Hq9fv379+vV7/fXXa24vLS2tznwuX77MpHy3b99OTU1NTU2t7mtjYzNs2DBHR0cHBwdzc3MuZgAAAOxCtgMAoN3+/PPPkydPMkmOTCar+VDnzp2ZdYzq/zVhxaYV8Pn8YcOGDRs2rHpLeXk5s9JV/f+9e/fOnj179uzZH3/8kYheeuklBwcHJvN55ZVXuIsdAABaUrt42+NEcXGxQCDgOgoAaJuuXLmSlJSUmpqalpZWWFhY8yF7e3tHR8fhw4fb2toOHDiQqwg1DY/Hq5X//P3331lZWUyiePr06atXr169enX79u1EZGJi4ujo6OTk5Ozs3L9/f+6iBgCA5kK2w5Zbt25xHQIAtDXHjh1LSkpKSkqqWZ2Mx+MxKxLM0gRuUKOigQMHDhw40MPDg4ju3bvHLI6lp6enpaXdvHlzz549e/bsISJbW1tnZ2cXF5fRo0dzHTIAADQZsh0AAI1WWlqa9FRxcXH19tGjR0+aNInJcOreMAeapHPnzi4uLi4uLkRUUVHBZD4HDx48duwYU+Bh7dq1PXr0cHZ2ZjKfRstbAwCAhkC2wxbUZAOAZvr111/j4uJ+/fXX6i18Pp/5tO3s7NyzZ08OY2vD9PT0xowZM2bMmCVLlhQWFiYnJycnJyclJRUVFW3fvp051W3atGkeHh6Ojo5cBwsAAI1AtsMW1GQDAPUcO3YsLi5u586dt2/fZra88sorTJIzbtw4bmNrb3r27Dlz5syZM2cS0eHDh5OSkpKTk//888/du3fv3r3byMjIy8vL09MTJ7kBAGgsZDsAABrh8uXLMTExcXFxOTk5zJY+ffp4enp6enra29tzGxsQ0bhx48aNGxcWFnb69Om4uLi4uLiCgoLIyMjIyMiXX355+vTpPj4+AwYM4DpMAAB4ji7XAbRZNU+vBwBQ4ujRo15eXgMHDly5cmVOTk6nTp1mzpx54MCB69evh4WFIdXRNPb29mFhYdevXz9w4MDMmTM7der0119/rVy5cuDAgdOnT6++nw8AAGgCZDtsQU02AGjUL7/8Mnbs2PHjx+/cuZOInJ2do6OjS0pKfv75Z1dXV66jg0a4urr+/PPPJSUl0dHRzs7ORBQXFycSiUaNGvXLL79wHR0AABAh2wEAaH337t376quvzM3NZ8yYkZ6eTkS+vr6nTp1KSkp67733DAwMuA4QmsDAwOC9995LSko6deqUr68vEaWlpc2YMcPc3Hzt2rX379/nOkAAgHYN2Q5bUJMNAOoVFhZmZma2ePHivLw8ExOTZcuW3bhxY/PmzThjTdvZ29tv3rz5xo0by5YtMzExycvLCwoKMjU1DQsL4zo0AID2C9kOW1CTDQBq2bJly4ABAxYuXHj79m0bG5uffvpJoVCsXLmyV69eXIcGLaZXr14rV65UKBQ//fSTjY3N7du3Fy5cOGDAgC1btnAdGgBAe4RsBwCAdXv37n399dd9fX1zc3P79u0bGRmZlZU1d+5cruMCFs2dOzcrK+v777/v27dvbm6ur6/va6+9tnfvXq7jAgBoX5DtsAU12QCAiK5cuTJlyhQ3N7dTp069+OKLq1evzs/PnzdvHtdxQSv56KOP8vPzV69ebWhoePr0aTc3tylTply5coXHwx0gAABaA7IdtqAmGwBERkYOHjx43759RBQQEJCfn79kyRIdHR2u44JWpaOjs2TJkry8vICAACLat2/f4MGDIyIiuI4LAKBd4JWXlzf0mJKHiKiiokJ5A2YPjbZRb3QN705Ejx49YmnuVVVVRFRZWdlQM87n3p6f93rnrsqLpfmja+bcGcxBq+Tn0JzRKyoqmCG4OuqovrlfvXo1MDBw//79ROTk5PT111/b2to2cxTQat27dw8LC3v33XcXLFiQmpr6ySefHDp0KCws7KWXXlJjb5r8emd7dMydq+6EuWPurTt6S72/Y22HLT179uQ6BADgAI/H++GHH2xsbJhUZ+3atRKJBKkOMGxtbSUSydq1a4lo//79NjY2P/74I85qAwBgD6/RX7INNdDT01OlbzN/iWtvdxMTE5ZGZ06D0dXVVb5/HUUuiAAAIABJREFUDufenp/3eueuyoulRUbntruS5505aBv9Oag3up6eHjOEhsx9/vz5GzduJCzpQMM+//zzSZMmMYs8/v7+f//994YNG9TYj4Yc860/OrfdMXeuRue2O+be+qO31Ps71nYAAFrGgwcPpkyZwqQ6oaGhWNIBJZhFntDQUCL67rvv3Nzc/v33X66DAgBog5DtsAU12QDaFalUOmrUKKYgwS+//BIUFMR1RKAFgoKCfvnlFyLau3evo6OjVCrlOiIAgLYG2Q5bUJMNoP1IS0sbNWpUZmZmv379jh075uPjw3VEoDV8fHyOHTvWt2/fzMzMUaNGSSQSriMCAGhTkO0AADRLdnb2Bx98cOvWLUdHx2PHjo0aNYrriEDLjBo16vjx4w4ODrdu3fLw8MjOzuY6IgCAtgPZDluMjY25DgEAWPfPP/94eHiUlJSMGjUqNTXV1NSU64hAK5mamh45cmTUqFFMwvPPP/9wHREAQBuBbIct3bt35zoEAGDXo0ePPDw8/vrrLysrq127dqGOMDQHj8fbtWuXlZXVX3/95eHh8ejRI64jAgBoC5DtAACoycPDIz09vUePHrt27RIIBFyHA1pPIBDs2rWrR48e6enpHh4eXIcDANAWINthC2qyAbRtkZGR+/bt09HR2bVr1+DBg7kOp0lkYu+hQ+19xLlN6FN6JjF2f2YpEeWKfeyH+nwvq92gQKpQlBERJQUOtR8amNTI/hIXjBtqP9J/R2kDDaRij6FD7aeKLzYhyDZg8ODBu3bt0tHR2bdvX2RkJNfhAABoPZx3wRbUZANow+Ry+eLFi4lo3bp1Y8eO5TqcpiorU2RmnjEqK1O9iyIm9A3/0rBLk+34ZWWKM5nkUVa7wfxB/hQhj/cTlJVlnskcqXznKSGB30ikw5eKp/Hrb5AUFb47s8TN11WNRPJMlP+2TBXa2fl+52vX9N2zbezYsevWrVu4cOHixYvd3NyEQiHXEQEAaDFkOwDQHuXl5ZmZmandffHixffu3Rs5cmRgYGALRqW58vYkJpDVZ1ZGBQpFUclDIronVxQYERGRPr8PX79UkpFAI4KsqEChKC0jorJShaLgaXceXyDQf7a34nj/+eFSIjthacwC/5jnhxJOCF7qIl+9PlxGZEfS8Pn+daIRui5aKkzyj7pQX6jWvhHGmeKNYhVm5Sf6jjQw2yGiwMDAhISEjIyMxYsX//zzz1yHAwCgxZDtsAU12QA0WV5e3sqVK5cvX65GzrN3795t27YR0Zo1a1gIrdVIAq11lOZqorALhwMGExFJIsWJRPTNG8Jvnj745Tjhl8xXfnuqIqw2RcUS0Zpxwqc/kqg5wqjqPTmFXZIEWDFfl2eGe/uKc4iIMhPEdZdgRH19XXMCw1IbbEAkMv9gaVmmWPx9fVHPE0VMICIa8cXh+A8GMdsOLBO+v3XEUkm8/wBmw6UIr3Gr05RNnnNr1qwZM2bMtm3b3NzcpkyZwnU4AADaCtftsAU12QA0mZmZWXR0tJOT0+zZswsKChrvUMOWLVuI6NNPPx09ejQ70bUOvrmtnd0wJf8E+vpERKUJ/v7rpfwZmy9dl8uvy+WSpSOIRnxxWM58ez3ENSt8xiKJ+dyYJw22+BKR7xb50wZyeazf01RHFjvHJzClVDA57Nzjh+e+87YTiEJOP6yq9rjqwITEwEWSUmPvmKKqh5KlI4yt3CPPVT3ncMBgco98+l28HxGJ1l168m2kOzOUQWehoI+A+WekT0QGRj0ET7cIjTpw8jNvgtGjR3/66af09HgDAAD1YG0HANojMzOzrVu3zp49Ozo6+vfffx83btyKFStUWecpKCjYv38/Ec2ZM4f9MFk11G/7k6Ub5WQKORl7i7/2tWJWrEuNDIios1DQhylDV5b4dcxZem9PqPeTBnx9ItLnCwR9nt/R/cxwb9fA/Qr+hLDE+AA7HpHLG6bLfILtX9fPPB9gS7Id/h7e4l7b8gMWZliNEHsbE42aOtVOHPixj78gI8KtgSt82q45c+Z8++23+/fvLygo6NOnT+MdAACgDmQ7bCkuLkZFWgBNVl1doKCg4Oeffz58+PD48eMbPbdtx44dROTg4GBtbd0aUWoAvvVUv2UllBIby3xfLC0hosuS2B3MWWZ8l/BDm/vGlVU3uCAjItnp2NiymjtxdR1s5zt7aqK+VVisnx3z5mPhvXVLRvLMPLpfSsQ3tzbvQPR/q9a9d/pABJPa8OwCYsXnrCP0eU2oqMAoeRYhXSogohJpamzsk0t9SqQlTd0fB6ytrR0cHNLT03fs2LFw4UKuwwEA0ErIdtiCmmwAGq56eYf5tqCggFnnUZ7z7Ny5k4i8vLxaL9DmuK9Q1FPhWV7ymIgelhTVKCRQ0/NFBTJjffzrXiGzyd9nE/OVKEzfNXFBoOT5xxPX+CTW+Fa07pLrYD7f3lWUmhi14LnCA74zzGS7gv13EREJbYmyxMHeZRKLZwEYuQ0tSwnxT2G+U7WQWuazCJ9siJrvE9VQa03l5eWVnp6+c+dOZDsAAOpBtgMA7Vfd4tHKc56ioqJz586R9mQ70u99Bi2SNPDgidUi4ep6H6lZVIDIPbKqKpKISLLopXFbXQ8URbhSvL/OVOm6S4cXPmkVUBVARPEf60y9EHLu+FK7i+HjrAOt4qsi3IiISi9KpHxzIqJSqWSjuKGAnoWdFCVt8EFVC6lpe5UChpeXl7+//7lz54qKinr06MF1OAAA2gfZDltQkw1A89Va3qnWUM6Tn59PRCYmJt26dWvtWJvBfIKvq6V+4+2I6L40cauk9n1Dn5BmnpHRKKuhNbcpMqNCg2WTD4RMICpPzEgh/gSruqlIxk9T39jhc6AowpX5/vlsSmXScNGgwFRVWxs8u7KIalQpYDaUaH6VAka3bt1MTExu3ryZn5+PbAcAQA3IdtiCmmwAWkHJvUHr5jxMtmNqatqKAbYA8wkBEQtVSy4uho9rKNtJiYpKJdfvXAVEVFpWQiT7P/+BiySXyWSRG1G5In5+YHiuVcDTkmhEJC8tJeJT+YmM06W106SyUkWxypfi6PMFxrWzNdn3PlO3SImI7suJ6Fykz9BdRERWc/bEtK1LJk1NTZlsZ9iwYVzHAgCgfXjl5eUNPabkISKqqKhQ3oDZQ6Nt1Btdw7uTaj8f9UavqqoiosrKyoaacT739vy81zt3FQ+GetusWrXq2rVrqgxdWVlJRLq6apaVb2Z3Inr48KGBgUG9D+Xk5BDRDz/8cPDgwRYfXaFQMP/PmjVLje5ENHLkyIyMjIYerc55xo0b16tXL9LCbKcFKOL954dLLfxCZpgTkWx7TCJRadol0Scx+0Lde58K9bFfH5tFIxbGBE8gIqI+QoExxc4x0nlSuI7vHukqICJLv5jrPsTjC5ICddxVuQEoERHN21MV6U5kFSCpCni6rey+IvPMs5vxlOZlZuYRERl5PEmi2kCVAoapqempU6euXr1a81eEZv6ua53RMXeuuhPmjrm37ugVFRVEVFVV1czRsbbDlqKiIhMTE66jAK23ffv2vLw8rqNoGceOHTt27BhLO7979y6rt5xn6rb17duXiIRCIXsDaZ4yRUq478zgRIWVX3yIO5+IyHyyq+t+8ze+C/O21Ccqjf/1l9isbt7f/Rr1id2TJRi+tzjp4aBtmXIiIn1zJ18/N3MiIp5+9dll9PylNfW7HOEuWn2ivkesFh6uYq7bT/DXcReLalxERAlEbaVKAT093pisHgAAmorH4zWS8DTUQE9PT5W+jbZRb3TN737nzh2WRtfR0SEiXV1d5fvncO7t+Xmvd+6qvFiUjz5r1qxG1xM4X9u5f/++oaFhvQ9FR0fn5+dPnTp18OD6b+/SnNHz8vJ+/vnn7t27+/v7N966Pnv37j1//rzyNmZmZu+9956xsfEnn3zCnM/WXpRLty4NTlQMDPg/SZjNT/7zn6w0GllSRmTgkxWxMjv32UZGl6MC59fubTczwrfh069qXlpTP+bePmppG1UK6OnVYubm5nV/OWja77pWG53b7pg7V6Nz2x1zb/3R9fT0iEhHR6e5ozenMwC0jvfee0/J5SWMJ8u16v5GaGZ3IlIoFA3dY+rIkSNMttNQKbPmjH7kyBEm21mxYoUa3fPy8lauXKmkAZPnMDtn7iuqddmOLCXc/7qqVQpqX7TDswtKvDSl3MpKQJRwTbxR5dPPiIjIzymCGs52ap5sVr9itc44cwmRXw8mvkDwNPuuU6VAELxb7l+urxX3K9XSq8UAADQEsh22oCYbgFZQkurUzHMYzCdOLcx2osQpzehvbFWzxIHf07rSyknXj2u4+PUTdU42ayH6/KdZTcNNtOf2z8h2AACaA9kOW1CTDUDz5eXlRUdH191eN89hMJ84S0pKcnNzLSwsWiPEltD45THVGr5OpmHScNGgQFKnqPRzF9vUqyBx9bpEubV5U/aqSPwyJLHouU3yTCKSJX7tL3v+XEvhhOClkzU668nNzS0pKSFkOwAA6kK2AwDtV92FnYbyHEbXrl3Hjx//+++/79ix44svvmA/wOaymhcj96Ia53SVld3X16/5if++VFpsZVV9D1VBcLzMp4TMm5K3lJU9JlLr9jUP78kVBUZKmwz1XTSUiBQFinrrUNenRJoqFtdzWx6ZZGvtG5uK+vppeLazY8cOIho/fnzXrl25jgUAQCupf0UyKFdcXMx1CACgTK2FHTMzs+XLl8tkMuXX/0yfPp2Idu7cyXp8LaA09uORdsv2yZmazDniqeZC4cexpdUP73j/pc6DRi57tqXsePhE80Ejl8WX1rO3BpTLZGlEfdQpVHfiy3HCvkJV/y1LVLKrh0WZsev9p4oGCT+W+sXK5def+7d5NhGNWCqpvT1mXtPvcdq6mCONOeoAAEANWNthy61bt7gOAQCUqV7YMTMzmzFjxqpVq1Tp5eXl9fHHH1+6dOno0aNjxoxhM8DmKt0fHLJdprC8IOeRHRFZWpnzSku3x8Ss8vYzIyLiT3N3XxYVXmOL/qgREy0pfHtw4GTXzdNUuoa/dL9EQkQpUYHryXea+wgz1cohEJHqp9g1cH5dmSIzI0mSmHSOiE6s92Ea8PlyuUBQ69S3OlUKtMPRo0cvXbrUsWPHhsp7AABAo7C2AwDtEbOwU72es2zZMhU7vvDCC8wf2sXiplUna23lkpBFYinxvZeEuD5JW0RTveyIEmO2Py2DxnN1dTN/fosoeIk3n2RRy0IkdW/m1tfO7xM/u77PNihSw6fPFcuMzc1JErXIZ6S5gdDqDZ8vo07klXUfMqZW47qYCtSN/+tRtw51ZrjIyEA4dNycwPDdJ4gEVi7eIZGHz8kflsT7NekqH03GHGPTp09/4YUXuI4FAEBbYW2HLajJBqDJoqOjly9fzpy01tSbNPv7+2/btm337t07duzQ2D+6S5b4h+cQf0Jw8IxnSzQjXF3tvsw8Eb/nxBd2I4iISOThO2J98IltMYlBdq48IiL+jODgrbGBqeGrv/EV1SohMMw3giknfV92Yn981FbxnhRZqbGd30+SCDd9RVp8zLaYqP2JscsSY5e9LxjmPtXDZ6hZGVGDqz0qXLdDRERFJQ9rb7Ib6WhOUnKf5jPVw9V1mBWfGaRUmrgjs+5peJcKiKhEmhobe6H2Q3xrV9fBmliJeseOHbt37yYitW8kBQAARERVDXv8+PHjx4/rbh8wYAARpaamKunLkMvljbZp6uha0b2Kzbkz912JiYlRr3szR1cFnvdqzKtMJpOpPbqZmZmKLzdNm3tNzBlfsbGxbIyemppKRAMHDlSvu3qjL1myhIhMTU0fPnyo9rjsKYn3syIiY1FYZq1HDgdYEJHd0hPVWy6FORFRv5DjNVolBpgTkbF3TFFVVVVV1eOHV48fiIndHLbQz9dNZGdWnRvw7SYvjZE+/xN4/PDSoYilbnZPr/3nm0/wDom9VPvHFO/X5LereXue20O9P/oLYaIm7lW07lITf7qt4eHDh0wRtqCgoHobaPLrne3RMXeuuldh7hyN3m7n3lLv71jbAQBostWrVyckJEil0qCgoG+++YbrcGrju/j6eWUk2oUF2NZ6RDR1SdjQAT7uw6u3WPluu+onMNev+W7g4hcwLTNzlK/oSV6TIZ77RnjO00cFVnYurlMn+7pOG2lXt0gaT99qgl/IBL+Q+1LJ9hjxlqj4lNiMySFL64uzWdft6OvXs2bUxzUgVujb+B6f4VurUV6BdUFBQfn5+VZWVqGhoVzHAgCg3ZDtsKW4uFh7bl4HAE22Zs2aKVOmfPvtt9bW1nPmzOE6nOfp2/nFnqt39WTE7IARz2/h96l7nYu5367Dz77jiYK3Hxh6uVRgJRrUR8Uy0ESGVqJ5IaJ5IWUXpXLLOkO4hMivB9coja2UIDj+uj/pq3C+Gd/K1UvTy6w1asuWLd9++y0RrVmzhutYAAC0HrIdtqAmG0Db9vbbb3/22WfffPONr6+vsbHxW2+9xXVELOIPc/UepmZf/cFW9ZQN0Oc3oTwaT1/Qp7388ej//u//fH19ieizzz57++23uQ4HAEDroSYbAICavv766xkzZhCRh4dHRkYG1+GA1svIyPDw8CCiGTNmfP3111yHAwDQFiDbYUv37t25DgEAWLdt2zYXF5f//vvPw8MjJyen8Q4ADcjJyfHw8Pjvv/9cXFy2bdvGdTgAAG0Esh22oAI1QDuxa9cuW1vbGzdujB49+tChQ1yHA1rp0KFDo0aNunHjhr29/a5du7gOBwCg7UC2AwDQLIaGhps3b3ZwcCgqKpo0adLmzZu5jgi0zObNmydNmlRcXOzg4PDrr78aGqpSugEAAFSCbIctxcXFXIcAAK2kd+/ex44dY+40Onfu3GXLlnEdEWiNZcuWzZ07l4i8vLyOHTvWr18/riMCAGhTkO2wBTXZANoVXV3d2NjYzz//nIi+/PLLmTNnFhUVcR0UaLSioqKZM2d++eWXRPT555/Hxsbq6uJNGQCghfHKy8sbekzJQ0RUUVGhvAGzh0bbqDe6hncnokePHrE096qqKiKqrKxsqBnnc2/Pz3u9c1flxaJ8dBVfbqpEyFJ3Uvq8Mwetklk0Z/SKigpmCK6OOqox97Vr1/bp0+eTTz7Zvn37oUOHwsPDfXx8mrlzaJNiYmICAgJu3rxJRN99990nn3zSpONQk1/vbI+OuXPVnTB3zL11R2+p93f8GYktqFIA0A6Vl5d/9NFHhw8fHjp06M2bN999992ZM2fivFaoqbi4+L333nv33Xdv3rw5dOjQw4cPz5s3r/kfRwAAoF48Hq+RG4w21EBPT0+Vvo22UW90ze8uFApZGl1HR4eIdHV1le+fw7m35+e93rmr8mJRPrrqe9C0uTOYg7bRWag3up6eHjOE5sxdJBKdPXt2yZIla9aswSIP1FRzSefzzz9fu3Ztc/amOcd8K4/ObXfMnavRue2Oubf+6C31/o61HQAAVoSGhh45cqR6kWfSpElHjhzhOijgzJEjRyZNmlRzSSckJITroAAA2j5kO2zBuSsAMGbMmLNnzwYFBRHRoUOHnJycvLy8srOzuY4LWlV2draXl5eTkxNzO6agoKCzZ8+OHj2a67gAANoFZDtsQU02AGCEhobm5ubOmTOHiHbu3GljY+Pn51dQUMB1XMC6goICPz8/GxubnTt3EpGvr29ubm5oaCjXcQEAtCPIdgAAWNe/f/+oqKhTp065ubkRUWRkpKmpqb+//4ULF7gODVhx4cIFf39/U1PTyMhIInJzczt16tTmzZv79+/PdWgAAO0Lsh22dO/enesQAECz2Nvbx8fHJycnjxkzprKyUiwWDxkyxM3NLTk5mevQoMUkJye7ubkNGTJELBZXVlaOGTMmOTk5Pj7e3t6e69AAANojZDtsQQVqAKgXU64gMTHx7bffJqK9e/e6uLjY29tv3ryZ69CgWTZv3mxvb+/i4rJ3714imjJlSmJiIlOcgOvQAADaL2Q7AAAcYD4Tnz9/ft68eTwe78yZM3PnzhUKhZ999tnJkye5jg6a4OTJk5999plQKJw7d+6ZM2d4PJ6fn192dnZCQoKLiwvX0QEAtHfIdtiCmmwA0KghQ4Z89913N27cCA0NNTU1VSgU33777YgRI2xsbEJDQ69cucJ1gNCgK1euhIaG2tjYjBgx4ttvv1UoFKampqGhoTdv3oyIiLC2tuY6QAAAIEK2wx7UZAMAFXXr1i0oKCgvLy8hIcHT05OIsrOzly5damFhMX78+E2bNpWWlnIdIzxRWlq6adOm8ePHW1hYLF26NDs7W0dHZ/r06QkJCXl5eUFBQd26deM6RgAAeKZZtyYFAIAWNGXKlClTpvz0009xcXE7d+6USCSHDx8+fPjwBx98IBKJXFxcnJ2dBw8ezHWY7dHFixeTk5OTkpIkEkn1RkdHxxkzZnh6enbt2pXD2AAAQAlkO2xBTTYAUE+XLl3mzp07d+7cK1euxMXFxcXFZWdnSyQSiUSycOHCl19+mUl7cO17Kzh48CCT5Pz111/VG62trT09PT09PQ0NDQUCAYfhAQBAo5DtsAU12QCgmfr3779kyZIlS5bk5OQkJSUlJycfOnTor7/++uuvv7799ltDQ8NJkyY5Ojo6ODigunELOn36dHp6elpa2sGDB+/fv1+9feLEic7Ozi4uLpaWlswWhULBUYwAAKAqZDsAAJrO0tLS0tLys88+u3fvHrPUkJSUpFAo9uzZs2fPHiLq0qWLg4MDk/k4Ojrq6elxHbI2qaioSEtLYzKc9PT0u3fvVj8kEAiYlTQXF5fOnTtzGCQAAKgH2Q5biouLcYYDALSszp07T5s2bdq0aUSUkZGRmppa/QGdSYGIiMfjOTg4DB8+3NbW1sbGxsrKiuuoNZFUKj1//nxWVtbJkyfT09PLy8urH+rcuTOTN44dO9bBwYHDIAEAoPmQ7bAFNdkAgFUjR44cOXJkeXm5jo7OuXPnqpcmFArF0aNHjx49yjR78cUXbWxsmMyHoa+vz23kra+srOz8+fNMesN88eDBg5oNTExMqlfGcFogAEBbgmwHAEC7VVVV2dvb29vbf/rpp0T0559/pqennz17lvlk/+DBg4yMjIyMjOr2gwcPtqhhwIAB/fr14y78lnft2rXLly/n1nDx4sVabTp16jRkyBAbG5thw4Y5Ojq+8sornIQKAABsQ7bDFtRkAwBOvPLKKzU/u1+4cKHmmkZRUdHFixdrffrX19dn0h4LCwszM7NevXoJhUKhUNirVy8eT0PfJsrLy//55x+5XC6Xy//555+8vDwmsbl8+XJZWVnd9j169GCWtphlLmtra+bsNY2dIAAAtAj8lmcLarIBgCawtra2trZ+9913mW/z8/P//PPPWksfZWVldVMgRs+ePWsmPz169OjatWvXrl35fH7XGlowZygvL7/zVGlpafXXRUVFNdObwsJCJTupTt4YgwYNMjMza6kIAQBAiyDbAQBoR0xNTU1NTau/LS8vr6yslMlk1ZnPtWvXmHRCLpdXVlYWFhYWFhZmZWUp362hoWHXrl0NDQ071NGxY8fqrx8/9ejRo8d13L9//86dOzWLPiunq6vL5GBCobBfv37VJ+ZZWFjo6uqq/zOCduPhw4d3nldaWnr37t26B2dN//33X5cuXeoe6h06dODxeAYGBnX/HNC1a1dUSgTgCu/mzZsNPfb48WMi6tChQ63tFRUVRFRSUqKkL6OkpERHR0e9yBoaXSu6E5FMJmNp7o8ePSKiO3fuNPTz53zu7fl5r3fuxcXFBgYG6o2u+stNM+fOYPWgLSkpIaLy8vJGf0QNwTHP5/OHDRs2bNiwWo8WFhbevHlToVDcfOr27dt37969e/fuvXv3mC/+++8/Irp//77qWYoqOnXq1KVLly5dunTu3Jn5olu3bibPMzY21tXVrfuTLyoqUmUIPO9tfu6lpaU361AoFEVFRcwBzPxqah0vvvhily5dunbtamJiIhAITOro1KlTozvB8465t3534m7uLfX+zjMxMWmoRUPnNDN/nzAyMlLSl1FVVdVom6aOrhXdiSgnJ4eluXfs2JGImN+YanRv5uiqaM/Pe71zNzY2VuUHUu/oqr/cNHPuDFYPWiMjI6YvV0cdtd1j3sTExNraWvke8vPzDQwMmFPO7t+/X15eruSP4jwer+YfwvX09Dp06NCpUyfmW2aBiKFK4ThNPubZHh1zr9n90aNHzCVb1UuUMplMLpf/+++/quywc+fOtdZhai5I1lVZWankIP/3339rrRcxfxF48ODBgwcP5HJ5Tk5OvWF07969d+/eNc/AtLCw6NOnD6s/uqbSqOe9NbsT5s7F3Fvs/V29zgAAAETUqVOnnj179uzZU42+qBMAarh169b58+cvXrxYneHk5eU11Lhr167VV51V/y8QCGqeacb2OWbM+XLMXwRu375dfe1ZzS8eP35869atW7duZWdn1+z74osvVmc+lpaWgwcPtrGxYTVagLYH7zFsQZUCAACA5pPJZExRQeb/enMbQ0NDi+cxiY2hoWHrB1yLgYGBgYGB8huOFxYWyuXya9euVS9PXb58WSaTPXjwgKmmWN1ST0+v+vZZzBddu3ZlfxIAWgzZDltQgRoAAEANpaWl6enp6enpf/zxR1ZW1u3bt2s1MDc3t7GxsbS0rM5tevfuzUmoLYVZIK21bvP48ePqzIe5bdT58+fv3r179uzZs2fPVjcbMGCAra0tc2/cV199tdVjB9B0yHYAAACAY3K5PC0tLS0tjbk3bq1HhwwZwqxjMP+3k78ndujQwcrKysrKqubGv//+u3qZKysr68aNG5cvX758+fLu3buJqGvXro6Ojkzm4+joqPaV5QBtCbIdthQXFytftgYAAGjP7t69m5ycnJKSkp6eLpVKaz7Uv39/5lO7ra2tra2PxhqjAAAgAElEQVRtc8pJtTEDBw4cOHDgtGnTmG8VCkVWVtaZM2eYRPHOnTsHDhw4cOAAEXXo0MHBwWH06NHOzs4jRozgNGoALiHbYcutW7e4DgEAAEDj5OTkHDx48ODBgykpKTW3DxkyhFmUcHBwqHlXKFBCIBA4Ozs7Ozsz3/7xxx/p6elM5lNYWHjkyJEjR46sWrWqV69ezs7OEydOdHZ2xnU+0N4g2wEAAADWHT58OCkpKSkp6dKlS9UbLS0tnZ2dx4wZ4+Dg0KNHDw7Daxtef/31119/fcGCBUR04cKF9PT033//PTk5+Z9//tmyZcuWLVuIaNKkSS4uLs7Ozi+//DLX8QK0BmQ7bEFNNgAAgBMnTuzcuTMuLq7m/QFFIhHzgXvw4MEcxta2WVtbW1tbf/TRR0SUnJyclJSUnJz8999/MwtrROTg4ODh4eHp6an2zUwAtAKyHba0k2soAQAA6srNzY2Li4uLi7tw4QKzpUePHs7OzkySw9w0EFpN9dlu2dnZTOZz5MgRpvDd//73v7fffnv69Omenp6oagBtErIdAAAAaBmPHj2Kjo6Oi4uTSCTMFl1dXU9PT09Pz7fffpvb2ICIhgwZMmTIkEWLFt24cYNJR0+dOrVv3759+/Z98MEHnp6e06dPHzduHNdhArQkXa4DaLOKi4u5DgEAAKCVyGSyxYsXm5iYfPjhh0yqM378+E2bNpWUlMTGxiLV0TS9e/desGDBH3/8kZmZuXjxYnNz83v37m3evHn8+PEjR46Mjo7mOkCAFoNshy2oyQYAAO3B8ePH33333Zdeeumrr74qLS21srIKDQ3Nzc1NSUl5//33u3TpwnWAoIytre2aNWuuXr166NAhX19fIjpx4sTs2bP79eu3evVq/OkW2gBkOwAAAKCOnTt3Ojk5jR49OiYmhojGjx+/e/fuS5cuBQUF9e/fn+vooGkmTJiwefPmmzdvrlq1qnfv3tevXw8ODu7Zs+e8efOysrK4jg5Afch22IKabAAA0FYlJye//vrrXl5eR44cIaL33nsvIyMjJSXlnXfe4To0aJaePXt+8cUXBQUFUVFRr732WlVV1Q8//GBnZ/fRRx/l5+dzHR2AOpDtsAU12QAAoO05duyYi4vL7NmzT5069eKLLy5duvTatWvR0dEjRozgOjRoSXPmzPnjjz8OHjzo7u5ORD/++KOZmVloaOi9e/e4Dg2gaZDtAAAAQOMuXrzo4+MzZsyY5ORkIlqwYEFeXl5ISEjfvn25Dg3YMnHixD179qSkpIhEIiLauHGjqanp+vXruY4LoAmQ7bAFF/YBAECbsWTJEmtr69jYWCKaNWvWX3/9FR4ejnO224nx48cfPnw4Li7O1ta2pKRk0aJFAwYM2L9/P9dxAagE2Q5bUJMNAADagKNHj7766qtr1qwhorfeeuvkyZNbt24dOHAg13FBa/Pw8MjMzPzhhx/69euXm5v71ltv+fv7P3r0iOu4ABrBKy8vb+gxJQ8RUUVFhfIGzB4abaPe6BrenYgePXrE0tyrqqqIqLKysqFmnM+9PT/v9c5dlReL8tFVfLmpEiFL3Unp884ctEpm0ZzRKyoqmCG4OuoIxzzm3uqjt1r34ODgr776iohMTEzCw8N9fHyaMy60AR9++OGcOXMWLFgQEREhFosPHjy4fv36N998s9GO2nLMK9lDm3+9K9kDJ3Nvqfd3rO2wpWfPnlyHAAAAoA4ej3fs2LHXX3+dSXVmzpzJXLTDdVygETp06LBx48b9+/cPGDAgNzfXzc3tf//7H4/H09HR4To0gHrweDxeoy3q3a6np6dK30bbqDe65nc3MTFhaXTmt4murq7y/XM49/b8vNc7d1VeLMpHV30PmjZ3BnPQNjoL9UbX09NjhtDMubfC6Nx2x9y5Gp3V7tHR0bNnzyYs6UDD3nzzzYkTJwYEBERERERGRmZnZ8fExPTr1095L4095lXpq73BN7M7V3Nvqfd3rO0AAADAM6tWrWJSnWnTpmFJB5To2LHjxo0b/+///q9bt25paWmjRo1KS0vjOiiA2pDtsAU12QAAQOu8//77y5cvJ6KAgIBdu3ah6ho0avLkycePH7e1tb127dqoUaOYwn0AmgPZDltQkw0AALTIw4cPJ06cGBUVRUQbNmwICwvjOiLQGoMGDTp+/Phbb71FRD4+PmvXruU6IoBnkO0AAAAAeXh4pKSkvPDCCwkJCfPnz+c6HNAyhoaG+/bt8/f3J6KgoKAff/yR64gAnkC2wxas/gMAgLaYPXv2b7/9xuPxkpOTp0yZwnU4oK02bty4cOFCIvroo4/27NnDdTgARMh22NO9e3euQwAAAGjcwoULo6OjiWjXrl2jRo3iOhzQbuvWrZszZw4ReXh4HD16lOtwAJDtAAAAtGNfffUVc4nOTz/95ObmxnU40BZERUW99dZblZWVHh4eubm5XIcD7R2yHbagJhsAAGg4qVS6ePFiIgoNDZ07dy7X4TTsTJT/fP+oMy2zM8mycUPth/psktX/cLkkWDR06Aj/WBXexkv3B46zHzry49jSBhpIN04daj906kap2tFqqV27do0cObKwsDAoKIjrWKC9a9bNekAJ1GQDAAANx3wSdXV11fSPpNczxRvFfk4RNOzplvIyhaKhFKMGHl8g0H9uS55Y/L0ks/yj4Gnm9fYo3RElTs00+izEu9HLb8slIYvCJTkjlm705tffIDHqu/jM3Mm+u60aD7WWgsTV6xLljbcTui5a6tqnybtnW6dOnTZs2GBvb//rr7/GxsZ6e3tzHRG0X8h2AAAAtI+Ojk5eXp6ZmZl63fX09KKjo/ft20dEa9asadHQWkWO2Mc6UNJoM6ewS5KAGqlGaXxoeHwxWc22KEuqfV8YvrWrq+W5kNDYUrKa2rc0dkfd+8aYj/AaYV69q/n+4TlEtsLSWH//Wm17uAZ/4SpfHx6eS2TbQfq1v3+dfQknBPtSVEhKfRlND9dgN6lko7jxCZLI/ANNzHaIaNiwYUuWLAkNDV28ePGUKVM6duzIdUTQTiHbYQtqsgEAANvMzc23bt06duzYpna8e/cus56zYsWKIUOGsBAay/q4BsQKfRttxrcT1viudHdg4CYZEUm3Bvpsrd1WtO6c/jb/8BwikkYt8ImqZ3d+e55mO5nrp/p+LyUiyooXZ9Vp6GTuO1ka+LWkwQZEor5+7iQRb6wvo3Ey92MuoZq9Wb7qDWbbpZ/cx315wneLPGTCk1YHlgnfrzMLjbJ69eqEhASpVBoUFLRhw4by8nKuI4L2CNkOW1CTDQAA2FNVVWVmZmZmZubk5GRmZtbUnGfbtm0KhcLGxmb58uXsBckivpWrVxNPD8sT+34cJTMWhSTE+Jo9fFhuYPD8h6CS1OCpi6RkGbAnJXAk0cPyhwY8g+d3oc+csSbb7uOzSFIqcA1LOuBXLvadG6LwSDwQZPfsnLmyzNWuQyXFfO9tshi3c8EuU+OFITGxfna1P3YdrlpIREQXw8dZB0rm7amKdH/yyMVwIiJ9I0EfwZPwOhsQkT5fIHi6kmP0/Dl6mmnNmjVTpkz54YcfvvzyyxdeeIHrcKA9QpUCAAAAbbV161YiysvLc3JyMjc3P3LkiIod4+LiiMjHx4fF4Jor3l/nKXcxEYndn377cXyTd1acGDgjOL6YL1oUttTxYcY6n5EfRMj0BYI+z/6Z27v6eLmHbA1z7yMQFO950/yl4NSHNRsI+vD1qSxz/RsjZ8ZKjUVhSQcCbEnf1vUNayPJEtEb6zOJiHJj/Se+JPzg3P9Webl+EiWewSdD0dS3hsp3+/vMj1fhSqO25u233x40aNCjR4927tzJdSzQTmFthy3FxcUCgYDrKAAAoC0zMzMbO3Ysk+QwOY8q6zwXL15MT08nIi8vr1YKVB36+sPs7Jgvi2WZeaUCSzuhIRERGTZxUaM8M9zbJzyt1Grenj0L7YjIvK9B2cbVrt5GksQAOx6VnQmfOjkwUUGiry8dHk5ERAKhky1fPHOkvDjxwGd2NaOym+07NUnf6us9frZERMQz9/46JON0sJzKSon4FnbmVKLYvnqx27kD3z0pXmC3cI/4gpV/xxfKypv4yavgXOyOMubLksslRCQ7HRv7ZANdKmjaj4Er06dPX7ZsWVxcHHMfHoBWhmyHLajJBgAArWDr1q3m5s/Ki6mS8zALO2+++WafPhp5efsTrmGnXZmv4j82mvo9TQ09F6HeDYF45uYWQoF+cMx37kz+YbdwT5Rs5NTvUy8WBQjPBLrPCT9RzOcbl0oWvB1oeSrMhU8C94gUogm+4gW+wfbnQhxr7M14pKuTJHHL84UHnETC6zHB82OIiAzNiTLFS3zKUs2fpWWGU70rfwtZ8Bvznd3MCN9h1Lj9q332P7chcY1Poho/AU55eXktW7ZMIpH8/fffgwYN4jocaHeQ7QAAAGixmss71ZTnPExjzV7YqUmSkdLMU8D47t+dcyV9fd5zW6oi9U58+YbdskSFsZ3frsRgwzD3meHhriNl38XEfGKnb+wekaI/8sRQb8daeyuRporFqY2NmZMYldPgg89V01ZCy6sUMCwsLMaPH//7779nZGQg24HWh+t22IIqBQAA0DqYq3d4vNp/wWzoep78/Hwi6t+/f6tF2CwpifG5z29JeHZFjwr844mIVzPVISKiYkmwqN/IZYkKS/eIpIyIaQKBS5gkKcxVII2fLxrpHS5REBm7ek9u6KR0UdiFKjVcWidqwtz1jaqvGhI+q1Lw5J9WVClgmJqaEtG1a9e4DgTaI6ztsAUVqAEAoHXUu7xTrdY6z3///SeXy+npB1DNl5gULyMiorLieP+JiSMjN3u/3NPvE79azeSnxfEnzUWzXa0Maz1iV/s2ouUKyTcBgetiM4vJalpYVGTAiKfv2PrDAg5kWgVO8wnfETguJcZ7UVj4ZyJBg5+VykoLSssaerA2fX4ffu30JClw6DIJEVF5qYyIEoKHng4hInIKOTdT1f1qBeZgY9JsgFbGU1L7XHlZ9IqKikbrppeXl6tdW72ZRdm57U6q/XzUG72qqoqIKisrG2rG+dzb8/Ne79xVPBiUtFHx5aZKhCx1J6XPO3PQKplFc0avqKhghlBvJ/n5+StXriQiXV3117ofPnxoYGDQeLv6VFZWNmd0brsT5q4xc2dOKNDT02NeEXVV5zwrVqwgIgMDA+0opVMaG7Nd5jrZNXF/YkmmRJoSJZ5cUrJjT8R3tRvGfyyOP2nuuiAiYLCS3ZVJd4QErhMnZpWSQOQXGxHmZVU7AxG4hqVKXdf4+ixLjF00LvZrO++Pg4M/c6+RRFn5xcp9yokvSAzsMFWs6kz89lRFuBNZLXxadZqIysoyz2Q+a6KQZiqIiMj+aQ7VJqoUUI1sR0s/HhA+23Ax92a+v1ePjrUdthQVFZmYmHAdBQA0Ii8vb/v27VxHAdAyGkp1quXl5c2aNYuItCPVIZJuiootdo2YYJ64n4QTIsROJPIQ+7v5Cy9EuNdew1GqTHFiR0jwqhhJXimRQDQ3YkSp/2rvQWLvhrtM9vMrS4xJyYxdNjV2Gd98gquvm6/7DJGVIenX/PE5Lj28w1/pxSiXIrzGrU6r7xG3iKqqCKKG77fTJqoUEJFQKCQiZlERoJXx6p7mW7dFvdv19PRU6dtoG/VG1/zud+7cYWl0HR0dItLV1VW+fw7n3p6f93rnrsqLRfnoqu9B0+bOYA7aRmeh3uh6enrMEM3pTkTNucfi/fv3DQ2b9MnrGW1f38DcORm9bvesrKx9+/Y12nH58uWzZs0yNzfXjnOKSmND1knILWJqHylTAE0wLSLm65IosxB3Q+Y0MJnrgpDgWusz5bL4Zf4hOa574v2enMN2P/79AVOjFETEt5u8NHBdsLelfuYmaanyjM/aN2JuRPCZqJAlq2NSZLKU2BhLH7+6T3gHI2Ef5bljiVGHpsy6pjZRpYCensNmamraxt7fW210brtzNfdmvr8/G705nQEA2obq03vUo1Ao1P5L+ZN1dnV/lXPbnTB3jZm7k5OT8i7Lly9nDvKqqiodHZ3Kyspr167169dPvQBahyQ0JLbY3G+Gj4CCqzfafRYTQURUGrsjKvMMWZGw9qlovDLZycTMVGl4gk+EG5+IyNA97Ds/2Xa+b2iw9+Anze3mRkQ87VF2URKVIB0a5Dei1hNSVsYf5htxyDes4ETM1gzzT1z5daMskUp2xGbW3V6zRYnqk37K0i/mug/p8wXGTwIueVal4EkTn3XyN1YRXxtW6aqzHa4DgfYI2Q5bUJMNAABaR3R0dEMlCqhGnsPQ0dHp169ffn5+fn6+Rmc7xVHi9VIaHuLrxqeEOo+eEUdsLyXLAN9pdRMQK9+53iGpseKNUX5uAVZERMSfFnF4GhFRWYFEvEpiHhriXqOWkDQh2H+ZImCY3wiX53aUuGSQ7/ERgRvFAcNH+H4xov44s6L8vaPUnWTDePqCPo3kMfrGWnI+IrId4BSyHbagJhsAALSOn3/+ud7ttfKcaqampvn5+efPnx81ahTLoTWDsUg02Uo418+unsdK47dEnSBy/dhPVN8HGb5XYOB3scGpYnGC75Plnafk+8Uhm+KFfJF7jUrQdhNEdstWx6ckhrm4PmuaJxZ/I1MY2+kL6lnRecYp7JLkSU7VAEXilyGJRXVKwymVuck/6sJzW8pyZER0boe/f61b/Vj7Rsyt74ekSaRSKRFpdHYNbReyHQAAAC1W78JOQ3kO44033jh27NiOHTv8/f1Zjq45zF2XxfgMqy/TuBgl/l5GFgF+8xrKIOz85nuHnXxueefJTucG+m2LX71+dfhM0bPqbcNFIovV4fslkq9dq3MgSaQ4kUi0INjPTGmYj0vkBQojpU2Gzg4eSkQFCkW9dajrI8sUi7+vZ/uJ3eITtTbNE0WQRmc7p0+fPnPmDBFNnDiR61igPcLdRdlSXFzMdQgAAND21VrYWb58eVVVlfLr0Dw9PYkoIyMjOzub3eCax3yYXX25Tml8pFhC5Drfz7Xhv9nyp/n6WhKlisUJpc89wBsRON+bT5KQdbE1HhCNnMCnXInk5NMNeeLw9VKyDFi6sLFEIm31uL5Coar/gpVVVCuTSb5f7eM69KWJ4ear5PLrz/07/MUIIvLdUnu7fJWrkl1qgh07dhDR1KlTcdoLcAJrO2y5desW1yEAAEAbV3NhR/l6Tk29e/d+8803f/vttx07dgwZMoTNAFlwMizsexlZBgQ0uLBDREQ8kd/HruHzE8VbYwLc/Go2fXKe2/YI8XzvpcOebBxpLSLKkF6Q0XBzotL4deGJZO4XGlzvmXLPabwCNaP+OtRlxdLMExJJQqKMiLYGjmNqrJmJSowFtdKsulUKtAWT7UyfPp3rQKCdQrYDAACgrZiFHdXznGrTp0//7bffNm/eHBgYqFVldWTi0NUniO+9pPE8xHyGj/eqxNj9UVFpfiGONR+x8/vYV2I/wrVG2iCYHVUym//kJLOTYWHfy/gzYkLclF6xw2i8AjWjbh3qsvgPzKduUjz9lm8+XOTqPtVnsqudpUpnu2mFyMhIhUJhYmIyderURu8HBcAGZDts0ao3DwAA0DJ6enrR0dFjxoxJTU1tvHUdPj4+33zzzdmzZ4OCgn766acWD4815n7xD0X7M8iNT+VlilJ6UqBZEZuYQkRENbMEvrd/JAW7eFsZEhUkrl6XWOPelvpWlBkVWv9lS/LT4hNEI8oygudn1NgsdF201LXuuooK1+0wey15XGuLvmiUiBJOiFx83We4Th1hJ3hyMx/ZiR2Jsjr9Sy6XEJHsdGxsWZ3H+o7wdmxSEYRWIpfLg4KCiGjBggVcxwLtF7IdtuDkVAAAYE9FRcWsWbPU7l5ZWblmzZqJEydu2rTJzc3NxcWl8T4agqdv5SYiIlJE+fX1j6/50HCRyOK5tiOmeT/5qlQq2SiWNGWcOvUAROYf1JftpK0e13d1U3b8DN8r6qGXvn7tz2KZMd4+4ga6JK7xqefKn3l7NDPbCQoKunv37vDhwxctWsTcJAqg9SHbAQAAaHcqKysnTJjw8ccfR0ZGBgUFaVO2U62P1VAnO9m9J98Z9XX1W7e0wZICzM06m6f++3g257odnn59Z6zZ+cTGjGxSZH01sSbbvn37mDMt165dy3Us0K4h22FLcXGx2vfYBgAAaAVr1qxJSEg4f/783LlzN23axHU4DXMJkV8P1q99zoRoqeTcUhX3oMLNOpvONeS6PJjHFwhUucpGELxb7l+ur8KVQOYjvMwbuJWp1rh06dJHH31ERP/73//GjBnDdTjQrqECNVtQkw0AADRcly5dNmzYQESbN29mrq/QUPp8QR+B5l25r8/vI1At1SEi0hcIBKrdbEfbFRYWenp6KhSK4cOHf/XVV1yHA+0dsh0AAID2a9q0aZGRkUS0du3a8PBwrsMBrVdZWenp6Xnx4kULC4tdu3Z16tSJ64igvUO2wxbUZAMAAK0wb968VatWEVFgYGCte5UCNJWnp+eRI0f4fP6uXbv69u3LdTgAyHZYg5psAACgLb744ov58+cT0axZs3DqEainqKho0qRJv/76KxHt2rXLzk4TaydAO4RsBwAAAGjDhg3+/v5EtHjxYj8/P67DAS1z9uzZ0aNHHzp0yMDAID4+fsKECVxHBPAEsh22FBcXcx0CAABAE2zcuHHdunVEFBkZOXny5Dt37nAdEWiHhISE0aNH5+TkvPzyy8ePH3dzc+M6IoBnkO2wBTXZAABA6yxcuHDnzp08Hu+3334bPXr00aNHuY4INN3atWvd3d3//fffCRMmHD9+/NVXX+U6IoDn8JTc2lb5XW8rKioavS1ueXm52rfObeY9d7ntTkSPHj1iae5VVVVEVFlZ2VAzzufenp/3eueuyotF+egqvtxUiZCl7qT0eWcOWiWzaM7oFRUVzBDq7aSZ3Rk45jkZHXNnqbunp2fv3r1nzpyZnZ09duzYoKCg0NDQ5gwHbVVmZmZAQEBqaioRzZkzJyoqiqXf85x3p7b7eldxD5zMvflv0ExHrO2wpWfPnlyHAAAA0GTl5eXDhw/PyMjw8fEhojVr1gwbNgyLPFDLV199NXTo0NTUVH19/Y0bN/7444/l5eXM37YANAqPx+M12qLe7Xp6eqr0bbSNeqNrfncTExOWRtfR0SEiXV1d5fvncO7t+Xmvd+6qvFiUj676HjRt7gzmoG10FuqNrqenxwzBSXcGjnmuRue2e9ueu0Ag+OWXX1xcXBYsWHD27NmxY8cuWbJk9erVzRkR2oasrKwFCxYwSzpvv/12eHh4//79Veyrycd8o321N/hmdudq7i3yBk1Y2wEAAICG+Pj4XLx4ccaMGUQUGhrav3//zZs3cx0UcKagoMDPz8/Ozo5Z0hGLxXv37lU91QHgBLIdtqAmGwAAtAE9evTYtm3bL7/8YmpqevXq1blz5w4bNmzPnj1cxwWt6t9///3iiy/MzMwiIyOJaMqUKRcvXvz444+5jgugcch22IKabAAA0Gb4+Pjk5eWtWbOmS5cuZ8+efeeddyZOnMicywRt3jfffGNmZhYSElJRUTF69Ojk5OSEhAQs6YC2QLYDAAAAKlm8eHFeXt7ChQuJKCUlRSQSTZ48+bfffuM6LmDF3bt3169fb2FhsWDBgqKiImtr68jIyKNHj06aNInr0ACaANkOW4yNjbkOAQAAoIUZGRmtW7fu5MmT77//PhH99ttvkydPHjp06I8//sh1aNBipFLpp59+amJismjRoitXrvTu3TsiIiI7Oxu3DQVthGyHLd27d+c6BAAAAFaYmppu2rTpzz//nD9/fqdOnTIzMz/66KOePXt+8cUXBQUFXEcH6ktJSXnnnXcGDRq0YcOGsrIyOzu7H3744fr1635+flyHBqAmZDsAAACgDuYzcWFh4bp16/r3719UVBQSEtK3b18PDw+UMdAu165dW79+/auvvjpx4kTmuXvzzTf3799/7ty5Dz/8kLmLAICWQrbDFtRkAwCA9qBLly4LFy7Mzc2NiYkZPXo0Ee3evfudd94xNjb29/c/fvw41wFCgx4+fBgdHe3s7Gxqarpo0aJz584R0Ycffnju3Ln9+/e/+eabXAcI0AKadbMeUAI12QAAoF3x9vb29vY+depUXFxcXFzcjRs3xGKxWCy2srLy9PT09PS0tLTkOkZ44sCBA8zT9OjRI2bL6NGjPTw8PD09ceExtDHIdgAAAKDFvPbaa6+99lp4eDjzeXrnzp1SqXTFihUrVqywtrZ2dnZ2cXFxcnLiOsz2qLCwMDk5OSkpKSkp6c6dO8xGKysrJsmxsrLiNjwAliDbYQv+NAIAAO3ZG2+88cYbb/z444/MGkJycvKFCxcuXLiwfv16IyMjFxcXFxcXZ2dnvF2yLTMzk0lyap5V2LNnz3feecfT05M5+RCgDUO2wxbUZAMAADAwMJg1a9asWbNu376dlJTEfOy+detWbGxsbGwsEY0ZM2b06NEODg6Ojo4vvvgi1/G2EVeuXElPT09LSzt8+PDVq1ert9va2jJJJpIcaD+Q7QAAAADrunXr5uPj4+PjU15efvTo0ZSUlKSkpOzs7KNHjx49epRp8/rrrzs6OjKZT48ePbgNWOtcuHCByXDS09Pz8vKqt+vp6TEnEE6YMOGll17i8fDZD9oXHPFsKS4uFggEXEcBAACgccaMGTNu3Li1a9fm5uampKQwn9Hz8/P/+OOPP/74Izw8nIisra0dHR1tbGxsbW1tbGz09fW5jlrj3Lhx4/z581lZWWfOnElPTy8sLKz5aHXq6OLiwvz0ysvLOYoUgEvIdtiCmmwAAADKWVhYWFhYzJs3j4iuXLnCrEukpaVJpVLmIp/qloMHD67OfGxsbHr27Mld1JyRSqXnz59nMpzz58/L5fKaj3bo0KF6ZenUA40AACAASURBVMzBwcHQ0JCrOAE0CrIdAAAA4F7//v379+//3nvvEZFcLk9LSzt16hTzsb6oqOjixYsXL16MiYlhGvfr1+/ll1+2eGrAgAEWFhYdOnTgdAYtqbi4OPd5Fy9efPDgQa1mlpaWTBLo4ODg4OCgq4v7KALUhmyHLSgyAwAAoB6hUDht2rRp06Yx3+bn51cvaGRlZV29evXatWvXrl1LSUmp2eull16qzn+EQqFQKOzVq5dQKNTkVY7CwkK5XP7PP//I5fLr168zic3ly5frPUOkY8eO1QtczP+aPDUADYFshy2oyQYAANAiTE1NTU1N33rrLSIqLy8vKSn5888/ay19PHjw4OrVq1evXj106FCt7l27dq2Z/AiFwq71MTAwaMGY79Tn1q1bcrm8Or2Ry+WPHz9uaA+9evWyqOHll18eNGgQEaHMAECT4AUDAAAA2sTIyGjs2LFjx46tubGgoKA685HJZEw68c8//zx8+JDJNHJycpTvtlOnTkza07Fjxw4Nq6ysfNywf//9lxmuqqpKxekYGxszOVjv3r2rz8qzsLDo3LlzrZYoMwCgBt7Nmzcbeoz5e0Pds2ArKiqIqKSkRElfRklJiY6OjnqRNTS6VnQnIplMxtLcHz16RER37txp6OfP+dzb8/Ne79yLi4tV+ZNhvaOr/nLTzLkzWD1oS0pKiKi8vLzRH5GS7hUVFep1r94JjvnWHx1zx9xr6tChg5WVlZWVVa3td+7cUSgUN59SKBRFRUX37t27d+/e3aeY62H++++/wsLCWpXNmkNPT69Lly6dO3fuUkPPnj2FQqHJUwKBoGPHjnX7/vvvv//++6+Kc1dRm3zeW6c7Ye5czL2Z7+/Vo/NMTEwaasH8CaHugqmenh4RGRkZKenLqKqqarRNU0fXiu5ElJOTw9LcmV+LXbt2bWj/nM+9PT/v9c7d2NhYlR9IvaOr/nLTzLkzWD1ojYyMmL7qHXVMdz09PbUPWsIxj7m3+uiYu+rdTUxMBg4cqLx7RUVFzfPNlCzdPH78+P79+927d29o5UdfX59ZIOLz+XUvqsHzjrlrXXfibu7NfH9/Nrp6nQEAAADaBj09vW7dunXr1k2VxgqFAvfTA9AiqFTIFtRkAwAAAADgFrIdtqAmGwAAAAAAt5DtAAAAAABA24Rshy3FxcVchwAAAAAA0K4h22FLvXdBBgAAAACAVoNsBwAAAAAA2iZkO2xBTTYAAAAAAG4h22ELarIBAAAAAHAL2Q4AAAAAALRNyHbYgioFAAAAAADcQrbDFlSgBgAAAADgFrIdAAAAAABom5DtsAU12QAAAAAAuIVshy2oyQYAAAAAwC1kOwAAAAAA0DYh22ELarIBAAAAAHAL2Q5bUJMNAAAAAIBbvPLy8oYeU/IQEVVUVChvwOyh0Tbqja7h3Yno0aNHLTv3P/74IzMz8+rVq1KplIg2bdqUk5NjaWn52muvmZmZNdq9maM3dQ/t9nmvd+6qvFiUj67iy02VCFnqTkqf96qqKlI6i+aMXlFRwQyh3k6a2Z2BY56T0TF3rroT5o65t/romDtX3Ym7uTf/DZrpyFM7AlCu+TXZdHV1dXV1jx49um3btr17996+fbvmo0eOHDly5Ajzta2trYeHh6+vb8+ePZt/TAMAAAAAtA08Hq+RhKehBnp6eqr0bbSNeqNrfnehUNic7jwe7/Tp06tWrfrtt9+YLUZGRsOHD3/55ZdNTEw6dOhw//79a9euZWdnnzlzJisrKysra8WKFZ9//vmqVauaH3wzu7fn573euavyYlE+uup70LS5M3R0dEiFWag3up6eHjMEJ90ZOOa5Gp3b7pg7V6Nz2x1z52p0brtj7q0/eou8QRPWdjTWihUrVq5cyXw9c+bMd999d8KECfW2LCoq2rNnz5YtW06fPv3ll1/++uuvGzZscHJyasVgAQAAAAA0EaoUsKU5VQq8vLyYVMfDw+PS/7N3/3E13v//wJ+pqC2cRpwWqtWsfFCZjWToIJVfUyM671lkhvrY51vpLfLjbREj+1gdYzRhZVj5eKOyODKqmekHzelNc4o4Z2QlRqM63z8uztKp0+n86DqnHvfb+7Z3Xdfrx/PVSed6ntf1el1Xr+7du7elVIeIrKysFi1a9PPPP3/77bd2dnYikcjLy2vXrl1q9w4AAAAA0DEg29EVtXeg9vHx+f7774lo586dBw8edHZ2VrEin8+/cuUKn88noiVLlnz55ZfqBQAAAAAA0DEg29EvfD4/MzPTzMzs5MmTCxcubGt1CwuLb7/9NiIigog+/fTTQ4cO6SBGAAAAAADDgGxHV3r16tXWKps3b05JSSGiI0eOeHl5qd315s2blyxZQkQLFiy4ceOG2u0AAAAAABg0ZDu60tYdqEtKSiIjI4lo27Zt3t7eGvYuEAjGjBnz8OFDpk0AAAAAgE4I2Y6+WL9+PRH5+vouXbpUKw1u3bqViFJTUzMzM7XSIAAAAACAYUG2oytt2pOtpKTk22+/JaLo6GhtBfD222+HhIQQUXx8vLbaBAAAAAAwIMh2dKVNe7Lt37+fiHx9fd3d3bUYQ2hoKBGlp6dfv35di80CAAAAABgEZDt64ejRo0Q0Z84c7Tbr5OTE4/GI6NixY9ptGQAAAABA/yHb0RXV92SrqKj49ddficjHx0frYUyaNImIzp49q/WWAQAAAAD0HLIdXVF9T7aioiIiGjRokBqbVrdqxIgRRFRQUKD1lgEAAAAA9ByyHfaVlZUR0ZtvvqmLxt966y0iunXr1tOnT3XRPgAAAACA3kK2oyuq78lWVVVFbX8+j4rkzTK9AAAAAAB0Hsh2dEX1Pdnq6+uJqEsXnbwWxsbGzBcNDQ26aB8AAAAAQG8h22Ff9+7diaimpkYXjT948KBxLwAAAAAAnQeyHV1RfcuBfv360YvVO1onFouJ6LXXXrOwsNBF+wAAAAAAegvZjq6ovg7nv/7rv4iosLBQF2Hk5+cT0eDBg3XROAAAAACAPjOpq6tr6ZySU0RUX1+vvADTQqtl1Otdz6uTaj8fhrOzc58+fe7evXvq1KkJEyZo2G8Tp0+fJiJ3d3fVR6T52Dvz697s2FX8ZVBSRsV/bqpEqKPqpPR1l8lkpHQUmvTOrHyTyWTqNaJhdQZ+59nqXf7CPXnypKam5sHLampqnrXs6dOnXbp06datm4mJienLmCPm5uY9X9ajR4+ePXvK10NqMgS87pp0zWJ1wtgx9nbvvdOOXfM3aKaiidoRgHL37t3r27evKiUbGhp8fX2TkpIOHz6s3Wznzz//TEtLIyJvb28tNgsAoDtGjRCRTCZraGj4448/JAru3Llz9+5dJsn566+/2i1CCwuLnj17Wlpa9urVy9bW1lqBmZmZPCOSNdJuEQIAgJyJiUkrCU9LBYyNjVWp22oZ9XrX/+oPHjxQvXpgYGBSUlJiYuJnn33Wp08ftTttYufOnX/99dfgwYPHjRvX1rqajL0zv+7Njl2VfyzKe1e9BX0bO4O5bG11FOr1zlxWGhkZsVKdgd95bfX+9OnT0tLS69evl74gFoslEsnjx49Vaap79+5NZmO6du1q2rKGhgYlkz+PHz9uMlnE5FSPHj169OjR7du3WwqjV69eNjY2b775pmMjzBJNJWNXQ4d53Q2rOsbOVu/sVsfY2793rbxBE+Z29MTEiRPd3d3z8vI2bty4detWrbT5559/bt68mYgWL16slQYBALTr/v37RUVFxcXF8gxHyX4tPXv2ZGZOXn/9dfl/uVwuh8OR5zaN7zHThSdPnjx48KC6uvrBgwfy6aY7d+40/uLZs2f379+/f//+5cuXG9d99dVX5ZmPk5PT4MGDXVxcdBotAAAQsh3daevTQpcvXz59+vQvvvhi6tSpnp6emgcQGRkplUoHDx68ZMkSzVsDANCcWCwuLCwsKipi/ttsbmNhYeH4Miax0YeNJc3Nzc3NzblcrpIyd+/elUgkN2/elE9PXb9+XSwW//nnn0VFRUVFRfKSxsbGrq6uLi4uLi4uzBc9e/bU/SAAADoXZDu6ovoO1Ixp06bNnTt33759n3zySU5OjpWVlSa9JyYmbt++nYhiY2M1aQcAQBPV1dU5OTk5OTkXLlwoLCz8448/mhSwt7d3cXFxcnKS5zY2NjashKotffr06dOnT5N5m2fPnskzn9LS0uLi4qKiopqamkuXLl26dElebODAgS4uLqNHj/bw8Hj77bfbPXYAgA4I2Y4eSUhIuHjxokgk+uCDD44fP67280C///77BQsWEFFUVNSUKVO0GiMAQCskEsn58+fPnz+fk5PT+FKeMXToUGYeg/lvWz8YMlCmpqbOzs7Ozs6ND167dk0+zVVYWHj79u1r165du3bt8OHDRMThcDw8PJjMZ/To0cziNwAAaCtkO7pSWVmp/G4HRd27d09OTp4wYcKPP/44fvz4vXv3NnlrVMWOHTuYhToffvjhhg0b2lodAEANNTU1mZmZWVlZOTk5IpGo8SkHBwfmkt3V1dXV1dXU1JStIPXNwIEDBw4cOHPmTOZbqVRaWFj4yy+/MIlidXX1iRMnTpw4QUSmpqYeHh5jxozx9vZ2d3dnNWoAAAODbEdX7t+/r0YtNze3EydO+Pv7X7x48e233966deuiRYtUrCuVSqOiopKSkojoww8/3LdvnxoBAACorqSk5NChQ+fPn8/Kymp8fOjQofJ5CVtbW7bCMyxcLtfb21v+wIALFy7k5OQwmc/du3ezs7Ozs7PXrVv3+uuve3t7e3l5eXt7Y50PAECrkO3onZEjR549e3bhwoVnzpxZvHjx3r17Q0ND+Xy+kiplZWW7d++Oi4urra0lotWrV69ataq94gWATuf06dOZmZkZGRm//vqr/KCTk5O3t/fYsWM9PDw0XHkIRDRixIgRI0aEhYUR0ZUrV3Jyck6dOpWZmXnnzp1vvvnmm2++IaJJkyb5+Ph4e3u/9dZbbMcLAKCnkO3oSlv3ZGvMzs5OKBRu2rRp7dq1P/30008//bR06VIfHx93d3cnJ6e+ffuampo+evTo5s2bRUVF2dnZZ8+eZSqOGjUqJibG09NT8+fmAgA0kZeXd/DgwYMHD0qlUvlBHo/HXHAPHjyYxdg6tiFDhgwZMoSZ6mfyzMzMzGvXrp08efLkyZNE5OHhMWvWrICAABWfag0A0Hkg29EVDZfe1tXV/fOf/5w/f358fPyePXsqKiqSk5OTk5NbKu/p6blw4cLZs2czdTXpGgCgsdLSUibJuXLlCnPEysrK29ubSXIsLS3ZDa+zkd/tdvnyZSbzyc7OZja++/TTT6dPnz579uyAgADsagAAwEC2o9esrKzWrVu3bt06oVB45syZ/Px85sniz54969mzp6Ojo7Oz88iRIydNmuTo6Mh2sADQoTx9+jQpKengwYNCoZA50qVLl4CAgICAgOnTp7MbGxDR0KFDhw4dGhkZefv2bSYd/fnnn48ePXr06NGFCxcGBATMnj17/PjxbIcJAMAyZDu6osaebErweDwej8d87enpmZ2d/b//+79BQUHaah8AQE4sFu/cuXPnzp3V1dXMkQkTJgQEBMyaNatHjx7sxgaKbGxswsLCwsLCCgsLmbRHLBbv3r179+7d7u7uCxcuxJsFAHRmXdgOoMNSb082AAAWnTt37h//+Mcbb7yxadOm6upqZ2fnDRs2lJaWZmVlLViwAKmOnnN1dY2Njb1x48YPP/wQHBxMRHl5efPmzRswYMD69esrKyvZDhAAgAXIdgAAgL777jtPT88xY8Yw6wMnTJhw+PDhq1evRkVFOTg4sB0dtM3EiRN37979+++/r1u3zsbG5tatW9HR0X369Fm8eHFhYSHb0QEAtCtkO7qiyZ5sAADt5t///veIESPmzJmTnZ1NRB999FFubm5WVtYHH3zAdmigkT59+qxataqioiIxMfHdd9+VyWQ7duxwc3NbtGhReXk529EBALQTZDu6ouGebAAAuvbjjz9OmTLF39//559/fvXVV1euXHnz5s2kpCR3d3e2QwNtmj9//oULF06ePOnn50dEO3fudHR0jI6OfvjwIduhAQDoHLIdAIBOp7i4mM/njx07lnlaS1hYWFlZWUxMTP/+/dkODXTFy8srNTU1KyuL2fNm06ZNtra2mzdvZjsuAADdQrajK1gPCgD6acWKFUOGDElJSSGioKCg//znP3Fxcbj5tpOYMGHC6dOnDx486OrqWlVVFRkZ+eabbx47doztuAAAdAXZjq5gTzYA0Ddnz559++23Y2NjiWjatGk//fTTnj17Bg4cyHZc0N5mzZpVUFCwY8eOAQMGlJaWTps2LTQ09OnTp2zHBQCgfSZ1dXUtnVNyiojq6+uVF2BaaLWMer3refXy8vKNGzfu2bNHveoNDQ1E1KVL87kos5I4KSmJ+aKt1VvF4XA2b96syU+g077u1MLYVfnHorx3Ff+5qRKhjqqT0tddJpOR0lFo0nt9fT3ThXqNaFidYRC/89HR0Zs2bSKivn37xsXF8fl8TfqFDuCTTz6ZP39+WFhYQkKCQCA4efLk5s2bp0yZokpdg/id10V1wtgx9nbvvdOOXfM3aKYini6qE2VlZZmZmTrt4uzZs2fPntVFy2PGjDEyMtJFywDQ/kxMTIRC4bJly/Lz84lo7ty5uG8N5ExNTePj4ydNmhQWFnb9+vUZM2YsWbJEIBDU19czH1IAABg6ExOTVhKelgoYGxurUrfVMur1rufVHRwcwsPDLSws1KuufHJm7969ZWVlQUFBtra2alRvFZfLJc1+dJ32dacWxq7KPxblvavegr6NncHkz62OQr3ejY2NmS5Yqc7Q59/5pKSkefPmEaZ0oGVTpkzx8vIKDw9PSEjYvn375cuXk5OTBwwYoKSKPv/O67o6xs5W7+xWx9jbv3etvEET5nZ0xM7OLiIigkkb1PB83q2Fl/bs2bNlZWVjx44NCgpSo7qKvQNAB7Bu3bo1a9YQ0cyZM7dv344pHWhJ165d4+Pjvby8goKCzp8//9577yUnJ48ePZrtuAAANIVdCnQFe7IBALsWLFjApDrh4eGHDh1CqgOtmjp16rlz51xdXW/evPnee+8xG/cBABg0ZDu6gj3ZAIAtT5488fLySkxMJKJt27Zt2bKF7YjAYAwaNOjcuXPTpk0jIj6fv3HjRrYjAgDQCLIdAICOZtasWVlZWa+88sqRI0eWLl3KdjhgYCwsLI4ePRoaGkpEUVFRO3fuZDsiAAD1IdvRFdw0AgCsmDdv3vHjx01MTDIzM99//322wwFDFR8fv2zZMiJatGhRamoq2+EAAKgJ2Y6u9OrVi+0QAKDTWbZsWVJSEhEdOnTovffeYzscMGyff/75/PnziWjWrFk6euYBAICuIdsBAOggNm3axCzR+frrr2fMmMF2ONARJCYmTps2raGhYdasWaWlpWyHAwDQZsh2dAV7sgFAexKJRMuXLyeiDRs2fPzxx2yH00aV6XFLQ0OXhkYfFqtWoVZaUa3dEKqPRYx/Z9ioJSkttSuK9x/2zjD/eJF2+9V/hw4dGjVq1N27d6OiotiOBQCgzfC8HV3BnmwA0J6YK1FfX18DvCStTlsRGrFLTMTh9Q9uvXidNC3MN/iAZciR1JjRHMXztVJpNfPYsMqrQpGUiJ5U5BfcqiWqEueJJFRr6Zd8Osrt5TaFMZFxwhL3lfGBzbRIRHXpiV+mFZRODT7s3NbhUUX6+s/TJa2Xs/aNXOnbr83N61q3bt22bdv2zjvvfP/99ykpKYGBgWxHBADQBsh2AABYZmRkVFZWZmdnp151Y2PjpKSko0ePElFsbKxWQ2sH1Xmr/YN3icmJxyOhMJIf6pibMKP5jOM5E659f0uqFK6f4W+ecWLlcDMioqyIN7ziVJwY4jqLqsmtUR/VaUtD40qIXK2rU0JDmzxjxso3epWvZHNcXCmRq6loa2ioQoPWE6ODKTEmq7mMxso3eoZIGC8Qth4Xz36hPmY7RDR8+PAVK1Zs2LBh+fLl77///iuvvMJ2RAAAqkK2oyvYkw0A2sTe3n7Pnj3jxo1ra8WamhpmPmft2rVDhw7VQWg6VLDZ3/czYbWTX8KB1BCKGz8xQrDQ18wsfYuPsoTHbVlqoniU/1fCaJ/JZlmnw12J3hnlO1yYS0RE1s6j7DlERLUl6YlZYt+o5BBft2F2lkRmnH4cs+ZiCP5KRERUmCYoVDjtaR88VRSxVdhiASJe/xA/Egrim8toPO1DmCVU83ZL1k1mjl392m/8Z3nB30hiJj4vdWK19YI9SkbMvvXr1x85ckQkEkVFRW3bto3tcAAAVIV1O7qCPdkAQEUymczOzs7Ozs7T09Pe3j47O7tN1fft2yeVSl1cXNasWaOjCHWjtiB2PC9SWN2bt+VAaogrkWt46tchzpV5cXN9IzKUL8vh+H15IvlDZ6oURsxZkFZJxPFLuJiffzE//2L+iX0JCV8mJHyZED7Rnojs3wn0He3M7cflNpfqiPfz+ZHCaq7vlgLZk4sJga5c3ob8J7JG0nnpYRHCSk7gvirZw9MrR3OcZybkP2tcQnZ6mbPzstPPv7myhUdEi1OffysMf37rm5kltx+X+Z91d3MiMuNw5UcsFSPTP8zM4Y4dOx4/fsx2LAAAqkK2AwCgF/bs2UNEZWVlbc15Dh48SER8Pl+HwWldnTQ9ksdbIazuzdvCTM4QERFnRkLyVl9uZV6c7yj/+IJaJS2Y2AdujQlx5a3ctcVPzan02oLNk0fNTRH15m3JOBHuSmauvpOHWApX8CZvLiAiKk0J9XrDemH+p+vm+P53ouBDDlnw/KcNkxwO5S9N0/ImCYZg+vTpgwYNevr06YEDB9iOBQBAVch2dAW7FABAm9jZ2clvY1M95ykuLs7JySGiOXPm6DxEbanMiwvkTd6cV+3kl9Ao1WG4/b8T6dv9nEmUtnTYsFlxQmnL7fT2Syg43exGBaoxc5sX7O/ZKAYmg3Ky5lBtNRE5utlTlXT/+uX3tp/40o/pxm1ZquBDrrTrK7V1beytIj/lQArzP+H1KiISX0yRH8mvUHcQ7Wv27NlEhGwHAAwI1u3oCnagBoC22rNnj729vfxbJuexs7NTsp6HmdiZMmVKv356ubxdgfRMXMiSiLQS4riGJGYk+HGbKeO2ODXXLsJ3blze4Yjx59JDNmyJ/tCN2/L7VXVxevqVZuZaquRJRTOTRPbuc9zte4/y9RSmf/PyxgOePOtbydFLk4mILOyJCgQr+LVn7P++18zCP7DheEzY8efRzk0IHt76wOnYev6xlw6kx/LTVainV+bMmbN69erTp0//9ttvXG5zLx4AgJ5BtgMAoC+Y6Z0m8znKcx6msGFM7NSKUiKDQ+LzqomcZyYk7wtxa3mxCsdnS+4VXnRg8PozQsH8Yclf+oYsjQn90I37SJSeUfB3ZsNx8/VxlmTE8SNb3POshaQiJHWOuz1Vic4IBGdai7wkPbGkxZMhngmkSrZj4LsUMBwdHSdMmHDq1KmLFy96eHiwHQ4AQOuQ7egK9mQDADUw0zsmJiZ1dS/dKdVSzlNeXk5EDg4O7R1om9RJhV9Fr9+QKJQS9XYLXB0x6Ah/mLniTs4KPt592kcY8XlKQWH6+vnp61f4JnzFSwuM+Duz8dxy1cfZ2ic8uV8zD+qpOrMldFeBb1Qyf4jiSftGD9zhbblyOnxwm4cl2jx+UMtZVlNmltx+zydDqv7epeD5SYPYpYBha2tLRBUVBnLvHQB0esh2dAV7sgGAGpqd3pFrkvP89ddfEomEXlyA6jFJwbFUoZS4niFx27cEOkkEeW5uqsyHcKx5y5LzPwyOi4zYsr/A/uPokHEc+xTrYCKiq8mB65lJG85g38DmchVRRSIR2b8TGDij1Z5qqyuqlW2K8JLmdrLOiBi2WkhEVFctJqIj0cMuxhARecbkz1W1XYOAbAcADAuyHWhq+PDhRUVFbEfRoTReiaEeT09PrUTCLj6fr4t9w2QyGRFdv369R48ealRnplAqKio0ie3Jkyfm5ubq1W1oaCCiLl3+3jOmZ8+ezBHmlCJ5zrNu3ToiMjc31/cVFCZu4Vu3VGXYh/4/HteEiOxDUvJDVK/O5YXvyw9ZIZI4OpMJ+c5htnROyw3UPDLnkBQJv4443PQIU3+BqrVCUmUJfkTOy07Llr04Vltb8EvB30WkogJmf4V3XuRQFfkpB55/rbig6Krh5A7IdgDAsJj8/vvvLZ179uwZEZmamjY5Xl9fT0RVVVVK6jKqqqqMjIzUi6yl3g2iOhGJxWIdjf3p06dEVFNT09LPX8Pgb9y4oV5FAOWYtER3jT98+FDt6nV1dSkpKVqMR3MtpTpyZWVlc+fOJSJ9T3UYg4Nj2n6rWGNmTs6afmzQbLONf3yjV54+EDpIWfGrCXPGrz/f3JkZCTJZAhFRcdz4IRHCxamy7X7PTxXHEXWQXQqIyNramogkEkmr1wAtMfT39858bYOxs9J7px17VVUVEdXV1Wn418akb9++LZVgPvI0MWk6/2NsbExElpaWSuoyZDJZq2Xa2rtBVCeikpISHY29a9euRNSjR4+W2tcw+KFDhzIb2oK2qP03QvVGmMcYkma/tBqSyWTKgzQ2NtbKj6KJhoaGp0+fGhsb29nZqVH9yZMnd+7cefXVV//1r3+pHcPDhw+7d++uXl3FuZ2LFy8yO60pt2bNmqCgIHt7e2bpDhAVJC5NbDS9QrUlYiLKPxAa2ngfAivf6FW+zSeIppbW/ZTnjlWWal8wdIhdCujFUrEBAwZ02vf3znxtg7Gz0nunHbulpSVTV9Pe1asMHRizYECTfxVSqVTtD5s1+VeRnZ3N3N4jFovVrj5w4MD//Oc/alRnGOjYNeydwe7YHRwc1HvhmOpWVlbh4eFqVGdod+yt3ri4Zs2atWvXmNmo7gAAIABJREFU0osMs6Gh4ebNmwMGDFAvgHbCzHho1ESrewmIC+IFinej5R0W5DX+3tM+pKVsp0okPJBS0OwpeYkqFSJtwikk+RafzDjc3s8X+yjuUsD/XDJ5HXEMYZaOyXYMZcdzAABkO7qCPdkAQA1JSUlKnigqz3MYRkZGAwYMKC8vLy8v1/dsx8yMO9zNTfF4XbW4UFxNxHVys7ZQ3gTXTJWNy5TdjXYiuv+CRCV1CxNDA5WdV5OJmXw3tpaY9TaI+xGJkO0AgKFBtqMr2JMNANSwd+/eZo83yXPkbG1ty8vLi4qK3nvvPR2HphnHkOSLzWxMUBA7flihmDNxS3p6uJtW3pGU3Y3W2j7PnluuCsOdlZWQpn8Wk37PrU0riAp2hSZeeelI87fYEdGQ4ISPm0kJ9YpIJCJkOwBgOJDtAADoi2YndlrKcxiTJ0/+8ccfDxw4EBqqwuNr9Ez1kVD+CiE5hSSmNE51qtNWbKGlMX7tP9nxrEpSIbVUWmTYvOhhRFQhlTa7D3VzxAUCwVfNHG96ix0RLeYlkF5nOxcvXvzll1+oo2wUCQCdAbIdXamsrDSMjZIAQG80mdhRnucwAgIC/vnPf+bm5l6+fHno0KG6jE7bCuP8FwpEvXlbDiT4Nbrzt3pPSHBsSvURUcKB1BBXFduqzvssuWqVtaYhnV8/vv96lUs/34e6ebVi4VfrE4+l5tXxU1MkkhUvnVTcpeA5M07bAm53Bw4cIKKZM2e+9tprbMcCAKASZDu6cv/+fbZDAABD0nhiR5U8h2FjYzNlypTjx48fOHDAkLKdyrTQORHCSueQtNTwl1MazjxBuljq+1la6MTx1RknVg5vZfqkVipcv5AffWxUwjyNn+bU+g7UjOb3oa6tFBXkCYVH0sVEtCdiPLPHmh2vqje3yXyN4i4FhoLJdmbPns12IAAAqkK2AwCgF5iJHdXzHLnZs2cfP3589+7dERERhrFiUJoW6ukvKHEO3HciYYbibAbHfV1qOvn7fiaM9pn85EhqzOjmZjwqJBIiupXIHyISVXLc5owaZkEiUn43WlVt88dfaH0H6uftKOxDXZu20N5/l1Q+BPuRPF8/f/5UXzcnle52Mwjbt2+XSqV9+/b18/OTSqWtVwAA0APIdnTFMK45AEAPGBsbJyUljR079syZM62XVsDn87/44otLly5FRUV9/fXXWg9Pm+qkBftjIlYIhFIiV2fLi3GhF6vEeSLJi/PVZQXiykblK4XrZ/jW7kvf4tM04ak+kyskolKRqLd7yKHkhJn2RGnJ1Na70V6mwrodIiKSVD1rcsSM9x6PjuTxfIL9PvT1d3fjPt9fTpx3IF1xV/iq61VEJL6YkqKYfvV3Dxyti8eoakoikURFRRFRWFgY27EAALQBsh1dwQ7UAKCi+vr6oKAgtas3NDTExsZ6eXnt2rVrxowZPj4+WoxNy0wk6V8LhMysQGGaoPClkxw7N3s7Nzc7IivnUY6WRFRbKkzMyIub62/Z9Ja26tyLBdVEnNHhyYe3vPT0HEdesI9zC9Mpkvz4tKYbAzSmQabEmZP4ZI6ZWdM31YLkQL7iI4AY6bH8dMWji1P1M9uJioqqqakZOXJkZGQk27EAALQBsh0AAMPW0NAwceLEJUuWbN++PSoqSq+zHXILWRGef5hGeQ6z7m3v5mZvSUQcLrfFJ+1U+y4Z5f9VoURcTcMb5zQc33VbYqwoOMqX2+R9rL9v+Jct7SKdFqo829Fk3Y5Js08DcuOnJI9qvcFG+uvjnmxHjx5l7rTcuHEj27EAALQNsh1dwZ5sANCeYmNjjxw5UlRU9PHHH+/atYvtcFrEmboldWobivt9eSJ/vqXbcIWlOxzflauaHPKNuSWJNuG0/JdXSYEXp7iqrLLhRh+WhNapsoGavfsce3cVWtRnV69eXbRoERF9+umnY8eOZTscAIC26cJ2AB0W9mQDgPbUo0ePbdu2EdHu3buZ9RUdhIl9M6lO88w4/bhK0xUlBVqt+3JpLper2sN2DN3du3cDAgKkUunIkSM3bdrEdjgAAG2GbAcAoIOYOXPm9u3biWjjxo1xcXFshwMGr6GhISAgoLi42NHR8dChQ926dWM7IgCANkO2oyvYkw0A2t/ixYvXrVtHRBEREU2eVQrQVgEBAdnZ2RwO59ChQ/3792c7HAAAdSDb0RXsyQYArFi1atXSpUuJKCgoCLcegXru3bs3adKk77//nogOHTrk5qaPeycAAKgC2Q4AQEezbdu20NBQIlq+fHlISAjb4YCBuXTp0pgxY3744Qdzc/O0tLSJEyeyHREAgPqQ7ehKZWVl64UAAHQjPj7+888/J6Lt27dPnTr1wYMHbEcEhuHIkSNjxowpKSl56623zp07N2PGDLYjAgDQCLIdXcGebADArmXLln333XcmJibHjx8fM2bM2bNn2Y4I9N3GjRv9/PweP348ceLEc+fOvf3222xHBACgKZO6urqWzik5RUT19fXKCzAttFpGvd71vDoRPX36VEdjl8lkRNTQ0NBSMdbHztbrXl9fT0QymUy9RjSszjDQsWvYu7wFQxy7Qb/urVYPCAiwsbGZO3fu5cuXx40bFxUVtWHDBk26g46qoKAgPDz8zJkzRDR//vzExETl7/J6+zuv6+qEsWPs7d57px27tq5tMLejKzrapaC8vJz5gPbHH380McHDYQFAmbq6upEjR+bm5vL5fCKKjY0dPnw4JnmgiU2bNg0bNuzMmTNmZmbx8fE7d+6sq6tjPlkDADB0Jq1eMbdUwNjYWJW6Gl6RG251a2trXfS+YMEC5ou9e/fa2dmtXbu2TdU17F31uqz0bmxsTERGRkasVGcY6Ng17F1e1xDHbtCvu4rVuVzut99+6+PjExYWdunSpXHjxq1YsWL9+vWa9AgdQ2FhYVhYGDOlM3369Li4OAcHB1Uq6vnvvE6rY+xs9c5udYy9/XvX1rUN5nYMiaenZ3Z2NhGtWbOGiPbu3ct8CwDQKj6fX1xc/OGHHxLRhg0bHBwcdu/ezXZQwJqKioqQkBA3NzdmSkcgEPzf//2fiqkOAIABQbajK1rfky07O5vJbc6cObN27dqgoKCysrJ58+ZptxcA6MCsrKz27dv37bff2tra3rhx4+OPPx4+fHhqairbcUG7evz48apVq+zs7LZv305E77//fnFx8ZIlS9iOCwBAJ5Dt6Ip292QrKyvz9PQkojVr1owbN475ws7ODgkPALQVn88vKyuLjY3t0aPHpUuXPvjgAy8vL+ZeJujwvvjiCzs7u5iYmPr6+jFjxmRmZh45cgRTOgDQgSHbMQxMSjNu3Dj5Qh07Ozvm6iQpKUnJ6h0AgGYtX768rKwsPDyciLKysng83tSpU48fP852XKATNTU1mzdvdnR0DAsLu3fv3uDBg/fv33/27NlJkyaxHRoAgG4h29EVLe7JJl+us2fPnsbH7ezsmCNYwAMAarC0tNy4ceN//vMfZvuT48ePT506ddiwYTt37mQ7NNAakUj0P//zP3379o2MjPztt99sbGwSEhKuXLkye/ZstkMDAGgPyHZ0pVevXlppp/FyHTs7uyZng4KCsIAHADTxxhtv7Nq169dff126dGm3bt0KCgoWLVrUp0+fVatWVVRUsB0dqC8rK+uDDz4YNGjQtm3bamtr3dzcduzYcevWrZCQEM2fvwEAYCiQ7eg1xeU6irCABwA0x1wT37179/PPP3dwcLh3715MTEz//v1nzZqFbQwMy82bNzdv3vz22297eXkxr92UKVOOHTuWn5//ySefGBkZsR0gAEC7QrajK1rZk01xuY4iLOABAG3p0aPHsmXLSktLk5OTx4wZQ0SHDx/+4IMPevfuHRoaeu7cObYDhBY9efIkKSnJ29vb1tY2MjIyPz+fiD755JP8/Pxjx45NmTKF7QABANiBbEdXNNyTzcTEpKXlOoqaLODp0gUvKwBoJDAw8OzZsxcuXAgLC7Oxsbl//75AIBgzZsygQYP+9a9/lZSUsB0g/O3EiRNz587lcDjz5s07efIkEY0ZMyYhIeHevXs7duxwc3NjO0AAADZp9GhS0J3Tp08rWa6jKCgo6OzZs0lJSfPmzROLxQ0NDbqPEQA6uHfffffdd9+Ni4s7ceLEwYMHv/vuO5FItHbt2rVr1w4ZMsTb29vHx4e52xba2d27dzMzMzMyMjIyMh48eMAcdHJyCggICAgIcHZ2Zjc8AAD9gWxHVzTZk628vHzChAmkdLmOojVr1mRnZ5eVlQUFBeER6QCgRZMnT548efLOnTsPHjx48ODBzMzMK1euXLlyZfPmzZaWlj4+Pj4+Pt7e3lrcixKaVVBQwCQ5je8qtLKymjlzZkBAAHPzIQAANIZsR1c02ZMtODiYWluuo4hZwGNvb793794BAwasW7dO7QAAABSZm5sz+0D+8ccfGRkZzGX3/fv3U1JSUlJSiGjs2LFjxozx8PAYPXr0q6++yna8HcRvv/2Wk5Nz/vz506dP37hxQ37cxcXF19fX29sbSQ4AgBLIdvSOp6fn2bNnSYXlOoqYBTzz5s3bv38/j8dTfV4IAEB1r732Gp/P5/P5RJSWlvbzzz9nZGRcvnz57NmzzJ8vIhoxYsTo0aOZzMfKyorVeA3PlStXmAwnJyenrKxMftzY2Njb29vb29vLy+uNN94wMcGbOABAK/CHUlcqKyu5XG5ba8mfrnPq1ClVlusoCgoKys7O3rt3L7OAR40WAABUN2rUKD8/v40bN5aWlmZlZTHX6OXl5RcuXLhw4UJcXBwRDRkyZPTo0S4uLq6uri4uLmZmZmxHrXdu375dVFRUWFj4yy+/5OTk3L17t/FZeero4+PD/PTwwBwAABUh29EVNfZkkz9dZ9WqVWPHjlW761WrVp09e5Z5Ao8aE0QAAGpwdHR0dHRcvHgxEf3222/MvMT58+dFIhGzyEdecvDgwfLMx8XFpU+fPuxFzRqRSFRUVMRkOEVFRRKJpPFZU1NT+cyYh4eHhYUFW3ECABg6ZDt6RP50nXXr1mnyuZ2tre2pU6ccHR2TkpJsbW3xEB4AaGcODg4ODg4fffQREUkkkvPnz//888/MZf29e/eKi4uLi4uTk5OZwgMGDHjrrbccX3jzzTcdHR1NTU1ZHYE2VVZWlr6suLj4zz//bFLMycmJSQI9PDw8PDzwLAEAAK1AtqMrbd2bqPHTderr6zXs3cHBgVnAs3fv3nHjxmEBDwCwxdraeubMmTNnzmS+LS8vl09oFBYW3rhx4+bNmzdv3szKympc64033pDnP9bW1tbW1q+//rq1tbU+z3LcvXtXIpHcuXNHIpHcunWLSWyuX7/e7FR/165d5RNczH/1eWgAAIYL2Y6utGlPNvlyHebpOprfkF1XV9fkCTwaNggAoBW2tra2trbTpk0jorq6uqqqql9//bXJ1Meff/5548aNGzdu/PDDD02q9+zZs3HyY21t3bM55ubmWoz5QXPu378vkUjk6Y1EInn27FlLLVhbWzNzVoy33npr0KBBRIRtBgAAdM1EyYW18mvu+vr6Vi/K6+rq1L5w1/CKn93qpNrPh1FeXi5frjNu3DhNfmgMeXX1nsCjlVyLldedmROTyWTqNaJhdYaBjl3D3uUtGOLYDfp1Z706aTz27t27jxkzZuzYsUZGRszB+vr6ioqK0tLS3377rbS0VCwWS1548uQJk2mUlJQob7lbt25M2tO1a1fTljU0NDxr2ePHj5nuZDKZiiPq1auXPBljEhsHBwdHR8eePXsyd6bJZDKmtadPn6r3Q2MY+uuuYdcsVieMHWNv99477di1dW2DT5V05d69e3379m21mImJCfN0nbFjx65evVq72+z069ePWcAjfwIPtvEBAH3T0NDQ5IiNjY2NjY3iZi1VVVWSRu7cufP7778/fPhQPt9SU1Pz8OFDIvrrr7/u3r3bZGczTRgbGzeZPuJwOD169JDfaMfo1q1bS2NUHCYAALQDk1an0VsqYGxsrEpdDafpDbf6gwcPVKkuf7pOUlJSk/JaCV6+gKetT+DRpHe2XndjY2MiMjIyYqU6w0DHrmHv8rqGOHaDft31oXp7jt3KysrKymro0KHMt88/tHu5en19feP7zZRM3fz1119dunTp1q1bSzM/ZmZm8sSm2UU1UqlUjScNqDd2fauO33m2eme3OsbOVu/sVjfQ9/e/e9ekMmioyXIdHfWCBTwA0HkYGxu/9tprr732Wqslm02WAACgg8EGl7rS6p5s8qfrrFmzRtd7pq1Zs8bOzo55Ao9OOwIAAAAA0B/IdnSl1T3Z5E/XaYfn4djZ2Z05c4aIkpKS8PgdAAAAAOgkkO2wo/HTddqnRzs7O6avvXv3Ml0DAAAAAHRsyHZ0pbKysqVT7bNcR1FQUFBQUBDuZwMAAACATgLZjq40+/Bsat/lOoqwgAcAAAAAOg9kO+2tPZfrKMICHgAAAADoPJDt6Eqze7K1/3IdRVjAAwAAAACdBLIdXVHck42t5TqKsIAHAAAAADoDZDvthN3lOoqwgAcAAAAAOjxkO7rSZE82dpfrKMICHgAAAADo8JDt6ErjPdn0YbmOIizgAQAAAICODdmOzunPch1FWMADAAAAAB0Ysh1dYfZk07flOoqwgAcAAAAAOipkO7rC7Mmmb8t1FGEBDwAAAAB0VMh2dEg/l+soarKAp0sX/FYAAAAAQEeA61pdyczM1NvlOooaL+BBtgMAAAAAHQOua3VCvgxGb5frKJIv4AkKCmI7FgAAAAAALTCpq6tr6ZySU0RUX1+vvADTQqtl1Otdz6szCcPYsWPXrl2rRlOsBD9gwIBTp045Ojru3bvXw8NDk00L2Hrd6+vriUgmk6nXiIbVGQY6dg17l7dgiGM36Ned9eqEsWPs7d675sHL/70/efKkpqbmwctqamqetayuru7p06fdu3c3MTExfRlzxNzcvOfLevTo0bNnT2NjY82HwPqPznBfd4xdwxYM8f1d3ruJ2hGAEomJiWPHjk1MTNT8N0zRBx98YGVlNXLkyI8++kiLzTY0NNja2iYmJmZnZwcHBzc0NGixcQAAAN0xaoSIZDJZQ0PDH3/8IVFw586du3fvMknOX3/91W4RWlhY9OzZk8PhWFtbv/7669YKzMzM5BmRrJF2ixCgozIxMWkl4WmpgLGxsSp1Wy2jXu96Xt3BweGXX37hcrm66P3BgwdHjx719PRUHp56wc+fP3/u3LkNDQ2a/OjYet2Z9wkjIyNWqjMMdOwa9i6va4hjN+jXXR+qY+xs9c5udb0a+9OnT0tLS69fv176glgslkgkjx8/VqWp7t27N5mN6dq1q2nLGhoalEz+PH78uMlkEZNTPXr06NGjR7dv3/7111+bDaNXr142NjZvvvmmYyP9+vVTPnY1dJjXvZ2rY+zt37vWrm00qQwAAADQnu7fv19UVFRcXCzPcMrKyloq3LNnT2bmhJlOYf7L5XI5HI48t2l8j5kuPHny5MGDB9XV1Q8ePJBPN925c6fxF8+ePbt///79+/cvX77cuO6rr74qz3ycnJwGDx7s4uKi02gBOh5kO7py//59Ded2AAAAQCwWFxYWFhUVMf9tNrexsLBwfBmT2FhYWLR/wE2Ym5ubm5srvyS4e/euRCK5efOmfHrq+vXrYrH4zz//LCoqKioqkpc0NjZ2dXV1cXFxcXFhvujZs6fuBwFgwJDt6EplZSXbIQAAABie6urqnJycnJycCxcuFBYW/vHHH00K2Nvbu7i4ODk5yXMbGxsbVkLVlj59+vTp06fJvM2zZ8/kmU9paWlxcXFRUVFNTc2lS5cuXbokLzZw4EAXF5fRo0d7eHi8/fbb7R47gL5DtgMAAAAsk0gk58+fP3/+fE5OTuNLecbQoUOZeQzmv7169WIlyHZmamrq7Ozs7Ozc+OC1a9fk01yFhYW3b9++du3atWvXDh8+TEQcDsfDw4PJfEaPHs3s2QDQySHb0ZXevXuzHQIAAID+qqmpyczMzMrKysnJEYlEjU85ODgwl+yurq6urq6mpqZsBalvBg4cOHDgwJkzZzLfSqXSwsLCX375hUkUq6urT5w4ceLECSIyNTX18PAYM2aMt7e3u7s7q1EDsAnZjq50kk+eAAAA2qSkpOTkyZMnT57MyspqfHzo0KHyeQlbW1u2wjMsXC7X29vb29ub+fbChQs5OTlM5nP37t3s7Ozs7Ox169a9/vrr3t7eXl5e3t7eWOcDnQ2yHQAAANC506dPZ2RkZGRkXL16VX7QycnJ29t77NixHh4eVlZWLIbXMYwYMWLEiBFhYWFEdOXKlZycnFOnTmVmZt65c+ebb7755ptviGjSpEk+Pj7e3t5vvfUW2/ECtAdkO7pSWVmJPdkAAKCTy8vL++677w4ePPj777/LD/J4POaCe/DgwSzG1rENGTJkyJAhixYtIqLMzMyMjIzMzMxr164xE2tE5OHhMWvWrICAgL59+7IdLIAOIdvRlfv377MdAgAAADtKS0sPHjx48ODBK1euMEesrKy8vb2ZJMfS0pLd8Dob+d1uly9fZjKf7OxsZuO7Tz/9dPr06bNnzw4ICMCuBtAhIdsBAAAA7Xj69GlSUtLBgweFQiFzpEuXLgEBAQEBAdOnT2c3NiCioUOHDh06NDIy8vbt20w6+vPPPx89evTo0aMLFy4MCAiYPXv2+PHj2Q4TQJu6sB1Ah4VdCgAAoPMQi8XLly/v27fvJ598wqQ6EyZM2LVrV1VVVUpKClIdfWNjYxMWFnbhwoWCgoLly5fb29s/fPhw9+7dEyZMGDVqVFJSEtsBAmgNsh1dwQ7UAADQGZw7d+4f//jHG2+8sWnTpurqamdn5w0bNpSWlmZlZS1YsKBHjx5sBwjKuLq6xsbG3rhx44cffggODiaivLy8efPmDRgwYP369XhUOnQAyHYAAABAHd99952np+eYMWOSk5OJaMKECYcPH7569WpUVJSDgwPb0UHbTJw4cffu3b///vu6detsbGxu3boVHR3dp0+fxYsXFxYWsh0dgPqQ7egKPg4BAICOKjMzc8SIEXPmzMnOziaijz76KDc3Nysr64MPPmA7NNBInz59Vq1aVVFRkZiY+O6778pksh07dri5uS1atKi8vJzt6ADUgWxHV7AnGwAAdDw//vijj4/PvHnzfv7551dffXXlypU3b95MSkpyd3dnOzTQpvnz51+4cOHkyZN+fn5EtHPnTjs7uw0bNjx8+JDt0ADaBtmOLlSnh40fN25c6IHqFgqIBLOGDXvHX1DcrmEBAACorbi4mM/njx07NjMzk4jCwsLKyspiYmL69+/PdmigK15eXqmpqVlZWTwej4ji4+NtbW03b97MdlwAbYAdqHUgKybiCyENXcifyWm+QEZi3OGCqhnBvmo8VO2XxOvXrxNR0r6k3J9ymy3S0NBA5PZxwsduLx8v2BWaeKX1HhoaGoioS5cuNCRYoQ0AAOiMVqxYERsby3wdFBQUFRU1cOBAdkOCdjNhwoQJEyYcOnQoNja2sLAwMjLy66+/3rp169SpU9kODaB1yHa0rTItdGmciGiwzbPksNDkl09aT4xe6SNZvzlOTORGoriloQr1rX0jV1r/3z92lbzWpYvCzNuQ4ITeBbdv3yairJNZWSezWo5j8YQEapKpiAsEgq/aMpbFPIU2AACgczl79mxYWFh+fj4RTZs2bcWKFSNGjGA7KGDBrFmzZs2atXPnTmbPvWnTpoWEhGzdurVr165shwagDLIdraoriAsMFpQQERVn7FG8T43XP9i3JGLLGSKigiOCgmaa4NkvXPln8cGvdjbX/mJewsTnXwriBX7v+xHRidXWC/a4rxSmhb7JnLn65ezxsTktxhiSJkuYoXQQdXX0f0tNZ7YpMQIAgA5IPqXTt2/fuLg4Pp/PdkTAsk8++WT+/PlhYWEJCQkCgeCHH36Ii4vDJA/oM5Pff/+9pXPPnj0jIlNT0ybH6+vriaiqqkpJXUZVVZWRkZF6kbXUu/5Wr7uZ9v/4EVnVfbzWJH8z/96Xi2KTHk7en/w/Lt1eFKC/Sv6XP0FY/Zrf9vPbJ4s2+n98ou8/tyd+NOTlhn5vWCu9vbre2NiY0qO48/eMXn3u+yXPU5nf048zXxgZGxmZGhGRkYyIjE26GBk9D7arqYyInlQrvDzVT4iIHiueaDL2elmXB0+o+TZUwtbrXlVVRUT19fVqh01EdXV16lWXN2KIY9ewd3kMLI5d7RdO8x8ddba/dS/D2FnpvR2q5+XlrVmz5vLly0Q0d+7cuLg4PEcOGKampvHx8ZMmTQoLC7t+/fq0adPmz5+/YcMG5bX0/3deuY797105A31/l/du0rdv35ZK1NXVEZGJSdP5H2NjYyKytLRUUpchk8laLdPW3vW0+qOCuMBpEceknIlbMk+Eu5nQWZe336SYjZPe712QH+5K4gOhMwMF/fbfjFp2Od09cbEzh96cO3tHUsQ/l372Zm7CjJdW+PzdO+cVIupq0evvHyPnFeb/e/bsyRzkmBNR1+5/F/nDoisRmXMUfvQccyKiVxRPKI69pzk134ZK2HrdLS0ticjY2Fi93pnqJibK/lG0ykDHrmHvDHbHrvYLp/mPjjrV3zoFGDsrveu6elJS0rx58whTOtCyKVOmeHl5hYeHJyQkfPPNN9euXUtOTh4wYEBL5fX8d75VHfjfe6sM9P39797VqwxNWbgFz/NPN3PekhLixvxQbSZ8n3T/lVk36VE1Ecd+iH1XoqP/2jT34okEJrUxcQtPEeQPSTAzqVWjw9zcXDIiIrpaQURVojMpKc93IKgqqVJWMXXFsFyln7/IZDJ6JFUjJAAA6ADWrVu3Zs0aIpo5c+b27dsxpQMt6dq1a3x8vJeXV1BQ0Pnz5997773k5OTRo0ezHRfAS5DtaA3nHV/emfQMPo0FAAAgAElEQVTEsOcbD/xx/4/DvV4L/tBOfCg69BARkbUrUaEgOrBW6Ggmr2U5Y1htVkzo8+0G3IK/DFZxWwCBQCAQCF58V5C4lJ+oWkVpSQFSGQAAaNaCBQsSExOJKDw8fMuWLWyHAwZg6tSp586d4/P5hYWFTMITGBjIdlAAf0O2oz3VImG8QNhaKVFGoqjFkyG8L1XdBA27FAAAgBY9efJk+vTpWVlZRLRt27alS5eyHREYjEGDBjEJz7///W8+n3/z5s3ly5ezHRTAc3i6qLZ5brkqk8lkMolEImuDq1s829YP5zUOtx+X249raUZE5pZWXOZbbj9ryxZWgvltl8lkraQ6z73/pUwmk233a1tMAABgsGbNmpWVlfXKK68cOXIEqQ60lYWFxdGjR0NDQ4koKipq585m95YFYAHmdnSgtlpaWVvynxKqU6GwGYfb26zJsbKdc2fuERkZGdEjCRHlb+cPO0RE5Dw/NZmrXkzpEe9EtzrvxJDJZET0YvMNXszFLb7q9QkAAAZi3rx5x48fNzExyczMfO+999gOBwxVfHy8ubn55s2bFy1a1Lt3b39/f7YjAkC2o0VOIcm3+GTC4WZEGPkJWi/PWJwq2+5H5BwulIW/OFb7SFp4qVBepLqsoKCMiMhy1t/7GbRxl4La2l8Kmnu8T6tGqbOFAgAAGI5ly5YlJSUR0aFDh5DqgIY+//zz+/fvf/PNN7NmzRIKhWPHjmU7IujskO1oj4kZt9/fMy//NXfrqfVzlJW/nuDHW5/X3Bmn8B+ehZOJiQkdCTXyE/A+v3p6mfPzc0ee/786uxR4brkqDHd++VhtpbS6lsx6czkvZphe7BV4PY43KOJMq40CAIAB27RpE7Mbwddffz1jhir3OgO0IjExsbKy8t///vesWbNycnIcHR3Zjgg6Nazb0RULK8cXC2la+J+VpbkG7QviBZJbEsktye55ROS+UihhvpXcOh3l0YZ20ldbW/e3js7QIBQAADBMIpGIWU2+YcOGjz/+mO1wWFNbkhLKGxZ6pLqtFauPRYx/Z9ioJSkt1RTF+w97Z5h/fMv7E3VQhw4dGjVq1N27d6OiotiOBTo7zO3oyp+/F6cceKisRKVI6XNxWuATM8q9IDcvl9mlgIga7VLAlOCu+O7WkjozPB8BAACUY65EfX199fqStCwvJU+sZt3+7oGj7VstJTqWmHymoPqKv7396XBXlRuvE8ZExglL3FfGB3KaL5Ce+GVaQenU4MPOzZ5XpiJ9/efpktbLWftGrvTt1+bmda1bt27btm175513vv/++5SUFOxJDSxCtqMrxd+u4H+rg3bNOF27dW2lCJfLxUsLANChGRkZlZWV2dnZqVfd2Ng4KSnp6NGjRBQbG6vV0LStIJkfqPJq2CYWp6qS7bgtS028Psx/lzAmMo6XHu6m0jtoddrS0LgSIlfr6pTQ0JSXT1r5Rq/ylWyOiyslcjUVbQ0NVahvPTE6mBJjsprLaKx8o2eo9FgLIp79Qn3Mdoho+PDhK1as2LBhw/Lly99///2uXVu5egHQEVwS68qIsKM/xU1TVoL52GZI63+FG5GmfxZz/fp1Ikral5T7Uy4RSQqISJy+NVRs8bxQQ0MDEdlMWr1yaqs7uInEJUTEs3+zLVEAAIB+sLe337Nnz7hx49pasaamhpnPWbt27dChQ3UQmrZNXZk8Z1CTY1VntoTuKnD7OCHC07Jp+SvJ/Nj0pgfraqXS5m86G7UkPDAjRjrSmSOVNvsMbg6Xa9booqlgs3/wVyIiosI0QaFCaU/74KmiiK3CFgsQ8fqH+JFQEN9cRuNpH8IsoZq3W7JuMnPs6td+4z/LC/5GEjPxeakTq60X7Gl2NPpi/fr1R44cEYlEUVFR27ZtYxYGA7QzZDu68qjyN2lFs38w5YYFRw4jImmFtNl9qJtTJTojuH2biCjrZFbWyawXx8XCPU0/AeLZ/nfr2U51Qf4ZIuKYWdQSqRIAAADoBZlMZmdnZ2dn5+npaWdn19acZ9++fVKp1MXFZc2aNboLUpv6DQuc0/QpcKKKRCKyfJMXOEfhVjGzXL5iIyUC/pAIZRMmn01+47NmT/C2XDkdPvj5N+L9fH6ksJrruyXjREidIPjjGOms9BNRbn+/j9YWrPcdJqzkBO4TJ8/Ij/bxT7OOSU4JUZg1Oi1bRkRExXHjh0QIn2/T+vwIEZGZpXwDpKru5kRkxpHfuM7cyq7vYmNj33///R07dnz22WevvPIK2+FAZ4RsR1d+3RdmvS9M1dKN/8ApeHKvIGWzIDVDmOsUI06RpPn55+blCuIFfu/70fOPdtxXCtNCX8zPPN9UrXfrE9t5WxNSiIjSQu2t4yb6hywOD5nqbGbcpa6+QdXIAQCAPXv27LG3ty8rK2trznPw4EEi4vObyQg6PkdesI+zyplCrSgjUVj697cFm/19I9OlvXlbMk6EuxLV+U4eIuCv4E02EZ5e5kalKaFLolO5K6+vm5N76APBhxwinv+0YYLIUH5v69ztfs2v8Om4pk+fPmjQoKtXr3733Xfz589nOxzojJDt6IrLosTMlSo8lrOFfahrpYU/Z51Nz8gnorzNfKYAhyORcLnMup2WdymQbyHduD03fkryKI6bdaND4v384M/yiJwD1wWbnxOkZiVGZCVGcN3mLIpa8emMwRznkBQJv86ss/1dBgAwIHZ2duPGjcvOziYi1XOe4uLinJwcIpozR+mTEjqq/r7hXzZ9HkPLRHG8xtmOmdu8YP8MM+etqSHMfgYm9oFbY3IvRkuotpqI4+hmT1XS/euXz8g/8eXzt1C3ZamCK86hXV+prWvjlVdFfsqB58+9q7peRUTiiykpLx6Ed7WiLU2xZ/bs2atXrz548CCyHWAFsh1d6W71ZuPH77SoWnEf6oIvJvIis+U3FnOdfXj8qcG+M0a5cdWetLZ3n2PvLv9OKowLi4g5UFBNHN7nycnL3IjCE4rTBF8KtuwSHlg768BartuHodGR4X6DDWGaHACgE2Omd+TfqpLzMBM7U6ZM6ddPL5e367neo3w9henfvLzxgCfP+lZy9NJkIiILe6ICwQp+7Rn7v99ELfwDG47HhB1nvnObmxA8XIW+jq3nH3vpQHosX2E1kr6bM2fO6tWrhULhtWvXBg1quvgKQNeQ7ehK7aPfW1u3Q0RE96qeND3k5u5hRyXkN/Mf/rN8fYc7P3/uZ7Uo/UBBNdHvd38notzcXDIiev7RTpXoTErKlef16+vricjY2JgzxNd3cKO5mUfSgqzkxP3JqUcKpETU2y1wdWLif7sxJ80G+4V/7Re+VbQ/JnxrYkbB/mj//VvsJ/qHL4sJnqh+mgUAADrVeHpHTnnOwxQ2sImdr/yNvmr+jDBykFFke4ZSJTojELT69O2S9MSSFk+GeCaQKtmOge9SwHB0dJwwYcKpU6dyc3OR7UD7Q7ajK798MdP6CzXrjlx+7uFaM4uX70WjivS4wL/XVgoEAoFAviNnQeJSfqJCO7zPr/paiFLO5Obn5RZcLMgvFD+fMOptz5sRvnJdCE9x8snCeU7Mv/mr//N/gi8EWxOFWYmhWYnRrr7RW1PDPZHyAADoI2Z6x8TEpMmeVy3lPOXl5UTk4ODQ3oFqguvs1k/hbahSXFBWzbFzs1d8xtwjSUGJCp85qu+lfQtUJ9o8flCkCjtLMwx/lwKGra0tEd28eZPtQKAzQrajK/81d+up9Sp8bNbsuh0zs2b+gvXzDU+xDiaKiYkRXRWFhISM8hjVbJPyuZ3uQ/qT3V/i/RFxzEdQve3d3uHxPwzmz3BXPlnT0PUtv2W7/f47Rrgrev2GRGGhtbOb4fxNBQDoZJqd3pFrkvP89ddfEomEXlyAGowZMfkK2/kwmcOwJcmnlykswzkSauSn7lN6VFVbXVFd23oxhhmnH6fpW2lGxLDVQiKiumoxER2JHnYxhojIMyZ/rvbC1APMLxuTZgO0s6afAzWmfFv0+vr6VvdNr6urU3tvdQ03ZWexutGkdbfEy/N+vdbXpi/z6BtlhfusPCRe1OWV1xr32HzvFgO9Zzt1MTL6eufXIhKNHDkycE6gTCZTLPjs2TMiMjU1lTXU1zW4hkTs7jF/gPtot0EDXnulSxeZrKFB6Uv39zkTq3Ghuz0/+VfxNfMhPdrwI2HrdWfSPJlMpl4jGlZnGOjYNexd3oIhjl1ePSgoSO0Ynjx5Ym6usARPNcxfiS5duhhidcLY9WbsvXr1IiJjY2PmV1qRPOdZu3YtEZmbm3O5Kiwu7ZCqRMIDKQWql65qcoTZxYc43PQIU3+VM6qQVFmCH5Hzshe7ThNRbW3BL40CkYoKmOmod17kUB1ilwJqlO0Y6GUhddZrWnkLhvj+Lu8dczvaJ+vag9uvx8AH91t6y3mpcBdTlTYzICKSNdS/tDN0S6898y74vHdZnYXXR4tfnKhrLftS6LGOuvR1dqI6bEkNHVp5efnevXvZjgJAU62+75SVlTGJfedNdYioMDE0UPHu7zYwa/zjG73y9IFQpYtRribMGb/+fHNnZiTIZAlELT9vp0PsUkBE1tbWRMRMKgK0MxMTk1YSnpYKGBsbq1K31TLq9a7/1fv27auj3o2MjIioS5cuyttncexsve7GxsZEZGRkxEp1hoGOXcPe5XUNcewODg6rVq0izT7jf/TokYWFhXp1DX1+A2NnpXfF6oWFhUePHm214po1a4KCguzt7Tv1PUVTt+Rv51u3Xo7Rcq7CMLW07qc8d6yyNFU9uJd1iF0K6MU9bLa2toZ7XdeZr2kN9P397941qQwAYOjs7OxWr15Nmr0TSKVStT8pf/GALDV7Z7c6Yex6M3ZPT0/lVdasWcPcwyaTyYyMjBoaGm7evDlgwAD1AmBBQXLo0qaL+2tLxEQkzooLvaWwuFSa30wj18VCIupn76bqXRVERKO8QkLcrJ1bevxc6/fFKd4LpwKnkORbfDLjcHs/H5riLgX8zyWT1xHHEGbp5NkO24FAZ4RsR1cqKys79X0CAADQXpKSklraooAa5TkMIyOjAQMGlJeXl5eXG0S2IyoVERH9lCb4qfkC4qxEQZZKTVU/qiIit94qz+sQEXF9VyUoe1i4xvfFNc/ErNUb3c16G8x1BrIdYBGyHV25f/8+2yEAAECn0NKqsyZ5jpytrW15eXlRUdF7772n49C0oPphFRH5fp6fOKdplsLc3OW+6nTaQoWFM1nR1vObJiGi6yIisre2b1pYE55brgrDFbaEa0ya/llM+j23NvVasCs08cpLR5iJrPwDoaFNHvUzJDjhY7e2tM0CkUhERAaRXUPHg2wHAADAgDU7sdNSnsOYPHnyjz/+eODAgdDQUB1Hp7lqcVkBEcfeyU1+B5ccc3OXeXfrZqZBFHZ7JpLmFxcQ2ds7anVG5FmVpEJqqbTIsHnRw4ioQiptdh/q5ogLBILmnqaad1jQ9KkVi3kJpNfZzsWLF3/55Rci8vLyYjsW6IyQ7ehK796KjzoDAADQsiYTO8rzHEZAQMA///nP3Nzcy5cvDx06VJfRaS4/P4+IhtkrnT1RSbUw9whRb99RrSxxaqPz68f3X69y6ef7UDevViz8an3isdS8On5qikSy4qWTirsUPGfW0ooifXHgwAEi8vf3x6URsALZjq4wjz4AAADQncYTO6rkOQwbG5spU6YcP378wIED+p7t/CQUlhK5uo9y1LSl6owT6UTkM4qn3Wuf1negZjS/t1ttpaggTyg8ki4moj0R45k91ux4Vb25TeZrFHcpMBRMtjN79my2A4FOCtkOAACAoWImdlTPc+Rmz559/Pjx3bt3R0RE6PPHc+mHUgqI7Cfy3DVtSZx8IKWaOIE+vlqeCml9B2qG4j7UtWkL7f13SV98y7EfyfP18+dP9XVzUuluN4Owfft2qVTat29ff39/VZ5DCKB1yHZ0BXuyAQCA7hgbGyclJY0dO/bMmTOtl1bA5/O/+OKLS5cuRUVFff3111oPTzvKBIn7xUTuwbN4rReua3xRU5t3MZ+IOCbPs4bqY3GCY0SOwfyZ2r7vS4V1O0REJKl61uSIGe89Hh3J4/kE+33o6+/uxn3+9CZx3oF0sUL9qutVRCS+mJJSq3Cuv3vgaK1uvaAlEokkKiqKiMLCwtiOBTovZDu6gj3ZAABAd+rr64OCgtSu3tDQEBsb6+XltWvXrhkzZvj4+GgxNi2pTvs8Lq2SODP4gcNVKF4WN/7NiJefyMPxdR9FRFSZFh0pEBHHLyzEV+sXPm1bt/MSzpzEJ3PMzJqGVJAcyBe0UCU9lp+ueHRxqn5mO1FRUTU1NSNHjoyMjGQeEgXQ/pDtAAAAdDoNDQ0TJ05csmTJ9u3bo6Ki9DLb4fAm+jp/le8XGdLShbyZBddtuBvXwoyIyNHZuTcJK1+c4zr7ztsSx8zkcNxGOJDAOiL6Yx2kBJqs2zExa+6ONTd+SvKoNsXQXx/3ZDt69Chzp+XGjRvZjgX+P3v3HtXUlf4N/AGiwmg1eIGkqJCCSvxVAbW1iKJGpRBvBVSUTFsVrVoYOwPIK4qX5YB4gemyEKtVKtMWFK0wVgUsFbVcrFYNKGMciwZRmxShRKxKkcv7x9HINSAQDoHvZ7lccrL32c/OiSRP9jnP6daQ7egKCo8AAEAnFx4enpSUlJubu3z58n379rEdTn1c9+iTcoXAtskGglVxV1ZpfhJHP6iJbrQdR/D+f26PKxAI2/lTjzj0rjKEw+XxWnKVDS/kiNKvsiUF1ASOiwRtvk6JZdevX1+5ciURffLJJ5MnT2Y7HOjWDNkOoMvqzBd9AgAAEFHfvn137dpFRPv372eur+hsBLbttBrDEQjbXNWtAWPuYF7LUh0iImMej9eym+3ou6KiIi8vL5VK9c4772zfvp3tcKC7Q7YDAADQfc2fP3/37t1EtG3btsjISLbDAb1XXV3t5eWVl5dnY2Nz+PDhXr16sR0RdHfIdnSluLi4+UYAAABsW7Vq1ZYtW4goMDCw3r1KAV6Vl5fX2bNnuVzu4cOHhwwZwnY4AMh2dAY12QAAQF9s2LBh9erVRLR48WKcegSt8+DBg3fffffbb78losOHDzs4dMbaCdANIdsBAAAA2rVrl5+fHxGtXbvW19eX7XBAz1y+fNnZ2fn77783MTFJTEycMWMG2xEBPIdsR1dQkw0AAPRLVFTUjh07iGj37t2zZ89++PAh2xGBfkhKSnJ2dr5x48aIESMyMjLc3d3ZjgjgJWQ7uoKabAAAoHfWrFlz6NAhDodz4sQJZ2fnc+fOsR0RdHbbtm3z8PB48uTJjBkzMjIyxo4dy3ZEAHVwtNzaVvtdb6uqqpq9LW5lZWWrb53bxnvustudWvb8tG70mpoaIqqurm6qGetzZ+u4V1VVEVFNTU3rdtLG7gw9nXsbR9fsAXPv+NG77f931rtT1527l5eXhYXFBx98cPXq1SlTpgQHB2/durUtw0FXJZPJAgICzpw5Q0RLly6NiYnR8uGnM7/mW7iHLvn/vYV70Ov3d6zt6ApqsgEAgD6qrKx85513srOzJRIJEYWHh48bNw6LPFDP9u3bx4wZc+bMGWNj46ioqL1791ZWVjJfyAJ0KhwOp5kbCzfVwMjIqCV9m23TutE7f3e1Wq2j0Q0MDIjI0NBQ+/5ZnDtbx93IyIiIDAwMWOnO0NO5t3F0TV/MnZXR2e2OubM1uq6783i8b775xs3Nzd/f//Lly1OmTFm3bl1YWFhbRoSuIScnx9/fn1nSmTt3bmRkpLW1dQv7dubXfLN99Tf4NnbX9/d3rO0AAABA4yQSSV5e3vvvv09EW7dutba23r9/P9tBAWvu3bvn6+vr4ODALOlIpdL//Oc/LU91AFiBbEdXUJMNAAC6gEGDBn311VfffPONpaXl7du3ly9fPm7cuKNHj7IdF3SoJ0+ebNiwwcrKavfu3UT03nvv5eXlffzxx2zHBdA8ZDu6gppsAADQZUgkkoKCgvDw8L59+16+fHnevHkuLi7MuUzQ5X366adWVlahoaFVVVXOzs6pqalJSUlY0gF9gWwHAAAAWmTt2rUFBQVr1qwhorS0NJFINHv27BMnTrAdF+hEWVnZzp07bWxs/P39Hzx4MGrUqN27d587d+7dd99lOzSAV4BsR1dKSkrYDgEAAKCdmZqa7tix46efflq2bBkRnThxYvbs2WPGjNm7dy/boUG7kcvlf//7383NzYOCgm7dumVhYREdHX316lXcNhT0EbIdXUEFagAA6KosLS337dv33//+d/Xq1b169ZLJZCtXrjQzM9uwYcO9e/fYjg5aLy0tbd68eSNHjty1a1d5ebmDg8OePXvu3r3r6+vLdmgArYRsBwAAAFqD+UxcVFS0Y8cOa2vrBw8ehIaGDhkyZMGCBShjoF8KCwt37tw5duxYFxcX5tjNmjXr+PHjV65cWbFiBXPrCwA9hWxHV1CTDQAAuoO+ffuuWbMmPz8/Li7O2dmZiI4cOTJv3ryBAwf6+fllZGSwHSA06enTp7Gxsa6urpaWlkFBQVeuXCGiFStWXLly5fjx47NmzWI7QIB20Kab9YAWqMkGAADdire3t7e398WLFxMSEhISEu7fvy+VSqVSqVAo9PLy8vLysrW1ZTtGeO7kyZPMYaqoqGC2ODs7L1iwwMvLC1/XQheDbAcAAADazdtvv/32229HRkYyn6cPHTokl8s3b968efPmUaNGubq6urm5TZ06le0wu6OioqLU1NSUlJSUlJSHDx8yG4VCIZPkCIVCdsMD0BFkO7pSUlLC4/HYjgIAAIAdM2fOnDlz5t69e5k1hNTU1GvXrl27dm3nzp2mpqZubm5ubm6urq5YSdA1mUzGJDm1zyo0MzObN2+el5cXc/IhQBeGbEdXUJMNAADAxMRk8eLFixcv/v3331NSUpiP3SUlJfHx8fHx8UQ0efJkZ2dnJyeniRMn9u7dm+14u4hbt25lZWVlZmaePn369u3bmu329vZMkokkB7oPZDsAAACgc/3795dIJBKJpLKy8ty5c2lpaSkpKVevXj137ty5c+eYNuPHj584cSKT+QwaNIjdgPXOtWvXmAwnKyuroKBAs93IyIg5gXDGjBlvvPEGh4PPftC94BWvK1iaBwAAaNTkyZOnTZu2bdu2/Pz8tLQ05jP6nTt3Lly4cOHChcjISCIaNWrUxIkT7ezs7O3t7ezsjI2N2Y6607l//35ubm5OTs6lS5eysrKKiopqP6pJHd3c3Jhnr7KykqVIAdiEbEdXUJMNAABAOxsbGxsbm1WrVhHRrVu3mHWJzMxMuVzOXOSjafnmm29qMh87OzszMzP2omaNXC7Pzc1lMpzc3FylUln70R49emhWxpycnPr06cNWnACdCrIdAAAAYJ+1tbW1tfWHH35IREqlMjMz8+LFi8zH+gcPHuTl5eXl5cXFxTGNhw4dOmLECJsXhg0bZmNj06NHD1Zn0J6Ki4vz68rLy3v8+HG9Zra2tkwS6OTk5OTkZGiI+ygC1IdsR1eKi4tRkw0AAKAV+Hz+/Pnz58+fz/x4584dzYJGTk7O7du3CwsLCwsL09LSavd64403NPkPn8/n8/mvv/46n8/vzKscRUVFSqXy119/VSqVd+/eZRKbX375paSkpGHjnj17aha4mL8789QAOglkO7rS6O8pAAAAeFWWlpaWlpZz5swhosrKytLS0v/+97/1lj4eP358+/bt27dvf//99/W69+vXr3byw+fz+zXGxMSkHWN+2JiSkhKlUqlJb5RK5bNnz5raw+uvv25Ty4gRI0aOHElEKDMA8Eo4Wi5Z0341W1VVVbOXu1VWVrb6krg2XkvHbnciqqio0NHca2pqiKi6urqpZqzPna3jXlVVRUQ1NTWt20kbuzP0dO5tHF2zB8y940fvtv/fWe9OmDt7c3/ttdecnZ0nT55sYGDAbKyqqrp3715+fv6tW7fy8/MVCoXyhadPnzKZxo0bN7TvuVevXkza07Nnzx5Nq66ufta0J0+eMMMxb9YtMWDAAE0yxiQ21tbWNjY2/fr1Y85Mq6mpYfZWUVHRhmdO7487i90Jc9fn93d8PaArqMkGAACgI9XV1fW2WFhYWFhYTJ48ud720tJSZS2//vrrb7/99ujRI816S1lZ2aNHj4jozz//LCoqqlfZrC2MjIzqLR/17duXz+dbWFjwa+nVq1dTc2w4TQB4VZxm10ObamBkZNSSvm1cb9Xf7nw+X0ejM19lGRoaat8/i3Nn67gbGRkRkYGBASvdGXo69zaOrumLubMyOrvdMXe2Rme3ux7NfdCgQYMGDRo9ejTz4/Pveut2r6qqqn2+mZalm2fPnv3xxx8DBgxoauXH2NiYSWy4XG7Di2oaHV13c2/37np03Nu9O+be8aO32/t7WzoDAAAA6DsjI6P+/fv379+/JY1VKhWqEAHoEVQq1JXi4mK2QwAAAAAA6NaQ7egKarIBAAAAALAL2Q4AAAAAAHRNyHZ0BTXZAAAAAADYhWxHVwYMGMB2CAAAAAAA3RqyHQAAAAAA6JqQ7egKarIBAAAAALAL2Y6uoCYbAAAAAAC7kO0AAAAAAEDXhGxHV1CTDQAAAACAXch2dAU12QAAAAAA2IVsBwAAAAAAuiZkO7qCKgUAAAAAAOxCtqMrqEANAAAAAMAuZDsAAAAAANA1IdvRFdRkAwAAAABgF7IdXUFNNgAAAAAAdnHYDgAAAICePn36sC61Wl1WVvasaRUVFYaGhj179uzRGA6HY2Ji0q9fPy6X268uIyMjtqcLAAAdhPPbb7819dizZ8+IqEePHvW2V1VVEVFpaamWvozS0lIDA4PWRdbU6HrRnYgUCoWO5l5RUUFEDx8+bOr5Z33ubB330tJSIqqqqmr2lamle2VlZeu6a3aij3Nv4+iaGFice1sOnP7OnfXu1OK5q9Xq3w3GktUAACAASURBVBpQqVQPHjx49OhRWVkZ85utY/Tu3btv3779+vUzNzfn8XjmDfTq1asl+8FxZ2V0zB1z7/juhLnr8/s7x9zcvKkWlZWVRMTh1F//Yb4VMzU11dKXUVNT02ybVx1dL7oT0Y0bN3Q09549exIR8z7diu5tHL0l2DrupqamRGRkZNS60ZnuHI62/xTN0tO5t3F0Brtzb8uB09+5s96dGsy9oqIiPz//l19+yX9BoVAolconT560ZG+vvfZavXWYppZuGNXV1VoWf548eVJvvejPP/8kosePHz9+/FipVN64caPRMAYMGGBhYTFs2DCbWgYPHqx97q+kix33jhwdc8fcO747Ye56/f7eus4AAADFxcUZGRl3797VZDgFBQVNNe7Xrx+fz+fz+a+//rrmbx6PV/tMM12fY8acL6dWqx8+fPj7778rlUqlUvnrr7/W/sezZ89KSkpKSkquXr1au2/v3r01mY+tra29vX1bvhkBAICOgWxHV1CTDQC6HoVCkZOTk5uby/zdaG7Tp08fm7qYxKZPnz4dH3A9JiYmJiYmPB5PS5uioiKlUllYWKhZnvrll18UCsXjx49zc3Nzc3M1LY2MjOzt7e3s7Ozs7Jh/9OvXT/eTAACAV4BsR1dQkw0AugC1Wp2VlZWVlXXhwoWcnJzff/+9XgOBQGBnZ2dra6vJbSwsLFgJtb2YmZmZmZnZ2dnV3vjs2TNN5pOfn5+Xl5ebm1tWVnb58uXLly9rmg0fPtzOzm7ixIlOTk5jx47t8NgBAKA+ZDsAAFCHUqnMzMzMzMzMysqq/VGeMXr0aGYdg/m7m3yz06NHD6FQKBQKa2+8efOmZpkrJyfn/v37N2/evHnz5pEjR4iIy+U6OTkxmc/EiRNbfY0vAAC0BbIdXSkpKdF+sgQAQOdRVlaWmpqalpaWlZUll8trP2Rtbc18ZLe3t7e3t29LYZ8uZvjw4cOHD58/fz7zo0qlysnJuXTpEpMoqtXqkydPnjx5koh69Ojh5OTk7Ozs6urq6OjIatQAAN0Lsh1dKS4uZjsEAIBm3Lhx49SpU6dOnUpLS6u9ffTo0Zp1CUtLS7bC0y88Hs/V1dXV1ZX58cKFC1lZWUzmU1RUdPbs2bNnz27ZsuX11193dXV1cXFxdXXFdT4AALqGbAcAoNs5ffp0SkpKSkrK9evXNRttbW1dXV0nT57s5OQ0aNAgFsPrGsaPHz9+/Hh/f38iunbtWlZW1g8//JCamvrrr79++eWXX375JRG9++67bm5urq6uI0aMYDteAICuCdmOrnSTc9kBQI+cP3/+0KFDCQkJte/UJhKJmA/cb775JouxdW2jRo0aNWrUypUriSg1NTUlJSU1NfXmzZvMwhoROTk5LViwwMvLC1WtAQDaF7IdXUEFagDoJPLz8xMSEhISEq5du8ZsGTRokKurK5PkMLdvgw6jOdvt6tWrTOZz9uxZpvDdJ598Mnfu3IULF3p5eaGqAQBAu0C2AwDQNVVUVMTGxiYkJKSnpzNbDA0Nvby8vLy85s6dy25sQESjR48ePXp0UFDQ/fv3mXT04sWLx44dO3bs2EcffeTl5bVw4cJp06axHSYAgH4zZDuALgtVCgCALQqFYu3atebm5itWrGBSnenTp+/bt6+0tDQ+Ph6pTmdjYWHh7+9/4cIFmUy2du1agUDw6NGj/fv3T58+fcKECbGxsWwHCACgx5Dt6EpJSQnbIQBAt5ORkfHXv/71jTfe2L59u1qtFgqFW7duzc/PT0tLW7ZsWd++fdkOELSxt7cPDw+/ffv2999/7+PjQ0Tnz59fsmTJ0KFDw8LC8CUaAEArINsBAOgKDh06NHXqVGdn57i4OCKaPn36kSNHrl+/HhwcbG1tzXZ08GpmzJixf//+3377bcuWLRYWFnfv3g0JCTEzM1u1alVOTg7b0QEA6BNkO7qCmmwA0DG+++678ePHL1q06OzZs0T04YcfZmdnp6WlzZs3j+3QoE3MzMw2bNhw7969mJiYt99+u6amZs+ePQ4ODitXrrxz5w7b0QEA6AdkO7qCmmwAoGs//vjjrFmzPD09L1682Lt37/Xr1xcWFsbGxjo6OrIdGrSnpUuXXrhw4dSpUx4eHkS0d+9eGxubkJCQR48esR0aAEBnh2wHAED/5OXlSSSSyZMnM3dr8ff3LygoCA0NHTJkCNuhga64uLgcPXo0LS1NJBIR0fbt2y0tLXfu3Ml2XAAAnRqyHV1BlQIA0JF169aNGjUqPj6eiBYvXvy///0vMjIS68ndxPTp00+fPp2QkGBvb19aWhoUFDRs2LDjx4+zHRcAQCeFbEdXUDwHANrduXPnxo4dGx4eTkRz5sz56aefDhw4MHz4cLbjgo62YMECmUy2Z8+eoUOH5ufnz5kzx8/Pr6Kigu24AAA6HU5lZWVTj2l5iIiqqqq0N2D20Gyb1o3eybsTUUVFhY7mXlNTQ0TV1dVNNWN97mwd96qqKiKqqalp3U7a2J2hp3Nv4+iaPWDuOh09JCRk+/btRGRubh4ZGSmRSFo3InQZK1asWLp0qb+/f3R0tFQqPXXq1M6dO2fNmtVsR315zXfC7oS5Y+4dPnq3nXt7vb9jbUdXzMzM2A4BALoCDofz448/jh8/nkl1PvjgA+aiHbbjgk6hR48eUVFRx48fHzZsWH5+vru7+yeffMLhcAwMDNgODQCgU+BwOJxmWzS63cjIqCV9m23TutE7f3dzc3Mdjc68hxkaGmrfP4tzZ+u4GxkZEZGBgQEr3Rl6Ovc2jq7pi7nrYvTY2NglS5YQlnSgabNmzXJxcQkICIiOjt69e/fVq1fj4uKGDh2qvVenfc138u6YO1ujs9sdc+/40dvr/R1rOwAAndeWLVuYVGf+/PlY0gEtevbsGRUV9d133/Xv3z8zM3PSpEmZmZlsBwUAwD5kO7qCmmwA0EbLli3btGkTEQUEBBw+fBhV16BZs2fPzsjIsLe3LywsnDRpElO4DwCgO0O2oyuoyQYArfb06VMXF5eYmBgi2rVrV0REBNsRgd4YOXJkRkbGnDlziEgikWzbto3tiAAA2IRsBwCg01mwYEFaWtpf/vKXpKSk1atXsx0O6Jk+ffocO3bMz8+PiIKDg/fu3ct2RAAArEG2oys45wQAWmfJkiUnTpzgcDipqanvvfce2+GAvoqKilqzZg0RrVy58ujRo2yHAwDADmQ7ujJgwAC2QwAA/bNmzZrY2FgiOnz48KRJk9gOB/Tbjh07li5dSkQLFiw4d+4c2+EAALAA2Q4AQGexfft25hKdL774wt3dne1woCuIiYmZM2dOdXX1ggUL8vPz2Q4HAKCjIdvRFdRkA4BXIpfL165dS0Rbt25dvnw52+E0Qx61zO+gvLw9d6mWZdbZoepSjJ/YL1Hd4v7HA6e9NWbCx/FN9ZBHeY55a4xnlLxtceqfw4cPT5gwoaioKDg4mO1YAAA6Wptu1gNaoCYbALwS5pOoWCzWg4+kBdKQLTGJxdf5w7LXjyPZPr+Ya811GSQO2SDmNf24+niIZI601C06PdlXSERE1w9HSlPkV6J8PDY4NB9SZXpoUGT6Dcf1Ud7cxhskx3yWKMuf7XNE2Pze6rmXHLYjWdl8O744aL148CvvXtd69eq1a9eut95669tvv42Pj/f29mY7IgCAjoNsBwCgHRQUFFhZWbWur5GRUWxs7LFjx4goPDy8XePSgUpZ5EchicVc0Q7p+nFERAqZVPo5V2Av4DbxliK7JKOpAl8t2Y46OSRIKieu9yKJJhcRfezrccAv8bOI+FVx3s2UfVEnrvaLvEFkz1fH+/nVu8fMIHHIBrFyZ2RkPpF9D/m//Pwa9OfPCPGhmNC0xjKaQeIQd3l6lDRdewhERCLBR50x2yGicePGrVu3buvWrWvXrn3vvfd69uzJdkQAAB0E2Y6uoCYbQHcjEAgOHDgwZcqUV+1YVlbGrOds3rx59OjROgitPck+DQxNU3NnRET8o/aSyxjfr08HvNloD3mkaGSgtl2qE9cFSm8Q1z009P1aCzNWvr5LpIk740PWeYq/8Gh8xYYJaaenz+dyIqKcRGlOg4enCnxmywP/ld5kAyLREF8PSpdGNZbRTBX4MpdQLdmv3DKT2Xb9C49p/zzv86UydMbzVic38pcd0DZJ1oWFhSUlJcnl8uDg4F27dlVWVrIdEQBAR8B1O7qCmmwA3YqVlZWVldXUqVMFAsHZs2dfqe9XX32lUqns7Ow2bdqko/Dai+JriSQoXW3rGxMf4NBOX5epv/b1+VxOAz1C/+UrqPuQaF2Ery0p9vl47pQ1ExJPHCGrefpztLc9T7T1ytOaWpJFyf6B6cVc769Kax6dXj+RK5wffeVZ7RY1p9cIhWtOP//hWoSIiFYdff5jesDz5SZjU95gHvOH/5oJERlzeZotpsbt82zoFLNyuGfPnrKyMrZjAQDoIMh2AADax4EDB4iooKDgVXOehIQEIpJIJDoMrj2ojvjN/CBePlAUcTDao/7qdXrgKIMmjAw80/ROcyI9/ePVJPT9Isa34ZmAXHHoDl8hqdODJH5JDasPlMt2zpzAhJRyMsCejO3FM0eZpq8TzWSyo/x4P5c3+B9d+WTLIvHfYqTvc6mPyHPOGOURP8nqlpc/6Drmzp07cuTIioqKQ4cOsR0LAEAHwZlsulJSUsLjabkiFwC6GisrqylTpjBJDpPzWFlZNXtuW15eXlZWFhEtWrSogwJtjXJZlESyOlE+ULQ+6WiAPZFKoeIKeC8XNASiJWJhn8b7ylNiGr/oJSdypltgejEJ10RHuzd+qhp3dnTcDrkoKF36kdjYODnCrXYzY4clPp4pxsJ/HfW1JyIijsD7X6HZP4coqVxNxLVxEFCp6uuwte5XTn72vKPDmqPSa0K/nn8pr3zF98B7V+IPPi8aV/pLKREpfo6Pf1FF7vq9V9kVexYuXLhx48aEhATmPjwAAF0esh1dQU02gG7owIEDAsHLs7FakvMwCzuzZs0aPLhTXt7+nDL7TLp8oGPAV0dDJ3KJFNKPx/glDQnNuLh+IpPxCMT+0U1ft9NYtpMfL1kUmKwi4fzouK0iLWM7rDkao5jg+fn5SPEExWdxcX9zeJlkDZwgnpqe/GXdwgNTRfy7cSGr44iI+giIZNJ1kvIzgpe9+nh6V58I9T/xfP8fRPuMa8FzcDxMcrzOhuRwSXIL+nUqixYt2rhxY3p6+s2bN0eOHMl2OAAAOodsBwCg3dRe3tHQnvMwjTv3wg4RCXyDpOQv9p3IJSL11yEhSWrujBCPiZoMolR+Jj6+8TrUpfJSItM6m8ovRXrODkxWEXdGRFy8b3OXAHE9dmcf5Yh8omSJq8eMyYiI/ixAxNOMK5VqOVOOcSM55kaTD/pOjaaWZDt6XqWAYWNjM3369B9++CE7OxvZDgB0B8h2dAU12QC6J2Z5h8Ph1Kt51VTOc+fOHSKytrbu6EBf1Tvevsw/ihMDt8SrSRS6I6DWnWtkMaslMVq6T335T8XXyzz9Y2TFxJ0Rmv5dC6sdcD0+S+cPknhsTJYfCZx2Js57dUjIGg/h82xLFHGtqYpw2sh3ThsZ1ILK0gxjU97gFznWyyoFzx/UiyoFDEtLSyIqLCxkOxAAgI6AbEdXUJMNoHtqdHlHo17O8+effyqVSnrxAVQfqBPXBcbkk2hrxHr72tsd16cn+g1rtMv16EXTwl7uIDlya4ysmITzo1uwqlMb13HDSdnEMB/vkGSVTKYk0zp9y9X31OVNda3PmDuYWz89SQkcszGdiKhSrSCipJAxP4cSEU0NvfJBy4PUA8yLjUmzAQC6vPrfPtamvRh/VVVVs9X6KysrW13Rv423AmC3O7Xs+Wnd6DU1NURUXV3dVDPW587Wca+qqiKimpqa1u2kjd0ZrM998eLFrdtDdXU1ERkatr5O49OnT01MTDp+dJVKxfzdeebOfNlhZGTEHJeGNDnP5s2bicjExERfipooPvfx2acgEolnv7zZjsfumprdWjrxQjNqQjU/ccXRByPo+ITQDcoQAwPpKwwuirh2OmDq+pMKj/iobOE/PHgcIhL6xisllcTlJQf28Gzx3nyP1kR7EAnXnK5Z82JbebnsUq061yq5TEVERG+9yKG6RJUCqpXt6OPvOta7E+aOuXf46N127m3/YMZ0xNqOrjx48MDc3JztKKB7uXPnzr///W+2o2BHWVlZZ5t7U6mORkFBAZOh6UuqQzmRyzbWK9ycHPhWSItPBSPh0qNxqwRkHxBtT0TJxuMcXuZMfyhlN1TEEzoMbuScMHWBTKGp/GIs9F7z8hw649pP38T1pw/6ab0Y5Xr0omlhmY094h5dUxNNRJQXOW1UYPqqozW7PZ4/lBdJ1EWqFBARn88nImZREQCgy+NwOM0kPE01MDIyaknfZtu0bvTO3/3hw4c6Gt3AwICIDA0Nte+fxbmzddyNjIyIyMDAgJXuDLbmbm1tvWHDBmrDAkXb1zf++OOPPn0ar0Cs09ELCgr+/e9/DxgwwK9uXa6OGZ1Rb+45OTnHjh1rttemTZsWL14sEAj045yiHKnnosD0YqHQVi5v+or/+rTlMOKIn8Uvf0ryM/CQknvoFU2O8ZI8UqT1pj0aPUz5g7XnjqWmPVqwn0Z1iSoF9OIcNktLS338XdcZumPubI3ObnfMveNHb5cPZoS1HYCuwcrKauPGjdSGX2fPV3vb8AtFpVK1eo2iLaOfPXuWyXaYs8I6eHRGvblPnTpVS2Mi2rRpExNtTU2NgYFBdXV1YWHh0KFDWx2Azv2R7LfIL/EGV7QjzlcxxvNltlM3Y2lIWw5Th6JATkSOQwTamzWjVJ5+MF6mvUXpq+/W1jfuroSMubyBz3O2hlUKJDuUM7cQVx9W6TTZDtuBAAB0BGQ7uoIqBQDdU2xsbFMlCqhWnsMwMDAYOnTonTt37ty506mznT5C4TASTo05usYh/WPN1hYUBmAeLy9V3WMugiEuj2fc2DuP7JcrRDTSxqGRx57j8Zu9I1FOjJ+3tspwrcQx1lRja4rxQH05HxHZDgB0L8h2dAUVqAG6p6YuH6qX52hYWlreuXMnNzd30qRJOg6tLQSSrVfEtg7cOhuTQ4a0rDDAgWX852d5NVUqOj07TU0kEjae7CiVd4nI1Jjb6KO1TI24nl67LnZDquR/hiY/cHilJSTZPr+YurcSKr+hIKIrB/386p1fN8onermWhK1TkMvlRNSps2sAgPaDbAcAoN00urDTVJ7DmDlz5o8//njw4MFWX3fUMbhvOjTINRwk8XETiIio9Nr1cuFIfsO3lGtxkvBkmr0+bhFTO4Dr0Oj6TEpyYj7RVLHYptHB1eX5LYvyWanynspUa5MxS0LGENE9larROtSNUcik0s8b2X7+iPR8vU2rRNHUqbOdn3/++dKlS0Tk4uLCdiwAAB0B2Y6uFBcX602dJQBoJ/UWdrTnOQwvL6//9//+X3Z29tWrV0ePHq3L6NqdwHGRwJFI/bVEGB5vuupo9m6P+hmRcbaEiAaP8V7U9HU7lbKwnZEKIrG7h7ZlGZvml3YoM2zakLBmW73wvA5148oV6Z+HxRw/er5ScjReqVxX58GGVQqea0GM7Dp48CAReXp64gQEAOgmkO3oSklJCdshAECHqr2w05I8h2FhYTFr1qwTJ04cPHhQ37Kd57iLAgO/Tg783MdTIDi95lVXNsplOwMjzhDZBgSsauL8sjyFnIiG8PnN7qz5CtSMxutQlxfLZefT05OSFUR0IHAac/adlah0IK/erBpWKdAXTLazcOFCtgMBAOggyHYAANoHs7DT8jxHY+HChSdOnNi/f39gYKBeFjjhOATExygmeUqDFkW63WjsspymqM9v9BT/M11NQt8dIaIm3pHkKcnpRFxbgdYLcoioJRWoGQ3rUJcnfiTw3Kd68SNX8I5I7OEpmS12sG3R2W56Yffu3SqVytzc3NPTs9n7QQEAdA3IdnQFJwkAdCuxsbGTJ08+c6YlN4WpTyKRfPrpp5cvXw4ODv7iiy/aPbaOMNAj+uBJkbHIw7b21nJZnpyIHAY2sipTfi898mNJyHEVkdD7q5PRs5lzwOTpX8tUHKKBQpGQT38o0o9ER3yWTsQVTxI1H0YLrtshIiJl6bN6W4xFk0SUdF7k5uPxvtjT0YH3/P5JivMHkxUN+pf+UkpEip/j4xvWpBvi6D2xbXW0dUOpVAYHBxORv78/27EAAHQcZDu6opdf0AJAay1evLjVfaurq7dt2zZjxox9+/a5u7u7ubm1Y2Adx17sQUQ/hYxxDKt7xxuByNGxzob85MgdkRH70lVExBOt/yIudLZmPcZUniTxS6q3a67D32Kki1pwScyrXbdTd4xFMU8XGTeoji2L85Y0VXcuOVyS3HDrqqOdM9sJDg4uKyt75513goKCmHtMAQB0B8h2AABYVl1dPX369I8//nj37t3BwcH6mu0wxk0Qjat9kQt/gn9EaL0JccsVGekq4on+Fhm9w1tY50Qx3gQ3X986F8PwHRb4SCbyWnQ6WVuu2+EYNzbEy7pzLTWkM9ZkO3bsGHOm5bZt29iOBQCgQyHb0ZWSkhLUZAOAlgsPD09KSsrNzV2+fPm+ffvYDqdJ4i1K5TriNvXrjSOO+FnczC4GekQfv+LTx8GhsZ04LI+OblVcoXeVIRwur0VpES/kiNKvsiUF1J7XndNr169fX7lyJRF98sknkydPZjscAIAOZch2AF1WcXEx2yEAgD7p27fvrl27iGj//v3M9RWdk/FAHm8wr8EZX6/IpvFUpw2MuYN5LUt1iIiMeTxey262o++Kioq8vLxUKtU777yzfft2tsMBAOhoyHYAADqL+fPn7969m4i2bdsWGRnJdjig96qrq728vPLy8mxsbA4fPtyrVy+2IwIA6GjIdnQFNdkAoBVWrVq1ZcsWIgoMDKx3r1KAV+Xl5XX27Fkul3v48OEhQ4awHQ4AAAuQ7egKarIBQOts2LBh9erVRLR48WKcegSt8+DBg3fffffbb78losOHDzs4dMbaCQAAHQDZDgBAp7Nr1y4/Pz8iWrt2ra+vL9vhgJ65fPmys7Pz999/b2JikpiYOGPGDLYjAgBgDbIdXSkpKWE7BADQY1FRUTt27CCi3bt3z549++HDh2xHBPohKSnJ2dn5xo0bI0aMyMjIcHd3ZzsiAAA2IdvRFdRkA4A2WrNmzaFDhzgczokTJ5ydnc+dO8d2RNDZbdu2zcPD48mTJzNmzMjIyBg7dizbEQEAsIyj5YbK2u+1XFVV1ezNmCsrK1t9w+Y23umZ3e5EVFFRoaO519TUEFF1dXVTzVifO1vHvaqqiohqampat5M2dmd059e8nh73No6u2YOORvfy8rKwsPjggw+uXr06ZcqU4ODgrVu3tm4g6NpkMllAQMCZM2eIaOnSpTExMVrepjvza76TdyfMHXPv8NG77dzb6/0dazu6YmZmxnYIAKD3Kisr33nnnezsbIlEQkTh4eHjxo3DIg/Us3379jFjxpw5c8bY2DgqKmrv3r2VlZXMV2MAAN0ch8Np5hZxTTUwMjJqSd9m27Ru9M7f3dzcXEejGxgYEJGhoaH2/bM4d7aOu5GREREZGBiw0p3RnV/zenrc2zi6pq9OR+fxeN98842bm5u/v//ly5enTJmybt26sLCwtowIXUNOTo6/vz+zpDN37tzIyEhra+sW9u3Mr/nO3B1zZ2t0drtj7h0/enu9v2NtBwBAP0gkkry8vPfff5+Itm7dam1tvX//fraDAtbcu3fP19fXwcGBWdKRSqX/+c9/Wp7qAAB0E8h2dAU12QCg3Q0aNOirr7765ptvLC0tb9++vXz58nHjxh09epTtuKBDPXnyZMOGDVZWVrt37yai9957Ly8v7+OPP2Y7LgCAzgjZjq6gJhsA6IhEIikoKAgPD+/bt+/ly5fnzZvn4uLCnMsEXd6nn35qZWUVGhpaVVXl7OycmpqalJSEJR0AgKYg2wEA0Etr164tKCgICAggorS0NJFINHv27BMnTrAdF+hEWVnZzp07bWxs/P39Hzx48Oabb3799dfnzp1799132Q4NAKBTQ7ajKwMHDmQ7BADo4kxNTbdt2/a///1v2bJlRHTixInZs2ePGTNm7969bIcG7UYul//97383NzcPCgq6deuWhYVFdHT0tWvXFi5cyHZoAAB6ANmOrgwYMIDtEACgW3jjjTf27dv33//+d/Xq1b169ZLJZCtXrjQzM9uwYcO9e/fYjg5aLy0tbd68eSNHjty1a1d5ebmDg8OePXvu3r3r6+vb9htoAAB0E8h2AAC6AuYzcVFR0Y4dO6ytrR88eBAaGjpkyJAFCxagjIF+KSws3Llz59ixY11cXJhjN2vWrOPHj1+5cmXFihXMTQgAAKCFkO3oCmqyAUDH69u375o1a/Lz8+Pi4pydnYnoyJEj8+bNGzhwoJ+fX0ZGBtsBQpOePn0aGxvr6upqaWkZFBR05coVIlqxYsWVK1eOHz8+a9YstgMEANBLbbpZD2iBmmwAwCJvb29vb++LFy8mJCQkJCTcv39fKpVKpVKhUOjl5eXl5WVra8t2jPDcyZMnmcNUUVHBbHF2dl6wYIGXlxcuAQUAaCNkOwAAXdbbb7/99ttvR0ZGMp+nDx06JJfLN2/evHnz5lGjRrm6urq5uU2dOpXtMLujoqKi1NTUlJSUlJSUhw8fMhttbW2ZXFQoFLIbHgBAl4FsR1fwhRwAdB4zZ86cOXPm3r17mTWE1NTUa9euXbt2befOnaampm5ubm5ubq6urvjFpWsymYxJcmqfVTho0KD58+d7eXkxJx8CAEA7QrajK6jJBgCdjYmJyeLFixcvXvz777+npKQwH7tLSkri4+Pj4+OJaPLkyc7Ozk5OThMnTuzduzfb8XYRt27dysrKyszMuEtjOQAAIABJREFUPH369O3btzXb7ezsxGKxq6srkhwAAN1BtgMA0O30799fIpFIJJLKyspz586lpaWlpKRcvXr13Llz586dY9qMHz9+4sSJTOYzaNAgdgPWO9euXWMynKysrIKCAs12IyMjV1dXV1dXFxeXN954g8PBuzAAgG7h96yuFBcX83g8tqMAAGjG5MmTp02btm3btvz8/LS0NOYz+p07dy5cuHDhwoXIyEgiGjVq1MSJE+3s7Ozt7e3s7IyNjdmOutO5f/9+bm5uTk7OpUuXsrKyioqKaj+qSR3d3NyYZw83zAEA6BjIdnQFFagBQL/Y2NjY2NisWrWKiG7dusWsS2RmZsrlcuYiH03LN998U5P52NnZmZmZsRc1a+RyeW5uLpPh5ObmKpXK2o/26NFDszLm5OTUp08ftuIEAOjmkO0AAEB91tbW1tbWH374IREplcrMzMyLFy8yH+sfPHiQl5eXl5cXFxfHNB46dOiIESNsXhg2bJiNjU2PHj1YnUF7Ki4uzq8rLy/v8ePH9ZrZ2toySaCTk5OTk5OhIe5oBwDAPmQ7uoIqBQDQNfD5/Pnz58+fP5/58c6dO5oFjdzc3Fu3bhUWFhYWFqalpdXu9cYbb2jyHz6fz+fzX3/9dT6f35lXOYqKipRK5a+//qpUKu/evcskNr/88kuja/U9e/b8v//7v3HjxmmWuTrz1AAAui1kO7qCQq4A0CVZWlpaWlrOmTOH+fHGjRsqlare0sfjx49v3759+/bt77//vl73fv361U5++Hx+v8aYmJi0Y8wPG1NSUqJUKjXpjVKpfPbsWVN74PP5zJoVY8SIEaNHj1apVLg+EwCgk0O2AwAArcflcm1tbadMmVJ747179zSZj0KhYNKJX3/99enTp0ymcePGDe277dWrF5P29OzZs0fTqqurnzXtyZMnzHA1NTUtnM7AgQOZHMzCwkJzVp6Njc1rr73WyicItNK8JDTUanVZWZmWw1pRUWFoaNjUC4PD4ZiYmPTr14/L5dZLoY2MjNieLgCwgPPbb7819RjzLVfDc6+rqqqIqLS0VEtfRmlpqYGBQesia2p0vehORAqFQkdzr6ioIKKHDx829fyzPne2jntpaSkRVVVVNfvK1NK9srKydd01O+m2r3l2j3tbDpz+zp317tTE3Hv06CEUCoVCYb3tDx8+VKlUv72gUqkePHjwxx9/lL3w6NGjP/74g4j+/PPPoqKiepXN2sLIyKhv376vvfZa31rMzMz4fL75Czwer2fPng37Pnny5MmTJw2347g320ytVv/WAHPcHz16VFZWxryjdYzevXv37du3X79+zLE2b6BXr14t2Q+OOyujY+7dcO7t9f7OMTc3b6oFUx+z4d0AmG9HTE1NtfRl1NTUNNvmVUfXi+5EdOPGDR3NnXkzZn5ft6J7G0dvCbaOu6mpKREZGRm1bnSmO4ej7T9Fs7rza57d496WA6e/c2e9O73i3M3NzYcPH6599Kqqqtrf9Gv5jv/PP/80NDTs1atXUys/xsbGzJf6XC634UU1OO7tOPeKigrmGqfaa3pKpbLRLLGh1157rd46TLus6Wn8+eefRPT48ePHjx8rlcqmlhYHDBhgYWFR+5RFGxubwYMHa5/7K+lix70jR8fcu+Hc2+39vXWdAQAAdMHIyKh///79+/dvtmXb38KhdYqLizMyMphCDkyGU/sOqvXUu1KL+ZvH49U+00zX55gx58up1eqHDx/+/vvv9a7XYv7x7NmzkpKSkpKSq1ev1u7bu3dvTeZja2trb2/flm/EAKDj4U1CV1ClAAAAugaFQsFU4WP+bjS36dOnj01dnacKn4mJiYmJifaSEkxFvsLCQs3y1C+//KJQKB4/fsyUH9S0NDIy0txsivlHv379dD8JAGglZDu6ggrUAACgp9RqdVZWVlZW1oULF3Jycn7//fd6DQQCgZ2dna2trSa3sbCwYCXU9mJmZmZmZmZnZ1d747NnzzSZD3Ofpdzc3LKyssuXL1++fFnTbPjw4XZ2dsydZMeOHdvhsQOANsh2AAAA4PltZDMzM7Oysmp/lGeMHj2aWcdg/u4m3+g1Wm/j5s2bmmWunJyc+/fv37x58+bNm0eOHCEiLpfr5OTEZD4TJ05s9bXdANBekO3oSklJCe7DAAAAnVlZWVlqampaWlpWVpZcLq/9kLW1NfOR3d7e3t7evi0FnbqY4cOHDx8+XHO/XZVKlZOTc+nSJSZRVKvVJ0+ePHnyJBH16NHDycnJ2dnZ1dXV0dGR1agBui9kO7pSXFzMdggAAACNuHHjxqlTp06dOpWWllZ7++jRozXrEpaWlmyFp194PJ6rq6urqyvz44ULF7KyspjMp6io6OzZs2fPnt2yZcvrr7/u6urq4uLi6uqK63wAOhKyHQAAgG7h9OnTKSkpKSkp169f12y0tbV1dXWdPHmyk5PToEGDWAyvaxg/fvz48eP9/f2J6Nq1a1lZWT/88ENqauqvv/765Zdffvnll0T07rvvurm5ubq6jhgxgu14Abo+ZDu6gppsAADQGZw/f/7QoUMJCQm179AnEomYD9xvvvkmi7F1baNGjRo1atTKlSuJKDU1NSUlJTU19ebNm8zCGhE5OTktWLDAy8sLVa0BdAfZjq50kys4AQCgc8rPz09ISEhISLh27RqzZdCgQa6urkySw9y2DzqM5my3q1evMpnP2bNnmcJ3n3zyydy5cxcuXOjl5YWqBgDtDtkOAABA11FRUREbG5uQkJCens5sMTQ09PLy8vLymjt3LruxARGNHj169OjRQUFB9+/fZ9LRixcvHjt27NixYx999JGXl9fChQunTZvGdpgAXYch2wF0WSUlJWyHAAAA3YhCoVi7dq25ufmKFSuYVGf69On79u0rLS2Nj49HqtPZWFhY+Pv7X7hwQSaTrV27ViAQPHr0aP/+/dOnT58wYUJsbCzbAQJ0Ech2dAU12QAAoGNkZGT89a9/feONN7Zv365Wq4VC4datW/Pz89PS0pYtW9a3b1+2AwRt7O3tw8PDb9++/f333/v4+BDR+fPnlyxZMnTo0LCwMHycAGgjZDsAAAD66tChQ1OnTnV2do6LiyOi6dOnHzly5Pr168HBwdbW1mxHB69mxowZ+/fv/+2337Zs2WJhYXH37t2QkBAzM7NVq1bl5OSwHR2AvkK2oyuoyQYAALrz3XffjR8/ftGiRWfPniWiDz/8MDs7Oy0tbd68eWyHBm1iZma2YcOGe/fuxcTEvP322zU1NXv27HFwcFi5cuWdO3fYjg5A/yDb0RXUZAMAAF348ccfZ82a5enpefHixd69e69fv76wsDA2NtbR0ZHt0KA9LV269MKFC6dOnfLw8CCivXv32tjYhISEPHr0iO3QAPQJsh0AAAD9kJeXJ5FIJk+ezNytxd/fv6CgIDQ0dMiQIWyHBrri4uJy9OjRtLQ0kUhERNu3b7e0tNy5cyfbcQHoDWQ7uoKabAAA0I7WrVs3atSo+Ph4Ilq8ePH//ve/yMhInDXdTUyfPv306dMJCQn29valpaVBQUHDhg07fvw423EB6AFkO7qCIioAANAuzp07N3bs2PDwcCKaM2fOTz/9dODAgeHDh7MdF3S0BQsWyGSyPXv2DB06ND8/f86cOX5+fhUVFWzHBdCpcSorK5t6TMtDRFRVVaW9AbOHZtu0bvRO3p2IKioqdDT3mpoaIqqurm6qGetzZ+u4V1VVEVFNTU3rdtLG7ozu/JrX0+PextE1e8Bx7/jRu8ncQ0JCtm/fTkTm5uaRkZESiaR1I0KXsWLFiqVLl/r7+0dHR0ul0lOnTu3cuXPWrFnNdtSX13wn7E6Yuz6/v2NtR1fMzMzYDgEAAPQVh8P58ccfx48fz6Q6H3zwAXPRDttxQafQo0ePqKio48ePDxs2LD8/393d/ZNPPuFwOAYGBmyHBtDpcDgcTrMtGt1uZGTUkr7Ntmnd6J2/u7m5uY5GZ36XGRoaat8/i3Nn67gbGRkRkYGBASvdGd35Na+nx72No2v66u+Ba2N3zF1Ho8fGxi5ZsoSwpANNmzVrlouLS0BAQHR09O7du69evRoXFzd06FDtvTrta76Td8fcO3709np/x9oOAABA57JlyxYm1Zk/fz6WdECLnj17RkVFfffdd/3798/MzJw0aVJmZibbQQF0Lsh2dAU12QAAoBWWLVu2adMmIgoICDh8+DCqrkGzZs+enZGRYW9vX1hYOGnSJKZwHwAwkO3oCmqyAQDAK3n69KmLi0tMTAwR7dq1KyIigu2IQG+MHDkyIyNjzpw5RCSRSLZt28Z2RACdBbIdAACATmHBggVpaWl/+ctfkpKSVq9ezXY4oGf69Olz7NgxPz8/IgoODt67dy/bEQF0Csh2dGXAgAFshwAAAHpjyZIlJ06c4HA4qamp7733HtvhgL6Kiopas2YNEa1cufLo0aNshwPAPmQ7uoIzrQEAoIXWrFkTGxtLRIcPH540aRLb4YB+27Fjx9KlS4lowYIF586dYzscAJYh2wEAAGDT9u3bmUt0vvjiC3d3d7bDga4gJiZmzpw51dXVCxYsyM/PZzscADYh29EVVCkAAIBmyeXytWvXEtHWrVuXL1/e7vuX7fPzWx0ja6aBX8yldh+5aZdi2nPEtJBpb40Z80GMoonH0zdOG/PWBL+D6uZ3lSf1fGvMGHFYU0+X+njgtLfGTPBPLm9tsB3p8OHDEyZMKCoqCg4OZjsWADa16WY9oAUqUAMAQLOYT6JisVhHH0kVMqn0c1/RZ+SgrQH5To2mcU3uRJ2XnHytBdlCQ0McvScK6m+8K5NGSeuMWFmuUrVg/xwuj2dcd5NC+rk0/ZKp7zrPBsMQEVFxfMzn6bLKf4TO5za3d4V0Y0jiJfL+yreJ50oRty8y/ZIwYKvYuPEGWqiS/xma/KD5dvwZIetn8155943p1avXrl273nrrrW+//TY+Pt7b27tddgugd5DtAAAAtFJBQYGVlVXr+hoZGcXGxh47doyIwsPD2zWudqZMiZQEpbem56qjjWQ7Dd2QSkYFNj/A1Ijr6QHCWhvUR8Iik9T0pqegPDn+YN3GXAexm/DKjtD4YhIusVAfaeQeNAJHb8cXR0+2c1lIkpoGi+jnEL+f6zV08PnMR3AkLPI40WC+8rif3/EG+xrlE+2mDNuRrGwkbr44yEN+Rio90+wMSTTEt72yHSIaN27cunXrtm7dunbt2vfee69nz57ttWcAPYJsR1dQpQAAoDsQCAQHDhyYMmXKq3YsKytj1nM2b948evRoHYTWbvhuAXGDfVraulxx8rOQ+Bwi4joOaUGqQ0SDxQHx/OYH4Drwa/9YnBi4LkZBRHkxgd4x9RtPjbjCifHbKSci+YFAyYFG9ueb+DzbUSf5SYLS1UR0Lz0+qmHa5SvamBizMUbRZAOiVaJoR0V6lLSxx0SCjzyIiMhn/93Qmcy2X6I9RGHnl+xXbnm+gdJC+EsbzKLNwsLCkpKS5HJ5cHDwrl27Kisr230IgE4O2Y6uoAI1AECXZ2VlZWVlNXXqVCsrq1fNeb766iuVSmVnZ7dp06Z2DqvgfPz555exXL9HRIorB+OfX2rS6KllROVqlepe3U21Thvjvin2frNFI5dfkvosj4jPIeKJ1n8RF9rCZQquULxI2HyzOhTSj3xi8rmirclx7wueVj414ZjUfrjnH6eD3APlJAxITA98i6jy6VOOiUndXRgPJCJSZ4Z4fiSVD3Tw/SI92jE70Nsn2Vaa/pkHT/MRqVKV+PEE6Q1y3JCdvYUX4z0z8K44LilC3OBbzdM1AUREJI8UjQw843u0Jtrj+SPySCIiY9PBvOfPiNrUhIiMTXmDXzxF3Fc/P65lwsPD33vvvT179vzzn//8y1/+oqNRADotZDsAAACtd+DAAYFAUFBQ8Ko5T0JCAhFJJJL2j0kWJ/GW1vo5Ocw7+fk/mzi1LGYpv/6yQoPTxppTLovy8dkSLysm3uzQuC/Wi+pkOol+Bp61Y5J6GEhfhFSz24NejTo5SBKSpObOiIhY41h+zOfdeTkLMk6HTqx1cU75mNkLZ5Uarotw51GlLHLymLgRcUe/8BbU/eCjOrJM/HGMrFjom5ge7c4lmuA5cWTMPz1FdDR7twf3j/TIDwIjlOKT/w70/uNp4EZHIvKcL4r0iJR489OTAxz04WPU3LlzR44cef369UOHDjGVqQG6FX34b6qfSkpKeLx2O/UWAAA6JysrqylTppw9e5aIWp7z5OXlZWVlEdGiRYt0FJg4OE4yiq4flIQdF6+Pl4yk63HeYclNNHac7zum3lvWIKFpywcrPh/5sU/gETkRT7wlLiZYxKv/+cLYeJzD86v/ixWyAjXP1oHfh4iI+rzymoZsp6dk53m1re/R+AAHDpH1yN70ZdikqaYyWYA9UbkscoE48LiKZkRc/96RiIj4grEOiijJhGJlcmKdFIXn7rtwb54oIDXCjcmUuI4bI0J+En9aaVBaSdw+Y4SDy1VJYWuOXT8d/zz147pHx2y4MuFcT6p81Y9RtRbZiuWlRHTvSvzBFwXerjVVVa4dLFy4cOPGjQkJCch2oBtCtqMrqEANANBNMMs7mh9bkvMwCzuzZs0aPHiwjqISvOXt7U6JGRIiwZhF3h6UmN10Ua4xi6KjW3unH3VmmGR+SLKKyNYjYl9MwMRGq5+JI34WM/9K/NjU83Py3Hql1SMKbIR8nnHIwWgP5lwy+4AziQpTj6OXrxcSLy9wviQyU80dyFWnhfoECZN3iLkcnsdn6UQin6hAny0TrmxxfLkvjsMMr3ExKSF+KbUGsPF8j3M60v80EZGazyN5+g4fyd0xL9O/yjG+dv+LCfJjfmpxIbVai2yM42GShgUPdGDRokUbN25MT0+/efPmyJEjO2JIgE4D2Q4AAECb1F7e0dCe8zCNdbew02HkUTNFq5NVRML50XFf+To0v06Tnp3WqmLWtXDdo6+4kbFxnS1PH0WU50TOdAhJVnEd/nY0eZ1xxHxJ5M6ZEwqYwLgen6UbO2aPme9Yb29MDe5mFJ+Pjzrf1IMtLqTGQpUCho2NzfTp03/44Yfs7GxkO9Dd4O6iuoKabAAA3ceBAweIiMOp/x0ik/MIBIJ6udCdO3eIyNrausMi1BG5PFlF5LDm9JXDLUl1iNKSE/PrbknyM3gFfolERHVSHSKiSlX61pnCSSHJKqHHZ+nZn3nweOKItPSI2Tz5ET+RoyTyjIqIK14kbnCK3XO+iTWtkej7Ks+WselgHo/5M+hllYLnf3RWpYBhaWlJRIWFhTodBaATwtqOrqAmGwBA99Ho8o5GvXWeP//8U6lU0osPoF2A6SB+Cz+qJ6ckMpenlBcn+rkkT9i933uEme/f6ucMyp+liT8JREvEwj71HnFoWGNBdSYywD80Pkdd/1Q6Y4eARJlwnYdkZ3ygKDluUUjEvwJETa/BlKtU6hbXZ+byeMb1P0MlB74VwlSgVhcQ0dGQt7JDiYhEoT+3uH63zjAvNibNBuhWOFoqr2svyl5VVdVs1fbKyspWV3ZvY0l4drtTy56f1o1eU1NDRNXV1U01Y33ubB33qqoqIqqpqWndTtrYndGdX/PsHve7d+9Onjy5dXtg/k8ZGBi0OoZnz5716NGDldHZ7U6Ye625l5eXE5GRkRHzmmxIk/Ns3ryZiExMTDp9MZuXH9+bUn6PiOjKbsmYw1paCX0OxvnaEKnj475WiGeLk48nl8rS5Wkx0tmlpQePRn9Wv0Pix9LEnwRi/+gArZWvy2/EhwZFSI/L1MQT/S0ueoe3sF7WxeGJd2TL3cJ8vEOSDwZOOxjh8L5fSFCAx5sv24m3KJXryHigXCoeGdiCG4ASEZEo4trpgDeJ3KNraqI14ZRfksletlHJL6mIiGjCi0IErFUpoFrZDt7jWr0HzL2DR2/7BzOmI9Z2dKW4uNjc3JztKAC6i6dPn/74449sRwFATaU6GgUFBYsXLyYi9lIdhdTbM+aX5z8w6crRdWOyt9ZqMjX0yg5xg4/vTVIXyGQFWh43LS8nIpLvi4kvFkfPECQfJ/6MaOlUEi2Q+rn78a9Fe9Rfw9GuXJUZF7olLC5NoSbiTfWJfqfUL1wyMkpLOW+x79/Kkw+my74O8fw6hGslEi/18JnvI7I1Nh7IHIlSIqpzaU0TTm7kL2vsXqVEHi9Sn6but8NalQIi4vP5RMQsKgJ0K5yGJxk3bNHodiMjo5b0bbZN60bv/N3VarWORme+iTQ0NNS+fxbnztZxNzIyIiIDAwNWujO682uerblbW1tv2LCBiAwNW3khYnV1dVu6E9Eff/zRp8+rfVhrr9HZ7U6Ye6255+TkHDt2rNlemzZtWrx4sUAgYO+covJylUx2qc4m1Q2ZqvbPbzELDh61Vy4alfixgefnJNpx/fSa5u7No44P3ZFO7tGeg+VMLTPe/Oi4f5XGWIV69CFKCRyzUSH2Dw1ZVHd5plKRuNEv9Ib4aKLvi3PYyhM/EnjuUxER1168PigiZJHQ+FKM/A++1uEdfD7ziV4ni9kaGHYwXVGQHh8vlPyt4fl3tW4A2gTT1l9fw1qVAnpxDpulpaU+/p7vDN0x944fvV0+mBHWdgBA31lZWW3cuJHa8Kv8+Up3G36ZqlSqVn9P38bR2e1OmHutuU+dOlV7+02bNjHnsNXU1BgYGFRXVxcWFg4dOrTVAbRJUzcPzYucNipQ+9lrrZO+NTS+WOD7voRHIZqNDv+IiyYiUscfjJFdIiE1uP6HU674KVl2Rh6ZJIl2Zy7IMfbYKvXNj+EujwiZL3x+8cw4n+hxL7r8IU//OlHusN73nXr7Ki/nOvh8dtpnh+r8wZjswb7iRmpl1zrZrAnX77V0yrUIfeOVkkpj7uAXtQjUL6sUPG+yKEI5I5S4ulrx02Q7Oto/QKeFbEdXUJMNAKD7iI2NbapEAdXKcxgGBgZDhw69c+fOnTt3WMt2OlhxjHSnnN4J9XHnUlKDRy9Jo79Wk22Az/yG+YfQZ7l36Jl4aVSMr/uL9GygR3S6BxFRuSr905B0m4hQ91odbySGfByi+oeD7zviOntKCRm5NN0xSCr9h6PjkvX1C1E/1+Bks3Zi3Oy3AsZcnq7uvUSEbAe6MWQ7uoKabAAA3ce///3vRrfXy3M0LC0t79y5k5ubO2nSJB2HRkTl5SqVSs3qFRsDRaLZQv5yX4dGHlMnfhlznkj8sa+osU8l3EWBgZ/Fh5yRSpN8ot3rpkOqo+FBMT/YckWzI172HScS2VPY8fTkHWLxyx0qpJ9HKlRcB2Neo3c/faH2xTaNk+3zi7nGF2rdS32XYvy+qnsB1B9yBRHJ4vxW11tIc/D5zKexZ6mt5HI5EXWX7BqgFmQ7AAAAbdLowk5TeQ5j5syZP/7448GDB/38/HQcHRFR9hah5HM1ETnyGxZw7hgC8cY4ybjGUoS8GOnnCrIJ8F3VVGwOvqu9I36qu7zDsPLdsiHuh39Ghn3qI3p54ZCjaIYgbGdi+pkI8YwX29Kk0uNEUwNDlmt/BspL76lUWlvw3UJC3IhIpbrXaB3qxtyVSaOkjWz/KVH6U71NvqLPqN2znZ9//vnSpUtE5OLi0t77BujscHdRXSkpKWE7BAAA6Aj1FnY2bdpUU1OjJdUhIi8vLyLKzs6+evWqboMjIjKe4B7i+zffgM9OJwbrYtmgRQTjHBrLddSJu6XpROLVvuKm0wbufB8fW6IzUmmSut5Djv5+3gMpfUdofK1HRI5iLinSM86/2KCQRkXKSRgQvN6hmeQkZtkQPr+lfyTSG1p2Va5Ik4Z9MHOMYFq41XblXWWdP+nrHYloyf762++GirXssrUOHjxIRJ6enjjNHrohrO3oSnFxMdshAACAztVe2NG+nlObhYXFrFmzTpw4cfDgwdGjR7dzTO71S6kZzwiIntFUa1b9FBHxuYJsAwKaXNghIiKOyPdjceTqZOmBuAB33zpNud6Bq6PjN8ZHRwV6b3iRy70lFBFl37iuIEcBkTopMvI4CVaFhjT/JDRfgZrReB3qcrX8Unb6mcTku0QUE/h8HUUgKu7Nc+hdp2XDKgW6xGQ7Cxcu7ICxADobZDsAAACtxyzstDzP0Vi4cOGJEyf2798fGBjIwqWez0qV91SmDbc/KH3acUEopFvDzhPXe11Io1fs1CZ4X+K9JTn+eExMpm/oxDoPOazy88kY4+hWqwL1YJ+YBz7cgcZERJXnI3ZIFQO947Z4tOBam+YrUDMa1qEuT1om8IjRnAXHtXIUzfb0XCAWjxNyW1+0uh3s3r1bpVKZm5t7eno2ez8ogK4H2Y6uYLEYAKDLi42NnTx58pkzZ1rRVyKRfPrpp5cvXw4ODv7iiy/aPbZmZIZNGxL2yr0qy1UqteZilfJ78clpREQCq+ZuttM4gW/iU9HxbHLnUmW5Sk08Jj9RPd8t1U4SuN5+uynEzVvYh4hUyf8MTX7w8kFjW5J9Fer3VWODqK5IfyJ6pzx7i192rc38GSHrZzfMa5q/bodR2qBMtfFUkYiOnp8h9nH3EbtPcOA9j16RGZ98t0H/YnkpEd27En+wYb1rgeMix/a6vkqpVAYHBxORv79/O+0SQM8g29EV1GQDAOjyFi9e3Oq+1dXV4eHhLi4u+/btc3d3d3Nza8fAmmfvEx0kamRt5/+zd+9xNd//A8BfOZXThk6EcySk0DFUZpuUcCZ0XDa1is4YQqjZd13MSTY/K8elY18UosZYISvbkEtTSBqjU/R1THFyPWepdZkpupzfH28dpzqnUp0+59Tr+djDo/M57/fn83qfS/u8en3e709hSvjKGFHD7a8khZi71b8FpqmrvZrlnJumT2fP5gAAyGJ8zf0SlZ8ay+FY1Wlr7+5V+2OxODUy8o1yzAbrAXDMfVVlOzGLzVt6i0+GV0y5F71BGUcUx+M5tWDwAAAgAElEQVTtUtPleBjveMOtvgltl+3w+fyysrKxY8euWrWK3GMKoc4Gsx2EEEKIAjU1Nc7OzitWrNi5cyefz2/vbMeEzZnrperuotLGTvb1WUxbgKzXG5hjvAK/i/Ru/Y1i+rNHT7KT/FMbnTnXd/Ma9SsqkJt1tu6Iqu/j2ap5Ow1THQCw84qNfbNlxi3aaimJX375hVxpuXHjxjbaJUK6B7MdTSkqKmrx/cURQgh1EgKB4NixY9nZ2UuWLNm7d2+b75+7XioNptedr8L2jZPy1Jzsw4iAc/IA9fuzDxXJQ1sZk0uo9GEIvf7l3pw1KZlrmr2Ppm/W+cZIBkVn9G/WLBveZun09epexDosHL0oWfb71q1by5YtA4AvvvhiwoQJVISAkFbAFag1BddkQwgh1KQePXps27YNAKKjo8n8irZFN2UyG5y+05lMJpO6ifN0BrM/k9qJ+yrRmSpeK7WNTZnM/s272Q4VCgoKPD09ZTLZ2LFjN23aRHU4CFEJsx2EEEKISu7u7jt37gSAjRs3CoVCqsNBOq+mpsbT0zMnJ8fKyio+Pr5r165UR4QQlTDb0RRckw0hhFAzLV++fP369QAQGBhY716lCL0pT0/P8+fPMxiM+Ph4c3NzqsNBiGKY7WgKrsmGEEKo+dauXbty5UoAWLBgAV56hFrm6dOnU6dO/emnnwAgPj7ezq6t1jtASIdhtoMQQghphW3btvn5+QHA6tWrfX19qQ4H6Zjr1687OTmdPXvWyMgoMTHR2dmZ6ogQ0gqY7WgKrlKAEELoTe3YsWPz5s0AsHPnzpkzZ5aWllIdEdINx44dc3Jyun379rBhw9LS0mbPnk11RAhpC8x2NKWoqIjqEBBCCOmeoKCgw4cP6+vrnzhxwsnJ6cKFC1RHhLTdxo0bXV1dnz9/7uzsnJaW9u6771IdEUJaRL+RG+s2fs/d6urqJm/KW1VV1eIb97byjr/UdgeAly9famjscrkcAGpqatQ1o3zsVL3v1dXVACCXy1u2k1Z2JzrzZ741YwelV768vLysrKy0rrKyskr1Xr582aVLl65du+rr6xvURbYYGRkZ19WjRw9jY2MajdYmrwC+75QcvQOP3dPT08zMbP78+Tdu3Jg4cSKfz9+wYUPLDoQ6NpFIFBAQkJqaCgCLFi2KiYlp5PRMmz/zWt4dcOw6eF6nOLq2LhSv+/r06UN1CAhRTE8JAMjl8pqamr///lvawJMnTwoKCkiS8+LFi3aLsFu3bsbGxgwGg8Vi9evXj9UAnU5XZERyJe0WIeqcqqqqxo4de/ny5cDAwNjYWIFAcPbsWaFQiPeIRMo2bdq0evVqAKDT6Vu2bFm2bFnrz2sR6nj09fWbSHjUNaDRaM3p22Sblh1d+7v37dtXQ0cnJ45dunRpfP8Ujp2q952clerp6VHSnejMn/l6Y3/58mVeXl5ubm5eLYlEIpVKnz9/3py9de/evV41xtDQ0EC9mpqaRoo/z58/r1csIjnVs2fPnj179vjx4//9738qw+jVq5eZmdmQIUOslPTv37/xsbeA7nbHsWvu6Ewm88cff3RxcfH3979+/frEiRODg4PDwsJac0TUMWRlZfn7+5OSzkcffSQUCi0tLZvZV5s/89rcHcfe/kdvkxMzwNoOQqhNFBYWpqWlPXz4UJHh5Ofnq2tsbGxMKieknEL+ZTKZDAZDkdsoX2OmCeXl5aWlpSUlJaWlpYpy05MnT5R/qKysLCoqKioqunHjhnLft99+W5H5WFtb29ra9u3bV6PRos6Mx+NNmTIlICDg4MGDGzZsOHz4MJ/PX7x4MdVxIWo8evRIIBCQ29HS6XShULhixQqqg0JIq2G2oylFRUVMJpPqKBDSFIlEkpWVlZ2dTf5Vmdt069bNqi6S2HTr1q39A67HyMjIyMio8S9pQUGBVCp98OCBojyVm5srkUj+/fff7Ozs7OxsRUsajWZra2tjY2NjY0N+MDY21vwgUGfRu3fvAwcOTJ06dc2aNffu3VuyZMnu3bv5fL6bmxvVoaH28/z5c4FAIBAIyGSGjz/+ODw8vPklHYQ6Lcx2NAVXoEYdTElJSXp6enp6+pUrV7Kysv7+++96DSwsLGxsbKytrRW5jZmZGSWhtpU+ffr06dPHxsZGeWNlZaUi88nLy8vJycnOzi4rK7t+/fr169cVzYYMGWJra+vg4ODo6IjrI6E2wePxeDzexo0bBQLB9evXP/nkE2dnZz6fP2nSJKpDQxr33XffCQSCp0+fAoCTk1NwcPDUqVOpDgoh3YDZDkJILalUeunSpUuXLqWnpyufyhOjRo0idQzyb69evSgJsp0ZGBiw2Ww2m6288c6dO4oyV1ZW1uPHj3Nzc3Nzc48ePQoAxsbGjo6OJPNxdHQkU+8QapnVq1f7+PiEhYUJhcLk5OTk5OQZM2b4+PjMmDGD6tBQ2ysrK4uKioqKirp79y4AjBgx4quvvvr000+pjgshXYLZjqaYmppSHQJCLVFWVnb69Onk5OT09HSxWKz8lKWlJTlrt7W1tbW1NTAwoCpIbTN06NChQ4e6u7uThzKZLCsr69q1ayRRLC0tPXny5MmTJwHA0NDQwcFh/PjxLi4uY8eOpTRqpKtMTEw2bty4dOnSLVu2REdHnzhx4sSJE3Z2dj4+Pj4+PlRHh9qGWCwmeU5FRQUAmJmZ8fl8X19fXHUNoTeF2Y6mdJK/c6MO488//zx9+vSZM2eSk5OVt48aNYoUJRwcHAYOHEhVeLqFyWROmzZt2rRp5OGVK1fS09NJ5lNQUJCampqamrp+/XozM7Np06ZNmTJl6tSpOM8HvanBgwfv3bv3yy+/JOfEIpFo2bJla9euJTlPw5UDka5ITk6OiopKSEggD0keu3TpUj09PUx1EGoBzHYQ6tTOnTt3+vTpU6dOKS/BbG1tPW3atAkTJjg4OPTu3ZvC8DqGDz744IMPPvD39weAmzdvpqen//bbb6dPn378+HFMTExMTAwATKs1bNgwquNFumT48OHbtm379ttvFdc7hYaGhoaGuru7e3p64jIGOuTBgwdHjhw5fPhwZmYm2YLXKCLUJjDb0RRckw1ps4yMjCNHjhw5ckQmkyk2cjgcFxeXadOmjRgxgsLYOraRI0eOHDly2bJlAEDyzNOnT9+5c+f06dOnT58GAAcHBw8PD09PT1zVGjVfjx49goKCgoKC4uLioqKiLl68ePTo0aNHj/bq1WvOnDmenp7jx4+nOkakWnl5OUlyzpw5o9hICnR2dnYUBoZQh4HZjqbgmmxIC+Xl5ZEk5+bNm2RL7969p02bRpIcExMTasPrbBRXu924cYNkPufPnycL333xxRcfffQROU/FVQ1Q83l5eXl5eV29epV80x8/fhwZGRkZGclmsz09PT09Pa2tramOEb1y8uRJ8ja9fPmSbHFyciJ/7MCpvwi1Icx2EOr4Xr58uX///iNHjqSkpJAtXbp0Iac+H330EbWxIQAYNWrUqFGjVq1a9fjxY3L2c/Xq1V9++eWXX35ZunSpp6fnnDlzPvzwQ6rDRDrj/ffff//994VCITmfPnz4sFgsXrdu3bp160aOHEn+wIHrVlOioKCA/Gnj1KlTpaWlZKO1tTX5hVxvsUeEUJvAbEdT8A8zSBtIJBJyNX9JSQnZMnnyZE9PTw8Pjx49elAbG2rIzMzM39/f398/KyuLpD0SiSQ6Ojo6Otre3n7p0qULFiygOkakS6ZPnz59+vSoqCjycTp9+vTNmzdv3ry5ZcsWExMTFxcXUtfF/2FpmkgkIklOWlqaYmPv3r3J9ConJycKY0Oow8NsR1NwTTZErbS0tKioqNjYWPKQzWbPmzfPw8MDb7ytE8ga3wKBIDk5+ciRIzExMRkZGRkZGV9//TW5oB9PT1HzGRkZLViwYMGCBX///TeZKnbq1KmioqK4uLi4uDgAmDBhgpOTE1l98e2336Y63g7i7t27ZDHGc+fO3bt3T7HdxsaGy+VOmzYNkxyE2gdmOwh1NIcPH46Kijp//jx5OHnyZB8fn08++YTaqFDLODs7Ozs7b9iwgdToHj58GBISolhl2NbWluoAkS7p2bMnj8fj8XhVVVUXLlxITk4+derUjRs3Lly4cOHCBdLmgw8+UNwMF5dkfFNk0UWy3Hx+fr5iO41GI/P0pkyZMnjwYH19PPtCqP3g901TcE021P5+/fXXTZs2Xb16lTz87LPPfHx87O3tqY0KtV6fPn3Wrl27du3a77//Pioq6urVq7t37969e7ePj09QUBDeBwm1wIQJEz788MONGzfm5eWRuwlfunTp/v37V65cuXLlilAoBICRI0c6Ojra2NjY2tra2NjQ6XSqo9Y6jx8/zs7OJncTJjfUUn5WkTq6uLiQVw9vmINQ+8NsR1NwTTbUni5evLhhwwaygOnbb7/9n//8x8fHx9zcnOq4UBtbtGjRokWLzp49GxUVlZiYSAo+X3311Zo1a7p37051dEgnWVlZWVlZLV++HADu3r1L6hKXLl0Si8Vkko+i5YgRIxSZj42NTZ8+faiLmjJisTg7O5tkONnZ2VKpVPlZAwMDRWXMwcGhW7duVMWJEFLAbAch3ZaTkyMQCMjF9wDg7+/P5/NxUkfHNmXKlClTpvz2228CgSAlJWXTpk179uzh8/lBQUFUh4Z0m6WlpaWl5WeffQYAUqn00qVLV69eJaf1T58+zcnJycnJUcwGHDBgwLBhw6xqDRkyxMrKysDAgNIRtKXCwsK8unJycv799996zaytrUkS6ODg4ODg0KVLF0qiRQipg9mOpuDpJmoHwcHBAoGA/LxgwQI+nz906FBqQ0LtZvLkyZMnT46PjxcIBFlZWatWrdqzZ8/WrVtnzpxJdWioI2CxWO7u7u7u7uTh/fv3FQWN7Ozsu3fvPnjw4MGDB8nJycq9Bg8erMh/WCwWi8Xq168fi8XS5ipHQUGBVCp98uSJVCp9+PAhSWxyc3OLiooaNjY0NHznnXfGjBmjKHNp89AQQoDZjubgmmxIoy5cuODv75+ZmQkAs2bNCg4O/uCDD6gOClHAw8PDw8MjKipqw4YNeXl5s2bN8vX13bp1q6GhIdWhoQ5l4MCBAwcOnDVrFnl4+/ZtmUxWr/Tx77//3rt37969e2fPnq3X3djYWDn5YbFYxqoYGRm1YcylqhQVFUmlUkV6I5VKKysr1e2hX79+VkqGDRs2atQomUyG83IR0iGY7SCkexQlnb59+wqFQh6PR3VEiGI+Pj6LFi3y9/ePiIiIjIw8e/asUCjEIg/SHAaDYW1tPXHiROWNjx49UmQ+EomEpBNPnjwpLy8nmcbt27cb323Xrl1J2mNoaGigXk1NTaV6z58/J4eTy+XNHI6pqSnJwczMzBRX5VlZWeF0OIQ6AP2//vpL3XPkrx0Nr8Gtrq4GgOLi4kb6EsXFxXp6ei2LTN3RdaI7AEgkEg2N/eXLlwBQWlqq7vWnfOxUve/FxcUAUF1d3eQns5HuVVVVLeuu2IlGx56RkfHNN9/cuHEDAObPny8UCvGaSUQYGBjs2LFj6tSp/v7+ubm5s2bNWrRo0YYNGxrvpbvfd8q7A469wdgNDAzYbDabza63vbS0VCaT/VVLJpM9ffr0n3/++eeff8pqkfkwL168KCgoqLeyWWvQaLQePXp07969h5I+ffqwWKy+tZhMpspa6PPnz58/f95wO77vlBwdx94Jx976EzNydP2+ffuqa0HWSWy4KjyNRgMAExOTRvoScrm8yTZvenSd6A4At2/f1tDYyS9lY2NjdfunfOxUve8mJiYAQKPRWnZ00l1fv7EvRZM0Ovb9+/cvXLgQsKSD1JsxY8aUKVMCAgIiIiK+//77O3fuxMbGDhgwQF173f2+U94dcOzNHnvfvn2VpxSqPHp1dbXy9WaNlG5evHjRpUuXrl27qqv80Ol0UiBiMBgNJ9Xg+45jbxkce/sfvfUnZq+O3rLOCKF2tn79+m+++QYA3N3dd+7ciSUdpI6hoeGOHTumTJmyYMGCS5cujR8/PjY21tHRkeq4EGoMjUbr2bNnz549m2zZ+lM3hFCnguskagqejKI2tHjxYpLqBAQExMfH46cLNWnmzJlpaWm2trYPHjwYP368Yo1yhBBCqFPBbEdTcE021CbKy8unTJkSExMDANu2bQsPD6c6IqQzhg8fnpaWRhbR4vF4GzdupDoihBBCqL1htoOQVvPw8EhOTn7rrbeOHTu2cuVKqsNBOqZbt26//PKLn58fAPD5/KioKKojQgghhNoVZjuaovKuZAi9kYULF544cUJfX//06dMff/wx1eEgXbVjx46goCAAWLZsWUJCAtXhIIQQQu0Hsx1NKSwspDoEpNuCgoL2798PAPHx8ePHj6c6HKTbNm/evGjRIgDw8PC4cOEC1eEghBBC7QSzHYS00aZNm8gUnT179syePZvqcFBHEBMTM2vWrJqaGg8Pj7y8PKrDQQghhNoDZjuagqtmoRYTi8WrV68GgA0bNixZsoTqcFSqkD0qabudVVQ01UR8MNBvpV/gPlFz9ldyPPDD90aPWxGnLkTxDrfR74122yF+ozA7gPj4+HHjxhUUFPD5fKpjQQghhNoDLlevKbgmG2oxcibK5XK19JS0Spboz/U+ZOJ7LCHUkfFqY0WJrLDJnKWWPoPJpL/6OS/OdQgv//OElO2uDHXtC+NC/YVxhWCxhBOy0E5ts1fhpYSuEqbctl+zw0t1y6qkmO2JoryZ3kfr3/G9aY+SwjYnSZtux+KuWsPt/8a717SuXbtu27btvffe++mnn+Li4ry8vKiOCCGEENIszHYQamP5+fmDBg1qWV8ajbZ///5ffvkFAAQCQZvG1Xb0mRbmJlCYEjbbzejUyTVj6AAAp0JYrpHN3cOk8FspAa9SjWfSUlMQ7fB2Y7AS1turyk9KEoND4goBACR7Q0JcOBGzG8l3ShJX+glvA9iySuL8/OrdY6Y3N2QtV7pFKMwDsDUQb/Xza9Cf5RziDTGhyaoymt7ckNnilB2RKU2PkGOxVBuzHQAYM2ZMcHDwhg0bVq9e/fHHHxsaGlIdEUIIIaRBmO1oSlFREZPJpDoKRA0LC4t9+/ZNnDjxTTuWlZWRes66detGjRqlgdDahl1QQoxknNuulBCX6fTkcwG2AOZ2vp/71m1VIT4Vk5JnwVnIZXer+0xvtoniZ9uAhGPFbrPDUr7lunVPORdkV+9Ykl3e3nslMCk0czMEvhcSGRzCGR/hquZCUdEWN+9dYgCArMTIrAZPT7LwnikO3JqitgEAx9zXFVIid6jKaCZZ+JIpVAujpeunk2239rh++G2G9/fSUOdXrU5+zVq8T3V4WiIsLOzYsWNisZjP52/bto3cmR4hhBDqmOTqVVZWVlZWNtw+ZMgQAEhNTW2kLyGVSpts86ZH14nucrn8/PnzGjo6OYeOjY1tWfdWHr05qHrfU1NTAWDQoEGt6T506NCWdSfI2Ml7NGjQoOZ8TRQqKyu3b98OADY2Nq2JoZ1U3oudxwYAsPZOeKqyxa3wSQDACb/Z9M6KE33ZAAAM7vZ7dbYnBdibAphywkVyuVyeuZnDAGA4h2eq+ozcO+DFBgAmN1wkL/8jwsuWydmQWa7cojwzdBIAMLwOFMv/ObfGkcF2j1C5q1duhnMAYHlCI1tubeYAgG/i6yYJy5s7agr9/PPPAGBoaFhaWqqj33fKu8tx7BQdHcdOVXc5jp2io3fasbf+xIwcHVcpQKjt7du3DwDy8/MnTZpkYWFx/vz5ZnY8cuQIAPB4PA0G11b0Lby2hvractbsDXc1BYAK8aGwyN+b6lWVEfltnLjBBB/G7IjYzRw799DQJRaKjRXXwtzmCzMK2b57EgJsAUhNaTm7JDmQwxWK6hQkKkRbpo+bHyc25YSfOhlgC3Rb7vSRJinBnOlbRAAAeXF+UwazlmZ+sX4u9/OYyHkM6MZxmzVaetSPtzKx7dZb0BkfffTR8OHDX758efjwYapjQQghhDQIr2TTFFyTrTMbNGjQxIkTSZJDcp5BgwY1eW1bTk5Oeno6AMydO7edAm0lU9cIkeurn1ND3bzCxNbF7JvhHPW/VyR7w0O+Tiz5VZL5x5p6l6zZBZ3LrHr9O0l2PNB1kTCjkMHZHKs0UYfhuj02PI8TmBzImSSNPRrOfXW5KN1uobfbKTp7a4KvLQC8SsYu/xEihYoSAIaVnQUUyw6GrZ6deXI7o/aICZE32X6Gb1VUveHvwkeZcYdeZWzFucUAIPkjLq42hbv16E12RZ25c+euXbv2yJEj5D48CCGEUIeE2Y6m4Jpsndy+ffssLF6XKZqT85DCzowZM/r318rp7Y2bFBj+eeL0HcKQ9W6X19urblMYF/J1YgmwAzbUT3VeIb+QqmQpAm/e10kyYHK3Jp38sm5bfbuAuKRiL25YsnC6nch3a0T4XDYdAEzHcSelJH1fd+GBSRzWw9iQlbEAAN0sAESRwbyKVAu6okE3N6+aE6H+J8gju/kR3mOaMdjjYbzjdTYkCXhJzeinVUi2k5KScufOneHDh1MdDkIIIaQRmO0gpBHK5R2FxnMe0ljbCzsl4qRToteXfjHsuC5sBgAAg/t1iNchXty3IWGu59bYquhJllZjfx4eQib0V1XIZMoXkdEZ/Rn0vES/pb6RqTIwtfPemhA9z6LhjsDUPjQpheXF8zuaEuk1PGFvaOyvazjdisWpkZGpTcV/OynmttonfSdFQHOyHR1fpYCwtLScPHnyb7/9dvnyZcx2EEIIdVQ4b0dTioqKqA4BUYzM3tHXr/83BXXzee7fvw8AlpaW7RZhSzxKEnrxeIr/tijdfMbUK3S9KwNSwlcJG962s+RYSMheCVj7hq/nvrqS7HYkz5zFev1fSBIAMKAkVQbWrhGnLkfPNpY9klWoXDBM3843/vLlza5sAJMx9pzXa761cHkAsthAc9FNmP2Z5D9WdyMAoDOYii0m9Cb7a4uBAwcCwIMHD6gOBCGEENIUrO1oSmFhIdUhIIqpLO8o1KvzvHjxQiqVQu0JqPbqzw2IY3kDANyK9Qqrd/mWxZJA3wOJYcm/Xs4LYFspPyOK2RErBrbv5lDu6zk4bM7nZCk2aeaOxAyy0dQ1IuNcgC3Hji4WcoYHpnLCb54LGFEviJKMLTHShQGuQQmZM8VSq3o3Ca0oeVTS7Bud0hn9GfXTk1OBo79OAQCoKpEAwLGQ0X+EAgBMCs2c39z96gTyYSNpNkIIIdQh6Tdyp4XGb8JQXV3d5F0aqqqqWnwnh1beAoLa7gDw8uVLDY1dLpcDQE1NjbpmlI+dqve9uroaAPLz8xcsWNCC7jKZjPzbsu5EeXm5kZGR4iGZvkWj0UhsDSlynnXr1gGAkZGRtt+micHmziXZReJlrwbP6tsH7s30trazqP+HFLuAs2L2KQl3ptKNQftz12znkl35KbIdAMZYjupZPUSFKHI+z++omJEM7LMBbGt27bVubN84Ka8KGMykQAO3Zt/o1DdBHuEKwA46Jw9SHKJCdE30uolMLJIBAMB7tTlUh1ilAJSyndZ87zrz73kcOyVHx7FT1R1w7Dj29j06OXeSy+WtPDrWdjSlT58+VIfQef3www8t7ltWVtaa7iqpS3UUFBmatqc6zcAYYcdQ+YQ+kzuztaOTpYZ5e4UkyQCYHN/PefVqOnTll89xzblDfo1ORrkVMffDsEuqnpkdIZdHAADkCD8cGZiyPEG+s3bpuRwhQAdZpQAAWCwWAJCiIkIIIdQh6TecVNCwhcrtNBqtOX2bbNOyo2t/9759+2ro6Hp6egDQpUuXxvdP4dipet8tLS3Xrl0LAF26tGRCWn5+/g8//NCrVy+/ust6vZFnz5516/Z6EklWVtYvv/zSZK9vvvlmwYIFFhYWOnpNUeIKPbdd6p5MCRypF6hiu8pL1NSquB0XuDIkNllSAgy7uSHhWwM4jadOBias/o3njsUmBs09en0dYpUCqL2GbdCgQbr4fdeG7jh2qo5ObXccO1VHp7Y7jr39j06j0QBAT0+vtUdvTWekOTQabd26dQsWLBg0aFDze+Xn5+/fv/+bb75pspjQIQ0aNOjrr7+Gln6pzp8/T7IdclFZy8hkMuUCw6RJkxpv/80335DDyeVyPT29mpqaBw8eDBgwoMUBdDjlxblxIcHhkcdFJQAMW6/wrcKASc2oERWLUw7FiRpvUfzm4Vj7xj7kAZ3BNH012af49SoFr5rwNkunrweGLlTpSLaDnzeEEEIdGGY7mlJUVNSaq5L09PT+97//TZo06bPPPmtOzpOfn79w4cLz58+npqaSiT2Icvv371e3RAEo5TmEnp7egAED7t+/f//+fZ07+3TdKZfvbLi5kWUGmi8jzDUDABi23DWrwkPc2fRm/tLKivHzimnxUdXSpzP7N/G9ppvqzPWIJNvR9oUxEEIIoVbAbEdTWrkmW3V19ZYtWywsLP7v//7vhx9+aCTnUeQ5ADBx4sSJEye2fjoaahPq5v/Uy3MUBg4ceP/+/ezs7PHjx2s4NB3CsHB2810e4DubXX/ltEdJkckmbnPtmSpXfJ4UfislgK3qmVqypG9Dk57aqbqhj1qivX4xN+tsqbgtAYDMQ35+9W71M9I7Ykljqy1oA7FYDFjbQQgh1KFhtqOl5HL5oEGDFixYsH///vz8fOWcR9FGOc8hvvnmGyqCRSqoLOyoy3OI6dOnX7x48dChQ62ZOESZqpKSZwyG6gUKWmO079Zo1aWhEnHiokC/g2qymspi6SOZSeO7XhgyGgAeyWQq16FWRSKKjFQ1QynjaGRGvU3LORGg1dnOH3/8ce3aNQCYMmUK1bEghBBCmoLZjqaYmpq2fifffPPN/v37yc+KnIc8DA0NJX+XVSCFndYfFLWJeoWdxvMcwtPT86uvvrp8+fKNGzdGjRqlyZussLIAACAASURBVOjaWl6i38JI1o5za2zbYGcllxIzB7ly+jfVLleSAgDWFqoLOJfCPjQPa/YxX61DrVqFJGVXWMzxhIwqXkKcVBpc58mGqxS8Qm/7zK9tHTp0CADc3Nza5JcVQgghpJ0w29EUcqOVVlKUdxRb8vPzyQ/1Uh3Awo42US7sNCfPIczMzGbMmHHixIlDhw7pTrZTId63mLcqRlTI9JUCtDLbqZKlCLx5X1cE3mw625HJpABgb67mSrSmV6AmVK9DXVEoFmWkpBxLkgDAvsAPyRprgzjFpsx69ZqGqxToCpLtzJkzh+pAEEIIIQ3CbEfbKZd3GoGFHa1CCjvNz3MU5syZc+LEiejo6MDAwDZJmDUoTyIGgNQQt1QAJjc0JWZNE+vPNSkzcopdSqqMYevVnLJIZq4IAIZbqblarOkVqImG61BXJC61cNsrq33IsBjL4bq68WZy7aybdbWbTti5c6dMJuvbt6+bm1vnXMIRIYRQJ4HZjqa0ck02hYblHZWwsKM99u/fP2HChNTU1KabNsDj8b777rvr16/z+fw9e/a0eWxtpyRpe0wKAACw3cNjdgbYt+ZiqGviTACAjJRUhv3nsTGbvdh0ADChMwAgJWFnHCeYw6rToVhyPDTwOwkA1+49NftsxrwdAACQFlfW20LnjOfAsQyOi7frPK6bvR3z1f2TJBmHkiQN+hfnFgOA5I+4uIoGz5nbezm+0SII7UQqlfL5fADw9/enOhaEEEJIszDb0ZRWrsmmrMnyDhZ2tIryShJvqqamRiAQTJkyZe/evbNnz3ZxcWnDwNoUY9x7dgwAzvbY2M/tWlfxqEiJS8gAACZnzZ7Y0JmKvxEwebO9Qo7FZezijVZ961KG/foQX3Vrs7/ZvJ26+50bUz6X3mCpa1GsFy9STZckAS+p4dblCdqZ7fD5/LKysrFjx65atQqXcEQIIdSxYbajA5os72Bhp8OoqalxdnZesWLFzp07+Xy+Fmc7wJgXefk9YFu3fi4+nbM5fE1+yridody61VDGvFgxmxNzQCRV0clinAfPa4z68mlr5u3o01Xlb3a8uNhxTe9Qibk2rsn2yy+/kCstN27cSHUsCCGEkMZhtqMpbbvMUSPlHSzsdDwCgeDYsWPZ2dlLlizZu3cv1eGow2BbN96A7Rsn5VUBo8krOvU5oYkclc8wx3ivGfOmgXFDH0pD9BlM1TfiqX+EkKNSv6rmLKBmYT/Xwv5NY9Eyt27dWrZsGQB88cUXEyZMoDochBBCSOO6UB1Ah9W2U8xJeUflU1jY6Xh69Oixbds2AIiOjibzK3QUnclk9mc2uCRM44dl9Gc2L9UBeBVkx1l+oBEFBQWenp4ymWzs2LGbNm2iOhyEEEKoPWC2ozNUZjVY2Omo3N3dd+7cCQAbN24UCoVUh4N0Xk1NjaenZ05OjpWVVXx8fNeuXamOCCGEEGoPmO1oSlFRUdvuUGV5Bws7Hdjy5cvXr18PAIGBgfXuVYrQm/L09Dx//jyDwYiPjzc3N6c6HIQQQqidYLajKW24JptCvdwGCzsd3tq1a1euXAkACxYswEuPUMs8ffp06tSpP/30EwDEx8fb2Wnj2gkIIYSQhmC2o0vqlXewsNMZbNu2zc/PDwBWr17t6+tLdThIx1y/ft3Jyens2bNGRkaJiYnOzs5UR4QQQgi1K8x2NKVt12RTUGQ4WNjpPHbs2LF582YA2Llz58yZM0tLS6mOCOmGY8eOOTk53b59e9iwYWlpabNnz6Y6IoQQQqi9YbajKW27JpuCoryDhZ1OJSgo6PDhw/r6+idOnHBycrpw4QLVESFtt3HjRldX1+fPnzs7O6elpb377rtUR4QQQghRQL+RG2k3fo/t6urqJm/CXVVV1eIbdbfyDt/UdofmvT4AIJfLSxsoLi4uLy+vrq6urFVVVaX4ubS0tE+fPvv27fvxxx8NDAwMDAz09fUNlNBotO7du5uYmBjX9dZbb7XP2HX0fa+urgYAuVzemp1obuyenp5mZmbz58+/cePGxIkTg4ODw8LCWnYg1LGJRKKAgIDU1FQAWLRoUUxMTCO/jjrt97313QHHjmNv96Pj2KnqDjh2Ksbe+hMz0hHvLtpm9JQAQHFxMYvFevHihbSWTCaTKvn7779LS0vLyspadrgDBw68aRcDAwOS9vTu3ZuliqmpKY1GI41pNJq8VssiRG2rqqpq7Nixly9fDgwMjI2N3bBhw5kzZ4RCId4jEinbtGnT6tWrAYBOp2/ZsmXZsmWt//8cQgghpLv09fWbSHjUNaDRaM3p22Sblh1dC7vLZLLc3Ny8WllZWSUlJQUFBc3pq8hDCAaD8dZbbxmoR6PRKhtVr1hEcqrKysrCwsLCwsK7d++qDKNr164sFmvgwIFWVlZDhw61qtXMopCCjr7vJNPT09NrzdE1PXYmk/njjz+6uLj4+/tfv34dizxIISsry9/fn5R0PvroI6FQaGlp2cy+2vyZ1+buOHaqjk5tdxw7VUentjuOvf2P3iYnZoC1nRbLycnJzs4Wi8V5eXkkyVFXpenSpUu/fv1I8UT5h169einSm7fffluj0dbU1CgnP3/99deTJ09IiYn88OTJk+Li4hcvXuTn5+fn59ebFmJubq7IfEaNGmVjY8NisTQaMGocj8ebMmVKQEDAwYMHN2zYcPjwYT6fv3jxYqrjQtR49OiRQCAgt6Ol0+lCoXDFihVUB4UQQghpBcx2muX58+fZ2dnZ2dlZWVnk34qKiobNBgwYoMgKhgwZMmDAAJLbtH/A9XTp0sXExMTExKSRNuXl5STzuXv3rqJClZubW1pa+vDhw4cPH5K/GRNmZmY2Nja2trbk36FDh2p+EKiO3r17HzhwYOrUqWvWrLl3796SJUt2797N5/Pd3NyoDg21n+fPnwsEAoFAQC5u/vjjj8PDw5tf0kEIIYQ6PMx21Lp58+bvv/+enp4uEolu3bpV71kjIyNbW9uRI0daKTEyMqIk1DZhZGRkaWlpaWnp6OiovP2vv/5S1K/u3LmTnZ19586dx48fP378OCkpibTp0aOHjY3N+++/7+jo6ODgQEX4nRSPx+PxeBs3bhQIBNevX//kk0+cnZ35fP6kSZOoDg1p3HfffScQCJ4+fQoATk5OwcHBU6dOpToohBBCSLtgtlPHlStXLl26lJ6efunSJXIOodC3b1/lasbw4cOpCrKd9e3bt2/fvso5TFlZmXKZKzs7u6ysLC0tLS0tTSgUAgCbzZ44caKDg4Ojo+PAgQOpi72zWL16tY+PT1hYmFAoTE5OTk5OnjFjho+Pz4wZM6gODbW9srKyqKioqKgoMgFvxIgRX3311aeffkp1XAghhJA2wmwHMjMzT506dfHixfT09H///Vex3dDQkJyvv//++zY2Nubm5hQGqVV69Ogxfvz48ePHK7aQnIdkieJau3btAgBLS0sHB4fJkye7uLho6I6rCABMTEw2bty4dOnSLVu2REdHnzhx4sSJE3Z2dj4+Pj4+PlRHh9qGWCwmeQ65ktbMzIzP5/v6+uKqawghhJA6nTTbqaqqOn369KlTp06dOiWRSBTbGQwGuRaL5DlkLWnUJFtbW1tb288++wwApFIpqY+lp6dfu3bt7t27d+/eJetlOzk5ubi4TJs2zdbWluqQO6bBgwfv3bv3yy+/JOfEIpFo2bJla9euJTlP//79qQ4QtVBycnJUVFRCQgJ5SPLYpUuX6unpYaqDEEIINaJzZTsPHjwgGc7p06dfvHhBNurr60+bNs3Z2dnBwQFvN956LBbL3d3d3d0dAEpLS9PT09PS0k6dOpWdnX3x4sWLFy/y+XxLS0uS9kyfPp3qeDug4cOHb9u27dtvv1Vc7xQaGhoaGuru7u7p6YnLGOiQBw8eHDly5PDhw5mZmWQLXqOIEEIIvZFOke2UlZUdOXLkyJEj586dU2wcMGAAOeF2cXHp2rUrheF1YMbGxlwul8vlCgSCvLw8kmeeOnXq7t27ERERERERxsbGnp6enp6eHA6H6mA7mh49egQFBQUFBcXFxUVFRV28ePHo0aNHjx7t1avXnDlzPD09la9FRFqlvLycJDlnzpxRbCQFOjs7OwoDQwghhHROR852aDTazz//TPIcuVxONtrb25Mk57333qM2vM7Gysrq888///zzz8vLyxVpz6NHj/bs2bNnzx4rKyuS9owcORKvzGlbXl5eXl5eV69eJd+Fx48fR0ZGRkZGstls8ppbW1tTHSN65eTJk+RtevnyJdni5OTk4eHh6emJ094QQgihFuiY2U5GRkZcXFx8fHxBQQHZMnLkSHJiZ2VlRW1syMjIyNXV1dXVFQDOnDlDzu3y8vLCwsLCwsLGjh3r4eGxcOFCBoNBdaQdyvvvv//+++8LhUJyPn348GGxWLxu3bp169aNHDmSFDlx3WpKFBQUKKYRlpaWko3W1tbkVxabzaY2PIQQQkindbRs5+jRo1FRUYor1phMJjljsLe3pzYwpNLUqVOnTp0aFRVFcp4TJ078/vvvv//++1dffUWu2xkxYgTVMXY006dPnz59uuI1P3369M2bN2/evLllyxYTExMXFxdS/MRKgqaJRCKS5KSlpSk29unT55NPPvH09HRycqIwNoQQQqjD6CDZTnl5eVRU1O7du//880+yxcvLy9PTc9asWdQGhprDwMDg008//fTTT588eXLkyJHY2Njr16+TiT0ff/yxj4/PtGnTqI6xozEyMlqwYMGCBQv+/vtvxYWFRUVFcXFxcXFxADBhwgQnJyeyOOHbb79NdbwdxN27d8lC7efOnbt3755iu62tLUkyMclBCCGE2pbOZzu5ublk4alnz54BgImJCVmY1cLCgurQ0Bvr16/fl19++eWXXyYlJUVFRf36668///zzzz///N577/n4+Hh7e1MdYAfUs2dPHo/H4/GqqqouXLiQnJx86tSpGzduXLhw4cKFC6TNBx98QFZmd3R07N27N7UB65ybN2+SDCc9PT0/P1+xnUajkQsInZ2dBw8erK+v87+NEUIIIS2kw/9/LSoqEggEQqGQPBwxYgS59snAwIDawFDrkZXcbty4QVLZP/74448//ti6dSufz8d7xmvOhAkTPvzww40bN+bl5SUnJ5Nz9Pv371+5cuXKlSvkuzZy5EhHR0cbGxtbW1sbGxs6nU511Frn8ePH2dnZWVlZ165dS09PV8weJBSpo4uLC3n1cFkOhBBCSHN0MtuRy+UCgUAgEJB6ztSpU318fGbPnk11XKiNjRo1KjIycv369VFRUdu3b79169a8efOioqL4fD6Xy6U6uo7MysrKyspq+fLlAHD37l1Sl7h06ZJYLCaTfBQtR4wYoch8bGxs+vTpQ13UlBGLxdnZ2STDyc7Olkqlys8aGBgoKmMODg7dunWjKk6EEEKoE9K9bGf37t0CgeDBgwcA8N577wUHB3/88cdUB4U0qFevXsHBwf7+/hs3btywYcOlS5emT58+a9YsPp8/duxYqqPr+CwtLS0tLT/77DMAkEqlly5dunr1Kjmtf/r0aU5OTk5OTmxsLGk8YMCAYcOGWdUaMmSIlZVVRyq3FhYW5tWVk5Pz77//1mtmbW1NkkAHBwcHB4cuXbpQEi1CCCGEdCnbuXDhgr+/P7mnuJWVFZ/PX7RoEdVBoXZCp9PXrVvn4+MjEAh27Njx66+//vrrr76+vkKhEG8O225YLJa7u7u7uzt5eP/+fUVBIzs7++7duw8ePHjw4EFycrJyr8GDByvyHxaLxWKx+vXrx2KxtLnKUVBQIJVKnzx5IpVKHz58SBKb3NzcoqKiho0NDQ3feeedMWPGKMpc2jw0hBBCqFPRmWwnODhYIBAAQM+ePfl8fmBgINURIQqwWKzt27eTnCc2NjYyMvLMmTNbt26dOXMm1aF1RgMHDhw4cKBi5cPbt2/LZLJ6pY9///333r179+7dO3v2bL3uxsbGyskPi8UyVsXIyKgNYy5VpaioSCqVKtIbqVRaWVmpbg/9+vWzUjJs2LBRo0bJZDImk9mGcSKEEEKoTeg3MkG28bmz1dXVTU6uraqqavEEXEXHixcvBgUFkZLO/PnzhUIh3gmkk3vnnXd+/PHHOXPm+Pv75+bmzpo1a8WKFVu2bDE0NGzNhO/q6moAkMvlrdlJm3zmdbE7AHTv3n3YsGETJkzQ09MjW6qrqx89epSXl3f37t28vDyJRCKtVV5eTjKN27dvN77brl27krTH0NDQQL2amppK9Z4/f04OJ5fLmzmcXr16KZIxkthYWlpaWVkZGxuTK9Pktapqtex10/X3HcdOydFx7FR1Bxw7jr3dj95px976EzPSUatrO3Q6ffXq1Zs2bQKAvn37CoVCHo9HdVBIW8yYMWPq1Kn+/v4RERE7d+48e/bsli1bPv7444qKCqpD66Tkcjn5xaTMzMzMzMxswoQJ9bYXFxdLlTx58uSvv/76559/lEsuZBmSFy9eFBQU1FvZrDVoNFq98lGPHj1YLJaZmRlLiborJGtqampqatoqGIQQQghplH6TN3lQ14BGozWnb4tvIvHPP/988sknJ0+eBIB58+Zt3boVSzqoHgMDgx07dkyZMsXf3z8vL2/27Nnh4eFffPFFyz51NBoNAPT09Fpz55PWfOYVe9DR7m809t69e/fu3XvUqFHk4au/vtTtXl1drZz8NFK6efHiRZcuXbp27aqu8kOn00liw2AwGk6qUXl0zY1d3R50tDuOnaqjU9sdx07V0antjmOn6ujUdqdq7G1yYgZaW9vJycnh8Xg3btzo0qXLgQMHsKSDGjFz5sypU6f6+fnt3bs3MDDw4cOH//3vf6kOCrUBGo3Ws2fPnj17Ntmy9ekKQgghhDokbVwXNSkpycnJ6caNG4MGDUpLS8NUBzXJ0NBwz5493377LQBs27bNzc0Nr2dDCCGEEEJal+1ERUVNnz69uLjYyckpLS1t3LhxVEeEdEZISMgPP/wAAImJiePHj3/06BHVESGEEEIIISppV7bz008/LVu2DAA+/fTTCxcu9O/fn+qIkI6ZP39+ampqv379rl275uHhgRUehBBCCKHOTIuynfPnz3t4eACAt7f3wYMHqQ4H6aqJEyeePXu2T58+GRkZ5BOFEEIIIYQ6J23JdnJycjw8PORy+UcffRQdHU11OEi3vfPOO/Hx8TQa7fjx44sWLaI6HIQQQgghRA2tyHbKyso8PDyePn3q4OAQHx9PdTioI5gwYcKRI0cAYN++fatWraI6HIQQQgghRAGtyHb4fL5YLB42bFh8fLyhoSHV4TRBdjzMb6Vf2HGZ0jZx5Hw3vy1xGTK1vdQTxaz089srqrNpr5/fyhiRuh71iSM9Ro9+b3rYNTXPlyQFckaPtg9MetaC8HSYm5vb7t27AWDLli0XLlygOhyEEEIIIdTeqL89xW+//bZz504A+O677/r160d1OE0rvp0SuSOFY+67Zibz1ab8lKSDiUlWFtwvvd58fxLRjsjI5ZwIsFPaFBm5y5ezXWlTI/13hYQcFcG8QN8xahocjBSmithB4dz691RsmmivX8zNZrQb6R2xpDnBtjcfH5+MjIwffviBz+dfvnyZ6nAQQgghhFC7oj7bWb16NQAsWbLExcWF6lhaSHI8KQnAYiaH2+jLKTseFposbbBZmgkAoli/lSmvN4kAIDN2pV9Kg9YAdVOLLOHirxNLgMmByyEr65/N282P8B6UGLY9CYDJkiX6rUxssC877+2jM9XUkezmR5iIIiN3NTaoV+pma1pFIBAcO3YsIyNj8+bNeEkbQgghhFCnQnG2ExYWdv36dVNTU4FAQG0kjakokRVWAIPJVF0bkSQlJwHYe3txG99N+aNblzPEDfcuBYB88eUqyetNjwBAIs6oSLz2Jxg/f6sUho2xE92RmlfITEfZAZ0LJLUoTPSbG5hSCACylIORDVMj30mhid+HxOSpbQDgy9luItoRGakqYN9JERwAAPs1KYl+Q8i2kyHmi2Mc15w75DecbMiNcOWEZTQ+ckqxWCyBQODr68vn811dXa2srKiOCCGEEEIItROK5+1ERUUBgEAg6NWrF7WRNOZUCMucxdvVMFEBAIBrcbHHAcZO56q5kEzBYnls5h+ZDf4LdQOA2aHKG0NnA4Bb6B+Zcslvsbtif5PIM//IvBfh99UVeeYfmZmbuQAAhRkhXt6Rtxl2nycUy6Unv+QwrX0TpPLXKuUhVYGBu8Qwds3lSvm9773YpvYBScXyOiJcwTWi9kHCcgDghN+sfW42CdzIpDeT2Z/8Z0IHAAMTVv/aLb1NjNroZdacFStWTJ48uaam5sCBA1THghBCCCGE2g+V2c6JEycePnzYs2fPxYsXUxhGKyXFxWQAwO8ho/Ua43cMAECyizf6vcCkOjuwsPvc19fOou4mX9/P7SwAIDchxIsXKwIAKJGl+NmNFOYAAIAscbEzNyy5hL08JmW7KwOY41zt+9+OdGMtTiwEgIqULW6jzcdt77ciYK5X+K5Qe32wmOnmUJ4h5E4UZrXDq6J15s2bBwCHDh2iOhCEEEIIIdR+qLyS7fDhwwAwd+5cCmNorfzImIMSACZ7DIte76lCiSi/hGltx+oGAECnAwBUPJOJrplUAABIMg5lkGvXjOzHjQNx3CGl2lG3cePsQXwoTlxYwgCQ/BEXVwHQ39V3roguiksCLneEq69XjMTZN2EzlwEAAAzH0D2bM0bvlEMJgCl9tDWrQpYoWJt6KyWWTfZp6rr3tzWX7EX0qgqA+sE2qlicGhf3aq2CWxIAKBanHIp7NdWnUFz8Jvuiyty5c1esWJGXl5ecnOzs7Ex1OAghhBBCqD1Qlu2UlZWRP7TrdLaT8X1sYiEAuIX+EeFa9ymRYNzo4Ay3DZm114PVI4r14qmcLaOiqYD3uhx0KIaz+RZ3BMNukiv7QFLISuVCEdvXBVK2k7UNiln9QZwa6u0lGW36usWHyy3EBwL9yPVcvbkha7lMaJIoZiUvRnlDVoyfV4y61trJwMBg7ty50dHRhw4dwmwHIYQQQqiToCzbuXz5ck1NzfDhwx0cHKiKobUK4yJ2kfn5YkkeQN3Z75KHGQCMJl7g5Qnyna6NNcgRfjgykJ0oV5EyPRRF7mgyXSrJOBSpdgmBSRa+zcp2dHuVAoU5c+ZER0enpqZSHQhCCCGEEGonlGU79+/fB4CBAwdSFUCrVaRsDo0rBIYpo6QwUyKul+1IJHkAMNrCQk3v10rEp5JEJSqfsrAfCQBQUVV7yGcV9G51L0JrMl9SLdFPz62ZlaXaVQrIz0qrFJANJTqwSgExZMgQAMjPz6+pqenSRSvuq4sQQgghhDQKs52WKk6I3CIGU6/IzUa8RTHi22KYyVZ6WiwRAZiy2SMa9qwofiSTQXHFq4fSpC28QNX1Bt8EOYcNIM4XA7ChKjHQwjtlYcKtzZw6rZ7JZKqTJVVUrKMtifRyi8kFeLXydWbkvNGx+gDA9j4Uy2r2jrXfgAEDaDRadXX1/fv3LZqRhiKEEEIIIV2H2U5LmbiFbBZJ9b72cv4tASAxI0UG7NdXheWIxYUAs9mjVfSMWWzeYNKLokRzzE/PVRx+81zAqzQp8fVNclIvJxWW2I+s3aVLqPRhCNAZ4l3Th69SfRvShjibb50LYgO4RsjlEa+2VVTIRKJriiYlkiyyAIFJxauErCOsUkAMHDjw3r17mO0ghBBCCHUS+n/99Ze65yorKwHAwMCg3vbq6moAKC4ubqQvUVxcrKenp/Ipku2wWLpbPKDbBZ28XAWgXzNuEiQeu5xS4uvFePWcJDUlBcDebly9WTHs5bHSV4synAwxX9yMmf4Meu0FchlpKRLwCp1Zeww6g1xdRpIN7++loY3PvU8OYS1SeUB2QIo8AAAAElfoue3iKOVakAjQMVYpIFgs1r179/788082m93w2eLiYgCoqqpq8oPdiEY+801S943Tie6AY8ext/vRcew49vbvDjh2HHu7H73Tjr31J2bk6Pp9+/ZV16KqqgoA9PXr139oNBoAmJiYNNKXkMvl6toMGTIkPT2d5Dw6TB8A2JxJ9pAaF3sw1OtzUjGQJCUnAdhxnO3qt++muJDMpM78m4pi2SMZAEBJBUB58VOZ7BHQTZkMOotlDsI796FKknBIxJgXyGXU3yVBZyim1qjBeKNVp5V1kFUKoDbHHjlypMqPpYmJCQDo6zf2pWhSI5/5Jqn7xulEd8Cx49jb/eg4dhx7+3cHHDuOvd2P3mnH3voTs1dHb1nn1iPXsOlgtlMhfVr/0i27eTzu1xlJOyNTlodz9AGuxcUeBxjr5ja2TrOkVaNDUpX2o/zcvsWsfa8fhXFYYQC+ifKI2XTQB+jyVsnRqJg8C+/tXmqSndp78jTipqTJsTXEXS+VBgODyaS/+qQ0WKWAGZL40A/o6uLSIpWVlY8ePQKdvn4SIYQQQgi9Ccx2mq9Cdi0mdFVIZKqs/jODeN7LhUm7hGFbeBy+Rdz28AwArpdXvcoOa8i4cYXipH0pTHff0Uxp5jXx6x0tjJaun67U9mSI+WIAALCwsALIOxB4I65kZoSvi9rgkpTvydN26KbMJpao1qcz+zdjFWstQD5sXbt2NTMzozoWhBBCCCHUHijOdm7fvk1VAM1X8qwYADK3ctmrZCXAYDIZDRZBY7iu8OUcDUzZGhiiz048WALWAQHL68+Dt1sSEWEv/HBfCntuRMTsRL8dia8vAKOb1M0ZXl/nZmFuD7tiYoAdcNa3kZn1virvyaPsWozfARHL2qSJ0Sp7lBS2OalODQqkmQDwMEm4UlL3wjgWd9UabuOX0lEtKysLsLCDEEIIIdSZUJbtcDgcU1PTx48fHz9+fObMmVSF0QyS2GNJAFAikzFsvcK3CjnXeKMbroE2IiB8VRJnVUrYqhQAC+/1IZxmvLT20J/VfQAAIABJREFU5rX5y6PMuEPKF6LdkgCQ5xjdTACA/Xl4CFmEoEr1m1ZRIpM9avRgzOkhq6YDgOyRTNU61KqUiFN2RKpY7i0vJWZHvc0ci6Xanu0cOnQIALT7w4YQQgghhNoSZdkOAMydO3fHjh2HDh3S7hNQExaTBUDnro+N4XOY+iC+prqd3UJvt+0pMY8A+nM449XMY6mqKFd6ZKRfWyA5HsY7Xr+tLwBUiRKPXwaw4M4kyxOIhdzpSc4J54Lqr38Qs4jV/FXSatehVqlcKooT7klISr7M+j9p7ENe3WcbrFJQi6Hdl7P99ddfiYmJADB37lyqY0EIIYQQQu2Eymxnzpw5JNvZtWuXsbExhZE0iuG6PfakC4M7s7E7tFRci+TN80t8BAxTRsmjGJ6d5PLWiPC57PrroOVKMsB+ugVASUWdtQ7q328netzNjK4T8oRcTqAIGCARZYnBmQ0gkYgkElsVd7hpegVqQuU61FUVspzLJ5OTkkQAkCGcn/Fq4EUSZv96o26wSoGOOHz4MAC8//777777LtWxIIQQQgihdtKFwmOPGzfOxsYGAP773/9SGEbT9O0aS3WqZClb3Ea/55d4G9juESkPUyLc2SBLifQabsHxi8tRvj6tJO54ApiOZo8AuH1LDGAxSF2BxcJ+rpdJ7BehySzfPSmhsyHlVJIYAKoqKgrBoreKmxTRGUxm/2b813Ad6izhhywjlt2Hi1cJE38HYLK580IjzmZK/ylOaDD1SHdFRUUBFnYQQgghhDoZKms7APCf//xn4cKF69atmz179qhRo6gNpgWUVmlju26OiQmyZwDYxWeO2+HtvT5OlBrJGxkb4uzmuzzAdyabfi084mCJxZdcV30QJaeIwN5tSGM7t1gemmBnwXFklFR4hXglxP4eENpNIgFgW6nIkZqet0OUNFim2nacfX+4NcjVzcONN5NrZ/0qHyrJSYq7WdKg/y0JABSLUw7Fieo/xbBz4bK1ciXqNWvWiMVic3PzpUuXUh0LQgghhBBqPxRnOwsWLDh27Nivv/7K5/NPnjxJbTBv5unlMC9e+CFRCQDD1it0b4zvGEXZhG73eWymu7fQPzD0kEiSHBOYnJC09XJkzW9iU07IIi4UxoV+nQFjQ7m2tT12uenter3vwJF6gQAAnPCb5zgADHdv7/UfhgX6W3DuZ4I9R1XF5Y3m7dRlH5JRHkqvX/ORnhLyGi7GQGTF+Hk1PBon/KY2ZjvXrl3bsGEDAAgEgrfeeovqcBBCCCGEUPuhONsBgI0bN/76669JSUnR0dGLFy+mOpxm6z18eKmkxNTOa1W48EsOs+ELyeQExGX6fh0XGhwe94wX/jnbGnYlfGDBGQGQJc0D8FrhawcAwOIGxbKWqDwGw46scqbPCdm+5rJX2OJ0qJMjKWnNvB16g1QHAFguAbH9vZuxxwbRahk+nw8An3zyCY/Ha7IxQgghhBDqSKjPdthsdlhY2Jo1a1asWGFtbe3o6Eh1RE1gL4+VzgVgMJl0afk2lZnCa3Rrr9BEr9BXj+w4ZHC2ARfEXLAmdRAG28VL3fQdBYZz6OWbbkmpUtYkbr3l2Eg8dFMVU3JUmBsudQ5tzgJqjBFcrxHN2KF2W7169W+//Uaj0QQCAdWxIIQQQgih9kblKgUKwcHB06dPr6ys9PDw0IH7jXZjMvszmd0A9JtIdRrBsH7za76Ydty5XLuGeUo3JrN/81IdAKAzXgXfCYSHh2/atAkAIiIirKysqA4HIYQQQgi1N63IdgAgPj7+gw8+kEqlHh4ehYWFVIeDdN7+/fuDgoIA4Ntvv122bBnV4SCEEEIIIQpoS7bz1ltvxcfHW1pa3rx508PD48WLF1RHhHTY8ePHFy5cCABffPFFSEgI1eEghBBCCCFqaEu2AwADBgyIj483NjZOTU11cnLKzc2lOiKkk6KiombNmgUAPB5P22/lhBBCCCGENEmLsh0AGD169M8//9yvX7+rV686OTmdO3eO6oiQjlmzZg25bu3TTz/98ccfqQ4HIYQQQghRSbuyHQCYOHFiWlra2LFjZTLZ5MmT9+3bR3VESGfMmzeP3FonODj44MGDVIeDEEIIIYQopnXZDgAMHjw4LS3N3d0dABYtWhQcHEx1REjbiUSiCRMmkGJOZGRkWFgY1REhhBBCCCHq6VdVVal7rpGnAKC6urrxBmQPTbZR58iRI/379//uu+8EAsHZs2eFQuGECRNativUsW3atGn16tUAYGJism/fvhkzZrTsU1ddXQ0Acrm8xR9aaN1nvjXHpbw76PLYQel9Ly8vLysrK62rrKysUr2qqqqXL192795dX1/foC6yxcjIyLiuHj16GBsb02i01g+B8pdOd993HHsr94Bjb/+j49ip6g44dirG3voTM9KR+ruLqvPixYvw8HBbW9ugoKDr169PnDgxODgY/2aPlGVlZfn7+6empgLArFmztmzZYmFhUVlZqa+vvR9s1G70lACAXC6vqan5+++/pQ08efKkoKCAJDntuSBkt27djI2NGQwGi8Xq168fqwE6na7IiORK2i1ChBBCSNfpN3leqK4BjUZrTt/WnHfW1NTMnz/fxcUlICDg4MGDGzZsOHPmDBZ5EKEo6dDpdKFQuGLFCgCoqqpq8aeOnFbq6em15kPbys88qP/GaX93rRr7y5cv8/LycnNz82pJJBKpVPr8+fPm7Kp79+71qjGGhoYG6tXU1DRS/Hn+/Hm9YhHJqZ49e/bs2bPHjx//73//UxlGr169zMzMhgwZYqWkf//+jY+9BTrM+97O3XHsVB2d2u44dqqOTm13HHv7H71NTsxAm2s7Cr179z5w4MDUqVP9/f1JkWf+/Pl8Pt/a2prq0BA1Dh8+LBAIbty4AQCzZs3aunWrpaUl1UEhKhUWFt64cSMnJ0eR4eTn56trbGxsTConpJxC/mUymQwGQ5HbKF9jpgnl5eWlpaUlJSWlpaWKctOTJ0+Uf6isrCwqKioqKiIfdYW3335bkflYW1uPGDHCxsZGo9EihBBCuksHsh2Cx+NNmTKFFHkOHDhw4MCB//znP3w+v0+fPlSHhtrP2bNnBQLB+fPnAcDU1PT//u//SEkHdTYSiSQrKys7O5v8qzK36datm1VdJLHp1q1b+wdcj5GRkZGREZPJbKRNQUGBVCp98OCBojyVm5srkUj+/fff7Ozs7OxsRUsajWZra2tjY2NjY0N+MDY21vwgEEIIIR2gM9kO1BZ5li5dKhAIkpKS/vvf/0ZFRfH5fD6fj/M0Orxr164JBILExEQA6NKlC3nf3377barjQu2kpKQkPT09PT39ypUrWVlZf//9d70GFhYWNjY21tbWitzGzMyMklDbSp8+ffr06VOvblNZWanIfPLy8nJycrKzs8vKyq5fv379+nVFsyFDhtja2jo4ODg6Or777rvtHjtCCCGkLXQvSXB0dDx58uTx48cFAkFGRsbXX3+9a9cuHx8fHx+fxv9QinRUampqVFTUkSNHyMPly5fz+Xxzc3Nqo0LtQCqVXrp06dKlS+np6cqn8sSoUaNIHYP826tXL0qCbGcGBgZsNpvNZitvvHPnjqLMlZWV9fjx49zc3Nzc3KNHjwKAsbGxo6MjyXwcHR3Jmg0IIYRQJ6F72Q4xc+bMmTNn/vDDDwKB4M8//1y3bt26desWL17s4+MzZswYqqNDbePgwYNRUVHp6enkoaenJ5/PxykKHVtZWdnp06eTk5PT09PFYrHyU5aWluSs3dbW1tbW1sDAgKogtc3QoUOHDh1K7lEGADKZLCsr69q1ayRRLC0tPXny5MmTJwHAwMDAwcHByclp2rRp9vb2lEaNEEIItQddzXaIzz777LPPPjtw4MCePXvS09Ojo6Ojo6NdXFx8fHw++ugjqqNDLVRcXBwVFbV79+779++TLZjHdnh//vnn6dOnz5w5k5ycrLx91KhRpCjh4OAwcOBAqsLTLUwmc9q0adOmTSMPr1y5kp6eTjKfgoKC8+fPnz9/fv369f369Zs2bdqUKf/f3r3HRVnn/R//4IyK5iooCGSJhOXhzgOWlXlA8JDgoRSFgjsztaxg2354SBTX1lBMpX2YYlHaWrtgYsrtbYGpoWTqZiaeVrwLxTNoEGgHDWfg98elhAgDghdfZub1fOxjHzFzfef7+TRq8/a65nMNHTZsGN/zAQDYKutOO5rx48ePHz8+PT09ISEhOTk5LS0tLS2ta9euISEhISEhnTp1Ul0gaio1NXXt2rVJSUna3aA8PDymTJny4osvenh4qC4Nuvjyyy83b96clpZWfgRz586dhw0b5uvr27dvX1dXV4Xl2YZHH3300UcfjYyMFJHDhw/v2rVr27ZtmzdvPn/+/Icffvjhhx+KyBNPPBEQEDBs2DD+wAQA2BhbSDsaf39/f3//efPmJSQkJCQkHD16dO7cuXPnzvX19dViT+vWrVXXiMp9++23a9euXbt27dmzZ7VHHn744SlTpkyePFltYdDJnj17tHc8Ly+v7EF/f3/tA/eDDz6osDbb1q1bt27dur300ksiouXMzZs3f//991988cUXX3whIn379g0ODg4JCXFzc1NdLAAAd4DtpB1Np06d3n777TfffHPNmjXJyclbt27NyMjIyMh45ZVXxo4dGxISMmbMmEaNGqkuEyIiJ0+e1D7yZmZmao+0bt163LhxwcHB/v7+amuDHrKzs7V3/PDhw9ojrq6uw4YN00KOs7Oz2vLsTdnVbocOHdKSz44dO7TBd3/5y1+efPLJp59+OiQkhKkGAACrZmtpR3PXXXdNmDBh8uTJ5T9Pf/rpp59++qmjo6P20SogIIC5Xkrs3r1b+xvlffv2lT2oZdGxY8dq17DBlhQXF69evXrt2rXp6enaI40aNdLOuPL9uoage/fu3bt3nzFjxrlz57Q/MPfu3btx48aNGze++OKLISEhTz/99KBBg1SXCQBAbdhm2tGYTKYOHTq8/vrrr7/+evlrpVJSUlJSUkTkkUce0WLPY489prpYG/fzzz+XXTaTm5tb9rh2nWFwcLCdjA+2Nzk5OdqVpUVFRdojgwcP1t7xli1bqq0Nt2rXrl1kZGRkZOSBAwe0PzBzcnK06S99+vR58cUXJ0yYoLpGAABujy2nnfJ69+7du3fvJUuWfPPNN9rH7m+++Wbv3r179+6dN29eu3btBg8erM19qnAjC9TatWvXtElQO3fu3LJlS9njLVq0KDu9xvgBW7Vz586EhITExETtxy5dujz77LPBwcHe3t5qC0NNaDO+Y2Njt27dunbt2lWrVu3Zs0e7v5l2czMXFxfVNQIAUCP2knbKaOOJ5s6de+7cOe1UQ1pa2rlz5z766KOPPvpIRO6+++6yibfcg/x2Xbp0SRt0q/1/SUlJ2VOdOnXSEs4TTzyhsELo7ZNPPklISNixY4f24+DBg6dMmTJ27Fi1VaF2hgwZMmTIkAULFmjn6M6cORMdHT1nzhwt8/Ts2VN1gQAAVMPu0k6Zdu3aTZ48WZv6lZaW9tVXX2mf0c+fP79u3bry9yB/5JFHevTo0aNHjw4dOqiuusExm83aHdwPHjx46w3vPTw8tNw4aNAgBm3ZvM2bN7/77rt79+7VfnzuueemTJnCLSxtQNu2befMmTNnzpwPP/wwISFh796977333nvvvTdlypSoqKimTZuqLhAAgCrZb9opLyAgICAgQESKi4u1kUQ7d+7cvXt3+XuQi4iLi0vPnj215NOzZ89u3boprVqNwsLCsnhz8ODBAwcOlJaWlj/A29v7oYce0q4M5LJAO/HVV1/FxsZu3rxZRO66667XXnttypQpTAGxPRMnTpw4ceKWLVsSEhI2bNignfD585//PH/+/D/96U+qqwMAoBKknZs0adLEz8/Pz8/PZDI5ODjs27dv165dmZmZBw8ePHz4cH5+/rZt27Zt26Yd3LRp0wcffLBjOffff78t3aSipKQk+2bff//98ePHKxzm5OSkhcDevXv37du3Q4cOeXl57u7uSmpGPTty5EhsbGxSUpL2Y2RkZFRUFF/qsG1Dhw4dOnTotm3bYmNj09PTly1b9q9//SsqKmr69OmqSwMAoCLSTpVKS0u1L/loP/7+++8Vzmn8+uuv3333XYVrt5ycnMrCT/v27e+++24PD4+77767IX/6v3Llyvnz53Nzc3Nzc8+fP3/ixIns7OwffvghOzu7wnkbTfv27bWzW9ppro4dO9Z/zWgIZs2aFRsbq/3zhAkToqKiHnjgAbUlod4MHjx48ODBycnJsbGxBw4cmDFjxvvvv//222+PHDlSdWkAAPyBtFNTTZs2LR9+RCQrKysrK6v8qY8zZ84UFRXt27ev/J1kNI0aNdJij4eHh/YPbdq0adWqVatWrZycnFqVcwfv5ff7779fuqGoqKjsny9cuFA+3hQWFlro+v777y9//qpbt25t27a9UxXCSmVkZERGRu7fv19ERo0aNWvWrPK/NWA/goODg4ODExISFixYkJ2dPWrUqPDw8LfffrtJkyaqSwMAQETEaOFmjpbv82g2m6u9EaTJZKr1zSLreJfJelj+wAMPdOrUycHBQcsnpaWlv/zyixZ7jh8/fvjw4Z9++klLFBcvXiwpKTl37ty5c+eqfVkt8zRv3rzxLZo0aaL9g8FguHZDcXGxyWQqLi6+Vs7ly5cvXbp05cqVGvbbtGlTjxvat2/v7e39wAMPeHt7e3p6Go3XI3HpDbb6vpvNZhGpSYOWC7DG3m9reXR09FtvvSUibm5ucXFxYWFhddkXNmDKlCkTJ06MjIxcvnx5fHz8F198sXjx4hEjRlS70Fp+zVt4BZv//W7hFei9/nend1XLhd5V9F73D2baQs7t1J720b/8I82aNevWrZs2veD//u//OnXqpD1uMplyb/HTTz9dKufy5cvXrl0TEe3HO1jnXXfd1apVq5YtW5adPnJ1dfUoRzvRVL4vESk7xVT33ySwDUajMT09ffr06dopnfHjx8fFxfEVHWgaN268bNmyJ554IjIy8ocffhg9evQrr7wSHx9vNpsrvSAWAID6YSz7m3sLR1T6uMFgqMnaao+p3e4Nf3l+fv5//dd/lb2Ol5eXl5eX5SW//fabdr3ZTz/99Ntvv5WWll6rgslkuvXMT5lGjRq1bNmydevWWrZp3LjxbVV+PQfXoXcrfd8NBoOIODg42GHvNVm+evXq559/Xjilg6qNGDFi6NChU6dOXb58+YoVKw4dOpSYmNi+fXvLqxrsr/marLXe4uu4nN5V7a52Ob2r2l3tclW935EPZsK5nQalefPmzZs3v/vuu+uYN+oeV4AK5s2bN3fuXBEZN27cihUrOKWDqjRp0mTZsmVDhw6dMGHC119/3b9//8TExH79+qmuCwBgpxqpLsBm8XEQNmPy5Mla1Jk6dWpycjK/tlGtkSNH7ty5s2fPnqdPn+7fv3/ZjHIAAOoZaUcv5b8JA1ipK1euDB06dNWqVSKydOnSJUuWqK4IVqNr1647d+4cNWqUiISFhS1cuFB1RQAAe0TaAVCl4ODgrVu3Nm/ePCUl5dVXX1VdDqxMixYtNm7cGBERISJRUVEJCQmqKwIA2B3Sjl4KCgpUlwDUyfPPP//ZZ58ZjcbNmzc/9dRTqsuBtVq2bNn06dNF5KWXXlq/fr3qcgAA9oW0o5f8/HzVJQC1N3369NWrV4tIcnJy//79VZcD67Zo0aKJEyeKSHBwcEZGhupyAAB2hLQDoKK33npL+4rO+++/P3r0aNXlwBasWrVq1KhRJSUlwcHB2dnZqssBANgL0o5emFsFK5WVlTVz5kwRWbBgwQsvvKC6HItMeRvenJ9q+TTqkVXRb27IulrFs/lZWXkWl1/NSnp1UNDizJoXVbRp2qDevR5/JamoigOylgX16t0raFlWzV/TNiQnJz/++OMXL16MiopSXQsAwF5wSxa9MJMNVkr7JBoYGNjgP5Je3TMvLOjNdEnKXb99+Rj3So/Jif/rtPkpRfP/N2b/t7N9KjyZn/ry48Pf+zkwZl3i7H5OlW9yLHXVmvT0/LCIjruXj67imPJM6TEz4tKP9Zm9LLTyo02pq97ZkJk9ctK6LtW/WgVnU+cvSs2t/jiPwBmzA++57ZfXW9OmTZcuXdq7d+9PP/00KSkpNDRUdUUAANtH2gFwncFgWL169caNG0UkNjZWdTnVcuzz1yXLj4VFrIsP8stdvmZ9eM+KRxT9Mzo6pUhc/Jd8cEvUERGXx8c/7f/Jm6nR/R8/+vHnic96VbJJz6nLZ6U+HpkePyvav//yMdWcsi3a8GpE3DGRnh5FSRERFe4x4xoYPScwd3FcXLZIz8ZZb0dE3LLeY0j0JFkVs7WyROMaGD06K31ZfLrlEkRE/L1ebIhpR0QefvjhWbNmLViwYObMmU899VSTJk1UVwQAsHGkHb0UFBS4u1f+t81Aw3T58mXtfM4bb7zRvXt31eXUgNEnPCnx6tXAaZs2RAQMl62fhz9Y7tmT8ZMik4qkS/j766feEoRERMSpz7wv0z2Cwl7ZkDS+V97Z9M+jfBxvOajL/1sZs7NXRMqm9Zumjnm+skR0Q+bioEnvZomIHNgQf+CWp/28Jo3MmvZ2epUHiPjfGz5G0uOXVZZo/LzCta9QPb8yd95w7bGj748Z9OaeSR/mxgy5ftTnf/WY/A8LNao3f/78lJSUrKysqKiopUuXmkwm1RUBAGwZaUcvzGSD1fn444/z8vJ69Ogxd+5c1bXUmNFn6oZUCfRf7PJsYOfyT+TER0ZvyHfyX5Ro+Qo0n5fXf94ibPj4pKN70rNMsj9yVSXf0WnRq89IL+fMuIhbnvMZv3zSwyIiOf8MC5uRXuQeuCTt83BT/KQXYvKCU2+KT1cz5wf2Ss93Cv04J3H0/uiAoA0eMYlJ4T4V/xj+snS6iIgciRvUbVr6y+tLV4y5/syROBERR2f3e67/TUrhn5qJiKOTu/uNMznOt8a1hic2Nvapp55677333nzzzebNm6suBwBgy0g7AK5bu3atiISFhakupFqp03pH33T64xeP1oWLgvos+uMRU1HOgSIR99zkSb2Syx/aZdKaxPCON72c17OJ6fdMyu3v72PcsGpZfHwVu+6p7MFwv+Xy8NXMxUGBM1LzXPyXpH0+taeIKXB4t/iwWf7DjelfTveR7KSIV6LXu8/+Yd4zu5PHxj/rJOIfNKpX/IyIMBeP3SvG1OD7QDblySef7Nq169GjRz/55BNtMjUAADoh7eiFmWywLkeOHNm1a5eIPPPMM6prqdbVq/syazYlLS9rX4WZa85XK5vP5u7n7y4iEhhzJje64pOfR987eZX0mZ2+IeL+is85uoiIo8/zk4LSHLu8feO7Q0av0Ldjdn8bnStXi0ScOvp4SWHeP+fPHL3/83euRxuf6evjD3eJaNL8quk2/yQ+uz9pzfUeCn8oFJGcb5OSbjR19OztvJQ6zzzzzJw5c9auXUvaAQDoirSjF2aywbpoJ3ZGjBhxzz0N8uvtNxmzvLR0eaXPaFd/Sfj60uVjKj2gnMzFg4J2+q98f7b/H9+wc3S659av22lXhzVzdv3jgrGKXB4P9EtP/fDmwQN+/h5nEqNfTRQRaeElkhk/K+zqdq8/rjVrERRa8llM5GfaT2UXxVVj0/ywTTc9kBobllqDdQ2KlnbS09O///77rl27qi4HAGCzSDsARER27Ngh1nFi5w75JTN959GcTemDfHZbmkBdU4VZ2+Pjt1d31LHUVceqfDLcb7nUJO1Y+ZQCjbe39+DBg7dt27Z7927SDgBAP9xdVC8FBQWqS4CdOnnypBZdbsupU6dExNvbW4eK6l1Hx+qzSwufqRsy1//ZxykvNbr/40HLMqu6Aent8F9yuLQWji7yv41NHJ3d73HX/ufxx5SC6/+ziikFGk9PTxE5ffq06kIAALaMczt6YSYbVOnQoYOfn1+HDh3mzp07cODAmiz5/fffc3Nz5cYHUKt3r4dHTQ4zuo95Z7fXvUGBM1I3rFiSGJA4qWP1i6pztehsUY2Dk6PTPU4V40natF5/TRcRMRXliEhKdK9vY0RE/GL2j697eQ2I9otNi9kAAOjEaOFeB5Zvg2A2m6u9T4LJZKr1vRTqeBMGtctFpLi42G57t9L33Ww2i0hpaWldXqSB9L5y5crBgwfv2LHD19d3zpw5vr6+ltceP35cRJo1a2YFN4n6JS+vqOpnfyy8IiLXCnPP5jlbeBFHJ3cXLWU4+kz/fLf7/NRus+sWdbqEJ+WGmcTJPXVa46Cqprrd4vr3i7pMvzF1WkSuXs3cV24EQ15WpjZnofeNDGUTUwqkXNppCL9lav0KVlo8vdfxFei9/nend1XLRV3vdf9gpi3k3I5e2rZtq7oE2C9fX98OHTqcPHkyIyMjIyNDyzyDBg0qKSkpKSm59fgLFy6IiBVEHZGsd8O6zqjs5pvlfT1/0L3zLR1Q/iY2Il7Pzg4v+6Hs1MofruaKiOyPf7ZX4s1/ZHaZuD7x5ev3G3Us/6+v3+wv10RY/DLK0eXPDJr/dWXPjL4xgqGq++3YxJQCEfHw8BAR7aQiAAA6MRqN1QSeqg4wGAw1WVvtMbXbveEvd3Nzs97i67jcSt93g8EgIg4ODrbR+z/+8Q8/Pz/tn7XMM3DgwKqubfPy8hIruabIubN/+J+7VPVs4ZH1SdvzRKTPuPBeFrJbN68qn6pwauUPRTkHKj7uHFzFNWuNnT3usZwdC50bW3raEpuYUiA3fr15eno2kN8ytVtrvcXXcTm9q9pd7XJ6V7W72uWqer8jH8yEczuArRo4cKB2ekf70Wg07tixY8eOHZVmHk9PTwcHh5KSktOnT7dv315FvTXlPnL28pFVPZk5v8/1i8iyHB9PfSe0ZnPW0qf5TMsJmBYzI7SLU7lTK3/YEOEQFC/Ja8w5AAAb7UlEQVT+Sw5/OfXBmlVZmJW+JsniHYEKswpr9lLldQ5PPBNW7jI8KfxjSsH1Q8IW5Q6fJ05WcJbuj7SjuhAAgC0j7eiloKDAKq4Lgg0rf3rn+qWrVWQeBweH9u3bnzp16tSpUw087VhQlLJq1b9FHgsNbZaU9M+Y6NGBy0fXIO/8Oz39QGbmL/vDF4RWec7odh1YFRG66k692B+Mju6V3A7oJo4uVvPnDmkHAFAPSDt6YSYblKtwekcsZh5PT89Tp04dPHiwf//+yiquC1N6zKz4HHEaMz4msaNH5va4+FnR/v2Xj3GpZl3Wzj2ZIl6jA29nCHR1/JYcTZ9qMTvlpb4Zk/qjT9VX1FUi84OIVYdveuTqsRwR2b8mIqLCrX66TVr+gs/tvLYCWVlZImK96RoAYBVIO4AtK396p0ylmWf48OFfffXVmjVrIiIiVFRaN6a8Da9GxB0T8ZsW/YKXGKNjXk4Nejd+0mhHx5QlgZYCT176nnQRp8A+dzLsVD8UTqTX89G9RORsXl6lc6grk5MZH/9uJY/vWRe/p8JDL/svlwaddr799tt9+/aJyNChQ1XXAgCwZaQdvbi4VPdXymiQvv/+ewcHB9VV1IcKmeexxx4Tkd27dx86dKh79+6qq7sdppykicPD/pklLv5L3p7tYxQRpzHvJC7J9p+2NS5sSFH8upWhVU2XPrs+PUXEJcy/yu8C1Uq1Q+Fucn0OdeWu5qS/O3/VpvV7TGHrk3JzZ9305K1TCq6rwe1V1VqzZo2IBAUF8UclAEBXpB29tGnTRnUJQPXKZtg3bdq0T58+e/bsWbNmjTWlnbzU6NBJ87fniYv/7JT1U3veeNzoMzVpVc6QSfEHVoX1Obr7nVVLnuly6/mTvE3pG0Qk4HH/O/tnYfUTqDWVz6G+mp+VuSc9PSU1R0T+MW2QNmOtg3+hi3uF8zW3TimwFlraefrpp1UXAgCwcaQd4LqePXtu27ZNG3TocIOIOFSmqsfz8/NdXV1rfnz5x81ms4ODQ+PGjWuxr4hoy1u0aFG+qZMnT2rTpS0o+/ZOYmLinj17Vq5cOW3aNCuI66a89L9PnbYoKTNfpPOY5f9MDH/45jjjMmb5Vg+PiWOiN+2JD+26/oNJ0VExk4a4lzuoKH3PBhEJHRJ4h0+FVD+BWnPrHOqrG170Cvog78aPTl6P+QeOCQobGejTuUZXu1mFFStW5OXlubm5BQUFaTePAwBAJ6QdvTCTzeo4OTn5+vpK3WbS5+Xl1fp9L7u0rC7LK/jb3/5mYUn5KQUmkyksLOzvf//7d999FxUV9f7779eujPpwNW/PmpjoeYnpJ4tEnHyeiY5/Z2qfSq+Hcukze0Nmn9hJYX9Nzdu+KmL7qpiHxwQFh016PtDHxVHOJq7/p4iMedzPSeTG3Tyr3DV9WjeHaZU8Xtl1aDX43o6IiOQWXqvwiKN/f39J2eMfMGnMs4FBfXzcr6fXnD1rUnNuWV/4Q6GI5HyblHTrjX/u7RPa77aGINST3NzcqKgoEYmMjFRdCwDA9pF29MJMNih38uTJ1atXV/pUpXfdKSkpWbhw4ZAhQz744IPRo0cHBATUS5m3pSh1RlDEP9Jz8kVEnHqGRr8dN9XPYrw0uvvP+TxnXFLMjCXxmzLz9m2I35ee9XPq+nl9rmqXsfk97q9dBubo6P6wz+1/td+xklMut/e9nZs4PbPqyjOOjhX/bM5MDA2Lr2JJamxY6q2Pvry+YaadqKioy5cvP/bYYzNmzKg0ogMAcAeRdgCbVemJnUpzjqakpGTw4MGvvPLKihUroqKiGmTacQoMDXRenH7l4TGTImOix3W5JRVUzrFzaMz/hkYfSYr565JU9+j18/o4ieS4dxnzmFeun//1UdEdwxO/Db8zZdblezvGyuKT+IQlJT5+WzXc2xBnsm3cuPGjjz4SkYULF6quBQBgF0g7emHQENS69cSOhZxTXmxsbEpKysGDB1944YUPPvhAzxprpefUL8+EOd7jXosvsTg+GBqzITTmxo9eo2PWj46xtKA2AmPO5EYbndxrVKB79LrcCFNNBqh59XnGq0+di1Pr6NGjL730koj85S9/0a4aBQBAb41UF2CzrOBL3rBp5U/sDBw4cPv27du3b6826ohIy5Ytly5dKiIrV67Uvl/R0DjVKurUF0ene9xrFnVERBzd3d1rdrMda3fx4sWQkJC8vLzHHnvsrbfeUl0OAMBekHYAG1R2Yue2ck6ZcePGrVixQkQWLlwYFxenV5WwGyUlJSEhIUeOHOnYsWNycnLTpk1VVwQAsBekHb0UFBSoLgH2629/+1vtck6Zl19+ed68eSIybdo07YsWQK2FhITs2LHDyckpOTn53nvvVV0OAMCO8L0dvTCTDQo999xztQs55c2ZMyc/P/+dd96ZMGFCXl7e66+/fkdqg1358ccf//u//3vLli0ikpyc7FOLoXcAANQB53YAG1T3qKNZunRpRESEiMycOTM8/A7NK4Pd+O677wYMGLBly5ZmzZpt2LBhyJAhqisCANgd0o5emMkG27Bs2bJFixaJyIoVK0aOHHnp0iXVFcE6pKSkDBgw4NixY506ddq5c+fo0aNVVwQAsEekHb0wkw02Y/r06Z988onRaPzss88GDBiQkZGhuiI0dAsXLhwzZsxvv/02ZMiQnTt3PvTQQ6orAgDYKdIOgOqFhIR89dVX991336FDhwYOHDh79mzVFaGByszM9Pf312aXT5o0acuWLa6urqqLAgDYL+OFCxeqeu7atWsi0rhx4wqPm81mESksLLSwVlNYWOjg4FC7yqra3SqWi0hOTo7d9m7P77sN937fffdt2rTpjTfeWLdu3YIFC7744ou4uDjuEYny3nrrrZkzZ4qIo6PjG2+8MWHCBMv/mWjgv+arZcO/36tF70p2p3d6r//loq73wsJCETGZTNUmDsu7G93c3Ko6wmQyiYjRWHFum8FgEBFnZ2cLazWlpaXVHnO7u1vFchE5duyY3fZuz++7bffu5uaWnJycmJgYGRn53XffDRw4cNasWfPnz6/djrAlBw4ciIyM3L59u4g8+eSTcXFx3t7e1a5q+L/mLbPt3++W0buS3emd3ut/uajr3dnZWVtbx925kg3A7QkLCzty5Mizzz4rIgsWLPD29l65cqXqoqDM2bNnw8PDfXx8tm/f7ujoGB8f/z//8z81iToAANQD0o5emMkGG+bq6vrxxx//61//8vT0PHHixAsvvPDwww+vX79edV2oV7/99tucOXM6dOiwYsUKEXnqqaeOHDnyyiuvqK4LAIA/kHb0wkw22LywsLCTJ0/Gxsa2bNnyu+++Gzt27NChQ7VrmWDz/v73v3fo0CEmJsZsNg8YMGDz5s0pKSmc0gEANDSkHQB1MnPmzJMnT06fPl1Etm7d6u/vP3LkyM8++0x1XdDF5cuXFy9e3LFjx8jIyB9//LFbt24rVqzIyMh44oknVJcGAEAlSDt6KSgoUF0CUE+cnZ0XLVr073//e/LkySLy2WefjRw5slevXgkJCapLwx2TlZX12muvubm5zZgx4/jx4+3atVu+fPmhQ4e4bSgAoCEj7eglPz9fdQlAvfL09Pzggw/+85//vPrqq02bNs3MzHzppZfatm07Z86cs2fPqq4Otbd169axY8d27dp16dKlV69e9fHxee+9986cORMeHq66NAAAqkHaAXAnaZ+JL168uGjRIm9v7x9//DEmJubee+8NDg5mjIF1OX369OLFix966KGhQ4dq792IESM2bdq0f//+KVOm1PreCwAA1CfSjl6YyQZ71rJly+nTp2dnZycmJg4YMEBE1q1bN3bsWBcXl4iIiJ07d6ouEFW6cuXK6tWrhw0b5unpOWPGjP3794vIlClT9u/fv2nTphEjRqguEACA21D7Ow3BMmayASISGhoaGhq6d+/etWvXrl279ty5c/Hx8fHx8V26dAkJCQkJCencubPqGnHd559/rr1NxcXF2iMDBgwIDg4OCQnhr28AAFaKtANAd4888sgjjzwSFxenfZ7+5JNPsrKy3njjjTfeeKNbt27Dhg0LCAjw8/NTXaY9unjx4ubNm9PS0tLS0i5duqQ92LlzZy2LdunSRW15AADUEWlHLwUFBe7u7qqrABqW4cOHDx8+PCEhQTuHsHnz5sOHDx8+fHjx4sXOzs4BAQEBAQHDhg3jTILeMjMztZBT/qpCV1fXcePGhYSEaBcfAgBgA0g7emEmG1CVZs2aTZgwYcKECT/99FNaWpr2sbugoCApKSkpKUlEfH19BwwY0Ldv3379+t11112q67URx48f37Vr19dff/3ll1+eOHGi7PEePXoEBgYOGzaMkAMAsD2kHQDKtG7dOiwsLCwszGQyZWRkbN26NS0t7dChQxkZGRkZGdoxjz76aL9+/bTk4+rqqrZgq3P48GEt4ezatevkyZNljxsMhmHDhg0bNmzo0KH33Xef0ch/CwAAton/wumFS3GA2+Lr6zto0KCFCxdmZ2dv3bpV+4x+6tSpb7755ptvvomLixORbt269evXr0ePHj179uzRo4ejo6Pqqhucc+fOHTx48MCBA/v27du1a9fFixfLP1sWHQMCArR/eyaTSVGlAADUB9KOXpjJBtROx44dO3bs+PLLL4vI8ePHtfMSX3/9dVZWlvYln7IjH3zwwbLk06NHj7Zt26qrWpmsrKyDBw9qCefgwYO5ubnln23cuHHZmbG+ffu2aNFCVZ0AAChB2gHQcHl7e3t7ez/33HMikpub+/XXX+/du1f7WP/jjz8eOXLkyJEjiYmJ2sHt27fv1KlTxxvuv//+jh07Nm7cWGkHd1J+fn72zY4cOfLrr79WOKxz585aCOzbt2/fvn0bNeK+agAA+0Xa0Qsz2YA7y8PDY9y4cePGjdN+PHXqVNkJjQMHDpw4ceL06dOnT5/eunVr+VX33XdfWf7x8PDw8PC4++67PTw8GvJZjosXL+bm5p4/fz43N/fMmTNasPnhhx8KCgpuPbhJkyZlJ7i0/2/IrQEAUM9IO3phJhugK09PT09Pz1GjRomIyWQqLCz8z3/+U+HUx6+//nrixIkTJ05s2bKlwvJWrVqVDz8eHh6tKtOsWbM7WPOlyhQUFOTm5pbFm9zc3GvXrlX1Ch4eHto5K02nTp26du0qIowZAACgUkYLX1G1/O1Vs9lc7ddbTSZTrb8CW8fvzqpdLiLFxcV227s9v+/0rmR3k8n0pz/9acCAAb6+vg4ODtqDZrP57Nmz2dnZx48fz87OzsnJyb3hypUrWtI4duyY5Vdu2rSpFnuaNGnSuGolJSXXqvbbb79p25WWltawozZt2pSFMS3YeHt7d+zYsVWrVtqVaaWlpdqrFRcX1+HfnNW/7wqXC73Te73vTu+qlgu9q+jdbDaLSGlpaR13568D9WKfX5gGFCopKanwSLt27dq1a+fr61vh8cLCwtxyzp8/f+HChZ9//rnsfMvly5d//vlnEfn9998vXrxYYbJZXRgMhgqnj1q2bOnh4dGuXTuPcpo2bVpVj7e2CQAAqmKs9vqHqg4wGAw1WVvH6yusd7mbm5v1Fl/H5fb8vtO7qt1va7mrq6urq2v37t21H6//3c/Ny81mc/nrzSycurl27dovv/zSpk2bqs78ODo6asHGycnp1i/VVLq7fr3f8eVW9L7f8eX0rmp3tcvpXdXuapfTe/3vbjAYRMTBwaGuu9dlMQDYKoPB0Lp169atW9fk4Ly8PKaSAADQADGZVC+VTk8CAAAAUG9IO3phJhsAAACgFmkHAAAAgG0i7ejFxcVFdQkAAACAXSPt6KVNmzaqSwAAAADsGmkHAAAAgG0i7eiFmWwAAACAWqQdvTCTDQAAAFCLtAMAAADANpF29MJMNgAAAEAt0o5emMkGAAAAqEXaAQAAAGCbSDt6YSYbAAAAoBZpRy/MZAMAAADUIu0AAAAAsE2kHb0wkw0AAABQi7SjF2ayAQAAAGoZTSZTVc9ZeEpEzGaz5QO0V6j2mNrt3sCXS83+/ei0u/Le7fl9p3clu9O7quVC7/Re77vTu6rlQu/0Xr+7m81mESktLa3j7pzb0QtTCgAAAAC1jEajsdojKn3cYDDUZG21x9Ru94a/vKioyHqLr+Nye37f6V3V7mqX07uq3dUup3dVu6tdTu+qdle7nN7rf3eDwSAiDg4OddydczsAAAAAbBNpRy/MZAMAAADUIu3ohZlsAAAAgFqkHQAAAAC2ibSjl4KCAtUlAAAAAHaNtKMXJlADAAAAapF2AAAAANgm0o5emMkGAAAAqEXa0Qsz2QAAAAC1SDsAAAAAbBNpRy/MZAMAAADUIu3ohZlsAAAAgFqkHQAAAAC2ibSjF2ayAQAAAGqRdvTCTDYAAABALdIOAAAAANtE2tELM9kAAAAAtUg7emEmGwAAAKCW0WQyVfWchadExGw2Wz5Ae4Vqj6nd7g18uYgUFxfbbe/2/L7Tu5Ld6V3VcqF3eq/33eld1XKhd3qv393NZrOIlJaW1nF3zu3opW3btqpLAAAAAOya0Wg0VntEpY8bDIaarK32mNrt3vCXu7m5WW/xdVxuz+87vavaXe1yele1u9rl9K5qd7XL6V3V7mqX03v9724wGETEwcGhjrtzbgcAAACAbSLt6IWZbAAAAIBapB29MJMNAAAAUIu0AwAAAMA2kXb04uLioroEAAAAwK6RdvTSpk0b1SUAAAAAdo20AwAAAMA2kXb0wkw2AAAAQC3Sjl6YyQYAAACoRdoBAAAAYJtIO3phJhsAAACgFmlHL8xkAwAAANQi7QAAAACwTaQdvTCTDQAAAFCLtKMXZrIBAAAAapF2AAAAANgm0o5emMkGAAAAqEXa0Qsz2QAAAAC1SDsAAAAAbJPxwoULVT137do1EWncuHGFx81ms4gUFhZaWKspLCx0cHCoXWVV7W4Vy0UkJyfHbnu35/ed3pXsTu/0Xv/Lhd7pvd53p3d6r//loq73wsJCETGZTNUmDsu7G93c3Ko6wmQyiYjRaKzwuMFgEBFnZ2cLazWlpaXVHnO7u1vFchE5duyY3fZuz+87vSvZnd7pvf6XC73Te73vTu/0Xv/LRV3vzs7O2to67s6VbAAAAABsE2lHL8xkAwAAANQi7eiFmWwAAACAWqQdAAAAALaJtKOXgoIC1SUAAAAAdo20o5f8/HzVJQAAAAB2jbQDAAAAwDaRdvTCTDYAAABALdKOXpjJBgAAAKhF2gEAAABgm0g7emEmGwAAAKAWaUcvzGQDAAAA1CLtAAAAALBNpB29MJMNAAAAUIu0oxdmsgEAAABqkXYAAAAA2CbSjl6YyQYAAACoRdrRCzPZAAAAALWMJpOpqucsPCUiZrPZ8gHaK1R7TO12b+DLRaS4uNhue7fn953elexO76qWC73Te73vTu+qlgu903v97m42m0WktLS0jrtzbkcvbdu2VV0CAAAAYNeMRqOx2iMqfdxgMNRkbbXH1G73hr/czc3Neouv43J7ft/pXdXuapfTu6rd1S6nd1W7q11O76p2V7uc3ut/d4PBICIODg513J1zOwAAAABsE2lHL8xkAwAAANQi7eiFmWwAAACAWqQdAAAAALaJtKMXFxcX1SUAAAAAdo20o5c2bdqoLgEAAACwa6QdAAAAALaJtKMXZrIBAAAAapF29MJMNgAAAEAt0g4AAAAA20Ta0Qsz2QAAAAC1SDt6YSYbAAAAoBZpBwAAAIBtIu3ohZlsAAAAgFqkHb0wkw0AAABQi7QDAAAAwDaRdvTCTDYAAABALdKOXpjJBgAAAKhlNJlMVT1n4SkRMZvNlg/QXqHaY2q3ewNfLjX796PT7sp7t+f3nd6V7E7vqpYLvdN7ve9O76qWC73Te/3ubjabRaS0tLSOu3NuRy9MKQAAAADUMhqNxmqPqPRxg8FQk7XVHlO73Rv+8qKiIustvo7L7fl9p3dVu6tdTu+qdle7nN5V7a52Ob2r2l3tcnqv/90NBoOIODg41HF3zu0AAAAAsE2kHb0wkw0AAABQi7SjF2ayAQAAAGqRdgAAAADYJtKOXgoKClSXAAAAANg10o5emEANAAAAqEXaAQAAAGCbSDt6YSYbAAAAoBZpRy/MZAMAAADUIu0AAAAAsE2kHb0wkw0AAABQi7SjF2ayAQAAAGqRdgAAAADYJtKOXpjJBgAAAKhF2tELM9kAAAAAtUg7AAAAAGwTaUcvzGQDAAAA1CLt6IWZbAAAAIBaRpPJVNVzFp4SEbPZbPkA7RWqPaZ2uzfw5SJSXFxst73b8/tO70p2p3dVy4Xe6b3ed6d3VcuF3um9fnc3m80iUlpaWsfdObejl7Zt26ouAQAAALBrRqPRWO0RlT5uMBhqsrbaY2q3e8Nf7ubmZr3F13G5Pb/v9K5qd7XL6V3V7mqX07uq3dUup3dVu6tdTu/1v7vBYBARBweHOu7OuR0AAAAAtom0oxdmsgEAAABqkXb0wkw2AAAAQC3SDgAAAADbRNrRi4uLi+oSAAAAALtG2tFLmzZtVJcAAAAA2DXSDgAAAADbRNrRCzPZAAAAALVIO3phJhsAAACgFmkHAAAAgG0i7eiFmWwAAACAWqQdvTCTDQAAAFCLtAMAAADANpF29MJMNgAAAEAt0o5emMkGAAAAqEXaAQAAAGCbSDt6YSYbAAAAoBZpRy/MZAMAAADUMtZijYODg4i89tprTk5Olo8sLi5u0qRJbeoSKS0tLdvL6pYLvdN7ve9O7/Re/8uF3um93nend3qv/+VC7yp6Lyoqqt2mFRgvXLhQ1XPXrl0TkcaNG1d43GQyicjBgwfvSAUAAAAAcCuz2WwhrVimZRmjm5tbVUdoqcZorHj+57XXXqvheOVffvmlRYsWtauvpKRERBo1quW1dmqXi8ipU6c8PT2V7K68d3t+3+ldye70Tu/1v1zond7rfXd6p/f6Xy6qe3dxcbGQVizTsoyDdoLJwhG3pp2ay8vLc3d3r93aOu6udrmIZGRk+Pr6Ktldee/2/L7Tu5Ld6Z3e63+50Du91/vu9E7v9b9crL93phTohZlsAAAAgFqkHb0wkw0AAABQi7QDAAAAwDaRdvRSw0EOAAAAAHRC2tFLfn6+6hIAAAAAu0baAQAAAGCbSDt6YSYbAAAAoBZpRy/MZAMAAADUIu0AAAAAsE2kHb0wkw0AAABQi7SjF2ayAQAAAGqRdgAAAADYJtKOXpjJBgAAAKhF2tELM9kAAAAAtUg7AAAAAGwTaUcvzGQDAAAA1CLt6IWZbAAAAIBaRpPJVNVzFp6qIZPJVOsXqePuapeLSHFxsd32bs/vO70r2Z3eVS0Xeqf3et+d3lUtF3qn93rf/Y4s59yOXtq2bau6BAAAAMCuGY1GY7VH1OnV67C8jrurXe7m5ma9xddxuT2/7/Suane1y+ld1e5ql9O7qt3VLqd3VburXU7vqnav+3LO7QAAAACwTaQdvTCTDQAAAFCLtKMXZrIBAAAAapF2AAAAANgm0o5eXFxcVJcAAAAA2LX/Dyjo4IaQ0FyCAAAAAElFTkSuQmCC;" vertex="1" parent="1">
          <mxGeometry x="-50" y="1460" width="1103" height="1270" as="geometry" />
        </mxCell>
        <mxCell id="RQWH_JiwJ_7XKymC5kcm-50" value="搜索模块" style="shape=umlFrame;whiteSpace=wrap;html=1;pointerEvents=0;" vertex="1" parent="1">
          <mxGeometry x="630" y="530" width="460" height="320" as="geometry" />
        </mxCell>
        <mxCell id="RQWH_JiwJ_7XKymC5kcm-71" style="edgeStyle=orthogonalEdgeStyle;rounded=0;orthogonalLoop=1;jettySize=auto;html=1;entryX=0;entryY=0.5;entryDx=0;entryDy=0;" edge="1" parent="1" source="RQWH_JiwJ_7XKymC5kcm-52" target="RQWH_JiwJ_7XKymC5kcm-59">
          <mxGeometry relative="1" as="geometry" />
        </mxCell>
        <mxCell id="RQWH_JiwJ_7XKymC5kcm-72" style="edgeStyle=orthogonalEdgeStyle;rounded=0;orthogonalLoop=1;jettySize=auto;html=1;entryX=0;entryY=0.5;entryDx=0;entryDy=0;" edge="1" parent="1" source="RQWH_JiwJ_7XKymC5kcm-52" target="RQWH_JiwJ_7XKymC5kcm-58">
          <mxGeometry relative="1" as="geometry" />
        </mxCell>
        <mxCell id="RQWH_JiwJ_7XKymC5kcm-73" style="edgeStyle=orthogonalEdgeStyle;rounded=0;orthogonalLoop=1;jettySize=auto;html=1;entryX=0;entryY=0.5;entryDx=0;entryDy=0;" edge="1" parent="1" source="RQWH_JiwJ_7XKymC5kcm-52" target="RQWH_JiwJ_7XKymC5kcm-55">
          <mxGeometry relative="1" as="geometry" />
        </mxCell>
        <mxCell id="RQWH_JiwJ_7XKymC5kcm-74" style="edgeStyle=orthogonalEdgeStyle;rounded=0;orthogonalLoop=1;jettySize=auto;html=1;entryX=0;entryY=0.5;entryDx=0;entryDy=0;" edge="1" parent="1" source="RQWH_JiwJ_7XKymC5kcm-52" target="RQWH_JiwJ_7XKymC5kcm-56">
          <mxGeometry relative="1" as="geometry" />
        </mxCell>
        <mxCell id="RQWH_JiwJ_7XKymC5kcm-52" value="普通用户" style="shape=umlActor;verticalLabelPosition=bottom;verticalAlign=top;html=1;" vertex="1" parent="1">
          <mxGeometry x="690" y="610" width="30" height="60" as="geometry" />
        </mxCell>
        <mxCell id="RQWH_JiwJ_7XKymC5kcm-54" value="管理员" style="shape=umlActor;verticalLabelPosition=bottom;verticalAlign=top;html=1;" vertex="1" parent="1">
          <mxGeometry x="690" y="720" width="30" height="60" as="geometry" />
        </mxCell>
        <mxCell id="RQWH_JiwJ_7XKymC5kcm-55" value="删除待办" style="ellipse;whiteSpace=wrap;html=1;" vertex="1" parent="1">
          <mxGeometry x="830" y="715" width="100" height="45" as="geometry" />
        </mxCell>
        <mxCell id="RQWH_JiwJ_7XKymC5kcm-56" value="查询待办" style="ellipse;whiteSpace=wrap;html=1;" vertex="1" parent="1">
          <mxGeometry x="830" y="780" width="100" height="45" as="geometry" />
        </mxCell>
        <mxCell id="RQWH_JiwJ_7XKymC5kcm-58" value="修改待办" style="ellipse;whiteSpace=wrap;html=1;" vertex="1" parent="1">
          <mxGeometry x="830" y="650" width="100" height="45" as="geometry" />
        </mxCell>
        <mxCell id="RQWH_JiwJ_7XKymC5kcm-59" value="添加待办" style="ellipse;whiteSpace=wrap;html=1;" vertex="1" parent="1">
          <mxGeometry x="830" y="585" width="100" height="45" as="geometry" />
        </mxCell>
        <mxCell id="RQWH_JiwJ_7XKymC5kcm-76" style="edgeStyle=orthogonalEdgeStyle;rounded=0;orthogonalLoop=1;jettySize=auto;html=1;entryX=-0.037;entryY=0.514;entryDx=0;entryDy=0;entryPerimeter=0;" edge="1" parent="1" source="RQWH_JiwJ_7XKymC5kcm-54" target="RQWH_JiwJ_7XKymC5kcm-56">
          <mxGeometry relative="1" as="geometry" />
        </mxCell>
      </root>
    </mxGraphModel>
  </diagram>
</mxfile>
